  0
SECTION
  2
HEADER
  9
$ACADVER
  1
AC1009
  9
$FILLMODE
 70
0
  9
$EXTMIN
 10
-4.0485
 20
-0.2032
 30
0.0000
  9
$EXTMAX
 10
99.7565
 20
64.2032
 30
0.0000
  0
ENDSEC
  0
SECTION
  2
TABLES
  0
TABLE
  2
LTYPE
 70
1
  0
LTYPE
  2
CONTINUOUS
 70
64
  3
Solid line
 72
65
 73
0
 40
0
  0
ENDTAB
  0
TABLE
  2
LAYER
 70
255
  0
LAYER
  2
17
 70
64
 62
94
  6
CONTINUOUS
  0
LAYER
  2
20
 70
64
 62
6
  6
CONTINUOUS
  0
LAYER
  2
23
 70
64
 62
178
  6
CONTINUOUS
  0
LAYER
  2
24
 70
64
 62
178
  6
CONTINUOUS
  0
ENDTAB
  0
ENDSEC
  0
SECTION
  2
BLOCKS
  0
BLOCK
  8
0
  2
RECT
 70
64
 10
0.0000
 20
0.0000
 30
0.0000
  3
RECT
  0
SOLID
  8
0
 10
-0.5000
 20
-0.5000
 30
0.0000
 11
0.5000
 21
-0.5000
 31
0.0000
 12
-0.5000
 22
0.5000
 32
0.0000
 13
0.5000
 23
0.5000
 33
0.0000
  0
ENDBLK
  8
0
  0
BLOCK
  8
0
  2
PIE
 70
64
 10
0.0000
 20
0.0000
 30
0.0000
  3
PIE
  0
CIRCLE
  8
0
 10
0.0000
 20
0.0000
 30
0.0000
 40
0.5000
  0
ENDBLK
  8
0
  0
BLOCK
  8
0
  2
OCTAGONP
 70
64
 10
0.0000
 20
0.0000
 30
0.0000
  3
OCTAGONP
  0
POLYLINE
  8
0
 66
1
 10
0.0000
 20
0.0000
 30
0.0000
 40
0.0000
 41
0.0000
 70
1
  0
VERTEX
  8
0
 10
-0.5000
 20
-0.2071
 30
0.0000
  0
VERTEX
  8
0
 10
-0.5000
 20
0.2071
 30
0.0000
  0
VERTEX
  8
0
 10
-0.2071
 20
0.5000
 30
0.0000
  0
VERTEX
  8
0
 10
0.2071
 20
0.5000
 30
0.0000
  0
VERTEX
  8
0
 10
0.5000
 20
0.2071
 30
0.0000
  0
VERTEX
  8
0
 10
0.5000
 20
-0.2071
 30
0.0000
  0
VERTEX
  8
0
 10
0.2071
 20
-0.5000
 30
0.0000
  0
VERTEX
  8
0
 10
-0.2071
 20
-0.5000
 30
0.0000
  0
SEQEND
  8
0
  0
ENDBLK
  8
0
  0
BLOCK
  8
0
  2
SQUAREP
 70
64
 10
0.0000
 20
0.0000
 30
0.0000
  3
SQUAREP
  0
SOLID
  8
0
 10
-0.5000
 20
-0.5000
 30
0.0000
 11
0.5000
 21
-0.5000
 31
0.0000
 12
-0.5000
 22
0.5000
 32
0.0000
 13
0.5000
 23
0.5000
 33
0.0000
  0
ENDBLK
  8
0
  0
BLOCK
  8
0
  2
ROUNDP
 70
64
 10
0.0000
 20
0.0000
 30
0.0000
  3
ROUNDP
  0
CIRCLE
  8
0
 10
0.0000
 20
0.0000
 30
0.0000
 40
0.5000
  0
ENDBLK
  8
0
  0
BLOCK
  8
0
  2
ANNULUSP
 70
64
 10
0.0000
 20
0.0000
 30
0.0000
  3
ANNULUSP
  0
CIRCLE
  8
0
 10
0.0000
 20
0.0000
 30
0.0000
 40
0.5000
  0
ENDBLK
  8
0
  0
BLOCK
  8
0
  2
THERMALP
 70
64
 10
0.0000
 20
0.0000
 30
0.0000
  3
THERMALP
  0
LINE
  8
0
 10
-0.2379
 20
0.4500
 30
0.0000
 11
0.2379
 21
0.4500
 31
0.0000
  0
LINE
  8
0
 10
0.4500
 20
0.2379
 30
0.0000
 11
0.4500
 21
-0.2379
 31
0.0000
  0
LINE
  8
0
 10
0.2379
 20
-0.4500
 30
0.0000
 11
-0.2379
 21
-0.4500
 31
0.0000
  0
LINE
  8
0
 10
-0.4500
 20
-0.2379
 30
0.0000
 11
-0.4500
 21
0.2379
 31
0.0000
  0
ENDBLK
  8
0
  0
BLOCK
  8
0
  2
OCTAGONV
 70
64
 10
0.0000
 20
0.0000
 30
0.0000
  3
OCTAGONV
  0
POLYLINE
  8
0
 66
1
 10
0.0000
 20
0.0000
 30
0.0000
 40
0.0000
 41
0.0000
 70
1
  0
VERTEX
  8
0
 10
-0.5000
 20
-0.2071
 30
0.0000
  0
VERTEX
  8
0
 10
-0.5000
 20
0.2071
 30
0.0000
  0
VERTEX
  8
0
 10
-0.2071
 20
0.5000
 30
0.0000
  0
VERTEX
  8
0
 10
0.2071
 20
0.5000
 30
0.0000
  0
VERTEX
  8
0
 10
0.5000
 20
0.2071
 30
0.0000
  0
VERTEX
  8
0
 10
0.5000
 20
-0.2071
 30
0.0000
  0
VERTEX
  8
0
 10
0.2071
 20
-0.5000
 30
0.0000
  0
VERTEX
  8
0
 10
-0.2071
 20
-0.5000
 30
0.0000
  0
SEQEND
  8
0
  0
ENDBLK
  8
0
  0
BLOCK
  8
0
  2
SQUAREV
 70
64
 10
0.0000
 20
0.0000
 30
0.0000
  3
SQUAREV
  0
SOLID
  8
0
 10
-0.5000
 20
-0.5000
 30
0.0000
 11
0.5000
 21
-0.5000
 31
0.0000
 12
-0.5000
 22
0.5000
 32
0.0000
 13
0.5000
 23
0.5000
 33
0.0000
  0
ENDBLK
  8
0
  0
BLOCK
  8
0
  2
ROUNDV
 70
64
 10
0.0000
 20
0.0000
 30
0.0000
  3
ROUNDV
  0
CIRCLE
  8
0
 10
0.0000
 20
0.0000
 30
0.0000
 40
0.5000
  0
ENDBLK
  8
0
  0
BLOCK
  8
0
  2
ANNULUSV
 70
64
 10
0.0000
 20
0.0000
 30
0.0000
  3
ANNULUSV
  0
CIRCLE
  8
0
 10
0.0000
 20
0.0000
 30
0.0000
 40
0.5000
  0
ENDBLK
  8
0
  0
BLOCK
  8
0
  2
THERMALV
 70
64
 10
0.0000
 20
0.0000
 30
0.0000
  3
THERMALV
  0
LINE
  8
0
 10
-0.2379
 20
0.4500
 30
0.0000
 11
0.2379
 21
0.4500
 31
0.0000
  0
LINE
  8
0
 10
0.4500
 20
0.2379
 30
0.0000
 11
0.4500
 21
-0.2379
 31
0.0000
  0
LINE
  8
0
 10
0.2379
 20
-0.4500
 30
0.0000
 11
-0.2379
 21
-0.4500
 31
0.0000
  0
LINE
  8
0
 10
-0.4500
 20
-0.2379
 30
0.0000
 11
-0.4500
 21
0.2379
 31
0.0000
  0
ENDBLK
  8
0
  0
BLOCK
  8
0
  2
LONGP100
 70
64
 10
0.0000
 20
0.0000
 30
0.0000
  3
LONGP100
  0
POLYLINE
  8
0
 66
1
 10
0.0000
 20
0.0000
 30
0.0000
 40
0.0000
 41
0.0000
 70
1
  0
VERTEX
  8
0
 10
-0.5000
 20
-0.5000
 30
0.0000
  0
VERTEX
  8
0
 10
0.5000
 20
-0.5000
 30
0.0000
 42
1.0000
  0
VERTEX
  8
0
 10
0.5000
 20
0.5000
 30
0.0000
  0
VERTEX
  8
0
 10
-0.5000
 20
0.5000
 30
0.0000
 42
1.0000
  0
SEQEND
  8
0
  0
ENDBLK
  8
0
  0
ENDSEC
  0
SECTION
  2
ENTITIES
  0
LINE
  8
20
 10
95.0000
 20
0.0000
 30
0.0000
 11
2.0000
 21
0.0000
 31
0.0000
  0
ARC
  8
20
 10
2.0000
 20
2.0000
 30
0.0000
 40
2.0000
 50
180.0000
 51
270.0000
  0
LINE
  8
20
 10
0.0000
 20
2.0000
 30
0.0000
 11
0.0000
 21
62.0000
 31
0.0000
  0
ARC
  8
20
 10
2.0000
 20
62.0000
 30
0.0000
 40
2.0000
 50
90.0000
 51
180.0000
  0
LINE
  8
20
 10
2.0000
 20
64.0000
 30
0.0000
 11
95.0000
 21
64.0000
 31
0.0000
  0
ARC
  8
20
 10
95.0000
 20
62.0000
 30
0.0000
 40
2.0000
 50
0.0000
 51
90.0000
  0
LINE
  8
20
 10
97.0000
 20
62.0000
 30
0.0000
 11
97.0000
 21
2.0000
 31
0.0000
  0
ARC
  8
20
 10
95.0000
 20
2.0000
 30
0.0000
 40
2.0000
 50
270.0000
 51
0.0000
  0
ARC
  8
20
 10
17.0000
 20
57.5000
 30
0.0000
 40
0.5000
 50
270.0000
 51
0.0000
  0
LINE
  8
20
 10
17.0000
 20
57.0000
 30
0.0000
 11
3.5000
 21
57.0000
 31
0.0000
  0
ARC
  8
20
 10
3.5000
 20
57.5000
 30
0.0000
 40
0.5000
 50
180.0000
 51
270.0000
  0
ARC
  8
20
 10
3.5000
 20
57.5000
 30
0.0000
 40
0.5000
 50
90.0000
 51
180.0000
  0
LINE
  8
20
 10
3.5000
 20
58.0000
 30
0.0000
 11
17.0000
 21
58.0000
 31
0.0000
  0
ARC
  8
20
 10
17.0000
 20
57.5000
 30
0.0000
 40
0.5000
 50
0.0000
 51
90.0000
  0
ARC
  8
20
 10
17.0000
 20
52.5000
 30
0.0000
 40
0.5000
 50
270.0000
 51
0.0000
  0
LINE
  8
20
 10
17.0000
 20
52.0000
 30
0.0000
 11
3.5000
 21
52.0000
 31
0.0000
  0
ARC
  8
20
 10
3.5000
 20
52.5000
 30
0.0000
 40
0.5000
 50
180.0000
 51
270.0000
  0
ARC
  8
20
 10
3.5000
 20
52.5000
 30
0.0000
 40
0.5000
 50
90.0000
 51
180.0000
  0
LINE
  8
20
 10
3.5000
 20
53.0000
 30
0.0000
 11
17.0000
 21
53.0000
 31
0.0000
  0
ARC
  8
20
 10
17.0000
 20
52.5000
 30
0.0000
 40
0.5000
 50
0.0000
 51
90.0000
  0
ARC
  8
20
 10
36.5000
 20
57.0000
 30
0.0000
 40
0.5000
 50
270.0000
 51
0.0000
  0
LINE
  8
20
 10
36.5000
 20
56.5000
 30
0.0000
 11
31.5000
 21
56.5000
 31
0.0000
  0
ARC
  8
20
 10
31.5000
 20
57.0000
 30
0.0000
 40
0.5000
 50
180.0000
 51
270.0000
  0
ARC
  8
20
 10
31.5000
 20
57.0000
 30
0.0000
 40
0.5000
 50
90.0000
 51
180.0000
  0
LINE
  8
20
 10
31.5000
 20
57.5000
 30
0.0000
 11
36.5000
 21
57.5000
 31
0.0000
  0
ARC
  8
20
 10
36.5000
 20
57.0000
 30
0.0000
 40
0.5000
 50
0.0000
 51
90.0000
  0
ARC
  8
20
 10
36.5000
 20
53.0000
 30
0.0000
 40
0.5000
 50
270.0000
 51
0.0000
  0
LINE
  8
20
 10
36.5000
 20
52.5000
 30
0.0000
 11
31.5000
 21
52.5000
 31
0.0000
  0
ARC
  8
20
 10
31.5000
 20
53.0000
 30
0.0000
 40
0.5000
 50
180.0000
 51
270.0000
  0
ARC
  8
20
 10
31.5000
 20
53.0000
 30
0.0000
 40
0.5000
 50
90.0000
 51
180.0000
  0
LINE
  8
20
 10
31.5000
 20
53.5000
 30
0.0000
 11
36.5000
 21
53.5000
 31
0.0000
  0
ARC
  8
20
 10
36.5000
 20
53.0000
 30
0.0000
 40
0.5000
 50
0.0000
 51
90.0000
  0
ARC
  8
20
 10
50.9000
 20
57.1000
 30
0.0000
 40
0.5000
 50
180.0000
 51
270.0000
  0
LINE
  8
20
 10
50.9000
 20
56.6000
 30
0.0000
 11
55.9000
 21
56.6000
 31
0.0000
  0
ARC
  8
20
 10
55.9000
 20
55.1000
 30
0.0000
 40
1.5000
 50
0.0000
 51
90.0000
  0
ARC
  8
20
 10
55.9000
 20
55.1000
 30
0.0000
 40
1.5000
 50
270.0000
 51
0.0000
  0
LINE
  8
20
 10
55.9000
 20
53.6000
 30
0.0000
 11
50.9000
 21
53.6000
 31
0.0000
  0
ARC
  8
20
 10
50.9000
 20
53.1000
 30
0.0000
 40
0.5000
 50
90.0000
 51
180.0000
  0
ARC
  8
20
 10
50.9000
 20
53.1000
 30
0.0000
 40
0.5000
 50
180.0000
 51
270.0000
  0
LINE
  8
20
 10
50.9000
 20
52.6000
 30
0.0000
 11
55.9000
 21
52.6000
 31
0.0000
  0
ARC
  8
20
 10
55.9000
 20
55.1000
 30
0.0000
 40
2.5000
 50
270.0000
 51
0.0000
  0
ARC
  8
20
 10
55.9000
 20
55.1000
 30
0.0000
 40
2.5000
 50
0.0000
 51
90.0000
  0
LINE
  8
20
 10
55.9000
 20
57.6000
 30
0.0000
 11
50.9000
 21
57.6000
 31
0.0000
  0
ARC
  8
20
 10
50.9000
 20
57.1000
 30
0.0000
 40
0.5000
 50
90.0000
 51
180.0000
  0
ARC
  8
20
 10
43.5000
 20
59.2000
 30
0.0000
 40
0.5000
 50
270.0000
 51
0.0000
  0
LINE
  8
20
 10
43.5000
 20
58.7000
 30
0.0000
 11
39.5000
 21
58.7000
 31
0.0000
  0
ARC
  8
20
 10
39.5000
 20
59.2000
 30
0.0000
 40
0.5000
 50
180.0000
 51
270.0000
  0
ARC
  8
20
 10
39.5000
 20
59.2000
 30
0.0000
 40
0.5000
 50
90.0000
 51
180.0000
  0
LINE
  8
20
 10
39.5000
 20
59.7000
 30
0.0000
 11
43.5000
 21
59.7000
 31
0.0000
  0
ARC
  8
20
 10
43.5000
 20
59.2000
 30
0.0000
 40
0.5000
 50
0.0000
 51
90.0000
  0
ARC
  8
20
 10
38.9000
 20
51.1000
 30
0.0000
 40
0.5000
 50
180.0000
 51
270.0000
  0
LINE
  8
20
 10
38.9000
 20
50.6000
 30
0.0000
 11
41.9000
 21
50.6000
 31
0.0000
  0
ARC
  8
20
 10
41.9000
 20
49.1000
 30
0.0000
 40
1.5000
 50
0.0000
 51
90.0000
  0
ARC
  8
20
 10
41.9000
 20
49.1000
 30
0.0000
 40
1.5000
 50
270.0000
 51
0.0000
  0
LINE
  8
20
 10
41.9000
 20
47.6000
 30
0.0000
 11
38.9000
 21
47.6000
 31
0.0000
  0
ARC
  8
20
 10
38.9000
 20
47.1000
 30
0.0000
 40
0.5000
 50
90.0000
 51
180.0000
  0
ARC
  8
20
 10
38.9000
 20
47.1000
 30
0.0000
 40
0.5000
 50
180.0000
 51
270.0000
  0
LINE
  8
20
 10
38.9000
 20
46.6000
 30
0.0000
 11
41.9000
 21
46.6000
 31
0.0000
  0
ARC
  8
20
 10
41.9000
 20
49.1000
 30
0.0000
 40
2.5000
 50
270.0000
 51
0.0000
  0
ARC
  8
20
 10
41.9000
 20
49.1000
 30
0.0000
 40
2.5000
 50
0.0000
 51
90.0000
  0
LINE
  8
20
 10
41.9000
 20
51.6000
 30
0.0000
 11
38.9000
 21
51.6000
 31
0.0000
  0
ARC
  8
20
 10
38.9000
 20
51.1000
 30
0.0000
 40
0.5000
 50
90.0000
 51
180.0000
  0
CIRCLE
  8
20
 10
93.0000
 20
60.0000
 30
0.0000
 40
1.5500
  0
CIRCLE
  8
20
 10
16.0000
 20
4.0000
 30
0.0000
 40
1.5500
  0
CIRCLE
  8
20
 10
56.0000
 20
4.0000
 30
0.0000
 40
1.5500
  0
POINT
  8
23
 10
14.0880
 20
11.8840
 30
0.0000
  0
POINT
  8
23
 10
66.1000
 20
42.2500
 30
0.0000
  0
POINT
  8
23
 10
77.7000
 20
42.2500
 30
0.0000
  0
POINT
  8
23
 10
75.0000
 20
42.2500
 30
0.0000
  0
POINT
  8
23
 10
89.2500
 20
33.2500
 30
0.0000
  0
POINT
  8
23
 10
87.5000
 20
33.2500
 30
0.0000
  0
POINT
  8
23
 10
86.0000
 20
61.0000
 30
0.0000
  0
POINT
  8
23
 10
61.2500
 20
49.7500
 30
0.0000
  0
POINT
  8
23
 10
79.0000
 20
60.0000
 30
0.0000
  0
POINT
  8
23
 10
11.0000
 20
21.0000
 30
0.0000
  0
POINT
  8
23
 10
88.0000
 20
28.4500
 30
0.0000
  0
POINT
  8
23
 10
23.0000
 20
55.0000
 30
0.0000
  0
INSERT
  8
17
  2
LONGP100
 10
11.5700
 20
55.0000
 30
0.0000
 41
1.9812
 42
1.9812
 43
1.0000
 50
0.0000
  0
INSERT
  8
17
  2
LONGP100
 10
11.5700
 20
55.0000
 30
0.0000
 41
1.9812
 42
1.9812
 43
1.0000
 50
0.0000
  0
INSERT
  8
17
  2
LONGP100
 10
34.4300
 20
55.0000
 30
0.0000
 41
1.9812
 42
1.9812
 43
1.0000
 50
0.0000
  0
INSERT
  8
17
  2
LONGP100
 10
34.4300
 20
55.0000
 30
0.0000
 41
1.9812
 42
1.9812
 43
1.0000
 50
0.0000
  0
POINT
  8
23
 10
95.0000
 20
23.5720
 30
0.0000
  0
POINT
  8
23
 10
70.5000
 20
42.2500
 30
0.0000
  0
POINT
  8
23
 10
3.0000
 20
30.0000
 30
0.0000
  0
INSERT
  8
17
  2
ROUNDP
 10
9.9850
 20
30.8890
 30
0.0000
 41
3.5160
 42
3.5160
 43
1.0000
 50
90.0000
  0
INSERT
  8
17
  2
ROUNDP
 10
9.9850
 20
30.8890
 30
0.0000
 41
3.5160
 42
3.5160
 43
1.0000
 50
90.0000
  0
INSERT
  8
17
  2
ROUNDP
 10
3.7620
 20
30.8890
 30
0.0000
 41
3.5160
 42
3.5160
 43
1.0000
 50
90.0000
  0
INSERT
  8
17
  2
ROUNDP
 10
3.7620
 20
30.8890
 30
0.0000
 41
3.5160
 42
3.5160
 43
1.0000
 50
90.0000
  0
INSERT
  8
17
  2
ROUNDP
 10
6.8100
 20
25.9360
 30
0.0000
 41
3.5160
 42
3.5160
 43
1.0000
 50
180.0000
  0
INSERT
  8
17
  2
ROUNDP
 10
6.8100
 20
25.9360
 30
0.0000
 41
3.5160
 42
3.5160
 43
1.0000
 50
180.0000
  0
POINT
  8
23
 10
32.0000
 20
5.0000
 30
0.0000
  0
INSERT
  8
17
  2
ROUNDP
 10
28.1900
 20
5.0000
 30
0.0000
 41
1.9304
 42
1.9304
 43
1.0000
 50
90.0000
  0
INSERT
  8
17
  2
ROUNDP
 10
28.1900
 20
5.0000
 30
0.0000
 41
1.9304
 42
1.9304
 43
1.0000
 50
90.0000
  0
INSERT
  8
17
  2
ROUNDP
 10
30.7300
 20
5.0000
 30
0.0000
 41
1.9304
 42
1.9304
 43
1.0000
 50
90.0000
  0
INSERT
  8
17
  2
ROUNDP
 10
30.7300
 20
5.0000
 30
0.0000
 41
1.9304
 42
1.9304
 43
1.0000
 50
90.0000
  0
INSERT
  8
17
  2
ROUNDP
 10
33.2700
 20
5.0000
 30
0.0000
 41
1.9304
 42
1.9304
 43
1.0000
 50
90.0000
  0
INSERT
  8
17
  2
ROUNDP
 10
33.2700
 20
5.0000
 30
0.0000
 41
1.9304
 42
1.9304
 43
1.0000
 50
90.0000
  0
INSERT
  8
17
  2
ROUNDP
 10
35.8100
 20
5.0000
 30
0.0000
 41
1.9304
 42
1.9304
 43
1.0000
 50
90.0000
  0
INSERT
  8
17
  2
ROUNDP
 10
35.8100
 20
5.0000
 30
0.0000
 41
1.9304
 42
1.9304
 43
1.0000
 50
90.0000
  0
POINT
  8
23
 10
6.0000
 20
60.0000
 30
0.0000
  0
INSERT
  8
17
  2
SQUAREP
 10
6.0000
 20
60.0000
 30
0.0000
 41
2.4130
 42
2.4130
 43
1.0000
 50
270.0000
  0
INSERT
  8
17
  2
SQUAREP
 10
6.0000
 20
60.0000
 30
0.0000
 41
2.4130
 42
2.4130
 43
1.0000
 50
270.0000
  0
INSERT
  8
17
  2
ROUNDP
 10
6.0000
 20
55.0000
 30
0.0000
 41
2.4130
 42
2.4130
 43
1.0000
 50
270.0000
  0
INSERT
  8
17
  2
ROUNDP
 10
6.0000
 20
55.0000
 30
0.0000
 41
2.4130
 42
2.4130
 43
1.0000
 50
270.0000
  0
INSERT
  8
17
  2
ROUNDP
 10
6.0000
 20
50.0000
 30
0.0000
 41
2.4130
 42
2.4130
 43
1.0000
 50
270.0000
  0
INSERT
  8
17
  2
ROUNDP
 10
6.0000
 20
50.0000
 30
0.0000
 41
2.4130
 42
2.4130
 43
1.0000
 50
270.0000
  0
POINT
  8
23
 10
6.0000
 20
10.0000
 30
0.0000
  0
INSERT
  8
17
  2
SQUAREP
 10
6.0000
 20
10.0000
 30
0.0000
 41
2.0320
 42
2.0320
 43
1.0000
 50
270.0000
  0
INSERT
  8
17
  2
SQUAREP
 10
6.0000
 20
10.0000
 30
0.0000
 41
2.0320
 42
2.0320
 43
1.0000
 50
270.0000
  0
INSERT
  8
17
  2
ROUNDP
 10
6.0000
 20
5.0000
 30
0.0000
 41
2.0320
 42
2.0320
 43
1.0000
 50
270.0000
  0
INSERT
  8
17
  2
ROUNDP
 10
6.0000
 20
5.0000
 30
0.0000
 41
2.0320
 42
2.0320
 43
1.0000
 50
270.0000
  0
POINT
  8
23
 10
6.0000
 20
42.7000
 30
0.0000
  0
INSERT
  8
17
  2
SQUAREP
 10
6.0000
 20
42.7000
 30
0.0000
 41
2.0320
 42
2.0320
 43
1.0000
 50
270.0000
  0
INSERT
  8
17
  2
SQUAREP
 10
6.0000
 20
42.7000
 30
0.0000
 41
2.0320
 42
2.0320
 43
1.0000
 50
270.0000
  0
INSERT
  8
17
  2
ROUNDP
 10
6.0000
 20
37.7000
 30
0.0000
 41
2.0320
 42
2.0320
 43
1.0000
 50
270.0000
  0
INSERT
  8
17
  2
ROUNDP
 10
6.0000
 20
37.7000
 30
0.0000
 41
2.0320
 42
2.0320
 43
1.0000
 50
270.0000
  0
POINT
  8
24
 10
81.0000
 20
54.0000
 30
0.0000
  0
POINT
  8
23
 10
24.8420
 20
39.7940
 30
0.0000
  0
POINT
  8
24
 10
81.0000
 20
32.0000
 30
0.0000
  0
INSERT
  8
17
  2
ROUNDP
 10
92.6300
 20
31.0050
 30
0.0000
 41
1.7780
 42
1.7780
 43
1.0000
 50
270.0000
  0
INSERT
  8
17
  2
ROUNDP
 10
92.6300
 20
31.0050
 30
0.0000
 41
1.7780
 42
1.7780
 43
1.0000
 50
270.0000
  0
INSERT
  8
17
  2
ROUNDP
 10
92.6300
 20
28.4650
 30
0.0000
 41
1.7780
 42
1.7780
 43
1.0000
 50
180.0000
  0
INSERT
  8
17
  2
ROUNDP
 10
92.6300
 20
28.4650
 30
0.0000
 41
1.7780
 42
1.7780
 43
1.0000
 50
180.0000
  0
INSERT
  8
17
  2
ROUNDP
 10
92.6300
 20
33.5450
 30
0.0000
 41
1.7780
 42
1.7780
 43
1.0000
 50
270.0000
  0
INSERT
  8
17
  2
ROUNDP
 10
92.6300
 20
33.5450
 30
0.0000
 41
1.7780
 42
1.7780
 43
1.0000
 50
270.0000
  0
INSERT
  8
17
  2
ROUNDP
 10
92.6300
 20
36.0850
 30
0.0000
 41
1.7780
 42
1.7780
 43
1.0000
 50
270.0000
  0
INSERT
  8
17
  2
ROUNDP
 10
92.6300
 20
36.0850
 30
0.0000
 41
1.7780
 42
1.7780
 43
1.0000
 50
270.0000
  0
POINT
  8
23
 10
84.0000
 20
33.2500
 30
0.0000
  0
POINT
  8
23
 10
82.2500
 20
33.2500
 30
0.0000
  0
POINT
  8
23
 10
80.5000
 20
33.2500
 30
0.0000
  0
POINT
  8
23
 10
78.7500
 20
33.2500
 30
0.0000
  0
POINT
  8
23
 10
77.0000
 20
33.2500
 30
0.0000
  0
POINT
  8
23
 10
75.2500
 20
33.2500
 30
0.0000
  0
POINT
  8
23
 10
73.5000
 20
33.2500
 30
0.0000
  0
POINT
  8
23
 10
71.7500
 20
33.2500
 30
0.0000
  0
POINT
  8
23
 10
60.0000
 20
55.0000
 30
0.0000
  0
POINT
  8
23
 10
62.0000
 20
55.0000
 30
0.0000
  0
POINT
  8
23
 10
82.0000
 20
57.0000
 30
0.0000
  0
POINT
  8
23
 10
19.2230
 20
40.2540
 30
0.0000
  0
POINT
  8
23
 10
48.0000
 20
55.0000
 30
0.0000
  0
INSERT
  8
17
  2
ROUNDP
 10
53.3900
 20
61.1200
 30
0.0000
 41
1.4080
 42
1.4080
 43
1.0000
 50
180.0000
  0
INSERT
  8
17
  2
ROUNDP
 10
53.3900
 20
61.1200
 30
0.0000
 41
1.4080
 42
1.4080
 43
1.0000
 50
180.0000
  0
INSERT
  8
17
  2
ROUNDP
 10
53.3900
 20
49.1200
 30
0.0000
 41
1.4080
 42
1.4080
 43
1.0000
 50
180.0000
  0
INSERT
  8
17
  2
ROUNDP
 10
53.3900
 20
49.1200
 30
0.0000
 41
1.4080
 42
1.4080
 43
1.0000
 50
180.0000
  0
INSERT
  8
17
  2
ROUNDP
 10
55.3900
 20
55.1200
 30
0.0000
 41
1.4080
 42
1.4080
 43
1.0000
 50
180.0000
  0
INSERT
  8
17
  2
ROUNDP
 10
55.3900
 20
55.1200
 30
0.0000
 41
1.4080
 42
1.4080
 43
1.0000
 50
180.0000
  0
INSERT
  8
17
  2
ROUNDP
 10
41.3900
 20
49.1200
 30
0.0000
 41
1.4080
 42
1.4080
 43
1.0000
 50
180.0000
  0
INSERT
  8
17
  2
ROUNDP
 10
41.3900
 20
49.1200
 30
0.0000
 41
1.4080
 42
1.4080
 43
1.0000
 50
180.0000
  0
INSERT
  8
17
  2
ROUNDP
 10
41.3900
 20
61.1200
 30
0.0000
 41
1.4080
 42
1.4080
 43
1.0000
 50
180.0000
  0
INSERT
  8
17
  2
ROUNDP
 10
41.3900
 20
61.1200
 30
0.0000
 41
1.4080
 42
1.4080
 43
1.0000
 50
180.0000
  0
POINT
  8
23
 10
95.0000
 20
16.5880
 30
0.0000
  0
POINT
  8
24
 10
36.0000
 20
27.0000
 30
0.0000
  0
INSERT
  8
17
  2
SQUAREP
 10
64.4400
 20
36.1200
 30
0.0000
 41
1.6764
 42
1.6764
 43
1.0000
 50
90.0000
  0
INSERT
  8
17
  2
SQUAREP
 10
64.4400
 20
36.1200
 30
0.0000
 41
1.6764
 42
1.6764
 43
1.0000
 50
90.0000
  0
INSERT
  8
17
  2
ROUNDP
 10
64.2900
 20
33.5800
 30
0.0000
 41
1.6764
 42
1.6764
 43
1.0000
 50
90.0000
  0
INSERT
  8
17
  2
ROUNDP
 10
64.2900
 20
33.5800
 30
0.0000
 41
1.6764
 42
1.6764
 43
1.0000
 50
90.0000
  0
INSERT
  8
17
  2
ROUNDP
 10
64.4400
 20
31.0400
 30
0.0000
 41
1.6764
 42
1.6764
 43
1.0000
 50
90.0000
  0
INSERT
  8
17
  2
ROUNDP
 10
64.4400
 20
31.0400
 30
0.0000
 41
1.6764
 42
1.6764
 43
1.0000
 50
90.0000
  0
INSERT
  8
17
  2
ROUNDP
 10
64.2900
 20
28.5000
 30
0.0000
 41
1.6764
 42
1.6764
 43
1.0000
 50
90.0000
  0
INSERT
  8
17
  2
ROUNDP
 10
64.2900
 20
28.5000
 30
0.0000
 41
1.6764
 42
1.6764
 43
1.0000
 50
90.0000
  0
INSERT
  8
17
  2
ROUNDP
 10
64.4400
 20
25.9600
 30
0.0000
 41
1.6764
 42
1.6764
 43
1.0000
 50
90.0000
  0
INSERT
  8
17
  2
ROUNDP
 10
64.4400
 20
25.9600
 30
0.0000
 41
1.6764
 42
1.6764
 43
1.0000
 50
90.0000
  0
INSERT
  8
17
  2
ROUNDP
 10
64.2900
 20
23.4200
 30
0.0000
 41
1.6764
 42
1.6764
 43
1.0000
 50
90.0000
  0
INSERT
  8
17
  2
ROUNDP
 10
64.2900
 20
23.4200
 30
0.0000
 41
1.6764
 42
1.6764
 43
1.0000
 50
90.0000
  0
INSERT
  8
17
  2
ROUNDP
 10
64.4400
 20
20.8800
 30
0.0000
 41
1.6764
 42
1.6764
 43
1.0000
 50
90.0000
  0
INSERT
  8
17
  2
ROUNDP
 10
64.4400
 20
20.8800
 30
0.0000
 41
1.6764
 42
1.6764
 43
1.0000
 50
90.0000
  0
INSERT
  8
17
  2
ROUNDP
 10
64.2900
 20
18.3400
 30
0.0000
 41
1.6764
 42
1.6764
 43
1.0000
 50
90.0000
  0
INSERT
  8
17
  2
ROUNDP
 10
64.2900
 20
18.3400
 30
0.0000
 41
1.6764
 42
1.6764
 43
1.0000
 50
90.0000
  0
POINT
  8
23
 10
92.2000
 20
48.0000
 30
0.0000
  0
CIRCLE
  8
20
 10
95.6070
 20
43.1140
 30
0.0000
 40
0.4445
  0
CIRCLE
  8
20
 10
95.6070
 20
51.1140
 30
0.0000
 40
0.4445
  0
POINT
  8
24
 10
91.9480
 20
54.1180
 30
0.0000
  0
POINT
  8
24
 10
91.9480
 20
50.8160
 30
0.0000
  0
POINT
  8
23
 10
71.0000
 20
55.0000
 30
0.0000
  0
INSERT
  8
17
  2
OCTAGONP
 10
67.2408
 20
55.0000
 30
0.0000
 41
2.5400
 42
2.5400
 43
1.0000
 50
0.0000
  0
INSERT
  8
17
  2
OCTAGONP
 10
67.2408
 20
55.0000
 30
0.0000
 41
2.5400
 42
2.5400
 43
1.0000
 50
0.0000
  0
INSERT
  8
17
  2
OCTAGONP
 10
74.7592
 20
55.0000
 30
0.0000
 41
2.5400
 42
2.5400
 43
1.0000
 50
0.0000
  0
INSERT
  8
17
  2
OCTAGONP
 10
74.7592
 20
55.0000
 30
0.0000
 41
2.5400
 42
2.5400
 43
1.0000
 50
0.0000
  0
POINT
  8
23
 10
61.0000
 20
61.0000
 30
0.0000
  0
POINT
  8
23
 10
83.0000
 20
61.0000
 30
0.0000
  0
POINT
  8
23
 10
23.0000
 20
8.0000
 30
0.0000
  0
POINT
  8
23
 10
50.0000
 20
27.0000
 30
0.0000
  0
INSERT
  8
17
  2
SQUAREP
 10
56.3500
 20
9.2200
 30
0.0000
 41
1.5080
 42
1.5080
 43
1.0000
 50
90.0000
  0
INSERT
  8
17
  2
SQUAREP
 10
56.3500
 20
9.2200
 30
0.0000
 41
1.5080
 42
1.5080
 43
1.0000
 50
90.0000
  0
INSERT
  8
17
  2
ROUNDP
 10
53.8100
 20
9.2200
 30
0.0000
 41
1.5080
 42
1.5080
 43
1.0000
 50
90.0000
  0
INSERT
  8
17
  2
ROUNDP
 10
53.8100
 20
9.2200
 30
0.0000
 41
1.5080
 42
1.5080
 43
1.0000
 50
90.0000
  0
INSERT
  8
17
  2
ROUNDP
 10
51.2700
 20
9.2200
 30
0.0000
 41
1.5080
 42
1.5080
 43
1.0000
 50
90.0000
  0
INSERT
  8
17
  2
ROUNDP
 10
51.2700
 20
9.2200
 30
0.0000
 41
1.5080
 42
1.5080
 43
1.0000
 50
90.0000
  0
INSERT
  8
17
  2
ROUNDP
 10
48.7300
 20
9.2200
 30
0.0000
 41
1.5080
 42
1.5080
 43
1.0000
 50
90.0000
  0
INSERT
  8
17
  2
ROUNDP
 10
48.7300
 20
9.2200
 30
0.0000
 41
1.5080
 42
1.5080
 43
1.0000
 50
90.0000
  0
INSERT
  8
17
  2
ROUNDP
 10
46.1900
 20
9.2200
 30
0.0000
 41
1.5080
 42
1.5080
 43
1.0000
 50
90.0000
  0
INSERT
  8
17
  2
ROUNDP
 10
46.1900
 20
9.2200
 30
0.0000
 41
1.5080
 42
1.5080
 43
1.0000
 50
90.0000
  0
INSERT
  8
17
  2
ROUNDP
 10
43.6500
 20
9.2200
 30
0.0000
 41
1.5080
 42
1.5080
 43
1.0000
 50
90.0000
  0
INSERT
  8
17
  2
ROUNDP
 10
43.6500
 20
9.2200
 30
0.0000
 41
1.5080
 42
1.5080
 43
1.0000
 50
90.0000
  0
INSERT
  8
17
  2
SQUAREP
 10
53.8100
 20
44.7800
 30
0.0000
 41
1.5080
 42
1.5080
 43
1.0000
 50
90.0000
  0
INSERT
  8
17
  2
SQUAREP
 10
53.8100
 20
44.7800
 30
0.0000
 41
1.5080
 42
1.5080
 43
1.0000
 50
90.0000
  0
INSERT
  8
17
  2
ROUNDP
 10
51.2700
 20
44.7800
 30
0.0000
 41
1.5080
 42
1.5080
 43
1.0000
 50
90.0000
  0
INSERT
  8
17
  2
ROUNDP
 10
51.2700
 20
44.7800
 30
0.0000
 41
1.5080
 42
1.5080
 43
1.0000
 50
90.0000
  0
INSERT
  8
17
  2
ROUNDP
 10
48.7300
 20
44.7800
 30
0.0000
 41
1.5080
 42
1.5080
 43
1.0000
 50
90.0000
  0
INSERT
  8
17
  2
ROUNDP
 10
48.7300
 20
44.7800
 30
0.0000
 41
1.5080
 42
1.5080
 43
1.0000
 50
90.0000
  0
INSERT
  8
17
  2
ROUNDP
 10
46.1900
 20
44.7800
 30
0.0000
 41
1.5080
 42
1.5080
 43
1.0000
 50
90.0000
  0
INSERT
  8
17
  2
ROUNDP
 10
46.1900
 20
44.7800
 30
0.0000
 41
1.5080
 42
1.5080
 43
1.0000
 50
90.0000
  0
POINT
  8
23
 10
61.9500
 20
3.4500
 30
0.0000
  0
POINT
  8
23
 10
1.5000
 20
20.0000
 30
0.0000
  0
CIRCLE
  8
20
 10
3.7000
 20
22.0000
 30
0.0000
 40
0.3000
  0
CIRCLE
  8
20
 10
3.7000
 20
18.0000
 30
0.0000
 40
0.3000
  0
ENDSEC
  0
EOF
