%
M48
M72
T01C0.0120
T02C0.0236
T03C0.0350
T04C0.0354
T05C0.0394
T06C0.0400
T07C0.0512
T08C0.0520
T09C0.0984
T10C0.1220
%
T01
X25982Y23060
X32694Y18980
X32894Y18280
X34094Y17680
X33094Y16880
X32894Y17080
X32394Y15980
X32094Y15980
X31494Y15580
X30894Y15580
X30494Y15880
X30494Y16180
X30494Y16480
X28394Y16380
X28394Y16680
X28394Y15680
X28115Y15280
X29894Y14480
X31294Y14080
X33694Y15480
X35494Y14080
X35994Y14080
X36294Y14080
X35494Y13780
X35294Y12480
X34094Y12480
X33832Y12124
X33032Y12424
X32363Y12463
X31294Y12380
X30594Y12480
X29894Y12480
X29894Y11180
X30194Y11180
X29594Y11180
X30694Y10780
X30694Y10480
X30694Y9780
X30694Y9180
X30594Y8180
X31094Y7480
X31194Y6780
X28594Y6180
X28294Y5480
X27678Y4511
X26035Y5589
X24804Y5298
X24804Y4708
X23151Y4708
X24804Y5889
X24725Y3133
X19804Y2149
X11494Y2062
X11494Y2456
X11494Y2849
X9919Y2849
X9919Y2456
X9919Y2062
X10313Y1668
X11100Y1668
X7951Y2849
X5794Y3580
X5794Y4180
X5794Y4780
X2481Y6282
X2088Y6282
X2088Y6873
X2481Y6873
X3991Y7667
X2481Y9235
X2088Y9235
X2088Y9826
X2481Y9826
X11294Y13530
X22403Y13684
X24384Y13980
X25074Y13980
X26294Y13980
X25894Y15080
X25694Y15580
X28794Y18180
X25794Y18580
X33894Y20180
X34494Y19080
X35644Y19030
X35644Y19480
X35694Y18180
X35694Y17280
X38194Y17880
X38094Y15080
X36794Y12080
X38194Y10680
X35794Y9780
X35094Y9380
X34294Y9380
X33894Y10080
X32494Y9180
X34394Y8280
X35294Y7880
X35394Y8280
X35094Y7180
X37094Y6080
X37794Y6780
X38894Y7880
X37794Y8480
X33994Y5580
X33294Y5080
X37894Y5180
X28794Y10180
X38994Y21033
X37894Y22039
X36594Y20836
X34894Y22580
X36194Y24580
T02
X3151Y7267
X3151Y8841
T03
X39334Y20304
X39334Y17154
T04
X17989Y19519
X23501Y21881
X22714Y24243
X17989Y24243
X22714Y19519
X25316Y17897
X26394Y17920
X26448Y16033
X27064Y14400
X27005Y13400
X27064Y12400
X27005Y11400
X27064Y10400
X27005Y9400
X27064Y8400
X27005Y7400
X6025Y5889
X4056Y5889
T05
X19879Y17810
X20879Y17810
X21879Y17810
X22879Y17810
X38162Y14387
X38162Y13387
X38162Y12387
X38162Y11387
X23879Y3810
X22879Y3810
X21879Y3810
X20879Y3810
X19879Y3810
X18879Y3810
X15792Y2149
X14792Y2149
X13792Y2149
X12792Y2149
T06
X28167Y21834
X31127Y21834
T07
X4056Y23802
X4056Y19865
X4056Y21834
X4056Y16991
X4056Y15023
X4056Y4117
X4056Y2149
T08
X6249Y21834
X15249Y21834
T09
X5625Y12341
X3175Y12341
X4375Y10391
T10
X38308Y23802
X23741Y1755
X7993Y1755
M30
