G75*
%MOIN*%
%OFA0B0*%
%FSLAX25Y25*%
%IPPOS*%
%LPD*%
%AMOC8*
5,1,8,0,0,1.08239X$1,22.5*
%
%ADD10C,0.01600*%
%ADD11C,0.01000*%
%ADD12C,0.00000*%
%ADD13C,0.01500*%
%ADD14C,0.00900*%
%ADD15C,0.01100*%
%ADD16C,0.00800*%
%ADD17C,0.01200*%
%ADD18R,0.00400X0.01600*%
%ADD19R,0.00400X0.01200*%
%ADD20R,0.00400X0.03600*%
%ADD21R,0.00400X0.03200*%
%ADD22R,0.00400X0.02000*%
%ADD23R,0.00400X0.02400*%
%ADD24R,0.00400X0.02800*%
%ADD25R,0.00400X0.06400*%
%ADD26R,0.00400X0.06800*%
%ADD27R,0.00400X0.05200*%
%ADD28R,0.00400X0.00800*%
%ADD29R,0.00400X0.04800*%
%ADD30R,0.00400X0.07200*%
%ADD31R,0.00400X0.00400*%
%ADD32R,0.00400X0.04400*%
%ADD33R,0.00400X0.04000*%
%ADD34R,0.00400X0.05600*%
%ADD35R,0.00400X0.06000*%
%ADD36R,0.00400X0.10000*%
%ADD37R,0.00400X0.11600*%
%ADD38R,0.00400X0.10400*%
%ADD39R,0.00400X0.12000*%
%ADD40R,0.00400X0.11200*%
%ADD41R,0.00400X0.12400*%
%ADD42R,0.00400X0.12800*%
%ADD43R,0.00400X0.13200*%
%ADD44R,0.00400X0.13600*%
%ADD45R,0.00400X0.14000*%
%ADD46R,0.00400X0.14400*%
%ADD47R,0.00400X0.07600*%
%ADD48R,0.00400X0.08000*%
%ADD49R,0.00400X0.08400*%
%ADD50R,0.00400X0.10800*%
%ADD51R,0.00400X0.09600*%
%ADD52R,0.00400X0.09200*%
%ADD53R,0.00400X0.15200*%
%ADD54C,0.00787*%
%ADD55C,0.01300*%
%ADD56C,0.02000*%
%ADD57C,0.03200*%
D10*
X0016939Y0009674D02*
X0016939Y0245894D01*
X0016941Y0246084D01*
X0016948Y0246274D01*
X0016960Y0246464D01*
X0016976Y0246654D01*
X0016996Y0246843D01*
X0017022Y0247032D01*
X0017051Y0247220D01*
X0017086Y0247407D01*
X0017125Y0247593D01*
X0017168Y0247778D01*
X0017216Y0247963D01*
X0017268Y0248146D01*
X0017324Y0248327D01*
X0017385Y0248507D01*
X0017451Y0248686D01*
X0017520Y0248863D01*
X0017594Y0249039D01*
X0017672Y0249212D01*
X0017755Y0249384D01*
X0017841Y0249553D01*
X0017931Y0249721D01*
X0018026Y0249886D01*
X0018124Y0250049D01*
X0018227Y0250209D01*
X0018333Y0250367D01*
X0018443Y0250522D01*
X0018556Y0250675D01*
X0018674Y0250825D01*
X0018795Y0250971D01*
X0018919Y0251115D01*
X0019047Y0251256D01*
X0019178Y0251394D01*
X0019313Y0251529D01*
X0019451Y0251660D01*
X0019592Y0251788D01*
X0019736Y0251912D01*
X0019882Y0252033D01*
X0020032Y0252151D01*
X0020185Y0252264D01*
X0020340Y0252374D01*
X0020498Y0252480D01*
X0020658Y0252583D01*
X0020821Y0252681D01*
X0020986Y0252776D01*
X0021154Y0252866D01*
X0021323Y0252952D01*
X0021495Y0253035D01*
X0021668Y0253113D01*
X0021844Y0253187D01*
X0022021Y0253256D01*
X0022200Y0253322D01*
X0022380Y0253383D01*
X0022561Y0253439D01*
X0022744Y0253491D01*
X0022929Y0253539D01*
X0023114Y0253582D01*
X0023300Y0253621D01*
X0023487Y0253656D01*
X0023675Y0253685D01*
X0023864Y0253711D01*
X0024053Y0253731D01*
X0024243Y0253747D01*
X0024433Y0253759D01*
X0024623Y0253766D01*
X0024813Y0253768D01*
X0024813Y0253769D02*
X0390955Y0253769D01*
X0390955Y0253768D02*
X0391145Y0253766D01*
X0391335Y0253759D01*
X0391525Y0253747D01*
X0391715Y0253731D01*
X0391904Y0253711D01*
X0392093Y0253685D01*
X0392281Y0253656D01*
X0392468Y0253621D01*
X0392654Y0253582D01*
X0392839Y0253539D01*
X0393024Y0253491D01*
X0393207Y0253439D01*
X0393388Y0253383D01*
X0393568Y0253322D01*
X0393747Y0253256D01*
X0393924Y0253187D01*
X0394100Y0253113D01*
X0394273Y0253035D01*
X0394445Y0252952D01*
X0394614Y0252866D01*
X0394782Y0252776D01*
X0394947Y0252681D01*
X0395110Y0252583D01*
X0395270Y0252480D01*
X0395428Y0252374D01*
X0395583Y0252264D01*
X0395736Y0252151D01*
X0395886Y0252033D01*
X0396032Y0251912D01*
X0396176Y0251788D01*
X0396317Y0251660D01*
X0396455Y0251529D01*
X0396590Y0251394D01*
X0396721Y0251256D01*
X0396849Y0251115D01*
X0396973Y0250971D01*
X0397094Y0250825D01*
X0397212Y0250675D01*
X0397325Y0250522D01*
X0397435Y0250367D01*
X0397541Y0250209D01*
X0397644Y0250049D01*
X0397742Y0249886D01*
X0397837Y0249721D01*
X0397927Y0249553D01*
X0398013Y0249384D01*
X0398096Y0249212D01*
X0398174Y0249039D01*
X0398248Y0248863D01*
X0398317Y0248686D01*
X0398383Y0248507D01*
X0398444Y0248327D01*
X0398500Y0248146D01*
X0398552Y0247963D01*
X0398600Y0247778D01*
X0398643Y0247593D01*
X0398682Y0247407D01*
X0398717Y0247220D01*
X0398746Y0247032D01*
X0398772Y0246843D01*
X0398792Y0246654D01*
X0398808Y0246464D01*
X0398820Y0246274D01*
X0398827Y0246084D01*
X0398829Y0245894D01*
X0398829Y0009674D01*
X0398827Y0009484D01*
X0398820Y0009294D01*
X0398808Y0009104D01*
X0398792Y0008914D01*
X0398772Y0008725D01*
X0398746Y0008536D01*
X0398717Y0008348D01*
X0398682Y0008161D01*
X0398643Y0007975D01*
X0398600Y0007790D01*
X0398552Y0007605D01*
X0398500Y0007422D01*
X0398444Y0007241D01*
X0398383Y0007061D01*
X0398317Y0006882D01*
X0398248Y0006705D01*
X0398174Y0006529D01*
X0398096Y0006356D01*
X0398013Y0006184D01*
X0397927Y0006015D01*
X0397837Y0005847D01*
X0397742Y0005682D01*
X0397644Y0005519D01*
X0397541Y0005359D01*
X0397435Y0005201D01*
X0397325Y0005046D01*
X0397212Y0004893D01*
X0397094Y0004743D01*
X0396973Y0004597D01*
X0396849Y0004453D01*
X0396721Y0004312D01*
X0396590Y0004174D01*
X0396455Y0004039D01*
X0396317Y0003908D01*
X0396176Y0003780D01*
X0396032Y0003656D01*
X0395886Y0003535D01*
X0395736Y0003417D01*
X0395583Y0003304D01*
X0395428Y0003194D01*
X0395270Y0003088D01*
X0395110Y0002985D01*
X0394947Y0002887D01*
X0394782Y0002792D01*
X0394614Y0002702D01*
X0394445Y0002616D01*
X0394273Y0002533D01*
X0394100Y0002455D01*
X0393924Y0002381D01*
X0393747Y0002312D01*
X0393568Y0002246D01*
X0393388Y0002185D01*
X0393207Y0002129D01*
X0393024Y0002077D01*
X0392839Y0002029D01*
X0392654Y0001986D01*
X0392468Y0001947D01*
X0392281Y0001912D01*
X0392093Y0001883D01*
X0391904Y0001857D01*
X0391715Y0001837D01*
X0391525Y0001821D01*
X0391335Y0001809D01*
X0391145Y0001802D01*
X0390955Y0001800D01*
X0024813Y0001800D01*
X0024623Y0001802D01*
X0024433Y0001809D01*
X0024243Y0001821D01*
X0024053Y0001837D01*
X0023864Y0001857D01*
X0023675Y0001883D01*
X0023487Y0001912D01*
X0023300Y0001947D01*
X0023114Y0001986D01*
X0022929Y0002029D01*
X0022744Y0002077D01*
X0022561Y0002129D01*
X0022380Y0002185D01*
X0022200Y0002246D01*
X0022021Y0002312D01*
X0021844Y0002381D01*
X0021668Y0002455D01*
X0021495Y0002533D01*
X0021323Y0002616D01*
X0021154Y0002702D01*
X0020986Y0002792D01*
X0020821Y0002887D01*
X0020658Y0002985D01*
X0020498Y0003088D01*
X0020340Y0003194D01*
X0020185Y0003304D01*
X0020032Y0003417D01*
X0019882Y0003535D01*
X0019736Y0003656D01*
X0019592Y0003780D01*
X0019451Y0003908D01*
X0019313Y0004039D01*
X0019178Y0004174D01*
X0019047Y0004312D01*
X0018919Y0004453D01*
X0018795Y0004597D01*
X0018674Y0004743D01*
X0018556Y0004893D01*
X0018443Y0005046D01*
X0018333Y0005201D01*
X0018227Y0005359D01*
X0018124Y0005519D01*
X0018026Y0005682D01*
X0017931Y0005847D01*
X0017841Y0006015D01*
X0017755Y0006184D01*
X0017672Y0006356D01*
X0017594Y0006529D01*
X0017520Y0006705D01*
X0017451Y0006882D01*
X0017385Y0007061D01*
X0017324Y0007241D01*
X0017268Y0007422D01*
X0017216Y0007605D01*
X0017168Y0007790D01*
X0017125Y0007975D01*
X0017086Y0008161D01*
X0017051Y0008348D01*
X0017022Y0008536D01*
X0016996Y0008725D01*
X0016976Y0008914D01*
X0016960Y0009104D01*
X0016948Y0009294D01*
X0016941Y0009484D01*
X0016939Y0009674D01*
D11*
X0042530Y0031328D02*
X0042530Y0184871D01*
X0278750Y0184871D01*
X0278750Y0031328D01*
X0042530Y0031328D01*
X0170089Y0185265D02*
X0181900Y0185265D01*
X0181900Y0189202D02*
X0170089Y0189202D01*
X0168120Y0187233D02*
X0168122Y0187147D01*
X0168127Y0187061D01*
X0168137Y0186976D01*
X0168150Y0186891D01*
X0168167Y0186807D01*
X0168187Y0186723D01*
X0168211Y0186641D01*
X0168239Y0186560D01*
X0168270Y0186479D01*
X0168304Y0186401D01*
X0168342Y0186324D01*
X0168384Y0186249D01*
X0168428Y0186175D01*
X0168476Y0186104D01*
X0168527Y0186034D01*
X0168581Y0185967D01*
X0168637Y0185903D01*
X0168697Y0185841D01*
X0168759Y0185781D01*
X0168823Y0185725D01*
X0168890Y0185671D01*
X0168960Y0185620D01*
X0169031Y0185572D01*
X0169105Y0185528D01*
X0169180Y0185486D01*
X0169257Y0185448D01*
X0169335Y0185414D01*
X0169416Y0185383D01*
X0169497Y0185355D01*
X0169579Y0185331D01*
X0169663Y0185311D01*
X0169747Y0185294D01*
X0169832Y0185281D01*
X0169917Y0185271D01*
X0170003Y0185266D01*
X0170089Y0185264D01*
X0168120Y0187233D02*
X0168122Y0187319D01*
X0168127Y0187405D01*
X0168137Y0187490D01*
X0168150Y0187575D01*
X0168167Y0187659D01*
X0168187Y0187743D01*
X0168211Y0187825D01*
X0168239Y0187906D01*
X0168270Y0187987D01*
X0168304Y0188065D01*
X0168342Y0188142D01*
X0168384Y0188218D01*
X0168428Y0188291D01*
X0168476Y0188362D01*
X0168527Y0188432D01*
X0168581Y0188499D01*
X0168637Y0188563D01*
X0168697Y0188625D01*
X0168759Y0188685D01*
X0168823Y0188741D01*
X0168890Y0188795D01*
X0168960Y0188846D01*
X0169031Y0188894D01*
X0169105Y0188938D01*
X0169180Y0188980D01*
X0169257Y0189018D01*
X0169335Y0189052D01*
X0169416Y0189083D01*
X0169497Y0189111D01*
X0169579Y0189135D01*
X0169663Y0189155D01*
X0169747Y0189172D01*
X0169832Y0189185D01*
X0169917Y0189195D01*
X0170003Y0189200D01*
X0170089Y0189202D01*
X0181900Y0204950D02*
X0182138Y0204947D01*
X0182376Y0204939D01*
X0182613Y0204924D01*
X0182850Y0204904D01*
X0183086Y0204878D01*
X0183322Y0204847D01*
X0183557Y0204810D01*
X0183791Y0204767D01*
X0184024Y0204718D01*
X0184256Y0204664D01*
X0184486Y0204604D01*
X0184715Y0204539D01*
X0184942Y0204468D01*
X0185167Y0204392D01*
X0185390Y0204310D01*
X0185612Y0204223D01*
X0185831Y0204131D01*
X0186048Y0204033D01*
X0186262Y0203931D01*
X0186474Y0203823D01*
X0186684Y0203709D01*
X0186890Y0203591D01*
X0187094Y0203468D01*
X0187294Y0203340D01*
X0187491Y0203208D01*
X0187686Y0203070D01*
X0187876Y0202928D01*
X0188064Y0202781D01*
X0188247Y0202630D01*
X0188427Y0202475D01*
X0188603Y0202315D01*
X0188775Y0202151D01*
X0188944Y0201982D01*
X0189108Y0201810D01*
X0189268Y0201634D01*
X0189423Y0201454D01*
X0189574Y0201271D01*
X0189721Y0201083D01*
X0189863Y0200893D01*
X0190001Y0200698D01*
X0190133Y0200501D01*
X0190261Y0200301D01*
X0190384Y0200097D01*
X0190502Y0199891D01*
X0190616Y0199681D01*
X0190724Y0199469D01*
X0190826Y0199255D01*
X0190924Y0199038D01*
X0191016Y0198819D01*
X0191103Y0198597D01*
X0191185Y0198374D01*
X0191261Y0198149D01*
X0191332Y0197922D01*
X0191397Y0197693D01*
X0191457Y0197463D01*
X0191511Y0197231D01*
X0191560Y0196998D01*
X0191603Y0196764D01*
X0191640Y0196529D01*
X0191671Y0196293D01*
X0191697Y0196057D01*
X0191717Y0195820D01*
X0191732Y0195583D01*
X0191740Y0195345D01*
X0191743Y0195107D01*
X0191740Y0194869D01*
X0191732Y0194631D01*
X0191717Y0194394D01*
X0191697Y0194157D01*
X0191671Y0193921D01*
X0191640Y0193685D01*
X0191603Y0193450D01*
X0191560Y0193216D01*
X0191511Y0192983D01*
X0191457Y0192751D01*
X0191397Y0192521D01*
X0191332Y0192292D01*
X0191261Y0192065D01*
X0191185Y0191840D01*
X0191103Y0191617D01*
X0191016Y0191395D01*
X0190924Y0191176D01*
X0190826Y0190959D01*
X0190724Y0190745D01*
X0190616Y0190533D01*
X0190502Y0190323D01*
X0190384Y0190117D01*
X0190261Y0189913D01*
X0190133Y0189713D01*
X0190001Y0189516D01*
X0189863Y0189321D01*
X0189721Y0189131D01*
X0189574Y0188943D01*
X0189423Y0188760D01*
X0189268Y0188580D01*
X0189108Y0188404D01*
X0188944Y0188232D01*
X0188775Y0188063D01*
X0188603Y0187899D01*
X0188427Y0187739D01*
X0188247Y0187584D01*
X0188064Y0187433D01*
X0187876Y0187286D01*
X0187686Y0187144D01*
X0187491Y0187006D01*
X0187294Y0186874D01*
X0187094Y0186746D01*
X0186890Y0186623D01*
X0186684Y0186505D01*
X0186474Y0186391D01*
X0186262Y0186283D01*
X0186048Y0186181D01*
X0185831Y0186083D01*
X0185612Y0185991D01*
X0185390Y0185904D01*
X0185167Y0185822D01*
X0184942Y0185746D01*
X0184715Y0185675D01*
X0184486Y0185610D01*
X0184256Y0185550D01*
X0184024Y0185496D01*
X0183791Y0185447D01*
X0183557Y0185404D01*
X0183322Y0185367D01*
X0183086Y0185336D01*
X0182850Y0185310D01*
X0182613Y0185290D01*
X0182376Y0185275D01*
X0182138Y0185267D01*
X0181900Y0185264D01*
X0181900Y0189201D02*
X0182052Y0189203D01*
X0182204Y0189209D01*
X0182356Y0189219D01*
X0182507Y0189232D01*
X0182658Y0189250D01*
X0182809Y0189271D01*
X0182959Y0189297D01*
X0183108Y0189326D01*
X0183257Y0189359D01*
X0183404Y0189396D01*
X0183551Y0189436D01*
X0183696Y0189481D01*
X0183840Y0189529D01*
X0183983Y0189581D01*
X0184125Y0189636D01*
X0184265Y0189695D01*
X0184404Y0189758D01*
X0184541Y0189824D01*
X0184676Y0189894D01*
X0184809Y0189967D01*
X0184940Y0190044D01*
X0185070Y0190124D01*
X0185197Y0190207D01*
X0185322Y0190293D01*
X0185445Y0190383D01*
X0185565Y0190476D01*
X0185683Y0190572D01*
X0185799Y0190671D01*
X0185912Y0190773D01*
X0186022Y0190877D01*
X0186130Y0190985D01*
X0186234Y0191095D01*
X0186336Y0191208D01*
X0186435Y0191324D01*
X0186531Y0191442D01*
X0186624Y0191562D01*
X0186714Y0191685D01*
X0186800Y0191810D01*
X0186883Y0191937D01*
X0186963Y0192067D01*
X0187040Y0192198D01*
X0187113Y0192331D01*
X0187183Y0192466D01*
X0187249Y0192603D01*
X0187312Y0192742D01*
X0187371Y0192882D01*
X0187426Y0193024D01*
X0187478Y0193167D01*
X0187526Y0193311D01*
X0187571Y0193456D01*
X0187611Y0193603D01*
X0187648Y0193750D01*
X0187681Y0193899D01*
X0187710Y0194048D01*
X0187736Y0194198D01*
X0187757Y0194349D01*
X0187775Y0194500D01*
X0187788Y0194651D01*
X0187798Y0194803D01*
X0187804Y0194955D01*
X0187806Y0195107D01*
X0187804Y0195259D01*
X0187798Y0195411D01*
X0187788Y0195563D01*
X0187775Y0195714D01*
X0187757Y0195865D01*
X0187736Y0196016D01*
X0187710Y0196166D01*
X0187681Y0196315D01*
X0187648Y0196464D01*
X0187611Y0196611D01*
X0187571Y0196758D01*
X0187526Y0196903D01*
X0187478Y0197047D01*
X0187426Y0197190D01*
X0187371Y0197332D01*
X0187312Y0197472D01*
X0187249Y0197611D01*
X0187183Y0197748D01*
X0187113Y0197883D01*
X0187040Y0198016D01*
X0186963Y0198147D01*
X0186883Y0198277D01*
X0186800Y0198404D01*
X0186714Y0198529D01*
X0186624Y0198652D01*
X0186531Y0198772D01*
X0186435Y0198890D01*
X0186336Y0199006D01*
X0186234Y0199119D01*
X0186130Y0199229D01*
X0186022Y0199337D01*
X0185912Y0199441D01*
X0185799Y0199543D01*
X0185683Y0199642D01*
X0185565Y0199738D01*
X0185445Y0199831D01*
X0185322Y0199921D01*
X0185197Y0200007D01*
X0185070Y0200090D01*
X0184940Y0200170D01*
X0184809Y0200247D01*
X0184676Y0200320D01*
X0184541Y0200390D01*
X0184404Y0200456D01*
X0184265Y0200519D01*
X0184125Y0200578D01*
X0183983Y0200633D01*
X0183840Y0200685D01*
X0183696Y0200733D01*
X0183551Y0200778D01*
X0183404Y0200818D01*
X0183257Y0200855D01*
X0183108Y0200888D01*
X0182959Y0200917D01*
X0182809Y0200943D01*
X0182658Y0200964D01*
X0182507Y0200982D01*
X0182356Y0200995D01*
X0182204Y0201005D01*
X0182052Y0201011D01*
X0181900Y0201013D01*
X0170089Y0201013D01*
X0168120Y0202981D02*
X0168122Y0203067D01*
X0168127Y0203153D01*
X0168137Y0203238D01*
X0168150Y0203323D01*
X0168167Y0203407D01*
X0168187Y0203491D01*
X0168211Y0203573D01*
X0168239Y0203654D01*
X0168270Y0203735D01*
X0168304Y0203813D01*
X0168342Y0203890D01*
X0168384Y0203966D01*
X0168428Y0204039D01*
X0168476Y0204110D01*
X0168527Y0204180D01*
X0168581Y0204247D01*
X0168637Y0204311D01*
X0168697Y0204373D01*
X0168759Y0204433D01*
X0168823Y0204489D01*
X0168890Y0204543D01*
X0168960Y0204594D01*
X0169031Y0204642D01*
X0169105Y0204686D01*
X0169180Y0204728D01*
X0169257Y0204766D01*
X0169335Y0204800D01*
X0169416Y0204831D01*
X0169497Y0204859D01*
X0169579Y0204883D01*
X0169663Y0204903D01*
X0169747Y0204920D01*
X0169832Y0204933D01*
X0169917Y0204943D01*
X0170003Y0204948D01*
X0170089Y0204950D01*
X0181900Y0204950D01*
X0170089Y0201012D02*
X0170003Y0201014D01*
X0169917Y0201019D01*
X0169832Y0201029D01*
X0169747Y0201042D01*
X0169663Y0201059D01*
X0169579Y0201079D01*
X0169497Y0201103D01*
X0169416Y0201131D01*
X0169335Y0201162D01*
X0169257Y0201196D01*
X0169180Y0201234D01*
X0169105Y0201276D01*
X0169031Y0201320D01*
X0168960Y0201368D01*
X0168890Y0201419D01*
X0168823Y0201473D01*
X0168759Y0201529D01*
X0168697Y0201589D01*
X0168637Y0201651D01*
X0168581Y0201715D01*
X0168527Y0201782D01*
X0168476Y0201852D01*
X0168428Y0201923D01*
X0168384Y0201997D01*
X0168342Y0202072D01*
X0168304Y0202149D01*
X0168270Y0202227D01*
X0168239Y0202308D01*
X0168211Y0202389D01*
X0168187Y0202471D01*
X0168167Y0202555D01*
X0168150Y0202639D01*
X0168137Y0202724D01*
X0168127Y0202809D01*
X0168122Y0202895D01*
X0168120Y0202981D01*
X0160640Y0208493D02*
X0140955Y0208493D01*
X0138986Y0210461D02*
X0138988Y0210547D01*
X0138993Y0210633D01*
X0139003Y0210718D01*
X0139016Y0210803D01*
X0139033Y0210887D01*
X0139053Y0210971D01*
X0139077Y0211053D01*
X0139105Y0211134D01*
X0139136Y0211215D01*
X0139170Y0211293D01*
X0139208Y0211370D01*
X0139250Y0211446D01*
X0139294Y0211519D01*
X0139342Y0211590D01*
X0139393Y0211660D01*
X0139447Y0211727D01*
X0139503Y0211791D01*
X0139563Y0211853D01*
X0139625Y0211913D01*
X0139689Y0211969D01*
X0139756Y0212023D01*
X0139826Y0212074D01*
X0139897Y0212122D01*
X0139971Y0212166D01*
X0140046Y0212208D01*
X0140123Y0212246D01*
X0140201Y0212280D01*
X0140282Y0212311D01*
X0140363Y0212339D01*
X0140445Y0212363D01*
X0140529Y0212383D01*
X0140613Y0212400D01*
X0140698Y0212413D01*
X0140783Y0212423D01*
X0140869Y0212428D01*
X0140955Y0212430D01*
X0160640Y0212430D01*
X0160726Y0212428D01*
X0160812Y0212423D01*
X0160897Y0212413D01*
X0160982Y0212400D01*
X0161066Y0212383D01*
X0161150Y0212363D01*
X0161232Y0212339D01*
X0161313Y0212311D01*
X0161394Y0212280D01*
X0161472Y0212246D01*
X0161549Y0212208D01*
X0161625Y0212166D01*
X0161698Y0212122D01*
X0161769Y0212074D01*
X0161839Y0212023D01*
X0161906Y0211969D01*
X0161970Y0211913D01*
X0162032Y0211853D01*
X0162092Y0211791D01*
X0162148Y0211727D01*
X0162202Y0211660D01*
X0162253Y0211590D01*
X0162301Y0211519D01*
X0162345Y0211446D01*
X0162387Y0211370D01*
X0162425Y0211293D01*
X0162459Y0211215D01*
X0162490Y0211134D01*
X0162518Y0211053D01*
X0162542Y0210971D01*
X0162562Y0210887D01*
X0162579Y0210803D01*
X0162592Y0210718D01*
X0162602Y0210633D01*
X0162607Y0210547D01*
X0162609Y0210461D01*
X0162607Y0210375D01*
X0162602Y0210289D01*
X0162592Y0210204D01*
X0162579Y0210119D01*
X0162562Y0210035D01*
X0162542Y0209951D01*
X0162518Y0209869D01*
X0162490Y0209788D01*
X0162459Y0209707D01*
X0162425Y0209629D01*
X0162387Y0209552D01*
X0162345Y0209477D01*
X0162301Y0209403D01*
X0162253Y0209332D01*
X0162202Y0209262D01*
X0162148Y0209195D01*
X0162092Y0209131D01*
X0162032Y0209069D01*
X0161970Y0209009D01*
X0161906Y0208953D01*
X0161839Y0208899D01*
X0161769Y0208848D01*
X0161698Y0208800D01*
X0161625Y0208756D01*
X0161549Y0208714D01*
X0161472Y0208676D01*
X0161394Y0208642D01*
X0161313Y0208611D01*
X0161232Y0208583D01*
X0161150Y0208559D01*
X0161066Y0208539D01*
X0160982Y0208522D01*
X0160897Y0208509D01*
X0160812Y0208499D01*
X0160726Y0208494D01*
X0160640Y0208492D01*
X0140955Y0208492D02*
X0140869Y0208494D01*
X0140783Y0208499D01*
X0140698Y0208509D01*
X0140613Y0208522D01*
X0140529Y0208539D01*
X0140445Y0208559D01*
X0140363Y0208583D01*
X0140282Y0208611D01*
X0140201Y0208642D01*
X0140123Y0208676D01*
X0140046Y0208714D01*
X0139971Y0208756D01*
X0139897Y0208800D01*
X0139826Y0208848D01*
X0139756Y0208899D01*
X0139689Y0208953D01*
X0139625Y0209009D01*
X0139563Y0209069D01*
X0139503Y0209131D01*
X0139447Y0209195D01*
X0139393Y0209262D01*
X0139342Y0209332D01*
X0139294Y0209403D01*
X0139250Y0209477D01*
X0139208Y0209552D01*
X0139170Y0209629D01*
X0139136Y0209707D01*
X0139105Y0209788D01*
X0139077Y0209869D01*
X0139053Y0209951D01*
X0139033Y0210035D01*
X0139016Y0210119D01*
X0139003Y0210204D01*
X0138993Y0210289D01*
X0138988Y0210375D01*
X0138986Y0210461D01*
X0140955Y0224241D02*
X0160640Y0224241D01*
X0162609Y0226209D02*
X0162607Y0226295D01*
X0162602Y0226381D01*
X0162592Y0226466D01*
X0162579Y0226551D01*
X0162562Y0226635D01*
X0162542Y0226719D01*
X0162518Y0226801D01*
X0162490Y0226882D01*
X0162459Y0226963D01*
X0162425Y0227041D01*
X0162387Y0227118D01*
X0162345Y0227194D01*
X0162301Y0227267D01*
X0162253Y0227338D01*
X0162202Y0227408D01*
X0162148Y0227475D01*
X0162092Y0227539D01*
X0162032Y0227601D01*
X0161970Y0227661D01*
X0161906Y0227717D01*
X0161839Y0227771D01*
X0161769Y0227822D01*
X0161698Y0227870D01*
X0161625Y0227914D01*
X0161549Y0227956D01*
X0161472Y0227994D01*
X0161394Y0228028D01*
X0161313Y0228059D01*
X0161232Y0228087D01*
X0161150Y0228111D01*
X0161066Y0228131D01*
X0160982Y0228148D01*
X0160897Y0228161D01*
X0160812Y0228171D01*
X0160726Y0228176D01*
X0160640Y0228178D01*
X0140955Y0228178D01*
X0140869Y0228176D01*
X0140783Y0228171D01*
X0140698Y0228161D01*
X0140613Y0228148D01*
X0140529Y0228131D01*
X0140445Y0228111D01*
X0140363Y0228087D01*
X0140282Y0228059D01*
X0140201Y0228028D01*
X0140123Y0227994D01*
X0140046Y0227956D01*
X0139971Y0227914D01*
X0139897Y0227870D01*
X0139826Y0227822D01*
X0139756Y0227771D01*
X0139689Y0227717D01*
X0139625Y0227661D01*
X0139563Y0227601D01*
X0139503Y0227539D01*
X0139447Y0227475D01*
X0139393Y0227408D01*
X0139342Y0227338D01*
X0139294Y0227267D01*
X0139250Y0227194D01*
X0139208Y0227118D01*
X0139170Y0227041D01*
X0139136Y0226963D01*
X0139105Y0226882D01*
X0139077Y0226801D01*
X0139053Y0226719D01*
X0139033Y0226635D01*
X0139016Y0226551D01*
X0139003Y0226466D01*
X0138993Y0226381D01*
X0138988Y0226295D01*
X0138986Y0226209D01*
X0138988Y0226123D01*
X0138993Y0226037D01*
X0139003Y0225952D01*
X0139016Y0225867D01*
X0139033Y0225783D01*
X0139053Y0225699D01*
X0139077Y0225617D01*
X0139105Y0225536D01*
X0139136Y0225455D01*
X0139170Y0225377D01*
X0139208Y0225300D01*
X0139250Y0225225D01*
X0139294Y0225151D01*
X0139342Y0225080D01*
X0139393Y0225010D01*
X0139447Y0224943D01*
X0139503Y0224879D01*
X0139563Y0224817D01*
X0139625Y0224757D01*
X0139689Y0224701D01*
X0139756Y0224647D01*
X0139826Y0224596D01*
X0139897Y0224548D01*
X0139971Y0224504D01*
X0140046Y0224462D01*
X0140123Y0224424D01*
X0140201Y0224390D01*
X0140282Y0224359D01*
X0140363Y0224331D01*
X0140445Y0224307D01*
X0140529Y0224287D01*
X0140613Y0224270D01*
X0140698Y0224257D01*
X0140783Y0224247D01*
X0140869Y0224242D01*
X0140955Y0224240D01*
X0160640Y0224240D02*
X0160726Y0224242D01*
X0160812Y0224247D01*
X0160897Y0224257D01*
X0160982Y0224270D01*
X0161066Y0224287D01*
X0161150Y0224307D01*
X0161232Y0224331D01*
X0161313Y0224359D01*
X0161394Y0224390D01*
X0161472Y0224424D01*
X0161549Y0224462D01*
X0161625Y0224504D01*
X0161698Y0224548D01*
X0161769Y0224596D01*
X0161839Y0224647D01*
X0161906Y0224701D01*
X0161970Y0224757D01*
X0162032Y0224817D01*
X0162092Y0224879D01*
X0162148Y0224943D01*
X0162202Y0225010D01*
X0162253Y0225080D01*
X0162301Y0225151D01*
X0162345Y0225225D01*
X0162387Y0225300D01*
X0162425Y0225377D01*
X0162459Y0225455D01*
X0162490Y0225536D01*
X0162518Y0225617D01*
X0162542Y0225699D01*
X0162562Y0225783D01*
X0162579Y0225867D01*
X0162592Y0225952D01*
X0162602Y0226037D01*
X0162607Y0226123D01*
X0162609Y0226209D01*
X0172451Y0232902D02*
X0188199Y0232902D01*
X0190168Y0234871D02*
X0190166Y0234957D01*
X0190161Y0235043D01*
X0190151Y0235128D01*
X0190138Y0235213D01*
X0190121Y0235297D01*
X0190101Y0235381D01*
X0190077Y0235463D01*
X0190049Y0235544D01*
X0190018Y0235625D01*
X0189984Y0235703D01*
X0189946Y0235780D01*
X0189904Y0235856D01*
X0189860Y0235929D01*
X0189812Y0236000D01*
X0189761Y0236070D01*
X0189707Y0236137D01*
X0189651Y0236201D01*
X0189591Y0236263D01*
X0189529Y0236323D01*
X0189465Y0236379D01*
X0189398Y0236433D01*
X0189328Y0236484D01*
X0189257Y0236532D01*
X0189184Y0236576D01*
X0189108Y0236618D01*
X0189031Y0236656D01*
X0188953Y0236690D01*
X0188872Y0236721D01*
X0188791Y0236749D01*
X0188709Y0236773D01*
X0188625Y0236793D01*
X0188541Y0236810D01*
X0188456Y0236823D01*
X0188371Y0236833D01*
X0188285Y0236838D01*
X0188199Y0236840D01*
X0188199Y0236839D02*
X0172451Y0236839D01*
X0172451Y0236840D02*
X0172365Y0236838D01*
X0172279Y0236833D01*
X0172194Y0236823D01*
X0172109Y0236810D01*
X0172025Y0236793D01*
X0171941Y0236773D01*
X0171859Y0236749D01*
X0171778Y0236721D01*
X0171697Y0236690D01*
X0171619Y0236656D01*
X0171542Y0236618D01*
X0171467Y0236576D01*
X0171393Y0236532D01*
X0171322Y0236484D01*
X0171252Y0236433D01*
X0171185Y0236379D01*
X0171121Y0236323D01*
X0171059Y0236263D01*
X0170999Y0236201D01*
X0170943Y0236137D01*
X0170889Y0236070D01*
X0170838Y0236000D01*
X0170790Y0235929D01*
X0170746Y0235856D01*
X0170704Y0235780D01*
X0170666Y0235703D01*
X0170632Y0235625D01*
X0170601Y0235544D01*
X0170573Y0235463D01*
X0170549Y0235381D01*
X0170529Y0235297D01*
X0170512Y0235213D01*
X0170499Y0235128D01*
X0170489Y0235043D01*
X0170484Y0234957D01*
X0170482Y0234871D01*
X0170484Y0234785D01*
X0170489Y0234699D01*
X0170499Y0234614D01*
X0170512Y0234529D01*
X0170529Y0234445D01*
X0170549Y0234361D01*
X0170573Y0234279D01*
X0170601Y0234198D01*
X0170632Y0234117D01*
X0170666Y0234039D01*
X0170704Y0233962D01*
X0170746Y0233887D01*
X0170790Y0233813D01*
X0170838Y0233742D01*
X0170889Y0233672D01*
X0170943Y0233605D01*
X0170999Y0233541D01*
X0171059Y0233479D01*
X0171121Y0233419D01*
X0171185Y0233363D01*
X0171252Y0233309D01*
X0171322Y0233258D01*
X0171393Y0233210D01*
X0171467Y0233166D01*
X0171542Y0233124D01*
X0171619Y0233086D01*
X0171697Y0233052D01*
X0171778Y0233021D01*
X0171859Y0232993D01*
X0171941Y0232969D01*
X0172025Y0232949D01*
X0172109Y0232932D01*
X0172194Y0232919D01*
X0172279Y0232909D01*
X0172365Y0232904D01*
X0172451Y0232902D01*
X0188199Y0232902D02*
X0188285Y0232904D01*
X0188371Y0232909D01*
X0188456Y0232919D01*
X0188541Y0232932D01*
X0188625Y0232949D01*
X0188709Y0232969D01*
X0188791Y0232993D01*
X0188872Y0233021D01*
X0188953Y0233052D01*
X0189031Y0233086D01*
X0189108Y0233124D01*
X0189184Y0233166D01*
X0189257Y0233210D01*
X0189328Y0233258D01*
X0189398Y0233309D01*
X0189465Y0233363D01*
X0189529Y0233419D01*
X0189591Y0233479D01*
X0189651Y0233541D01*
X0189707Y0233605D01*
X0189761Y0233672D01*
X0189812Y0233742D01*
X0189860Y0233813D01*
X0189904Y0233887D01*
X0189946Y0233962D01*
X0189984Y0234039D01*
X0190018Y0234117D01*
X0190049Y0234198D01*
X0190077Y0234279D01*
X0190101Y0234361D01*
X0190121Y0234445D01*
X0190138Y0234529D01*
X0190151Y0234614D01*
X0190161Y0234699D01*
X0190166Y0234785D01*
X0190168Y0234871D01*
X0217333Y0228572D02*
X0237018Y0228572D01*
X0237018Y0224635D02*
X0217333Y0224635D01*
X0215364Y0226603D02*
X0215366Y0226689D01*
X0215371Y0226775D01*
X0215381Y0226860D01*
X0215394Y0226945D01*
X0215411Y0227029D01*
X0215431Y0227113D01*
X0215455Y0227195D01*
X0215483Y0227276D01*
X0215514Y0227357D01*
X0215548Y0227435D01*
X0215586Y0227512D01*
X0215628Y0227588D01*
X0215672Y0227661D01*
X0215720Y0227732D01*
X0215771Y0227802D01*
X0215825Y0227869D01*
X0215881Y0227933D01*
X0215941Y0227995D01*
X0216003Y0228055D01*
X0216067Y0228111D01*
X0216134Y0228165D01*
X0216204Y0228216D01*
X0216275Y0228264D01*
X0216349Y0228308D01*
X0216424Y0228350D01*
X0216501Y0228388D01*
X0216579Y0228422D01*
X0216660Y0228453D01*
X0216741Y0228481D01*
X0216823Y0228505D01*
X0216907Y0228525D01*
X0216991Y0228542D01*
X0217076Y0228555D01*
X0217161Y0228565D01*
X0217247Y0228570D01*
X0217333Y0228572D01*
X0215364Y0226603D02*
X0215366Y0226517D01*
X0215371Y0226431D01*
X0215381Y0226346D01*
X0215394Y0226261D01*
X0215411Y0226177D01*
X0215431Y0226093D01*
X0215455Y0226011D01*
X0215483Y0225930D01*
X0215514Y0225849D01*
X0215548Y0225771D01*
X0215586Y0225694D01*
X0215628Y0225619D01*
X0215672Y0225545D01*
X0215720Y0225474D01*
X0215771Y0225404D01*
X0215825Y0225337D01*
X0215881Y0225273D01*
X0215941Y0225211D01*
X0216003Y0225151D01*
X0216067Y0225095D01*
X0216134Y0225041D01*
X0216204Y0224990D01*
X0216275Y0224942D01*
X0216349Y0224898D01*
X0216424Y0224856D01*
X0216501Y0224818D01*
X0216579Y0224784D01*
X0216660Y0224753D01*
X0216741Y0224725D01*
X0216823Y0224701D01*
X0216907Y0224681D01*
X0216991Y0224664D01*
X0217076Y0224651D01*
X0217161Y0224641D01*
X0217247Y0224636D01*
X0217333Y0224634D01*
X0217333Y0212824D02*
X0237018Y0212824D01*
X0237018Y0208887D02*
X0217333Y0208887D01*
X0217333Y0208886D02*
X0217247Y0208888D01*
X0217161Y0208893D01*
X0217076Y0208903D01*
X0216991Y0208916D01*
X0216907Y0208933D01*
X0216823Y0208953D01*
X0216741Y0208977D01*
X0216660Y0209005D01*
X0216579Y0209036D01*
X0216501Y0209070D01*
X0216424Y0209108D01*
X0216349Y0209150D01*
X0216275Y0209194D01*
X0216204Y0209242D01*
X0216134Y0209293D01*
X0216067Y0209347D01*
X0216003Y0209403D01*
X0215941Y0209463D01*
X0215881Y0209525D01*
X0215825Y0209589D01*
X0215771Y0209656D01*
X0215720Y0209726D01*
X0215672Y0209797D01*
X0215628Y0209871D01*
X0215586Y0209946D01*
X0215548Y0210023D01*
X0215514Y0210101D01*
X0215483Y0210182D01*
X0215455Y0210263D01*
X0215431Y0210345D01*
X0215411Y0210429D01*
X0215394Y0210513D01*
X0215381Y0210598D01*
X0215371Y0210683D01*
X0215366Y0210769D01*
X0215364Y0210855D01*
X0215366Y0210941D01*
X0215371Y0211027D01*
X0215381Y0211112D01*
X0215394Y0211197D01*
X0215411Y0211281D01*
X0215431Y0211365D01*
X0215455Y0211447D01*
X0215483Y0211528D01*
X0215514Y0211609D01*
X0215548Y0211687D01*
X0215586Y0211764D01*
X0215628Y0211840D01*
X0215672Y0211913D01*
X0215720Y0211984D01*
X0215771Y0212054D01*
X0215825Y0212121D01*
X0215881Y0212185D01*
X0215941Y0212247D01*
X0216003Y0212307D01*
X0216067Y0212363D01*
X0216134Y0212417D01*
X0216204Y0212468D01*
X0216275Y0212516D01*
X0216349Y0212560D01*
X0216424Y0212602D01*
X0216501Y0212640D01*
X0216579Y0212674D01*
X0216660Y0212705D01*
X0216741Y0212733D01*
X0216823Y0212757D01*
X0216907Y0212777D01*
X0216991Y0212794D01*
X0217076Y0212807D01*
X0217161Y0212817D01*
X0217247Y0212822D01*
X0217333Y0212824D01*
X0237018Y0228572D02*
X0237256Y0228569D01*
X0237494Y0228561D01*
X0237731Y0228546D01*
X0237968Y0228526D01*
X0238204Y0228500D01*
X0238440Y0228469D01*
X0238675Y0228432D01*
X0238909Y0228389D01*
X0239142Y0228340D01*
X0239374Y0228286D01*
X0239604Y0228226D01*
X0239833Y0228161D01*
X0240060Y0228090D01*
X0240285Y0228014D01*
X0240508Y0227932D01*
X0240730Y0227845D01*
X0240949Y0227753D01*
X0241166Y0227655D01*
X0241380Y0227553D01*
X0241592Y0227445D01*
X0241802Y0227331D01*
X0242008Y0227213D01*
X0242212Y0227090D01*
X0242412Y0226962D01*
X0242609Y0226830D01*
X0242804Y0226692D01*
X0242994Y0226550D01*
X0243182Y0226403D01*
X0243365Y0226252D01*
X0243545Y0226097D01*
X0243721Y0225937D01*
X0243893Y0225773D01*
X0244062Y0225604D01*
X0244226Y0225432D01*
X0244386Y0225256D01*
X0244541Y0225076D01*
X0244692Y0224893D01*
X0244839Y0224705D01*
X0244981Y0224515D01*
X0245119Y0224320D01*
X0245251Y0224123D01*
X0245379Y0223923D01*
X0245502Y0223719D01*
X0245620Y0223513D01*
X0245734Y0223303D01*
X0245842Y0223091D01*
X0245944Y0222877D01*
X0246042Y0222660D01*
X0246134Y0222441D01*
X0246221Y0222219D01*
X0246303Y0221996D01*
X0246379Y0221771D01*
X0246450Y0221544D01*
X0246515Y0221315D01*
X0246575Y0221085D01*
X0246629Y0220853D01*
X0246678Y0220620D01*
X0246721Y0220386D01*
X0246758Y0220151D01*
X0246789Y0219915D01*
X0246815Y0219679D01*
X0246835Y0219442D01*
X0246850Y0219205D01*
X0246858Y0218967D01*
X0246861Y0218729D01*
X0246858Y0218491D01*
X0246850Y0218253D01*
X0246835Y0218016D01*
X0246815Y0217779D01*
X0246789Y0217543D01*
X0246758Y0217307D01*
X0246721Y0217072D01*
X0246678Y0216838D01*
X0246629Y0216605D01*
X0246575Y0216373D01*
X0246515Y0216143D01*
X0246450Y0215914D01*
X0246379Y0215687D01*
X0246303Y0215462D01*
X0246221Y0215239D01*
X0246134Y0215017D01*
X0246042Y0214798D01*
X0245944Y0214581D01*
X0245842Y0214367D01*
X0245734Y0214155D01*
X0245620Y0213945D01*
X0245502Y0213739D01*
X0245379Y0213535D01*
X0245251Y0213335D01*
X0245119Y0213138D01*
X0244981Y0212943D01*
X0244839Y0212753D01*
X0244692Y0212565D01*
X0244541Y0212382D01*
X0244386Y0212202D01*
X0244226Y0212026D01*
X0244062Y0211854D01*
X0243893Y0211685D01*
X0243721Y0211521D01*
X0243545Y0211361D01*
X0243365Y0211206D01*
X0243182Y0211055D01*
X0242994Y0210908D01*
X0242804Y0210766D01*
X0242609Y0210628D01*
X0242412Y0210496D01*
X0242212Y0210368D01*
X0242008Y0210245D01*
X0241802Y0210127D01*
X0241592Y0210013D01*
X0241380Y0209905D01*
X0241166Y0209803D01*
X0240949Y0209705D01*
X0240730Y0209613D01*
X0240508Y0209526D01*
X0240285Y0209444D01*
X0240060Y0209368D01*
X0239833Y0209297D01*
X0239604Y0209232D01*
X0239374Y0209172D01*
X0239142Y0209118D01*
X0238909Y0209069D01*
X0238675Y0209026D01*
X0238440Y0208989D01*
X0238204Y0208958D01*
X0237968Y0208932D01*
X0237731Y0208912D01*
X0237494Y0208897D01*
X0237256Y0208889D01*
X0237018Y0208886D01*
X0237018Y0212823D02*
X0237170Y0212825D01*
X0237322Y0212831D01*
X0237474Y0212841D01*
X0237625Y0212854D01*
X0237776Y0212872D01*
X0237927Y0212893D01*
X0238077Y0212919D01*
X0238226Y0212948D01*
X0238375Y0212981D01*
X0238522Y0213018D01*
X0238669Y0213058D01*
X0238814Y0213103D01*
X0238958Y0213151D01*
X0239101Y0213203D01*
X0239243Y0213258D01*
X0239383Y0213317D01*
X0239522Y0213380D01*
X0239659Y0213446D01*
X0239794Y0213516D01*
X0239927Y0213589D01*
X0240058Y0213666D01*
X0240188Y0213746D01*
X0240315Y0213829D01*
X0240440Y0213915D01*
X0240563Y0214005D01*
X0240683Y0214098D01*
X0240801Y0214194D01*
X0240917Y0214293D01*
X0241030Y0214395D01*
X0241140Y0214499D01*
X0241248Y0214607D01*
X0241352Y0214717D01*
X0241454Y0214830D01*
X0241553Y0214946D01*
X0241649Y0215064D01*
X0241742Y0215184D01*
X0241832Y0215307D01*
X0241918Y0215432D01*
X0242001Y0215559D01*
X0242081Y0215689D01*
X0242158Y0215820D01*
X0242231Y0215953D01*
X0242301Y0216088D01*
X0242367Y0216225D01*
X0242430Y0216364D01*
X0242489Y0216504D01*
X0242544Y0216646D01*
X0242596Y0216789D01*
X0242644Y0216933D01*
X0242689Y0217078D01*
X0242729Y0217225D01*
X0242766Y0217372D01*
X0242799Y0217521D01*
X0242828Y0217670D01*
X0242854Y0217820D01*
X0242875Y0217971D01*
X0242893Y0218122D01*
X0242906Y0218273D01*
X0242916Y0218425D01*
X0242922Y0218577D01*
X0242924Y0218729D01*
X0242922Y0218881D01*
X0242916Y0219033D01*
X0242906Y0219185D01*
X0242893Y0219336D01*
X0242875Y0219487D01*
X0242854Y0219638D01*
X0242828Y0219788D01*
X0242799Y0219937D01*
X0242766Y0220086D01*
X0242729Y0220233D01*
X0242689Y0220380D01*
X0242644Y0220525D01*
X0242596Y0220669D01*
X0242544Y0220812D01*
X0242489Y0220954D01*
X0242430Y0221094D01*
X0242367Y0221233D01*
X0242301Y0221370D01*
X0242231Y0221505D01*
X0242158Y0221638D01*
X0242081Y0221769D01*
X0242001Y0221899D01*
X0241918Y0222026D01*
X0241832Y0222151D01*
X0241742Y0222274D01*
X0241649Y0222394D01*
X0241553Y0222512D01*
X0241454Y0222628D01*
X0241352Y0222741D01*
X0241248Y0222851D01*
X0241140Y0222959D01*
X0241030Y0223063D01*
X0240917Y0223165D01*
X0240801Y0223264D01*
X0240683Y0223360D01*
X0240563Y0223453D01*
X0240440Y0223543D01*
X0240315Y0223629D01*
X0240188Y0223712D01*
X0240058Y0223792D01*
X0239927Y0223869D01*
X0239794Y0223942D01*
X0239659Y0224012D01*
X0239522Y0224078D01*
X0239383Y0224141D01*
X0239243Y0224200D01*
X0239101Y0224255D01*
X0238958Y0224307D01*
X0238814Y0224355D01*
X0238669Y0224400D01*
X0238522Y0224440D01*
X0238375Y0224477D01*
X0238226Y0224510D01*
X0238077Y0224539D01*
X0237927Y0224565D01*
X0237776Y0224586D01*
X0237625Y0224604D01*
X0237474Y0224617D01*
X0237322Y0224627D01*
X0237170Y0224633D01*
X0237018Y0224635D01*
X0083868Y0226209D02*
X0030719Y0226209D01*
X0028750Y0228178D02*
X0028752Y0228264D01*
X0028757Y0228350D01*
X0028767Y0228435D01*
X0028780Y0228520D01*
X0028797Y0228604D01*
X0028817Y0228688D01*
X0028841Y0228770D01*
X0028869Y0228851D01*
X0028900Y0228932D01*
X0028934Y0229010D01*
X0028972Y0229087D01*
X0029014Y0229163D01*
X0029058Y0229236D01*
X0029106Y0229307D01*
X0029157Y0229377D01*
X0029211Y0229444D01*
X0029267Y0229508D01*
X0029327Y0229570D01*
X0029389Y0229630D01*
X0029453Y0229686D01*
X0029520Y0229740D01*
X0029590Y0229791D01*
X0029661Y0229839D01*
X0029735Y0229883D01*
X0029810Y0229925D01*
X0029887Y0229963D01*
X0029965Y0229997D01*
X0030046Y0230028D01*
X0030127Y0230056D01*
X0030209Y0230080D01*
X0030293Y0230100D01*
X0030377Y0230117D01*
X0030462Y0230130D01*
X0030547Y0230140D01*
X0030633Y0230145D01*
X0030719Y0230147D01*
X0030719Y0230146D02*
X0083868Y0230146D01*
X0083868Y0230147D02*
X0083954Y0230145D01*
X0084040Y0230140D01*
X0084125Y0230130D01*
X0084210Y0230117D01*
X0084294Y0230100D01*
X0084378Y0230080D01*
X0084460Y0230056D01*
X0084541Y0230028D01*
X0084622Y0229997D01*
X0084700Y0229963D01*
X0084777Y0229925D01*
X0084853Y0229883D01*
X0084926Y0229839D01*
X0084997Y0229791D01*
X0085067Y0229740D01*
X0085134Y0229686D01*
X0085198Y0229630D01*
X0085260Y0229570D01*
X0085320Y0229508D01*
X0085376Y0229444D01*
X0085430Y0229377D01*
X0085481Y0229307D01*
X0085529Y0229236D01*
X0085573Y0229163D01*
X0085615Y0229087D01*
X0085653Y0229010D01*
X0085687Y0228932D01*
X0085718Y0228851D01*
X0085746Y0228770D01*
X0085770Y0228688D01*
X0085790Y0228604D01*
X0085807Y0228520D01*
X0085820Y0228435D01*
X0085830Y0228350D01*
X0085835Y0228264D01*
X0085837Y0228178D01*
X0085835Y0228092D01*
X0085830Y0228006D01*
X0085820Y0227921D01*
X0085807Y0227836D01*
X0085790Y0227752D01*
X0085770Y0227668D01*
X0085746Y0227586D01*
X0085718Y0227505D01*
X0085687Y0227424D01*
X0085653Y0227346D01*
X0085615Y0227269D01*
X0085573Y0227194D01*
X0085529Y0227120D01*
X0085481Y0227049D01*
X0085430Y0226979D01*
X0085376Y0226912D01*
X0085320Y0226848D01*
X0085260Y0226786D01*
X0085198Y0226726D01*
X0085134Y0226670D01*
X0085067Y0226616D01*
X0084997Y0226565D01*
X0084926Y0226517D01*
X0084853Y0226473D01*
X0084777Y0226431D01*
X0084700Y0226393D01*
X0084622Y0226359D01*
X0084541Y0226328D01*
X0084460Y0226300D01*
X0084378Y0226276D01*
X0084294Y0226256D01*
X0084210Y0226239D01*
X0084125Y0226226D01*
X0084040Y0226216D01*
X0083954Y0226211D01*
X0083868Y0226209D01*
X0083868Y0210461D02*
X0030719Y0210461D01*
X0030719Y0210462D02*
X0030633Y0210460D01*
X0030547Y0210455D01*
X0030462Y0210445D01*
X0030377Y0210432D01*
X0030293Y0210415D01*
X0030209Y0210395D01*
X0030127Y0210371D01*
X0030046Y0210343D01*
X0029965Y0210312D01*
X0029887Y0210278D01*
X0029810Y0210240D01*
X0029735Y0210198D01*
X0029661Y0210154D01*
X0029590Y0210106D01*
X0029520Y0210055D01*
X0029453Y0210001D01*
X0029389Y0209945D01*
X0029327Y0209885D01*
X0029267Y0209823D01*
X0029211Y0209759D01*
X0029157Y0209692D01*
X0029106Y0209622D01*
X0029058Y0209551D01*
X0029014Y0209478D01*
X0028972Y0209402D01*
X0028934Y0209325D01*
X0028900Y0209247D01*
X0028869Y0209166D01*
X0028841Y0209085D01*
X0028817Y0209003D01*
X0028797Y0208919D01*
X0028780Y0208835D01*
X0028767Y0208750D01*
X0028757Y0208665D01*
X0028752Y0208579D01*
X0028750Y0208493D01*
X0028752Y0208407D01*
X0028757Y0208321D01*
X0028767Y0208236D01*
X0028780Y0208151D01*
X0028797Y0208067D01*
X0028817Y0207983D01*
X0028841Y0207901D01*
X0028869Y0207820D01*
X0028900Y0207739D01*
X0028934Y0207661D01*
X0028972Y0207584D01*
X0029014Y0207509D01*
X0029058Y0207435D01*
X0029106Y0207364D01*
X0029157Y0207294D01*
X0029211Y0207227D01*
X0029267Y0207163D01*
X0029327Y0207101D01*
X0029389Y0207041D01*
X0029453Y0206985D01*
X0029520Y0206931D01*
X0029590Y0206880D01*
X0029661Y0206832D01*
X0029734Y0206788D01*
X0029810Y0206746D01*
X0029887Y0206708D01*
X0029965Y0206674D01*
X0030046Y0206643D01*
X0030127Y0206615D01*
X0030209Y0206591D01*
X0030293Y0206571D01*
X0030377Y0206554D01*
X0030462Y0206541D01*
X0030547Y0206531D01*
X0030633Y0206526D01*
X0030719Y0206524D01*
X0083868Y0206524D01*
X0085837Y0208493D02*
X0085835Y0208579D01*
X0085830Y0208665D01*
X0085820Y0208750D01*
X0085807Y0208835D01*
X0085790Y0208919D01*
X0085770Y0209003D01*
X0085746Y0209085D01*
X0085718Y0209166D01*
X0085687Y0209247D01*
X0085653Y0209325D01*
X0085615Y0209402D01*
X0085573Y0209478D01*
X0085529Y0209551D01*
X0085481Y0209622D01*
X0085430Y0209692D01*
X0085376Y0209759D01*
X0085320Y0209823D01*
X0085260Y0209885D01*
X0085198Y0209945D01*
X0085134Y0210001D01*
X0085067Y0210055D01*
X0084997Y0210106D01*
X0084926Y0210154D01*
X0084853Y0210198D01*
X0084777Y0210240D01*
X0084700Y0210278D01*
X0084622Y0210312D01*
X0084541Y0210343D01*
X0084460Y0210371D01*
X0084378Y0210395D01*
X0084294Y0210415D01*
X0084210Y0210432D01*
X0084125Y0210445D01*
X0084040Y0210455D01*
X0083954Y0210460D01*
X0083868Y0210462D01*
X0085837Y0208493D02*
X0085835Y0208407D01*
X0085830Y0208321D01*
X0085820Y0208236D01*
X0085807Y0208151D01*
X0085790Y0208067D01*
X0085770Y0207983D01*
X0085746Y0207901D01*
X0085718Y0207820D01*
X0085687Y0207739D01*
X0085653Y0207661D01*
X0085615Y0207584D01*
X0085573Y0207509D01*
X0085529Y0207435D01*
X0085481Y0207364D01*
X0085430Y0207294D01*
X0085376Y0207227D01*
X0085320Y0207163D01*
X0085260Y0207101D01*
X0085198Y0207041D01*
X0085134Y0206985D01*
X0085067Y0206931D01*
X0084997Y0206880D01*
X0084926Y0206832D01*
X0084853Y0206788D01*
X0084777Y0206746D01*
X0084700Y0206708D01*
X0084622Y0206674D01*
X0084541Y0206643D01*
X0084460Y0206615D01*
X0084378Y0206591D01*
X0084294Y0206571D01*
X0084210Y0206554D01*
X0084125Y0206541D01*
X0084040Y0206531D01*
X0083954Y0206526D01*
X0083868Y0206524D01*
X0030719Y0226209D02*
X0030633Y0226211D01*
X0030547Y0226216D01*
X0030462Y0226226D01*
X0030377Y0226239D01*
X0030293Y0226256D01*
X0030209Y0226276D01*
X0030127Y0226300D01*
X0030046Y0226328D01*
X0029965Y0226359D01*
X0029887Y0226393D01*
X0029810Y0226431D01*
X0029734Y0226473D01*
X0029661Y0226517D01*
X0029590Y0226565D01*
X0029520Y0226616D01*
X0029453Y0226670D01*
X0029389Y0226726D01*
X0029327Y0226786D01*
X0029267Y0226848D01*
X0029211Y0226912D01*
X0029157Y0226979D01*
X0029106Y0227049D01*
X0029058Y0227120D01*
X0029014Y0227194D01*
X0028972Y0227269D01*
X0028934Y0227346D01*
X0028900Y0227424D01*
X0028869Y0227505D01*
X0028841Y0227586D01*
X0028817Y0227668D01*
X0028797Y0227752D01*
X0028780Y0227836D01*
X0028767Y0227921D01*
X0028757Y0228006D01*
X0028752Y0228092D01*
X0028750Y0228178D01*
D12*
X0030325Y0088414D02*
X0030327Y0088483D01*
X0030333Y0088551D01*
X0030343Y0088619D01*
X0030357Y0088686D01*
X0030375Y0088753D01*
X0030396Y0088818D01*
X0030422Y0088882D01*
X0030451Y0088944D01*
X0030483Y0089004D01*
X0030519Y0089063D01*
X0030559Y0089119D01*
X0030601Y0089173D01*
X0030647Y0089224D01*
X0030696Y0089273D01*
X0030747Y0089319D01*
X0030801Y0089361D01*
X0030857Y0089401D01*
X0030915Y0089437D01*
X0030976Y0089469D01*
X0031038Y0089498D01*
X0031102Y0089524D01*
X0031167Y0089545D01*
X0031234Y0089563D01*
X0031301Y0089577D01*
X0031369Y0089587D01*
X0031437Y0089593D01*
X0031506Y0089595D01*
X0031575Y0089593D01*
X0031643Y0089587D01*
X0031711Y0089577D01*
X0031778Y0089563D01*
X0031845Y0089545D01*
X0031910Y0089524D01*
X0031974Y0089498D01*
X0032036Y0089469D01*
X0032096Y0089437D01*
X0032155Y0089401D01*
X0032211Y0089361D01*
X0032265Y0089319D01*
X0032316Y0089273D01*
X0032365Y0089224D01*
X0032411Y0089173D01*
X0032453Y0089119D01*
X0032493Y0089063D01*
X0032529Y0089004D01*
X0032561Y0088944D01*
X0032590Y0088882D01*
X0032616Y0088818D01*
X0032637Y0088753D01*
X0032655Y0088686D01*
X0032669Y0088619D01*
X0032679Y0088551D01*
X0032685Y0088483D01*
X0032687Y0088414D01*
X0032685Y0088345D01*
X0032679Y0088277D01*
X0032669Y0088209D01*
X0032655Y0088142D01*
X0032637Y0088075D01*
X0032616Y0088010D01*
X0032590Y0087946D01*
X0032561Y0087884D01*
X0032529Y0087823D01*
X0032493Y0087765D01*
X0032453Y0087709D01*
X0032411Y0087655D01*
X0032365Y0087604D01*
X0032316Y0087555D01*
X0032265Y0087509D01*
X0032211Y0087467D01*
X0032155Y0087427D01*
X0032097Y0087391D01*
X0032036Y0087359D01*
X0031974Y0087330D01*
X0031910Y0087304D01*
X0031845Y0087283D01*
X0031778Y0087265D01*
X0031711Y0087251D01*
X0031643Y0087241D01*
X0031575Y0087235D01*
X0031506Y0087233D01*
X0031437Y0087235D01*
X0031369Y0087241D01*
X0031301Y0087251D01*
X0031234Y0087265D01*
X0031167Y0087283D01*
X0031102Y0087304D01*
X0031038Y0087330D01*
X0030976Y0087359D01*
X0030915Y0087391D01*
X0030857Y0087427D01*
X0030801Y0087467D01*
X0030747Y0087509D01*
X0030696Y0087555D01*
X0030647Y0087604D01*
X0030601Y0087655D01*
X0030559Y0087709D01*
X0030519Y0087765D01*
X0030483Y0087823D01*
X0030451Y0087884D01*
X0030422Y0087946D01*
X0030396Y0088010D01*
X0030375Y0088075D01*
X0030357Y0088142D01*
X0030343Y0088209D01*
X0030333Y0088277D01*
X0030327Y0088345D01*
X0030325Y0088414D01*
X0030325Y0072666D02*
X0030327Y0072735D01*
X0030333Y0072803D01*
X0030343Y0072871D01*
X0030357Y0072938D01*
X0030375Y0073005D01*
X0030396Y0073070D01*
X0030422Y0073134D01*
X0030451Y0073196D01*
X0030483Y0073256D01*
X0030519Y0073315D01*
X0030559Y0073371D01*
X0030601Y0073425D01*
X0030647Y0073476D01*
X0030696Y0073525D01*
X0030747Y0073571D01*
X0030801Y0073613D01*
X0030857Y0073653D01*
X0030915Y0073689D01*
X0030976Y0073721D01*
X0031038Y0073750D01*
X0031102Y0073776D01*
X0031167Y0073797D01*
X0031234Y0073815D01*
X0031301Y0073829D01*
X0031369Y0073839D01*
X0031437Y0073845D01*
X0031506Y0073847D01*
X0031575Y0073845D01*
X0031643Y0073839D01*
X0031711Y0073829D01*
X0031778Y0073815D01*
X0031845Y0073797D01*
X0031910Y0073776D01*
X0031974Y0073750D01*
X0032036Y0073721D01*
X0032096Y0073689D01*
X0032155Y0073653D01*
X0032211Y0073613D01*
X0032265Y0073571D01*
X0032316Y0073525D01*
X0032365Y0073476D01*
X0032411Y0073425D01*
X0032453Y0073371D01*
X0032493Y0073315D01*
X0032529Y0073256D01*
X0032561Y0073196D01*
X0032590Y0073134D01*
X0032616Y0073070D01*
X0032637Y0073005D01*
X0032655Y0072938D01*
X0032669Y0072871D01*
X0032679Y0072803D01*
X0032685Y0072735D01*
X0032687Y0072666D01*
X0032685Y0072597D01*
X0032679Y0072529D01*
X0032669Y0072461D01*
X0032655Y0072394D01*
X0032637Y0072327D01*
X0032616Y0072262D01*
X0032590Y0072198D01*
X0032561Y0072136D01*
X0032529Y0072075D01*
X0032493Y0072017D01*
X0032453Y0071961D01*
X0032411Y0071907D01*
X0032365Y0071856D01*
X0032316Y0071807D01*
X0032265Y0071761D01*
X0032211Y0071719D01*
X0032155Y0071679D01*
X0032097Y0071643D01*
X0032036Y0071611D01*
X0031974Y0071582D01*
X0031910Y0071556D01*
X0031845Y0071535D01*
X0031778Y0071517D01*
X0031711Y0071503D01*
X0031643Y0071493D01*
X0031575Y0071487D01*
X0031506Y0071485D01*
X0031437Y0071487D01*
X0031369Y0071493D01*
X0031301Y0071503D01*
X0031234Y0071517D01*
X0031167Y0071535D01*
X0031102Y0071556D01*
X0031038Y0071582D01*
X0030976Y0071611D01*
X0030915Y0071643D01*
X0030857Y0071679D01*
X0030801Y0071719D01*
X0030747Y0071761D01*
X0030696Y0071807D01*
X0030647Y0071856D01*
X0030601Y0071907D01*
X0030559Y0071961D01*
X0030519Y0072017D01*
X0030483Y0072075D01*
X0030451Y0072136D01*
X0030422Y0072198D01*
X0030396Y0072262D01*
X0030375Y0072327D01*
X0030357Y0072394D01*
X0030343Y0072461D01*
X0030333Y0072529D01*
X0030327Y0072597D01*
X0030325Y0072666D01*
X0073829Y0017548D02*
X0073831Y0017704D01*
X0073837Y0017860D01*
X0073847Y0018015D01*
X0073861Y0018170D01*
X0073879Y0018325D01*
X0073901Y0018479D01*
X0073926Y0018633D01*
X0073956Y0018786D01*
X0073990Y0018938D01*
X0074027Y0019090D01*
X0074068Y0019240D01*
X0074113Y0019389D01*
X0074162Y0019537D01*
X0074215Y0019684D01*
X0074271Y0019829D01*
X0074331Y0019973D01*
X0074395Y0020115D01*
X0074463Y0020256D01*
X0074534Y0020394D01*
X0074608Y0020531D01*
X0074686Y0020666D01*
X0074767Y0020799D01*
X0074852Y0020930D01*
X0074940Y0021059D01*
X0075031Y0021185D01*
X0075126Y0021309D01*
X0075223Y0021430D01*
X0075324Y0021549D01*
X0075428Y0021666D01*
X0075534Y0021779D01*
X0075644Y0021890D01*
X0075756Y0021998D01*
X0075871Y0022103D01*
X0075989Y0022206D01*
X0076109Y0022305D01*
X0076232Y0022401D01*
X0076357Y0022494D01*
X0076484Y0022583D01*
X0076614Y0022670D01*
X0076746Y0022753D01*
X0076880Y0022832D01*
X0077016Y0022909D01*
X0077154Y0022981D01*
X0077293Y0023051D01*
X0077435Y0023116D01*
X0077578Y0023178D01*
X0077722Y0023236D01*
X0077868Y0023291D01*
X0078016Y0023342D01*
X0078164Y0023389D01*
X0078314Y0023432D01*
X0078465Y0023471D01*
X0078617Y0023507D01*
X0078769Y0023538D01*
X0078923Y0023566D01*
X0079077Y0023590D01*
X0079231Y0023610D01*
X0079386Y0023626D01*
X0079542Y0023638D01*
X0079697Y0023646D01*
X0079853Y0023650D01*
X0080009Y0023650D01*
X0080165Y0023646D01*
X0080320Y0023638D01*
X0080476Y0023626D01*
X0080631Y0023610D01*
X0080785Y0023590D01*
X0080939Y0023566D01*
X0081093Y0023538D01*
X0081245Y0023507D01*
X0081397Y0023471D01*
X0081548Y0023432D01*
X0081698Y0023389D01*
X0081846Y0023342D01*
X0081994Y0023291D01*
X0082140Y0023236D01*
X0082284Y0023178D01*
X0082427Y0023116D01*
X0082569Y0023051D01*
X0082708Y0022981D01*
X0082846Y0022909D01*
X0082982Y0022832D01*
X0083116Y0022753D01*
X0083248Y0022670D01*
X0083378Y0022583D01*
X0083505Y0022494D01*
X0083630Y0022401D01*
X0083753Y0022305D01*
X0083873Y0022206D01*
X0083991Y0022103D01*
X0084106Y0021998D01*
X0084218Y0021890D01*
X0084328Y0021779D01*
X0084434Y0021666D01*
X0084538Y0021549D01*
X0084639Y0021430D01*
X0084736Y0021309D01*
X0084831Y0021185D01*
X0084922Y0021059D01*
X0085010Y0020930D01*
X0085095Y0020799D01*
X0085176Y0020666D01*
X0085254Y0020531D01*
X0085328Y0020394D01*
X0085399Y0020256D01*
X0085467Y0020115D01*
X0085531Y0019973D01*
X0085591Y0019829D01*
X0085647Y0019684D01*
X0085700Y0019537D01*
X0085749Y0019389D01*
X0085794Y0019240D01*
X0085835Y0019090D01*
X0085872Y0018938D01*
X0085906Y0018786D01*
X0085936Y0018633D01*
X0085961Y0018479D01*
X0085983Y0018325D01*
X0086001Y0018170D01*
X0086015Y0018015D01*
X0086025Y0017860D01*
X0086031Y0017704D01*
X0086033Y0017548D01*
X0086031Y0017392D01*
X0086025Y0017236D01*
X0086015Y0017081D01*
X0086001Y0016926D01*
X0085983Y0016771D01*
X0085961Y0016617D01*
X0085936Y0016463D01*
X0085906Y0016310D01*
X0085872Y0016158D01*
X0085835Y0016006D01*
X0085794Y0015856D01*
X0085749Y0015707D01*
X0085700Y0015559D01*
X0085647Y0015412D01*
X0085591Y0015267D01*
X0085531Y0015123D01*
X0085467Y0014981D01*
X0085399Y0014840D01*
X0085328Y0014702D01*
X0085254Y0014565D01*
X0085176Y0014430D01*
X0085095Y0014297D01*
X0085010Y0014166D01*
X0084922Y0014037D01*
X0084831Y0013911D01*
X0084736Y0013787D01*
X0084639Y0013666D01*
X0084538Y0013547D01*
X0084434Y0013430D01*
X0084328Y0013317D01*
X0084218Y0013206D01*
X0084106Y0013098D01*
X0083991Y0012993D01*
X0083873Y0012890D01*
X0083753Y0012791D01*
X0083630Y0012695D01*
X0083505Y0012602D01*
X0083378Y0012513D01*
X0083248Y0012426D01*
X0083116Y0012343D01*
X0082982Y0012264D01*
X0082846Y0012187D01*
X0082708Y0012115D01*
X0082569Y0012045D01*
X0082427Y0011980D01*
X0082284Y0011918D01*
X0082140Y0011860D01*
X0081994Y0011805D01*
X0081846Y0011754D01*
X0081698Y0011707D01*
X0081548Y0011664D01*
X0081397Y0011625D01*
X0081245Y0011589D01*
X0081093Y0011558D01*
X0080939Y0011530D01*
X0080785Y0011506D01*
X0080631Y0011486D01*
X0080476Y0011470D01*
X0080320Y0011458D01*
X0080165Y0011450D01*
X0080009Y0011446D01*
X0079853Y0011446D01*
X0079697Y0011450D01*
X0079542Y0011458D01*
X0079386Y0011470D01*
X0079231Y0011486D01*
X0079077Y0011506D01*
X0078923Y0011530D01*
X0078769Y0011558D01*
X0078617Y0011589D01*
X0078465Y0011625D01*
X0078314Y0011664D01*
X0078164Y0011707D01*
X0078016Y0011754D01*
X0077868Y0011805D01*
X0077722Y0011860D01*
X0077578Y0011918D01*
X0077435Y0011980D01*
X0077293Y0012045D01*
X0077154Y0012115D01*
X0077016Y0012187D01*
X0076880Y0012264D01*
X0076746Y0012343D01*
X0076614Y0012426D01*
X0076484Y0012513D01*
X0076357Y0012602D01*
X0076232Y0012695D01*
X0076109Y0012791D01*
X0075989Y0012890D01*
X0075871Y0012993D01*
X0075756Y0013098D01*
X0075644Y0013206D01*
X0075534Y0013317D01*
X0075428Y0013430D01*
X0075324Y0013547D01*
X0075223Y0013666D01*
X0075126Y0013787D01*
X0075031Y0013911D01*
X0074940Y0014037D01*
X0074852Y0014166D01*
X0074767Y0014297D01*
X0074686Y0014430D01*
X0074608Y0014565D01*
X0074534Y0014702D01*
X0074463Y0014840D01*
X0074395Y0014981D01*
X0074331Y0015123D01*
X0074271Y0015267D01*
X0074215Y0015412D01*
X0074162Y0015559D01*
X0074113Y0015707D01*
X0074068Y0015856D01*
X0074027Y0016006D01*
X0073990Y0016158D01*
X0073956Y0016310D01*
X0073926Y0016463D01*
X0073901Y0016617D01*
X0073879Y0016771D01*
X0073861Y0016926D01*
X0073847Y0017081D01*
X0073837Y0017236D01*
X0073831Y0017392D01*
X0073829Y0017548D01*
X0231309Y0017548D02*
X0231311Y0017704D01*
X0231317Y0017860D01*
X0231327Y0018015D01*
X0231341Y0018170D01*
X0231359Y0018325D01*
X0231381Y0018479D01*
X0231406Y0018633D01*
X0231436Y0018786D01*
X0231470Y0018938D01*
X0231507Y0019090D01*
X0231548Y0019240D01*
X0231593Y0019389D01*
X0231642Y0019537D01*
X0231695Y0019684D01*
X0231751Y0019829D01*
X0231811Y0019973D01*
X0231875Y0020115D01*
X0231943Y0020256D01*
X0232014Y0020394D01*
X0232088Y0020531D01*
X0232166Y0020666D01*
X0232247Y0020799D01*
X0232332Y0020930D01*
X0232420Y0021059D01*
X0232511Y0021185D01*
X0232606Y0021309D01*
X0232703Y0021430D01*
X0232804Y0021549D01*
X0232908Y0021666D01*
X0233014Y0021779D01*
X0233124Y0021890D01*
X0233236Y0021998D01*
X0233351Y0022103D01*
X0233469Y0022206D01*
X0233589Y0022305D01*
X0233712Y0022401D01*
X0233837Y0022494D01*
X0233964Y0022583D01*
X0234094Y0022670D01*
X0234226Y0022753D01*
X0234360Y0022832D01*
X0234496Y0022909D01*
X0234634Y0022981D01*
X0234773Y0023051D01*
X0234915Y0023116D01*
X0235058Y0023178D01*
X0235202Y0023236D01*
X0235348Y0023291D01*
X0235496Y0023342D01*
X0235644Y0023389D01*
X0235794Y0023432D01*
X0235945Y0023471D01*
X0236097Y0023507D01*
X0236249Y0023538D01*
X0236403Y0023566D01*
X0236557Y0023590D01*
X0236711Y0023610D01*
X0236866Y0023626D01*
X0237022Y0023638D01*
X0237177Y0023646D01*
X0237333Y0023650D01*
X0237489Y0023650D01*
X0237645Y0023646D01*
X0237800Y0023638D01*
X0237956Y0023626D01*
X0238111Y0023610D01*
X0238265Y0023590D01*
X0238419Y0023566D01*
X0238573Y0023538D01*
X0238725Y0023507D01*
X0238877Y0023471D01*
X0239028Y0023432D01*
X0239178Y0023389D01*
X0239326Y0023342D01*
X0239474Y0023291D01*
X0239620Y0023236D01*
X0239764Y0023178D01*
X0239907Y0023116D01*
X0240049Y0023051D01*
X0240188Y0022981D01*
X0240326Y0022909D01*
X0240462Y0022832D01*
X0240596Y0022753D01*
X0240728Y0022670D01*
X0240858Y0022583D01*
X0240985Y0022494D01*
X0241110Y0022401D01*
X0241233Y0022305D01*
X0241353Y0022206D01*
X0241471Y0022103D01*
X0241586Y0021998D01*
X0241698Y0021890D01*
X0241808Y0021779D01*
X0241914Y0021666D01*
X0242018Y0021549D01*
X0242119Y0021430D01*
X0242216Y0021309D01*
X0242311Y0021185D01*
X0242402Y0021059D01*
X0242490Y0020930D01*
X0242575Y0020799D01*
X0242656Y0020666D01*
X0242734Y0020531D01*
X0242808Y0020394D01*
X0242879Y0020256D01*
X0242947Y0020115D01*
X0243011Y0019973D01*
X0243071Y0019829D01*
X0243127Y0019684D01*
X0243180Y0019537D01*
X0243229Y0019389D01*
X0243274Y0019240D01*
X0243315Y0019090D01*
X0243352Y0018938D01*
X0243386Y0018786D01*
X0243416Y0018633D01*
X0243441Y0018479D01*
X0243463Y0018325D01*
X0243481Y0018170D01*
X0243495Y0018015D01*
X0243505Y0017860D01*
X0243511Y0017704D01*
X0243513Y0017548D01*
X0243511Y0017392D01*
X0243505Y0017236D01*
X0243495Y0017081D01*
X0243481Y0016926D01*
X0243463Y0016771D01*
X0243441Y0016617D01*
X0243416Y0016463D01*
X0243386Y0016310D01*
X0243352Y0016158D01*
X0243315Y0016006D01*
X0243274Y0015856D01*
X0243229Y0015707D01*
X0243180Y0015559D01*
X0243127Y0015412D01*
X0243071Y0015267D01*
X0243011Y0015123D01*
X0242947Y0014981D01*
X0242879Y0014840D01*
X0242808Y0014702D01*
X0242734Y0014565D01*
X0242656Y0014430D01*
X0242575Y0014297D01*
X0242490Y0014166D01*
X0242402Y0014037D01*
X0242311Y0013911D01*
X0242216Y0013787D01*
X0242119Y0013666D01*
X0242018Y0013547D01*
X0241914Y0013430D01*
X0241808Y0013317D01*
X0241698Y0013206D01*
X0241586Y0013098D01*
X0241471Y0012993D01*
X0241353Y0012890D01*
X0241233Y0012791D01*
X0241110Y0012695D01*
X0240985Y0012602D01*
X0240858Y0012513D01*
X0240728Y0012426D01*
X0240596Y0012343D01*
X0240462Y0012264D01*
X0240326Y0012187D01*
X0240188Y0012115D01*
X0240049Y0012045D01*
X0239907Y0011980D01*
X0239764Y0011918D01*
X0239620Y0011860D01*
X0239474Y0011805D01*
X0239326Y0011754D01*
X0239178Y0011707D01*
X0239028Y0011664D01*
X0238877Y0011625D01*
X0238725Y0011589D01*
X0238573Y0011558D01*
X0238419Y0011530D01*
X0238265Y0011506D01*
X0238111Y0011486D01*
X0237956Y0011470D01*
X0237800Y0011458D01*
X0237645Y0011450D01*
X0237489Y0011446D01*
X0237333Y0011446D01*
X0237177Y0011450D01*
X0237022Y0011458D01*
X0236866Y0011470D01*
X0236711Y0011486D01*
X0236557Y0011506D01*
X0236403Y0011530D01*
X0236249Y0011558D01*
X0236097Y0011589D01*
X0235945Y0011625D01*
X0235794Y0011664D01*
X0235644Y0011707D01*
X0235496Y0011754D01*
X0235348Y0011805D01*
X0235202Y0011860D01*
X0235058Y0011918D01*
X0234915Y0011980D01*
X0234773Y0012045D01*
X0234634Y0012115D01*
X0234496Y0012187D01*
X0234360Y0012264D01*
X0234226Y0012343D01*
X0234094Y0012426D01*
X0233964Y0012513D01*
X0233837Y0012602D01*
X0233712Y0012695D01*
X0233589Y0012791D01*
X0233469Y0012890D01*
X0233351Y0012993D01*
X0233236Y0013098D01*
X0233124Y0013206D01*
X0233014Y0013317D01*
X0232908Y0013430D01*
X0232804Y0013547D01*
X0232703Y0013666D01*
X0232606Y0013787D01*
X0232511Y0013911D01*
X0232420Y0014037D01*
X0232332Y0014166D01*
X0232247Y0014297D01*
X0232166Y0014430D01*
X0232088Y0014565D01*
X0232014Y0014702D01*
X0231943Y0014840D01*
X0231875Y0014981D01*
X0231811Y0015123D01*
X0231751Y0015267D01*
X0231695Y0015412D01*
X0231642Y0015559D01*
X0231593Y0015707D01*
X0231548Y0015856D01*
X0231507Y0016006D01*
X0231470Y0016158D01*
X0231436Y0016310D01*
X0231406Y0016463D01*
X0231381Y0016617D01*
X0231359Y0016771D01*
X0231341Y0016926D01*
X0231327Y0017081D01*
X0231317Y0017236D01*
X0231311Y0017392D01*
X0231309Y0017548D01*
X0391594Y0171540D02*
X0391596Y0171623D01*
X0391602Y0171706D01*
X0391612Y0171789D01*
X0391626Y0171871D01*
X0391643Y0171953D01*
X0391665Y0172033D01*
X0391690Y0172112D01*
X0391719Y0172190D01*
X0391752Y0172267D01*
X0391789Y0172342D01*
X0391828Y0172415D01*
X0391872Y0172486D01*
X0391918Y0172555D01*
X0391968Y0172622D01*
X0392021Y0172686D01*
X0392077Y0172748D01*
X0392136Y0172807D01*
X0392198Y0172863D01*
X0392262Y0172916D01*
X0392329Y0172966D01*
X0392398Y0173012D01*
X0392469Y0173056D01*
X0392542Y0173095D01*
X0392617Y0173132D01*
X0392694Y0173165D01*
X0392772Y0173194D01*
X0392851Y0173219D01*
X0392931Y0173241D01*
X0393013Y0173258D01*
X0393095Y0173272D01*
X0393178Y0173282D01*
X0393261Y0173288D01*
X0393344Y0173290D01*
X0393427Y0173288D01*
X0393510Y0173282D01*
X0393593Y0173272D01*
X0393675Y0173258D01*
X0393757Y0173241D01*
X0393837Y0173219D01*
X0393916Y0173194D01*
X0393994Y0173165D01*
X0394071Y0173132D01*
X0394146Y0173095D01*
X0394219Y0173056D01*
X0394290Y0173012D01*
X0394359Y0172966D01*
X0394426Y0172916D01*
X0394490Y0172863D01*
X0394552Y0172807D01*
X0394611Y0172748D01*
X0394667Y0172686D01*
X0394720Y0172622D01*
X0394770Y0172555D01*
X0394816Y0172486D01*
X0394860Y0172415D01*
X0394899Y0172342D01*
X0394936Y0172267D01*
X0394969Y0172190D01*
X0394998Y0172112D01*
X0395023Y0172033D01*
X0395045Y0171953D01*
X0395062Y0171871D01*
X0395076Y0171789D01*
X0395086Y0171706D01*
X0395092Y0171623D01*
X0395094Y0171540D01*
X0395092Y0171457D01*
X0395086Y0171374D01*
X0395076Y0171291D01*
X0395062Y0171209D01*
X0395045Y0171127D01*
X0395023Y0171047D01*
X0394998Y0170968D01*
X0394969Y0170890D01*
X0394936Y0170813D01*
X0394899Y0170738D01*
X0394860Y0170665D01*
X0394816Y0170594D01*
X0394770Y0170525D01*
X0394720Y0170458D01*
X0394667Y0170394D01*
X0394611Y0170332D01*
X0394552Y0170273D01*
X0394490Y0170217D01*
X0394426Y0170164D01*
X0394359Y0170114D01*
X0394290Y0170068D01*
X0394219Y0170024D01*
X0394146Y0169985D01*
X0394071Y0169948D01*
X0393994Y0169915D01*
X0393916Y0169886D01*
X0393837Y0169861D01*
X0393757Y0169839D01*
X0393675Y0169822D01*
X0393593Y0169808D01*
X0393510Y0169798D01*
X0393427Y0169792D01*
X0393344Y0169790D01*
X0393261Y0169792D01*
X0393178Y0169798D01*
X0393095Y0169808D01*
X0393013Y0169822D01*
X0392931Y0169839D01*
X0392851Y0169861D01*
X0392772Y0169886D01*
X0392694Y0169915D01*
X0392617Y0169948D01*
X0392542Y0169985D01*
X0392469Y0170024D01*
X0392398Y0170068D01*
X0392329Y0170114D01*
X0392262Y0170164D01*
X0392198Y0170217D01*
X0392136Y0170273D01*
X0392077Y0170332D01*
X0392021Y0170394D01*
X0391968Y0170458D01*
X0391918Y0170525D01*
X0391872Y0170594D01*
X0391828Y0170665D01*
X0391789Y0170738D01*
X0391752Y0170813D01*
X0391719Y0170890D01*
X0391690Y0170968D01*
X0391665Y0171047D01*
X0391643Y0171127D01*
X0391626Y0171209D01*
X0391612Y0171291D01*
X0391602Y0171374D01*
X0391596Y0171457D01*
X0391594Y0171540D01*
X0391594Y0203036D02*
X0391596Y0203119D01*
X0391602Y0203202D01*
X0391612Y0203285D01*
X0391626Y0203367D01*
X0391643Y0203449D01*
X0391665Y0203529D01*
X0391690Y0203608D01*
X0391719Y0203686D01*
X0391752Y0203763D01*
X0391789Y0203838D01*
X0391828Y0203911D01*
X0391872Y0203982D01*
X0391918Y0204051D01*
X0391968Y0204118D01*
X0392021Y0204182D01*
X0392077Y0204244D01*
X0392136Y0204303D01*
X0392198Y0204359D01*
X0392262Y0204412D01*
X0392329Y0204462D01*
X0392398Y0204508D01*
X0392469Y0204552D01*
X0392542Y0204591D01*
X0392617Y0204628D01*
X0392694Y0204661D01*
X0392772Y0204690D01*
X0392851Y0204715D01*
X0392931Y0204737D01*
X0393013Y0204754D01*
X0393095Y0204768D01*
X0393178Y0204778D01*
X0393261Y0204784D01*
X0393344Y0204786D01*
X0393427Y0204784D01*
X0393510Y0204778D01*
X0393593Y0204768D01*
X0393675Y0204754D01*
X0393757Y0204737D01*
X0393837Y0204715D01*
X0393916Y0204690D01*
X0393994Y0204661D01*
X0394071Y0204628D01*
X0394146Y0204591D01*
X0394219Y0204552D01*
X0394290Y0204508D01*
X0394359Y0204462D01*
X0394426Y0204412D01*
X0394490Y0204359D01*
X0394552Y0204303D01*
X0394611Y0204244D01*
X0394667Y0204182D01*
X0394720Y0204118D01*
X0394770Y0204051D01*
X0394816Y0203982D01*
X0394860Y0203911D01*
X0394899Y0203838D01*
X0394936Y0203763D01*
X0394969Y0203686D01*
X0394998Y0203608D01*
X0395023Y0203529D01*
X0395045Y0203449D01*
X0395062Y0203367D01*
X0395076Y0203285D01*
X0395086Y0203202D01*
X0395092Y0203119D01*
X0395094Y0203036D01*
X0395092Y0202953D01*
X0395086Y0202870D01*
X0395076Y0202787D01*
X0395062Y0202705D01*
X0395045Y0202623D01*
X0395023Y0202543D01*
X0394998Y0202464D01*
X0394969Y0202386D01*
X0394936Y0202309D01*
X0394899Y0202234D01*
X0394860Y0202161D01*
X0394816Y0202090D01*
X0394770Y0202021D01*
X0394720Y0201954D01*
X0394667Y0201890D01*
X0394611Y0201828D01*
X0394552Y0201769D01*
X0394490Y0201713D01*
X0394426Y0201660D01*
X0394359Y0201610D01*
X0394290Y0201564D01*
X0394219Y0201520D01*
X0394146Y0201481D01*
X0394071Y0201444D01*
X0393994Y0201411D01*
X0393916Y0201382D01*
X0393837Y0201357D01*
X0393757Y0201335D01*
X0393675Y0201318D01*
X0393593Y0201304D01*
X0393510Y0201294D01*
X0393427Y0201288D01*
X0393344Y0201286D01*
X0393261Y0201288D01*
X0393178Y0201294D01*
X0393095Y0201304D01*
X0393013Y0201318D01*
X0392931Y0201335D01*
X0392851Y0201357D01*
X0392772Y0201382D01*
X0392694Y0201411D01*
X0392617Y0201444D01*
X0392542Y0201481D01*
X0392469Y0201520D01*
X0392398Y0201564D01*
X0392329Y0201610D01*
X0392262Y0201660D01*
X0392198Y0201713D01*
X0392136Y0201769D01*
X0392077Y0201828D01*
X0392021Y0201890D01*
X0391968Y0201954D01*
X0391918Y0202021D01*
X0391872Y0202090D01*
X0391828Y0202161D01*
X0391789Y0202234D01*
X0391752Y0202309D01*
X0391719Y0202386D01*
X0391690Y0202464D01*
X0391665Y0202543D01*
X0391643Y0202623D01*
X0391626Y0202705D01*
X0391612Y0202787D01*
X0391602Y0202870D01*
X0391596Y0202953D01*
X0391594Y0203036D01*
X0376979Y0238020D02*
X0376981Y0238176D01*
X0376987Y0238332D01*
X0376997Y0238487D01*
X0377011Y0238642D01*
X0377029Y0238797D01*
X0377051Y0238951D01*
X0377076Y0239105D01*
X0377106Y0239258D01*
X0377140Y0239410D01*
X0377177Y0239562D01*
X0377218Y0239712D01*
X0377263Y0239861D01*
X0377312Y0240009D01*
X0377365Y0240156D01*
X0377421Y0240301D01*
X0377481Y0240445D01*
X0377545Y0240587D01*
X0377613Y0240728D01*
X0377684Y0240866D01*
X0377758Y0241003D01*
X0377836Y0241138D01*
X0377917Y0241271D01*
X0378002Y0241402D01*
X0378090Y0241531D01*
X0378181Y0241657D01*
X0378276Y0241781D01*
X0378373Y0241902D01*
X0378474Y0242021D01*
X0378578Y0242138D01*
X0378684Y0242251D01*
X0378794Y0242362D01*
X0378906Y0242470D01*
X0379021Y0242575D01*
X0379139Y0242678D01*
X0379259Y0242777D01*
X0379382Y0242873D01*
X0379507Y0242966D01*
X0379634Y0243055D01*
X0379764Y0243142D01*
X0379896Y0243225D01*
X0380030Y0243304D01*
X0380166Y0243381D01*
X0380304Y0243453D01*
X0380443Y0243523D01*
X0380585Y0243588D01*
X0380728Y0243650D01*
X0380872Y0243708D01*
X0381018Y0243763D01*
X0381166Y0243814D01*
X0381314Y0243861D01*
X0381464Y0243904D01*
X0381615Y0243943D01*
X0381767Y0243979D01*
X0381919Y0244010D01*
X0382073Y0244038D01*
X0382227Y0244062D01*
X0382381Y0244082D01*
X0382536Y0244098D01*
X0382692Y0244110D01*
X0382847Y0244118D01*
X0383003Y0244122D01*
X0383159Y0244122D01*
X0383315Y0244118D01*
X0383470Y0244110D01*
X0383626Y0244098D01*
X0383781Y0244082D01*
X0383935Y0244062D01*
X0384089Y0244038D01*
X0384243Y0244010D01*
X0384395Y0243979D01*
X0384547Y0243943D01*
X0384698Y0243904D01*
X0384848Y0243861D01*
X0384996Y0243814D01*
X0385144Y0243763D01*
X0385290Y0243708D01*
X0385434Y0243650D01*
X0385577Y0243588D01*
X0385719Y0243523D01*
X0385858Y0243453D01*
X0385996Y0243381D01*
X0386132Y0243304D01*
X0386266Y0243225D01*
X0386398Y0243142D01*
X0386528Y0243055D01*
X0386655Y0242966D01*
X0386780Y0242873D01*
X0386903Y0242777D01*
X0387023Y0242678D01*
X0387141Y0242575D01*
X0387256Y0242470D01*
X0387368Y0242362D01*
X0387478Y0242251D01*
X0387584Y0242138D01*
X0387688Y0242021D01*
X0387789Y0241902D01*
X0387886Y0241781D01*
X0387981Y0241657D01*
X0388072Y0241531D01*
X0388160Y0241402D01*
X0388245Y0241271D01*
X0388326Y0241138D01*
X0388404Y0241003D01*
X0388478Y0240866D01*
X0388549Y0240728D01*
X0388617Y0240587D01*
X0388681Y0240445D01*
X0388741Y0240301D01*
X0388797Y0240156D01*
X0388850Y0240009D01*
X0388899Y0239861D01*
X0388944Y0239712D01*
X0388985Y0239562D01*
X0389022Y0239410D01*
X0389056Y0239258D01*
X0389086Y0239105D01*
X0389111Y0238951D01*
X0389133Y0238797D01*
X0389151Y0238642D01*
X0389165Y0238487D01*
X0389175Y0238332D01*
X0389181Y0238176D01*
X0389183Y0238020D01*
X0389181Y0237864D01*
X0389175Y0237708D01*
X0389165Y0237553D01*
X0389151Y0237398D01*
X0389133Y0237243D01*
X0389111Y0237089D01*
X0389086Y0236935D01*
X0389056Y0236782D01*
X0389022Y0236630D01*
X0388985Y0236478D01*
X0388944Y0236328D01*
X0388899Y0236179D01*
X0388850Y0236031D01*
X0388797Y0235884D01*
X0388741Y0235739D01*
X0388681Y0235595D01*
X0388617Y0235453D01*
X0388549Y0235312D01*
X0388478Y0235174D01*
X0388404Y0235037D01*
X0388326Y0234902D01*
X0388245Y0234769D01*
X0388160Y0234638D01*
X0388072Y0234509D01*
X0387981Y0234383D01*
X0387886Y0234259D01*
X0387789Y0234138D01*
X0387688Y0234019D01*
X0387584Y0233902D01*
X0387478Y0233789D01*
X0387368Y0233678D01*
X0387256Y0233570D01*
X0387141Y0233465D01*
X0387023Y0233362D01*
X0386903Y0233263D01*
X0386780Y0233167D01*
X0386655Y0233074D01*
X0386528Y0232985D01*
X0386398Y0232898D01*
X0386266Y0232815D01*
X0386132Y0232736D01*
X0385996Y0232659D01*
X0385858Y0232587D01*
X0385719Y0232517D01*
X0385577Y0232452D01*
X0385434Y0232390D01*
X0385290Y0232332D01*
X0385144Y0232277D01*
X0384996Y0232226D01*
X0384848Y0232179D01*
X0384698Y0232136D01*
X0384547Y0232097D01*
X0384395Y0232061D01*
X0384243Y0232030D01*
X0384089Y0232002D01*
X0383935Y0231978D01*
X0383781Y0231958D01*
X0383626Y0231942D01*
X0383470Y0231930D01*
X0383315Y0231922D01*
X0383159Y0231918D01*
X0383003Y0231918D01*
X0382847Y0231922D01*
X0382692Y0231930D01*
X0382536Y0231942D01*
X0382381Y0231958D01*
X0382227Y0231978D01*
X0382073Y0232002D01*
X0381919Y0232030D01*
X0381767Y0232061D01*
X0381615Y0232097D01*
X0381464Y0232136D01*
X0381314Y0232179D01*
X0381166Y0232226D01*
X0381018Y0232277D01*
X0380872Y0232332D01*
X0380728Y0232390D01*
X0380585Y0232452D01*
X0380443Y0232517D01*
X0380304Y0232587D01*
X0380166Y0232659D01*
X0380030Y0232736D01*
X0379896Y0232815D01*
X0379764Y0232898D01*
X0379634Y0232985D01*
X0379507Y0233074D01*
X0379382Y0233167D01*
X0379259Y0233263D01*
X0379139Y0233362D01*
X0379021Y0233465D01*
X0378906Y0233570D01*
X0378794Y0233678D01*
X0378684Y0233789D01*
X0378578Y0233902D01*
X0378474Y0234019D01*
X0378373Y0234138D01*
X0378276Y0234259D01*
X0378181Y0234383D01*
X0378090Y0234509D01*
X0378002Y0234638D01*
X0377917Y0234769D01*
X0377836Y0234902D01*
X0377758Y0235037D01*
X0377684Y0235174D01*
X0377613Y0235312D01*
X0377545Y0235453D01*
X0377481Y0235595D01*
X0377421Y0235739D01*
X0377365Y0235884D01*
X0377312Y0236031D01*
X0377263Y0236179D01*
X0377218Y0236328D01*
X0377177Y0236478D01*
X0377140Y0236630D01*
X0377106Y0236782D01*
X0377076Y0236935D01*
X0377051Y0237089D01*
X0377029Y0237243D01*
X0377011Y0237398D01*
X0376997Y0237553D01*
X0376987Y0237708D01*
X0376981Y0237864D01*
X0376979Y0238020D01*
D13*
X0157189Y0040555D02*
X0154437Y0040555D01*
X0153519Y0039637D01*
X0153519Y0035967D01*
X0154437Y0035050D01*
X0157189Y0035050D01*
X0157189Y0040555D01*
X0150743Y0040555D02*
X0150743Y0035050D01*
X0147074Y0035050D01*
X0144298Y0035050D02*
X0141546Y0035050D01*
X0140628Y0035967D01*
X0140628Y0036885D01*
X0141546Y0037802D01*
X0144298Y0037802D01*
X0144298Y0035050D02*
X0144298Y0040555D01*
X0141546Y0040555D01*
X0140628Y0039637D01*
X0140628Y0038720D01*
X0141546Y0037802D01*
X0137852Y0035967D02*
X0136935Y0035050D01*
X0135100Y0035050D01*
X0134183Y0035967D01*
X0134183Y0040555D01*
X0131407Y0039637D02*
X0131407Y0035967D01*
X0130490Y0035050D01*
X0128655Y0035050D01*
X0127737Y0035967D01*
X0127737Y0037802D01*
X0129572Y0037802D01*
X0127737Y0039637D02*
X0128655Y0040555D01*
X0130490Y0040555D01*
X0131407Y0039637D01*
X0137852Y0040555D02*
X0137852Y0035967D01*
X0147074Y0040555D02*
X0150743Y0040555D01*
X0150743Y0037802D02*
X0148909Y0037802D01*
D14*
X0149492Y0013502D02*
X0146389Y0011433D01*
X0146389Y0009818D02*
X0147423Y0008784D01*
X0147423Y0009301D02*
X0147423Y0007750D01*
X0146389Y0007750D02*
X0149492Y0007750D01*
X0149492Y0009301D01*
X0148975Y0009818D01*
X0147940Y0009818D01*
X0147423Y0009301D01*
X0149492Y0011433D02*
X0146389Y0013502D01*
X0139492Y0013116D02*
X0139492Y0014668D01*
X0138975Y0015185D01*
X0136906Y0015185D01*
X0136389Y0014668D01*
X0136389Y0013116D01*
X0139492Y0013116D01*
X0139492Y0011502D02*
X0136389Y0011502D01*
X0139492Y0009433D01*
X0136389Y0009433D01*
X0136906Y0007818D02*
X0137940Y0007818D01*
X0137940Y0006784D01*
X0136906Y0005750D02*
X0136389Y0006267D01*
X0136389Y0007301D01*
X0136906Y0007818D01*
X0136906Y0005750D02*
X0138975Y0005750D01*
X0139492Y0006267D01*
X0139492Y0007301D01*
X0138975Y0007818D01*
X0129492Y0008250D02*
X0127940Y0008250D01*
X0128457Y0009284D01*
X0128457Y0009801D01*
X0127940Y0010318D01*
X0126906Y0010318D01*
X0126389Y0009801D01*
X0126389Y0008767D01*
X0126906Y0008250D01*
X0129492Y0008250D02*
X0129492Y0010318D01*
X0129492Y0011933D02*
X0127423Y0011933D01*
X0126389Y0012967D01*
X0127423Y0014002D01*
X0129492Y0014002D01*
X0156389Y0013502D02*
X0159492Y0011433D01*
X0159492Y0009818D02*
X0159492Y0007750D01*
X0159492Y0008784D02*
X0156389Y0008784D01*
X0156389Y0011433D02*
X0159492Y0013502D01*
X0373787Y0106251D02*
X0373787Y0107286D01*
X0374304Y0107803D01*
X0375338Y0107803D01*
X0375338Y0106768D01*
X0376372Y0105734D02*
X0374304Y0105734D01*
X0373787Y0106251D01*
X0376372Y0105734D02*
X0376889Y0106251D01*
X0376889Y0107286D01*
X0376372Y0107803D01*
X0376889Y0109417D02*
X0373787Y0111486D01*
X0376889Y0111486D01*
X0376889Y0113101D02*
X0376889Y0114652D01*
X0376372Y0115169D01*
X0374304Y0115169D01*
X0373787Y0114652D01*
X0373787Y0113101D01*
X0376889Y0113101D01*
X0376889Y0109417D02*
X0373787Y0109417D01*
X0374304Y0118234D02*
X0373787Y0118751D01*
X0373787Y0119786D01*
X0374304Y0120303D01*
X0374821Y0120303D01*
X0375338Y0119786D01*
X0375338Y0119268D01*
X0375338Y0119786D02*
X0375855Y0120303D01*
X0376372Y0120303D01*
X0376889Y0119786D01*
X0376889Y0118751D01*
X0376372Y0118234D01*
X0376889Y0121917D02*
X0374821Y0121917D01*
X0373787Y0122952D01*
X0374821Y0123986D01*
X0376889Y0123986D01*
X0376372Y0125601D02*
X0376889Y0126118D01*
X0376889Y0127152D01*
X0376372Y0127669D01*
X0375855Y0127669D01*
X0375338Y0127152D01*
X0374821Y0127669D01*
X0374304Y0127669D01*
X0373787Y0127152D01*
X0373787Y0126118D01*
X0374304Y0125601D01*
X0375338Y0126635D02*
X0375338Y0127152D01*
X0375855Y0130734D02*
X0375338Y0131251D01*
X0375338Y0132286D01*
X0374821Y0132803D01*
X0374304Y0132803D01*
X0373787Y0132286D01*
X0373787Y0131251D01*
X0374304Y0130734D01*
X0375855Y0130734D02*
X0376372Y0130734D01*
X0376889Y0131251D01*
X0376889Y0132286D01*
X0376372Y0132803D01*
X0376372Y0134417D02*
X0374304Y0134417D01*
X0373787Y0134934D01*
X0373787Y0135969D01*
X0374304Y0136486D01*
X0373787Y0138101D02*
X0373787Y0140169D01*
X0373787Y0138101D02*
X0376889Y0138101D01*
X0376372Y0136486D02*
X0376889Y0135969D01*
X0376889Y0134934D01*
X0376372Y0134417D01*
X0376372Y0143234D02*
X0375855Y0143234D01*
X0375338Y0143751D01*
X0375338Y0144786D01*
X0374821Y0145303D01*
X0374304Y0145303D01*
X0373787Y0144786D01*
X0373787Y0143751D01*
X0374304Y0143234D01*
X0376372Y0143234D02*
X0376889Y0143751D01*
X0376889Y0144786D01*
X0376372Y0145303D01*
X0376889Y0146917D02*
X0376889Y0148469D01*
X0376372Y0148986D01*
X0374304Y0148986D01*
X0373787Y0148469D01*
X0373787Y0146917D01*
X0376889Y0146917D01*
X0375855Y0150601D02*
X0376889Y0151635D01*
X0375855Y0152669D01*
X0373787Y0152669D01*
X0375338Y0152669D02*
X0375338Y0150601D01*
X0375855Y0150601D02*
X0373787Y0150601D01*
X0373854Y0192813D02*
X0375923Y0192813D01*
X0373854Y0194881D01*
X0373854Y0195399D01*
X0374371Y0195916D01*
X0375406Y0195916D01*
X0375923Y0195399D01*
X0377537Y0195916D02*
X0378572Y0195916D01*
X0378055Y0195916D02*
X0378055Y0193330D01*
X0378572Y0192813D01*
X0379089Y0192813D01*
X0379606Y0193330D01*
X0381221Y0193330D02*
X0381738Y0192813D01*
X0382772Y0192813D01*
X0383289Y0193330D01*
X0382772Y0194364D02*
X0381738Y0194364D01*
X0381221Y0193847D01*
X0381221Y0193330D01*
X0382772Y0194364D02*
X0383289Y0194881D01*
X0383289Y0195399D01*
X0382772Y0195916D01*
X0381738Y0195916D01*
X0381221Y0195399D01*
X0381238Y0220413D02*
X0382272Y0220413D01*
X0382789Y0220930D01*
X0382272Y0221964D02*
X0381238Y0221964D01*
X0380721Y0221447D01*
X0380721Y0220930D01*
X0381238Y0220413D01*
X0382272Y0221964D02*
X0382789Y0222481D01*
X0382789Y0222999D01*
X0382272Y0223516D01*
X0381238Y0223516D01*
X0380721Y0222999D01*
X0379106Y0220930D02*
X0378589Y0220413D01*
X0378072Y0220413D01*
X0377555Y0220930D01*
X0377555Y0223516D01*
X0378072Y0223516D02*
X0377037Y0223516D01*
X0375423Y0222481D02*
X0374388Y0223516D01*
X0374388Y0220413D01*
X0373354Y0220413D02*
X0375423Y0220413D01*
D15*
X0368492Y0154204D02*
X0369142Y0153554D01*
X0369142Y0152253D01*
X0368492Y0151602D01*
X0367841Y0151602D01*
X0367191Y0152253D01*
X0367191Y0153554D01*
X0366540Y0154204D01*
X0365890Y0154204D01*
X0365239Y0153554D01*
X0365239Y0152253D01*
X0365890Y0151602D01*
X0365239Y0149601D02*
X0366540Y0148299D01*
X0366540Y0148950D02*
X0366540Y0146998D01*
X0365239Y0146998D02*
X0369142Y0146998D01*
X0369142Y0148950D01*
X0368492Y0149601D01*
X0367191Y0149601D01*
X0366540Y0148950D01*
X0361642Y0148833D02*
X0360992Y0148833D01*
X0359691Y0147532D01*
X0357739Y0147532D01*
X0359691Y0147532D02*
X0360992Y0146231D01*
X0361642Y0146231D01*
X0360341Y0144229D02*
X0357739Y0144229D01*
X0359691Y0144229D02*
X0359691Y0141627D01*
X0360341Y0141627D02*
X0361642Y0142928D01*
X0360341Y0144229D01*
X0360341Y0141627D02*
X0357739Y0141627D01*
X0357739Y0139625D02*
X0357739Y0137023D01*
X0361642Y0137023D01*
X0360992Y0135021D02*
X0359691Y0135021D01*
X0359040Y0134371D01*
X0359040Y0132419D01*
X0357739Y0132419D02*
X0361642Y0132419D01*
X0361642Y0134371D01*
X0360992Y0135021D01*
X0365239Y0135789D02*
X0369142Y0135789D01*
X0367841Y0134488D01*
X0369142Y0133187D01*
X0365239Y0133187D01*
X0365890Y0131185D02*
X0365239Y0130534D01*
X0365239Y0129233D01*
X0365890Y0128583D01*
X0369142Y0128583D01*
X0369142Y0126581D02*
X0369142Y0125280D01*
X0369142Y0125930D02*
X0365890Y0125930D01*
X0365239Y0125280D01*
X0365239Y0124629D01*
X0365890Y0123979D01*
X0361642Y0124746D02*
X0361642Y0126047D01*
X0361642Y0125397D02*
X0357739Y0125397D01*
X0357739Y0126047D02*
X0357739Y0124746D01*
X0358390Y0122744D02*
X0360992Y0122744D01*
X0361642Y0122094D01*
X0361642Y0120142D01*
X0357739Y0120142D01*
X0357739Y0122094D01*
X0358390Y0122744D01*
X0354142Y0123211D02*
X0354142Y0125163D01*
X0353492Y0125814D01*
X0352191Y0125814D01*
X0351540Y0125163D01*
X0351540Y0123211D01*
X0350239Y0123211D02*
X0354142Y0123211D01*
X0353492Y0121210D02*
X0352191Y0121210D01*
X0351540Y0120559D01*
X0351540Y0118607D01*
X0350239Y0118607D02*
X0354142Y0118607D01*
X0354142Y0120559D01*
X0353492Y0121210D01*
X0354142Y0116606D02*
X0350890Y0116606D01*
X0350239Y0115955D01*
X0350239Y0114654D01*
X0350890Y0114004D01*
X0354142Y0114004D01*
X0353492Y0112002D02*
X0354142Y0111351D01*
X0354142Y0110050D01*
X0353492Y0109400D01*
X0352841Y0109400D01*
X0352191Y0110050D01*
X0352191Y0111351D01*
X0351540Y0112002D01*
X0350890Y0112002D01*
X0350239Y0111351D01*
X0350239Y0110050D01*
X0350890Y0109400D01*
X0346642Y0110934D02*
X0346642Y0112886D01*
X0345992Y0113536D01*
X0344691Y0113536D01*
X0344040Y0112886D01*
X0344040Y0110934D01*
X0342739Y0110934D02*
X0346642Y0110934D01*
X0344040Y0112235D02*
X0342739Y0113536D01*
X0342739Y0115538D02*
X0342739Y0118140D01*
X0344691Y0116839D02*
X0344691Y0115538D01*
X0346642Y0115538D02*
X0342739Y0115538D01*
X0346642Y0115538D02*
X0346642Y0118140D01*
X0346642Y0120142D02*
X0344040Y0120142D01*
X0342739Y0121443D01*
X0344040Y0122744D01*
X0346642Y0122744D01*
X0346642Y0124746D02*
X0342739Y0124746D01*
X0342739Y0127348D01*
X0342739Y0129350D02*
X0346642Y0129350D01*
X0346642Y0131302D01*
X0345992Y0131952D01*
X0344691Y0131952D01*
X0344040Y0131302D01*
X0344040Y0129350D01*
X0344040Y0130651D02*
X0342739Y0131952D01*
X0343390Y0133954D02*
X0342739Y0134604D01*
X0342739Y0135906D01*
X0343390Y0136556D01*
X0344040Y0136556D01*
X0344691Y0135906D01*
X0344691Y0134604D01*
X0345341Y0133954D01*
X0345992Y0133954D01*
X0346642Y0134604D01*
X0346642Y0135906D01*
X0345992Y0136556D01*
X0346642Y0138558D02*
X0342739Y0138558D01*
X0342739Y0141160D01*
X0342739Y0143162D02*
X0342739Y0145113D01*
X0343390Y0145764D01*
X0345992Y0145764D01*
X0346642Y0145113D01*
X0346642Y0143162D01*
X0342739Y0143162D01*
X0346642Y0141160D02*
X0346642Y0138558D01*
X0344691Y0138558D02*
X0344691Y0139859D01*
X0350239Y0141627D02*
X0350239Y0142928D01*
X0350239Y0142278D02*
X0354142Y0142278D01*
X0354142Y0142928D02*
X0354142Y0141627D01*
X0353492Y0144696D02*
X0352841Y0144696D01*
X0352191Y0145347D01*
X0352191Y0146648D01*
X0351540Y0147299D01*
X0350890Y0147299D01*
X0350239Y0146648D01*
X0350239Y0145347D01*
X0350890Y0144696D01*
X0353492Y0144696D02*
X0354142Y0145347D01*
X0354142Y0146648D01*
X0353492Y0147299D01*
X0365239Y0144997D02*
X0365239Y0142394D01*
X0369142Y0142394D01*
X0369142Y0144997D01*
X0367191Y0143695D02*
X0367191Y0142394D01*
X0367191Y0140393D02*
X0366540Y0139742D01*
X0366540Y0137790D01*
X0365239Y0137790D02*
X0369142Y0137790D01*
X0369142Y0139742D01*
X0368492Y0140393D01*
X0367191Y0140393D01*
X0365890Y0131185D02*
X0369142Y0131185D01*
X0361642Y0129767D02*
X0361642Y0128466D01*
X0360992Y0127815D01*
X0360341Y0127815D01*
X0359691Y0128466D01*
X0359691Y0129767D01*
X0359040Y0130418D01*
X0358390Y0130418D01*
X0357739Y0129767D01*
X0357739Y0128466D01*
X0358390Y0127815D01*
X0360992Y0130418D02*
X0361642Y0129767D01*
X0354142Y0127815D02*
X0350239Y0127815D01*
X0350239Y0130418D01*
X0350239Y0133720D02*
X0352191Y0133720D01*
X0353492Y0135021D01*
X0354142Y0135021D01*
X0352191Y0133720D02*
X0353492Y0132419D01*
X0354142Y0132419D01*
X0346642Y0127348D02*
X0346642Y0124746D01*
X0344691Y0124746D02*
X0344691Y0126047D01*
X0361642Y0113536D02*
X0361642Y0110934D01*
X0357739Y0110934D01*
X0357739Y0109166D02*
X0357739Y0107865D01*
X0357739Y0108516D02*
X0361642Y0108516D01*
X0361642Y0109166D02*
X0361642Y0107865D01*
X0359691Y0110934D02*
X0359691Y0112235D01*
X0365239Y0112352D02*
X0369142Y0112352D01*
X0369142Y0111702D02*
X0369142Y0113003D01*
X0369142Y0114771D02*
X0369142Y0116723D01*
X0368492Y0117373D01*
X0367191Y0117373D01*
X0366540Y0116723D01*
X0366540Y0114771D01*
X0365239Y0114771D02*
X0369142Y0114771D01*
X0365239Y0113003D02*
X0365239Y0111702D01*
X0365239Y0109700D02*
X0365239Y0107098D01*
X0369142Y0107098D01*
X0369142Y0105096D02*
X0369142Y0102494D01*
X0365239Y0102494D01*
X0367191Y0102494D02*
X0367191Y0103795D01*
D16*
X0264776Y0112499D02*
X0264776Y0115702D01*
X0263709Y0114634D01*
X0262641Y0115702D01*
X0262641Y0112499D01*
X0261093Y0112499D02*
X0260025Y0112499D01*
X0260559Y0112499D02*
X0260559Y0115702D01*
X0261093Y0115702D02*
X0260025Y0115702D01*
X0258638Y0115168D02*
X0258638Y0114634D01*
X0258104Y0114101D01*
X0257036Y0114101D01*
X0256502Y0113567D01*
X0256502Y0113033D01*
X0257036Y0112499D01*
X0258104Y0112499D01*
X0258638Y0113033D01*
X0258638Y0115168D02*
X0258104Y0115702D01*
X0257036Y0115702D01*
X0256502Y0115168D01*
X0254954Y0115168D02*
X0254954Y0113033D01*
X0254421Y0112499D01*
X0253353Y0112499D01*
X0252819Y0113033D01*
X0252819Y0115168D01*
X0253353Y0115702D01*
X0254421Y0115702D01*
X0254954Y0115168D01*
X0255808Y0122499D02*
X0256876Y0122499D01*
X0257410Y0123033D01*
X0256876Y0124101D02*
X0255808Y0124101D01*
X0255275Y0123567D01*
X0255275Y0123033D01*
X0255808Y0122499D01*
X0256876Y0124101D02*
X0257410Y0124634D01*
X0257410Y0125168D01*
X0256876Y0125702D01*
X0255808Y0125702D01*
X0255275Y0125168D01*
X0253727Y0125702D02*
X0252659Y0125702D01*
X0253193Y0125702D02*
X0253193Y0122499D01*
X0253727Y0122499D02*
X0252659Y0122499D01*
X0258958Y0123033D02*
X0259492Y0122499D01*
X0260559Y0122499D01*
X0261093Y0123033D01*
X0261093Y0125168D01*
X0260559Y0125702D01*
X0259492Y0125702D01*
X0258958Y0125168D01*
X0258958Y0123033D01*
X0262641Y0122499D02*
X0262641Y0125702D01*
X0263709Y0124634D01*
X0264776Y0125702D01*
X0264776Y0122499D01*
X0263787Y0132499D02*
X0262719Y0132499D01*
X0262186Y0133033D01*
X0262186Y0133567D01*
X0262719Y0134101D01*
X0263787Y0134101D01*
X0264321Y0134634D01*
X0264321Y0135168D01*
X0263787Y0135702D01*
X0262719Y0135702D01*
X0262186Y0135168D01*
X0260638Y0135168D02*
X0260638Y0133033D01*
X0260104Y0132499D01*
X0259036Y0132499D01*
X0258502Y0133033D01*
X0256954Y0133567D02*
X0254819Y0135702D01*
X0256954Y0135702D02*
X0256954Y0132499D01*
X0256421Y0134101D02*
X0254819Y0132499D01*
X0258502Y0135168D02*
X0259036Y0135702D01*
X0260104Y0135702D01*
X0260638Y0135168D01*
X0263787Y0132499D02*
X0264321Y0133033D01*
X0264104Y0142499D02*
X0263036Y0142499D01*
X0262502Y0143033D01*
X0260954Y0143033D02*
X0260421Y0142499D01*
X0259353Y0142499D01*
X0258819Y0143033D01*
X0258819Y0143567D01*
X0259353Y0144101D01*
X0260421Y0144101D01*
X0260954Y0144634D01*
X0260954Y0145168D01*
X0260421Y0145702D01*
X0259353Y0145702D01*
X0258819Y0145168D01*
X0262502Y0145168D02*
X0263036Y0145702D01*
X0264104Y0145702D01*
X0264638Y0145168D01*
X0264638Y0143033D01*
X0264104Y0142499D01*
X0264093Y0105702D02*
X0263025Y0105702D01*
X0263559Y0105702D02*
X0263559Y0102499D01*
X0264093Y0102499D02*
X0263025Y0102499D01*
X0261638Y0102499D02*
X0261638Y0105702D01*
X0260036Y0105702D01*
X0259502Y0105168D01*
X0259502Y0104101D01*
X0260036Y0103567D01*
X0261638Y0103567D01*
X0260570Y0103567D02*
X0259502Y0102499D01*
X0257954Y0103033D02*
X0257954Y0105168D01*
X0257421Y0105702D01*
X0256353Y0105702D01*
X0255819Y0105168D01*
X0255819Y0103033D01*
X0256353Y0102499D01*
X0257421Y0102499D01*
X0257954Y0103033D01*
X0256887Y0103567D02*
X0255819Y0102499D01*
X0255353Y0095702D02*
X0256954Y0095702D01*
X0256954Y0092499D01*
X0255353Y0092499D01*
X0254819Y0093033D01*
X0254819Y0095168D01*
X0255353Y0095702D01*
X0258502Y0095702D02*
X0258502Y0092499D01*
X0260638Y0095702D01*
X0260638Y0092499D01*
X0262186Y0093033D02*
X0262186Y0094101D01*
X0263253Y0094101D01*
X0262186Y0095168D02*
X0262719Y0095702D01*
X0263787Y0095702D01*
X0264321Y0095168D01*
X0264321Y0093033D01*
X0263787Y0092499D01*
X0262719Y0092499D01*
X0262186Y0093033D01*
X0262719Y0085702D02*
X0262186Y0085168D01*
X0262186Y0084101D01*
X0262719Y0083567D01*
X0264321Y0083567D01*
X0264321Y0082499D02*
X0264321Y0085702D01*
X0262719Y0085702D01*
X0260638Y0085168D02*
X0260638Y0084634D01*
X0260104Y0084101D01*
X0259036Y0084101D01*
X0258502Y0083567D01*
X0258502Y0083033D01*
X0259036Y0082499D01*
X0260104Y0082499D01*
X0260638Y0083033D01*
X0262186Y0082499D02*
X0263253Y0083567D01*
X0260638Y0085168D02*
X0260104Y0085702D01*
X0259036Y0085702D01*
X0258502Y0085168D01*
X0256954Y0085702D02*
X0254819Y0085702D01*
X0255887Y0085702D02*
X0255887Y0082499D01*
X0256421Y0075702D02*
X0255353Y0075702D01*
X0254819Y0075168D01*
X0254819Y0074634D01*
X0255353Y0074101D01*
X0254819Y0073567D01*
X0254819Y0073033D01*
X0255353Y0072499D01*
X0256421Y0072499D01*
X0256954Y0073033D01*
X0255887Y0074101D02*
X0255353Y0074101D01*
X0256954Y0075168D02*
X0256421Y0075702D01*
X0258502Y0075702D02*
X0258502Y0073567D01*
X0259570Y0072499D01*
X0260638Y0073567D01*
X0260638Y0075702D01*
X0262186Y0075168D02*
X0262186Y0074634D01*
X0262719Y0074101D01*
X0262186Y0073567D01*
X0262186Y0073033D01*
X0262719Y0072499D01*
X0263787Y0072499D01*
X0264321Y0073033D01*
X0263253Y0074101D02*
X0262719Y0074101D01*
X0262186Y0075168D02*
X0262719Y0075702D01*
X0263787Y0075702D01*
X0264321Y0075168D01*
X0369439Y0197863D02*
X0369439Y0205863D01*
X0388439Y0205863D01*
X0388439Y0197863D01*
X0369439Y0197863D01*
X0369439Y0210863D02*
X0369439Y0218863D01*
X0388439Y0218863D01*
X0388439Y0210863D01*
X0369439Y0210863D01*
X0341279Y0212751D02*
X0339144Y0212751D01*
X0337596Y0212751D02*
X0335461Y0212751D01*
X0333913Y0212751D02*
X0332311Y0212751D01*
X0331778Y0213285D01*
X0331778Y0215420D01*
X0332311Y0215954D01*
X0333913Y0215954D01*
X0333913Y0212751D01*
X0336528Y0214353D02*
X0337596Y0214353D01*
X0337596Y0215954D02*
X0337596Y0212751D01*
X0337596Y0215954D02*
X0335461Y0215954D01*
X0341279Y0215954D02*
X0341279Y0212751D01*
D17*
X0366439Y0192331D02*
X0369439Y0195331D01*
X0370439Y0191431D01*
X0369439Y0195331D02*
X0356939Y0152800D01*
X0371978Y0182765D02*
X0371978Y0075284D01*
X0388297Y0075284D01*
X0388305Y0075286D01*
X0388311Y0075290D01*
X0388315Y0075296D01*
X0388317Y0075304D01*
X0388317Y0182737D01*
X0388316Y0182746D01*
X0388312Y0182753D01*
X0388305Y0182760D01*
X0388298Y0182764D01*
X0388289Y0182765D01*
X0371978Y0182765D01*
X0297175Y0182765D01*
X0297175Y0075284D01*
X0371978Y0075284D01*
X0370814Y0054552D02*
X0369346Y0054552D01*
X0368612Y0053818D01*
X0368612Y0052350D02*
X0370080Y0052350D01*
X0368612Y0052350D02*
X0368612Y0050882D01*
X0369346Y0050148D01*
X0370814Y0050148D01*
X0371548Y0050882D01*
X0371548Y0053818D01*
X0370814Y0054552D01*
X0373518Y0054552D02*
X0374986Y0054552D01*
X0374252Y0054552D02*
X0374252Y0050148D01*
X0374986Y0050148D02*
X0373518Y0050148D01*
X0377206Y0050882D02*
X0377206Y0051616D01*
X0377940Y0052350D01*
X0379408Y0052350D01*
X0380142Y0053084D01*
X0380142Y0053818D01*
X0379408Y0054552D01*
X0377940Y0054552D01*
X0377206Y0053818D01*
X0377206Y0050882D02*
X0377940Y0050148D01*
X0379408Y0050148D01*
X0380142Y0050882D01*
X0382362Y0050148D02*
X0385298Y0050148D01*
X0385298Y0054552D01*
X0382362Y0054552D01*
X0383830Y0052350D02*
X0385298Y0052350D01*
X0387519Y0050882D02*
X0387519Y0053818D01*
X0388253Y0054552D01*
X0390455Y0054552D01*
X0390455Y0050148D01*
X0388253Y0050148D01*
X0387519Y0050882D01*
X0388253Y0046152D02*
X0390455Y0046152D01*
X0390455Y0041748D01*
X0388253Y0041748D01*
X0387519Y0042482D01*
X0387519Y0045418D01*
X0388253Y0046152D01*
X0385298Y0044684D02*
X0383830Y0046152D01*
X0382362Y0044684D01*
X0382362Y0041748D01*
X0382362Y0043950D02*
X0385298Y0043950D01*
X0385298Y0044684D02*
X0385298Y0041748D01*
X0380142Y0041748D02*
X0380142Y0046152D01*
X0378674Y0044684D01*
X0377206Y0046152D01*
X0377206Y0041748D01*
X0374986Y0041748D02*
X0373518Y0041748D01*
X0374252Y0041748D02*
X0374252Y0046152D01*
X0374986Y0046152D02*
X0373518Y0046152D01*
X0371548Y0044684D02*
X0370080Y0046152D01*
X0368612Y0044684D01*
X0368612Y0041748D01*
X0368612Y0043950D02*
X0371548Y0043950D01*
X0371548Y0044684D02*
X0371548Y0041748D01*
X0366392Y0041748D02*
X0366392Y0046152D01*
X0363456Y0041748D01*
X0363456Y0046152D01*
X0363456Y0050148D02*
X0363456Y0054552D01*
X0361235Y0054552D02*
X0361235Y0050148D01*
X0358299Y0050148D01*
X0356079Y0050148D02*
X0353877Y0050148D01*
X0353143Y0050882D01*
X0353143Y0053818D01*
X0353877Y0054552D01*
X0356079Y0054552D01*
X0356079Y0050148D01*
X0355345Y0046152D02*
X0356079Y0045418D01*
X0356079Y0044684D01*
X0355345Y0043950D01*
X0353877Y0043950D01*
X0353143Y0043216D01*
X0353143Y0042482D01*
X0353877Y0041748D01*
X0355345Y0041748D01*
X0356079Y0042482D01*
X0353143Y0045418D02*
X0353877Y0046152D01*
X0355345Y0046152D01*
X0350922Y0045418D02*
X0350922Y0042482D01*
X0350188Y0041748D01*
X0348720Y0041748D01*
X0347987Y0042482D01*
X0345766Y0041748D02*
X0345766Y0046152D01*
X0345766Y0043950D02*
X0342830Y0043950D01*
X0342830Y0046152D02*
X0342830Y0041748D01*
X0340610Y0041748D02*
X0340610Y0046152D01*
X0337674Y0041748D01*
X0337674Y0046152D01*
X0335453Y0046152D02*
X0335453Y0041748D01*
X0332517Y0041748D01*
X0330297Y0041748D02*
X0328829Y0041748D01*
X0329563Y0041748D02*
X0329563Y0046152D01*
X0330297Y0046152D02*
X0328829Y0046152D01*
X0326859Y0046152D02*
X0324657Y0046152D01*
X0323923Y0045418D01*
X0323923Y0042482D01*
X0324657Y0041748D01*
X0326859Y0041748D01*
X0326859Y0046152D01*
X0321703Y0046152D02*
X0321703Y0041748D01*
X0318767Y0041748D01*
X0316546Y0041748D02*
X0316546Y0046152D01*
X0314344Y0046152D01*
X0313611Y0045418D01*
X0313611Y0043950D01*
X0314344Y0043216D01*
X0316546Y0043216D01*
X0315078Y0043216D02*
X0313611Y0041748D01*
X0320235Y0043950D02*
X0321703Y0043950D01*
X0321703Y0046152D02*
X0318767Y0046152D01*
X0332517Y0046152D02*
X0335453Y0046152D01*
X0335453Y0043950D02*
X0333985Y0043950D01*
X0339142Y0050148D02*
X0339142Y0052350D01*
X0337674Y0053818D01*
X0337674Y0054552D01*
X0339142Y0052350D02*
X0340610Y0053818D01*
X0340610Y0054552D01*
X0342830Y0053818D02*
X0342830Y0053084D01*
X0343564Y0052350D01*
X0345766Y0052350D01*
X0345766Y0054552D02*
X0343564Y0054552D01*
X0342830Y0053818D01*
X0343564Y0052350D02*
X0342830Y0051616D01*
X0342830Y0050882D01*
X0343564Y0050148D01*
X0345766Y0050148D01*
X0345766Y0054552D01*
X0348720Y0046152D02*
X0350188Y0046152D01*
X0350922Y0045418D01*
X0348720Y0046152D02*
X0347987Y0045418D01*
X0347736Y0037752D02*
X0349204Y0037752D01*
X0348470Y0037752D02*
X0348470Y0033348D01*
X0349204Y0033348D02*
X0347736Y0033348D01*
X0345766Y0033348D02*
X0345766Y0037752D01*
X0342830Y0033348D01*
X0342830Y0037752D01*
X0340610Y0037752D02*
X0337674Y0037752D01*
X0339142Y0037752D02*
X0339142Y0033348D01*
X0335453Y0033348D02*
X0335453Y0037752D01*
X0332517Y0037752D01*
X0330297Y0037752D02*
X0328095Y0037752D01*
X0327361Y0037018D01*
X0327361Y0035550D01*
X0328095Y0034816D01*
X0330297Y0034816D01*
X0330297Y0033348D02*
X0330297Y0037752D01*
X0328829Y0034816D02*
X0327361Y0033348D01*
X0323672Y0033348D02*
X0323672Y0037752D01*
X0322205Y0037752D02*
X0325140Y0037752D01*
X0332517Y0033348D02*
X0335453Y0033348D01*
X0335453Y0035550D02*
X0333985Y0035550D01*
X0333377Y0029352D02*
X0333377Y0028618D01*
X0336313Y0025682D01*
X0336313Y0024948D01*
X0338533Y0024948D02*
X0341469Y0024948D01*
X0340001Y0024948D02*
X0340001Y0029352D01*
X0341469Y0027884D01*
X0343690Y0028618D02*
X0343690Y0025682D01*
X0344423Y0024948D01*
X0345891Y0024948D01*
X0346625Y0025682D01*
X0343690Y0028618D01*
X0344423Y0029352D01*
X0345891Y0029352D01*
X0346625Y0028618D01*
X0346625Y0025682D01*
X0348846Y0024948D02*
X0351782Y0024948D01*
X0348846Y0027884D01*
X0348846Y0028618D01*
X0349580Y0029352D01*
X0351048Y0029352D01*
X0351782Y0028618D01*
X0351424Y0033348D02*
X0351424Y0037752D01*
X0354360Y0037752D02*
X0354360Y0033348D01*
X0352892Y0034816D01*
X0351424Y0033348D01*
X0359159Y0029352D02*
X0359159Y0028618D01*
X0360627Y0027150D01*
X0360627Y0024948D01*
X0360627Y0027150D02*
X0362095Y0028618D01*
X0362095Y0029352D01*
X0364315Y0027884D02*
X0364315Y0024948D01*
X0364315Y0027150D02*
X0367251Y0027150D01*
X0367251Y0027884D02*
X0365783Y0029352D01*
X0364315Y0027884D01*
X0367251Y0027884D02*
X0367251Y0024948D01*
X0369471Y0024948D02*
X0369471Y0029352D01*
X0370939Y0027884D01*
X0372407Y0029352D01*
X0372407Y0024948D01*
X0379408Y0024948D02*
X0380142Y0024948D01*
X0380142Y0025682D01*
X0379408Y0025682D01*
X0379408Y0024948D01*
X0382362Y0025682D02*
X0383096Y0024948D01*
X0384564Y0024948D01*
X0385298Y0025682D01*
X0382362Y0028618D01*
X0382362Y0025682D01*
X0382362Y0028618D02*
X0383096Y0029352D01*
X0384564Y0029352D01*
X0385298Y0028618D01*
X0385298Y0025682D01*
X0387519Y0024948D02*
X0390455Y0024948D01*
X0387519Y0027884D01*
X0387519Y0028618D01*
X0388253Y0029352D01*
X0389721Y0029352D01*
X0390455Y0028618D01*
X0390455Y0033348D02*
X0390455Y0037752D01*
X0387519Y0037752D01*
X0388987Y0035550D02*
X0390455Y0035550D01*
X0385298Y0035550D02*
X0382362Y0035550D01*
X0382362Y0036284D02*
X0382362Y0033348D01*
X0380142Y0033348D02*
X0380142Y0037752D01*
X0377940Y0037752D01*
X0377206Y0037018D01*
X0377206Y0036284D01*
X0377940Y0035550D01*
X0380142Y0035550D01*
X0377940Y0035550D02*
X0377206Y0034816D01*
X0377206Y0034082D01*
X0377940Y0033348D01*
X0380142Y0033348D01*
X0382362Y0036284D02*
X0383830Y0037752D01*
X0385298Y0036284D01*
X0385298Y0033348D01*
X0374986Y0033348D02*
X0372050Y0033348D01*
X0369829Y0033348D02*
X0369829Y0036284D01*
X0368361Y0037752D01*
X0366893Y0036284D01*
X0366893Y0033348D01*
X0366893Y0035550D02*
X0369829Y0035550D01*
X0374986Y0037752D02*
X0374986Y0033348D01*
X0364673Y0033348D02*
X0362471Y0033348D01*
X0361737Y0034082D01*
X0361737Y0034816D01*
X0362471Y0035550D01*
X0364673Y0035550D01*
X0364673Y0033348D02*
X0364673Y0037752D01*
X0362471Y0037752D01*
X0361737Y0037018D01*
X0361737Y0036284D01*
X0362471Y0035550D01*
X0363456Y0050148D02*
X0366392Y0054552D01*
X0366392Y0050148D01*
X0361235Y0052350D02*
X0359767Y0052350D01*
X0358299Y0054552D02*
X0361235Y0054552D01*
X0336313Y0029352D02*
X0333377Y0029352D01*
X0319984Y0033348D02*
X0319984Y0037752D01*
X0319984Y0035550D02*
X0317048Y0035550D01*
X0317048Y0037752D02*
X0317048Y0033348D01*
X0314828Y0034082D02*
X0314828Y0037752D01*
X0311892Y0037752D02*
X0311892Y0034082D01*
X0312626Y0033348D01*
X0314094Y0033348D01*
X0314828Y0034082D01*
X0309671Y0034816D02*
X0307469Y0034816D01*
X0306735Y0035550D01*
X0306735Y0037018D01*
X0307469Y0037752D01*
X0309671Y0037752D01*
X0309671Y0033348D01*
X0308203Y0034816D02*
X0306735Y0033348D01*
X0297175Y0075284D02*
X0280837Y0075284D01*
X0280837Y0105284D01*
X0285837Y0110284D01*
X0285837Y0145284D01*
X0280837Y0150284D01*
X0280837Y0182745D01*
X0280836Y0182745D02*
X0280838Y0182753D01*
X0280842Y0182759D01*
X0280848Y0182763D01*
X0280856Y0182765D01*
X0297175Y0182765D01*
D18*
X0187300Y0125090D03*
X0186900Y0125090D03*
X0186500Y0125090D03*
X0185300Y0125490D03*
X0188900Y0120290D03*
X0176900Y0120290D03*
X0176500Y0120290D03*
X0176500Y0124690D03*
X0176900Y0125090D03*
X0170100Y0118690D03*
X0169700Y0117890D03*
X0169300Y0117490D03*
X0166900Y0115890D03*
X0160500Y0111890D03*
X0160100Y0111890D03*
X0159700Y0111890D03*
X0159300Y0111890D03*
X0158900Y0111890D03*
X0158500Y0111890D03*
X0158100Y0111890D03*
X0157700Y0111890D03*
X0157300Y0111890D03*
X0154100Y0111890D03*
X0154500Y0108290D03*
X0154900Y0108290D03*
X0155300Y0108290D03*
X0155700Y0108290D03*
X0156100Y0108290D03*
X0156500Y0108290D03*
X0156900Y0108290D03*
X0160100Y0108290D03*
X0165700Y0107090D03*
X0159700Y0098690D03*
X0159300Y0098690D03*
X0158100Y0098290D03*
X0157700Y0098290D03*
X0154500Y0097090D03*
X0154500Y0093890D03*
X0154100Y0093890D03*
X0158100Y0092690D03*
X0158500Y0092690D03*
X0159300Y0092290D03*
X0159700Y0092290D03*
X0159700Y0095490D03*
X0160100Y0095490D03*
X0176500Y0096690D03*
X0177300Y0091890D03*
X0177700Y0091890D03*
X0180100Y0091090D03*
X0188900Y0091890D03*
X0189300Y0092290D03*
X0189700Y0092290D03*
X0190500Y0092690D03*
X0190900Y0093090D03*
X0191300Y0093090D03*
X0188900Y0096290D03*
X0158900Y0117490D03*
X0158500Y0117490D03*
X0158100Y0117490D03*
X0157700Y0117490D03*
X0157300Y0117490D03*
X0156900Y0117490D03*
X0156500Y0117490D03*
X0156100Y0117490D03*
X0155700Y0117490D03*
X0155300Y0117490D03*
X0154900Y0117490D03*
X0154500Y0117490D03*
X0154100Y0117490D03*
X0155700Y0123490D03*
X0156100Y0123490D03*
X0156500Y0123490D03*
X0156900Y0123490D03*
X0157300Y0123490D03*
X0157700Y0123490D03*
X0158100Y0123490D03*
X0158500Y0123490D03*
X0158900Y0123490D03*
D19*
X0168100Y0118090D03*
X0167700Y0117290D03*
X0167300Y0116490D03*
X0172100Y0122490D03*
X0173700Y0123690D03*
X0174500Y0124090D03*
X0177300Y0124890D03*
X0178100Y0125290D03*
X0183700Y0125690D03*
X0184100Y0125690D03*
X0184500Y0125690D03*
X0184900Y0125690D03*
X0185700Y0125290D03*
X0186100Y0125290D03*
X0168900Y0109690D03*
X0168900Y0107290D03*
X0166900Y0100090D03*
X0160500Y0098890D03*
X0154100Y0097290D03*
X0160500Y0092090D03*
X0178100Y0091690D03*
X0178500Y0091690D03*
X0178900Y0091290D03*
X0179300Y0091290D03*
X0179700Y0091290D03*
X0182100Y0090890D03*
X0182500Y0090890D03*
X0190100Y0092490D03*
X0160500Y0108090D03*
X0154100Y0108090D03*
D20*
X0154100Y0103290D03*
X0154500Y0103290D03*
X0154900Y0103290D03*
X0159300Y0103290D03*
X0159700Y0103290D03*
X0160100Y0103290D03*
X0169300Y0110490D03*
X0175700Y0112890D03*
X0184500Y0120490D03*
X0198100Y0116890D03*
X0196900Y0108490D03*
X0198100Y0100490D03*
X0190900Y0098490D03*
X0174900Y0098490D03*
X0154900Y0123690D03*
X0154500Y0123690D03*
X0186900Y0134890D03*
X0170900Y0150090D03*
X0186900Y0056490D03*
X0170900Y0036490D03*
D21*
X0156500Y0093890D03*
X0169300Y0098290D03*
X0169700Y0097890D03*
X0169300Y0106290D03*
X0166500Y0111490D03*
X0165700Y0111890D03*
X0157700Y0109090D03*
X0157300Y0109090D03*
X0156900Y0111090D03*
X0156500Y0111090D03*
X0174900Y0118290D03*
X0184900Y0120690D03*
X0190900Y0118290D03*
X0197700Y0117090D03*
X0197700Y0099890D03*
X0197300Y0099090D03*
X0184500Y0095890D03*
X0184100Y0095890D03*
X0183700Y0095890D03*
X0183300Y0095890D03*
X0182900Y0095890D03*
X0182500Y0095890D03*
X0182100Y0095890D03*
X0181700Y0095890D03*
X0181300Y0095890D03*
X0160500Y0123490D03*
X0160100Y0123490D03*
X0159700Y0123490D03*
X0159300Y0123490D03*
X0155300Y0123490D03*
X0154100Y0123490D03*
D22*
X0166500Y0114890D03*
X0166100Y0113690D03*
X0168900Y0116890D03*
X0176100Y0119690D03*
X0177300Y0120490D03*
X0177700Y0120490D03*
X0178100Y0120490D03*
X0176100Y0124490D03*
X0187700Y0124890D03*
X0188100Y0124890D03*
X0188500Y0124490D03*
X0188900Y0124490D03*
X0189300Y0124490D03*
X0189700Y0124090D03*
X0190100Y0124090D03*
X0190500Y0123690D03*
X0190900Y0123690D03*
X0191300Y0123290D03*
X0192100Y0122890D03*
X0192500Y0122490D03*
X0193300Y0122090D03*
X0190100Y0118890D03*
X0188500Y0120490D03*
X0188100Y0120490D03*
X0187700Y0120490D03*
X0159700Y0108490D03*
X0159300Y0108490D03*
X0154900Y0111690D03*
X0154500Y0111690D03*
X0155700Y0103290D03*
X0156100Y0103290D03*
X0156500Y0103290D03*
X0156900Y0103290D03*
X0157300Y0103290D03*
X0157700Y0103290D03*
X0158100Y0103290D03*
X0158500Y0103290D03*
X0158900Y0103290D03*
X0160100Y0098890D03*
X0158900Y0098490D03*
X0158500Y0098490D03*
X0159300Y0095690D03*
X0158900Y0092490D03*
X0160100Y0092090D03*
X0157700Y0092890D03*
X0155300Y0097290D03*
X0154900Y0097290D03*
X0176100Y0096890D03*
X0176900Y0096490D03*
X0177300Y0096490D03*
X0177700Y0096490D03*
X0181700Y0091290D03*
X0182900Y0091290D03*
X0183300Y0091290D03*
X0183700Y0091290D03*
X0184100Y0091290D03*
X0184500Y0091290D03*
X0185700Y0091690D03*
X0186100Y0091690D03*
X0186500Y0091690D03*
X0186900Y0091690D03*
X0187700Y0092090D03*
X0191700Y0093690D03*
X0194100Y0095690D03*
X0190100Y0097690D03*
X0188500Y0096490D03*
X0188100Y0096490D03*
D23*
X0187700Y0096290D03*
X0187300Y0096290D03*
X0186900Y0096290D03*
X0188100Y0092290D03*
X0188500Y0092290D03*
X0187300Y0091890D03*
X0185300Y0091490D03*
X0184900Y0091490D03*
X0181300Y0091490D03*
X0180900Y0091490D03*
X0180500Y0091490D03*
X0176900Y0092690D03*
X0176500Y0092690D03*
X0176100Y0093090D03*
X0175700Y0093090D03*
X0175300Y0093490D03*
X0174900Y0093490D03*
X0174500Y0093890D03*
X0174100Y0093890D03*
X0173700Y0094290D03*
X0172900Y0094690D03*
X0172500Y0095090D03*
X0175700Y0097490D03*
X0178100Y0096290D03*
X0178500Y0096290D03*
X0178900Y0096290D03*
X0168900Y0099490D03*
X0158900Y0095490D03*
X0158500Y0095490D03*
X0158100Y0095490D03*
X0155700Y0097090D03*
X0155700Y0093890D03*
X0155300Y0093890D03*
X0154900Y0093890D03*
X0158900Y0108690D03*
X0155700Y0111490D03*
X0155300Y0111490D03*
X0167700Y0114690D03*
X0168500Y0116290D03*
X0178500Y0120690D03*
X0178900Y0120690D03*
X0179300Y0120690D03*
X0186500Y0120690D03*
X0186900Y0120690D03*
X0187300Y0120690D03*
X0191700Y0123090D03*
X0192900Y0122290D03*
X0193700Y0121890D03*
X0194100Y0121490D03*
X0194500Y0121090D03*
X0194900Y0120690D03*
X0195300Y0120290D03*
X0195700Y0119890D03*
X0196100Y0119490D03*
X0192900Y0108290D03*
X0196100Y0097490D03*
X0195700Y0097090D03*
X0195300Y0096690D03*
X0194900Y0096290D03*
X0194500Y0095890D03*
X0193700Y0095090D03*
X0193300Y0094690D03*
X0192900Y0094290D03*
X0192500Y0094290D03*
X0192100Y0093890D03*
D24*
X0186500Y0096090D03*
X0186100Y0096090D03*
X0185700Y0096090D03*
X0185300Y0096090D03*
X0184900Y0096090D03*
X0180900Y0096090D03*
X0180500Y0096090D03*
X0180100Y0096090D03*
X0179700Y0096090D03*
X0179300Y0096090D03*
X0175300Y0098090D03*
X0172100Y0095290D03*
X0171700Y0095690D03*
X0171300Y0096090D03*
X0170900Y0096490D03*
X0170500Y0096890D03*
X0170100Y0097290D03*
X0168500Y0100090D03*
X0160500Y0103290D03*
X0155300Y0103290D03*
X0156100Y0097290D03*
X0156500Y0097290D03*
X0157700Y0095690D03*
X0156100Y0093690D03*
X0173300Y0094490D03*
X0184100Y0101690D03*
X0190500Y0098090D03*
X0196500Y0098090D03*
X0196900Y0098490D03*
X0200900Y0108490D03*
X0197300Y0117690D03*
X0196900Y0118490D03*
X0196500Y0118890D03*
X0190500Y0118890D03*
X0186100Y0120890D03*
X0185700Y0120890D03*
X0185300Y0120890D03*
X0180100Y0120890D03*
X0179700Y0120890D03*
X0175700Y0119290D03*
X0175300Y0118890D03*
X0175300Y0112890D03*
X0168100Y0115290D03*
X0167300Y0114090D03*
X0166900Y0112890D03*
X0164900Y0108090D03*
X0158500Y0108890D03*
X0158100Y0108890D03*
X0156100Y0111290D03*
X0184100Y0115290D03*
D25*
X0177700Y0113490D03*
X0177300Y0113490D03*
X0177300Y0103490D03*
X0177700Y0103490D03*
X0181700Y0102290D03*
X0182100Y0102290D03*
X0172900Y0101890D03*
X0156900Y0095490D03*
X0178100Y0078290D03*
X0180100Y0078290D03*
X0180500Y0078290D03*
X0184100Y0056290D03*
X0193300Y0102290D03*
X0194500Y0103490D03*
X0199300Y0104290D03*
X0194900Y0112690D03*
X0184100Y0155890D03*
X0183700Y0155890D03*
X0180100Y0177490D03*
X0179700Y0177490D03*
X0178500Y0177490D03*
D26*
X0178100Y0177690D03*
X0177300Y0178090D03*
X0180500Y0177690D03*
X0183300Y0155690D03*
X0178500Y0113690D03*
X0178100Y0113690D03*
X0186900Y0108090D03*
X0181300Y0102490D03*
X0178500Y0103290D03*
X0178100Y0103290D03*
X0173300Y0101690D03*
X0157300Y0095690D03*
X0177300Y0078890D03*
X0177700Y0078490D03*
X0183300Y0056490D03*
X0183700Y0056490D03*
D27*
X0185300Y0056490D03*
X0185700Y0056490D03*
X0182900Y0102090D03*
X0175700Y0103290D03*
X0170100Y0105290D03*
X0166500Y0104890D03*
X0167300Y0101690D03*
X0176500Y0113290D03*
X0172900Y0115690D03*
X0160100Y0117290D03*
X0159700Y0117290D03*
X0159300Y0117290D03*
X0192900Y0115690D03*
X0198900Y0114490D03*
X0198900Y0102490D03*
D28*
X0189700Y0097890D03*
X0189300Y0096290D03*
X0179300Y0092690D03*
X0178900Y0092690D03*
X0168900Y0097490D03*
X0160500Y0095490D03*
X0168500Y0118690D03*
X0168900Y0119090D03*
X0169300Y0119890D03*
X0169700Y0120290D03*
X0170100Y0120690D03*
X0170500Y0121090D03*
X0170900Y0121490D03*
X0171300Y0121890D03*
X0171700Y0122290D03*
X0172500Y0122690D03*
X0172900Y0123090D03*
X0173300Y0123490D03*
X0174100Y0123890D03*
X0174900Y0124290D03*
X0175300Y0124690D03*
X0175700Y0124690D03*
X0175300Y0123490D03*
X0177700Y0125090D03*
X0178500Y0125490D03*
X0180100Y0125890D03*
X0180500Y0125890D03*
X0180900Y0123890D03*
X0181300Y0123890D03*
X0181700Y0123890D03*
X0182100Y0123890D03*
X0182500Y0123890D03*
X0183300Y0125490D03*
X0189300Y0120690D03*
X0189700Y0119090D03*
X0170900Y0119090D03*
X0170500Y0118690D03*
D29*
X0173300Y0116290D03*
X0176100Y0113090D03*
X0169700Y0111090D03*
X0160500Y0117490D03*
X0175300Y0103090D03*
X0183300Y0101890D03*
X0192500Y0116290D03*
X0176900Y0079890D03*
X0175300Y0080290D03*
X0186100Y0056290D03*
X0186100Y0155890D03*
X0185700Y0155890D03*
X0176900Y0179490D03*
X0174900Y0179490D03*
D30*
X0177700Y0177890D03*
X0182500Y0155890D03*
X0182900Y0155890D03*
X0179300Y0113890D03*
X0178900Y0113890D03*
X0166100Y0107890D03*
X0165300Y0108690D03*
X0173700Y0101490D03*
X0178900Y0103090D03*
X0179300Y0103090D03*
X0180100Y0102690D03*
X0180500Y0102690D03*
X0180900Y0102690D03*
X0182900Y0056290D03*
D31*
X0182500Y0092090D03*
X0182100Y0092090D03*
X0180100Y0092490D03*
X0179700Y0092490D03*
X0178500Y0092890D03*
X0178100Y0092890D03*
X0177700Y0093290D03*
X0177300Y0093290D03*
X0168500Y0098090D03*
X0166100Y0103690D03*
X0165700Y0104490D03*
X0165700Y0108890D03*
X0166500Y0108890D03*
X0171300Y0119690D03*
X0170900Y0120090D03*
X0171700Y0120890D03*
X0172100Y0120890D03*
X0172500Y0121290D03*
X0174100Y0122890D03*
X0174500Y0122890D03*
X0174900Y0123290D03*
X0175700Y0123690D03*
X0179300Y0123690D03*
X0179700Y0123690D03*
X0180100Y0123690D03*
X0180500Y0123690D03*
X0179700Y0125690D03*
X0179300Y0125690D03*
X0178900Y0125690D03*
X0180900Y0126090D03*
X0181300Y0126090D03*
D32*
X0184100Y0120090D03*
X0191700Y0117290D03*
X0192100Y0116890D03*
X0198500Y0115690D03*
X0186500Y0108090D03*
X0174900Y0102890D03*
X0169700Y0105690D03*
X0166900Y0103290D03*
X0167700Y0100890D03*
X0173700Y0116890D03*
X0174100Y0117290D03*
X0174500Y0134890D03*
X0174900Y0134890D03*
X0175300Y0134890D03*
X0175700Y0134890D03*
X0176100Y0134890D03*
X0176500Y0134890D03*
X0176900Y0134890D03*
X0177300Y0134890D03*
X0177700Y0134890D03*
X0178100Y0134890D03*
X0178500Y0134890D03*
X0178900Y0134890D03*
X0179300Y0134890D03*
X0179700Y0134890D03*
X0180100Y0134890D03*
X0180500Y0134890D03*
X0180900Y0134890D03*
X0181300Y0134890D03*
X0181700Y0134890D03*
X0182100Y0134890D03*
X0182500Y0134890D03*
X0182900Y0134890D03*
X0183300Y0134890D03*
X0183700Y0134890D03*
X0184100Y0134890D03*
X0184500Y0134890D03*
X0184900Y0134890D03*
X0185300Y0134890D03*
X0185700Y0134890D03*
X0186100Y0134890D03*
X0186500Y0134890D03*
X0172500Y0150490D03*
X0172100Y0150490D03*
X0171300Y0150090D03*
X0177700Y0152490D03*
X0178100Y0152490D03*
X0178900Y0152890D03*
X0179300Y0152890D03*
X0180100Y0153290D03*
X0180900Y0158090D03*
X0179700Y0158490D03*
X0178900Y0158890D03*
X0178500Y0158890D03*
X0177700Y0159290D03*
X0172900Y0160890D03*
X0172500Y0161290D03*
X0172100Y0161290D03*
X0171700Y0161290D03*
X0171300Y0161690D03*
X0186500Y0155690D03*
X0182900Y0179290D03*
X0181300Y0179290D03*
X0176500Y0179690D03*
X0176100Y0179690D03*
X0175700Y0179690D03*
X0175300Y0179690D03*
X0175700Y0080490D03*
X0176500Y0080090D03*
X0174900Y0080090D03*
X0181300Y0079690D03*
X0182900Y0079690D03*
X0182900Y0070490D03*
X0182500Y0070490D03*
X0182100Y0070490D03*
X0181700Y0070490D03*
X0181300Y0070490D03*
X0180900Y0070490D03*
X0180500Y0070490D03*
X0180100Y0070490D03*
X0179700Y0070490D03*
X0179300Y0070490D03*
X0178900Y0070490D03*
X0178500Y0070490D03*
X0178100Y0070490D03*
X0177700Y0070490D03*
X0177300Y0070490D03*
X0176900Y0070490D03*
X0176500Y0070490D03*
X0176100Y0070490D03*
X0175700Y0070490D03*
X0175300Y0070490D03*
X0174900Y0070490D03*
X0171700Y0062090D03*
X0171300Y0062090D03*
X0172100Y0061690D03*
X0172500Y0061690D03*
X0172900Y0061690D03*
X0178100Y0059690D03*
X0179300Y0059290D03*
X0180500Y0058890D03*
X0179700Y0053690D03*
X0178500Y0053290D03*
X0177300Y0052890D03*
X0172900Y0051290D03*
X0172500Y0051290D03*
X0172100Y0050890D03*
X0171700Y0050890D03*
X0171300Y0050890D03*
X0186500Y0056490D03*
X0182900Y0036490D03*
X0182500Y0036490D03*
X0182100Y0036490D03*
X0181700Y0036490D03*
X0181300Y0036490D03*
X0180900Y0036490D03*
X0176900Y0036490D03*
X0176500Y0036490D03*
X0176100Y0036490D03*
X0175700Y0036490D03*
X0175300Y0036490D03*
X0174900Y0036490D03*
X0174500Y0036490D03*
X0174100Y0036490D03*
X0173700Y0036490D03*
X0173300Y0036490D03*
X0172900Y0036490D03*
X0172500Y0036490D03*
X0172100Y0036490D03*
X0171700Y0036490D03*
X0171300Y0036490D03*
D33*
X0170900Y0050690D03*
X0177700Y0053090D03*
X0178100Y0053090D03*
X0178900Y0053490D03*
X0179300Y0053490D03*
X0180100Y0053890D03*
X0180500Y0053890D03*
X0180900Y0054290D03*
X0181300Y0054290D03*
X0181300Y0058690D03*
X0180900Y0058690D03*
X0180100Y0059090D03*
X0179700Y0059090D03*
X0178900Y0059490D03*
X0178500Y0059490D03*
X0177700Y0059890D03*
X0177300Y0059890D03*
X0170900Y0062290D03*
X0176100Y0080290D03*
X0181700Y0079890D03*
X0182100Y0079890D03*
X0182500Y0079890D03*
X0183700Y0101890D03*
X0198500Y0101490D03*
X0191300Y0117890D03*
X0174500Y0117890D03*
X0168100Y0100290D03*
X0171700Y0150290D03*
X0172900Y0150690D03*
X0177300Y0152290D03*
X0178500Y0152690D03*
X0179700Y0153090D03*
X0180500Y0153490D03*
X0180900Y0153490D03*
X0180500Y0158290D03*
X0180100Y0158290D03*
X0179300Y0158690D03*
X0178100Y0159090D03*
X0177300Y0159490D03*
X0170900Y0161490D03*
X0174900Y0169890D03*
X0175300Y0169890D03*
X0175700Y0169890D03*
X0176100Y0169890D03*
X0176500Y0169890D03*
X0176900Y0169890D03*
X0177300Y0169890D03*
X0177700Y0169890D03*
X0178100Y0169890D03*
X0178500Y0169890D03*
X0178900Y0169890D03*
X0179300Y0169890D03*
X0179700Y0169890D03*
X0180100Y0169890D03*
X0180500Y0169890D03*
X0180900Y0169890D03*
X0181300Y0169890D03*
X0181700Y0169890D03*
X0182100Y0169890D03*
X0182500Y0169890D03*
X0182900Y0169890D03*
X0182500Y0179490D03*
X0182100Y0179490D03*
X0181700Y0179490D03*
X0186900Y0155890D03*
D34*
X0185300Y0155890D03*
X0184900Y0155890D03*
X0179300Y0177090D03*
X0180900Y0178290D03*
X0172500Y0115090D03*
X0172100Y0114690D03*
X0170100Y0111490D03*
X0172100Y0102290D03*
X0176100Y0103490D03*
X0176500Y0103490D03*
X0193700Y0102290D03*
X0193700Y0114690D03*
X0193300Y0115090D03*
X0180900Y0079090D03*
X0179300Y0077890D03*
X0178900Y0077890D03*
D35*
X0178500Y0078090D03*
X0179700Y0078090D03*
X0184500Y0056490D03*
X0184900Y0056490D03*
X0182500Y0102090D03*
X0176900Y0103690D03*
X0172500Y0102090D03*
X0171700Y0102890D03*
X0171300Y0103290D03*
X0170900Y0104090D03*
X0170500Y0104890D03*
X0170500Y0112090D03*
X0170900Y0112890D03*
X0171300Y0113290D03*
X0171700Y0114090D03*
X0176900Y0113290D03*
X0194100Y0114090D03*
X0194500Y0113290D03*
X0195300Y0112090D03*
X0195300Y0104890D03*
X0194900Y0104090D03*
X0194100Y0102890D03*
X0184500Y0155690D03*
X0178900Y0177290D03*
D36*
X0186900Y0172890D03*
X0182900Y0117290D03*
X0188500Y0108090D03*
X0188900Y0108090D03*
X0189300Y0108090D03*
X0189700Y0108090D03*
X0190100Y0108090D03*
X0196100Y0108490D03*
X0170900Y0073690D03*
D37*
X0171300Y0074090D03*
X0176500Y0056490D03*
X0176900Y0056490D03*
X0183300Y0040090D03*
X0186900Y0040490D03*
X0195700Y0108490D03*
X0180900Y0116490D03*
X0180500Y0116490D03*
X0170900Y0138890D03*
X0176900Y0155690D03*
X0186100Y0173690D03*
D38*
X0170900Y0173090D03*
X0182500Y0117090D03*
X0190500Y0107890D03*
D39*
X0174100Y0138690D03*
X0173700Y0138690D03*
X0173300Y0138690D03*
X0172900Y0138690D03*
X0172500Y0138690D03*
X0172100Y0138690D03*
X0171700Y0138690D03*
X0171300Y0138690D03*
X0176100Y0155890D03*
X0176500Y0155890D03*
X0171700Y0173890D03*
X0185700Y0173890D03*
X0186100Y0074290D03*
X0176100Y0056290D03*
D40*
X0186500Y0073890D03*
X0180500Y0039890D03*
X0180100Y0039890D03*
X0179700Y0039890D03*
X0179300Y0039890D03*
X0178900Y0039890D03*
X0178500Y0039890D03*
X0178100Y0039890D03*
X0177700Y0039890D03*
X0177300Y0039890D03*
X0200100Y0108690D03*
X0181300Y0116690D03*
X0171300Y0173490D03*
D41*
X0185300Y0174090D03*
X0192500Y0104490D03*
X0185700Y0074490D03*
X0171700Y0074490D03*
X0175700Y0056490D03*
X0183700Y0040490D03*
X0184100Y0040490D03*
X0184500Y0040490D03*
X0184900Y0040490D03*
X0185300Y0040490D03*
X0185700Y0040490D03*
X0186100Y0040490D03*
X0186500Y0040490D03*
D42*
X0175300Y0056290D03*
X0172100Y0074690D03*
X0184900Y0074690D03*
X0185300Y0074690D03*
X0175700Y0155890D03*
X0175300Y0155890D03*
X0172100Y0174290D03*
X0184900Y0174290D03*
D43*
X0184500Y0174490D03*
X0184100Y0174490D03*
X0172900Y0174490D03*
X0172500Y0174490D03*
X0174900Y0155690D03*
X0172500Y0074890D03*
X0184500Y0074890D03*
X0174900Y0056490D03*
X0174500Y0056490D03*
D44*
X0174100Y0056290D03*
X0173300Y0075090D03*
X0172900Y0075090D03*
X0183300Y0075090D03*
X0183700Y0075090D03*
X0184100Y0075090D03*
X0192100Y0104690D03*
X0199700Y0108690D03*
X0174500Y0155890D03*
X0174100Y0155890D03*
X0173700Y0174690D03*
X0173300Y0174690D03*
X0183300Y0174690D03*
X0183700Y0174690D03*
D45*
X0174500Y0174890D03*
X0174100Y0174890D03*
X0173700Y0155690D03*
X0173700Y0075290D03*
X0174100Y0075290D03*
X0174500Y0075290D03*
X0173700Y0056490D03*
X0173300Y0056490D03*
D46*
X0191700Y0104690D03*
X0173300Y0155890D03*
D47*
X0182100Y0155690D03*
X0179700Y0114090D03*
X0187300Y0108090D03*
X0196500Y0108490D03*
X0200500Y0108890D03*
X0179700Y0102890D03*
X0174100Y0101290D03*
X0182100Y0056490D03*
X0182500Y0056490D03*
D48*
X0174500Y0101090D03*
X0192900Y0102290D03*
X0199300Y0112290D03*
X0180100Y0114690D03*
X0181700Y0155890D03*
D49*
X0181300Y0155690D03*
X0187700Y0108090D03*
X0181700Y0056490D03*
D50*
X0190900Y0107290D03*
X0182100Y0116890D03*
X0181700Y0116890D03*
X0186500Y0173290D03*
D51*
X0183300Y0117490D03*
X0186900Y0073490D03*
D52*
X0188100Y0108090D03*
X0183700Y0117690D03*
D53*
X0191300Y0104690D03*
D54*
X0325994Y0204162D02*
X0345679Y0204162D01*
X0345679Y0204950D01*
X0325994Y0204950D02*
X0325994Y0204162D01*
X0325994Y0223454D02*
X0325994Y0224635D01*
X0344498Y0224635D01*
X0345679Y0223454D01*
D55*
X0321241Y0141574D02*
X0317437Y0141574D01*
X0316487Y0140623D01*
X0316487Y0137771D01*
X0322191Y0137771D01*
X0322191Y0140623D01*
X0321241Y0141574D01*
X0322191Y0135128D02*
X0322191Y0131325D01*
X0316487Y0131325D01*
X0316487Y0135128D01*
X0319339Y0133227D02*
X0319339Y0131325D01*
X0316487Y0128683D02*
X0316487Y0124880D01*
X0322191Y0124880D01*
X0321241Y0122237D02*
X0317437Y0122237D01*
X0316487Y0121287D01*
X0316487Y0119385D01*
X0317437Y0118434D01*
X0321241Y0118434D01*
X0322191Y0119385D01*
X0322191Y0121287D01*
X0321241Y0122237D01*
D56*
X0087284Y0119213D02*
X0087284Y0113876D01*
X0079278Y0113876D01*
X0079278Y0119213D01*
X0083281Y0116544D02*
X0083281Y0113876D01*
X0083281Y0110006D02*
X0081947Y0108671D01*
X0081947Y0104668D01*
X0081947Y0107337D02*
X0079278Y0110006D01*
X0083281Y0110006D02*
X0085950Y0110006D01*
X0087284Y0108671D01*
X0087284Y0104668D01*
X0079278Y0104668D01*
X0080612Y0091590D02*
X0085950Y0091590D01*
X0087284Y0090255D01*
X0087284Y0086252D01*
X0079278Y0086252D01*
X0079278Y0090255D01*
X0080612Y0091590D01*
X0079278Y0082782D02*
X0079278Y0080113D01*
X0079278Y0081448D02*
X0087284Y0081448D01*
X0087284Y0082782D02*
X0087284Y0080113D01*
X0087284Y0076243D02*
X0087284Y0070905D01*
X0079278Y0070905D01*
X0079278Y0067036D02*
X0081947Y0064367D01*
X0081947Y0065701D02*
X0081947Y0061698D01*
X0079278Y0061698D02*
X0087284Y0061698D01*
X0087284Y0065701D01*
X0085950Y0067036D01*
X0083281Y0067036D01*
X0081947Y0065701D01*
X0083281Y0070905D02*
X0083281Y0073574D01*
X0083281Y0123083D02*
X0083281Y0128421D01*
X0084615Y0128421D02*
X0079278Y0128421D01*
X0079278Y0132291D02*
X0079278Y0136295D01*
X0080612Y0137629D01*
X0085950Y0137629D01*
X0087284Y0136295D01*
X0087284Y0132291D01*
X0079278Y0132291D01*
X0084615Y0128421D02*
X0087284Y0125752D01*
X0084615Y0123083D01*
X0079278Y0123083D01*
X0079278Y0141499D02*
X0079278Y0146837D01*
X0079278Y0150707D02*
X0087284Y0150707D01*
X0087284Y0154710D01*
X0085950Y0156045D01*
X0083281Y0156045D01*
X0081947Y0154710D01*
X0081947Y0150707D01*
X0081947Y0153376D02*
X0079278Y0156045D01*
X0087284Y0146837D02*
X0087284Y0141499D01*
X0079278Y0141499D01*
X0083281Y0141499D02*
X0083281Y0144168D01*
D57*
X0099616Y0135659D02*
X0099861Y0136135D01*
X0100118Y0136605D01*
X0100386Y0137068D01*
X0100665Y0137525D01*
X0100956Y0137975D01*
X0101257Y0138418D01*
X0101569Y0138853D01*
X0101891Y0139281D01*
X0102224Y0139700D01*
X0102567Y0140112D01*
X0102920Y0140515D01*
X0103282Y0140909D01*
X0103654Y0141294D01*
X0104035Y0141670D01*
X0104426Y0142037D01*
X0104825Y0142394D01*
X0105232Y0142741D01*
X0105648Y0143079D01*
X0106072Y0143406D01*
X0106504Y0143722D01*
X0106944Y0144028D01*
X0107390Y0144324D01*
X0107844Y0144608D01*
X0108305Y0144881D01*
X0108772Y0145143D01*
X0109245Y0145394D01*
X0109725Y0145632D01*
X0110210Y0145860D01*
X0110700Y0146075D01*
X0111195Y0146278D01*
X0111696Y0146469D01*
X0112200Y0146648D01*
X0112709Y0146815D01*
X0113222Y0146969D01*
X0113739Y0147111D01*
X0114259Y0147240D01*
X0114781Y0147356D01*
X0115307Y0147460D01*
X0115834Y0147550D01*
X0116364Y0147628D01*
X0116896Y0147693D01*
X0117429Y0147745D01*
X0117963Y0147784D01*
X0118498Y0147810D01*
X0119033Y0147823D01*
X0119569Y0147823D01*
X0120104Y0147810D01*
X0120639Y0147784D01*
X0121173Y0147745D01*
X0121706Y0147693D01*
X0122238Y0147628D01*
X0122768Y0147550D01*
X0123295Y0147460D01*
X0123821Y0147356D01*
X0124343Y0147240D01*
X0124863Y0147111D01*
X0125380Y0146969D01*
X0125893Y0146815D01*
X0126402Y0146648D01*
X0126906Y0146469D01*
X0127407Y0146278D01*
X0127902Y0146075D01*
X0128392Y0145860D01*
X0128877Y0145632D01*
X0129357Y0145394D01*
X0129830Y0145143D01*
X0130297Y0144881D01*
X0130758Y0144608D01*
X0131212Y0144324D01*
X0131658Y0144028D01*
X0132098Y0143722D01*
X0132530Y0143406D01*
X0132954Y0143079D01*
X0133370Y0142741D01*
X0133777Y0142394D01*
X0134176Y0142037D01*
X0134567Y0141670D01*
X0134948Y0141294D01*
X0135320Y0140909D01*
X0135682Y0140515D01*
X0136035Y0140112D01*
X0136378Y0139700D01*
X0136711Y0139281D01*
X0137033Y0138853D01*
X0137345Y0138418D01*
X0137646Y0137975D01*
X0137937Y0137525D01*
X0138216Y0137068D01*
X0138484Y0136605D01*
X0138741Y0136135D01*
X0138986Y0135659D01*
X0131112Y0119910D02*
X0130965Y0120196D01*
X0130811Y0120478D01*
X0130650Y0120756D01*
X0130482Y0121030D01*
X0130308Y0121300D01*
X0130127Y0121566D01*
X0129940Y0121827D01*
X0129747Y0122084D01*
X0129547Y0122335D01*
X0129341Y0122582D01*
X0129129Y0122824D01*
X0128912Y0123060D01*
X0128689Y0123292D01*
X0128460Y0123517D01*
X0128226Y0123737D01*
X0127987Y0123952D01*
X0127742Y0124160D01*
X0127492Y0124362D01*
X0127238Y0124559D01*
X0126979Y0124749D01*
X0126715Y0124932D01*
X0126447Y0125109D01*
X0126175Y0125280D01*
X0125898Y0125444D01*
X0125618Y0125601D01*
X0125334Y0125751D01*
X0125047Y0125894D01*
X0124756Y0126031D01*
X0124461Y0126160D01*
X0124164Y0126282D01*
X0123864Y0126397D01*
X0123561Y0126504D01*
X0123256Y0126604D01*
X0122948Y0126696D01*
X0122638Y0126781D01*
X0122326Y0126859D01*
X0122013Y0126929D01*
X0121698Y0126991D01*
X0121381Y0127045D01*
X0121063Y0127092D01*
X0120744Y0127131D01*
X0120424Y0127162D01*
X0120104Y0127186D01*
X0119783Y0127201D01*
X0119462Y0127209D01*
X0119140Y0127209D01*
X0118819Y0127201D01*
X0118498Y0127186D01*
X0118178Y0127162D01*
X0117858Y0127131D01*
X0117539Y0127092D01*
X0117221Y0127045D01*
X0116904Y0126991D01*
X0116589Y0126929D01*
X0116276Y0126859D01*
X0115964Y0126781D01*
X0115654Y0126696D01*
X0115346Y0126604D01*
X0115041Y0126504D01*
X0114738Y0126397D01*
X0114438Y0126282D01*
X0114141Y0126160D01*
X0113846Y0126031D01*
X0113555Y0125894D01*
X0113268Y0125751D01*
X0112984Y0125601D01*
X0112704Y0125444D01*
X0112427Y0125280D01*
X0112155Y0125109D01*
X0111887Y0124932D01*
X0111623Y0124749D01*
X0111364Y0124559D01*
X0111110Y0124362D01*
X0110860Y0124160D01*
X0110615Y0123952D01*
X0110376Y0123737D01*
X0110142Y0123517D01*
X0109913Y0123292D01*
X0109690Y0123060D01*
X0109473Y0122824D01*
X0109261Y0122582D01*
X0109055Y0122335D01*
X0108855Y0122084D01*
X0108662Y0121827D01*
X0108475Y0121566D01*
X0108294Y0121300D01*
X0108120Y0121030D01*
X0107952Y0120756D01*
X0107791Y0120478D01*
X0107637Y0120196D01*
X0107490Y0119910D01*
X0118421Y0108099D02*
X0118423Y0108158D01*
X0118429Y0108216D01*
X0118439Y0108274D01*
X0118452Y0108331D01*
X0118470Y0108388D01*
X0118491Y0108443D01*
X0118516Y0108496D01*
X0118544Y0108547D01*
X0118575Y0108597D01*
X0118610Y0108644D01*
X0118648Y0108689D01*
X0118689Y0108732D01*
X0118733Y0108771D01*
X0118779Y0108807D01*
X0118827Y0108841D01*
X0118878Y0108871D01*
X0118931Y0108897D01*
X0118985Y0108920D01*
X0119040Y0108939D01*
X0119097Y0108955D01*
X0119155Y0108967D01*
X0119213Y0108975D01*
X0119272Y0108979D01*
X0119330Y0108979D01*
X0119389Y0108975D01*
X0119447Y0108967D01*
X0119505Y0108955D01*
X0119562Y0108939D01*
X0119617Y0108920D01*
X0119671Y0108897D01*
X0119724Y0108871D01*
X0119775Y0108841D01*
X0119823Y0108807D01*
X0119869Y0108771D01*
X0119913Y0108732D01*
X0119954Y0108689D01*
X0119992Y0108644D01*
X0120027Y0108597D01*
X0120058Y0108547D01*
X0120086Y0108496D01*
X0120111Y0108443D01*
X0120132Y0108388D01*
X0120150Y0108331D01*
X0120163Y0108274D01*
X0120173Y0108216D01*
X0120179Y0108158D01*
X0120181Y0108099D01*
X0120179Y0108040D01*
X0120173Y0107982D01*
X0120163Y0107924D01*
X0120150Y0107867D01*
X0120132Y0107810D01*
X0120111Y0107755D01*
X0120086Y0107702D01*
X0120058Y0107651D01*
X0120027Y0107601D01*
X0119992Y0107554D01*
X0119954Y0107509D01*
X0119913Y0107466D01*
X0119869Y0107427D01*
X0119823Y0107391D01*
X0119775Y0107357D01*
X0119724Y0107327D01*
X0119671Y0107301D01*
X0119617Y0107278D01*
X0119562Y0107259D01*
X0119505Y0107243D01*
X0119447Y0107231D01*
X0119389Y0107223D01*
X0119330Y0107219D01*
X0119272Y0107219D01*
X0119213Y0107223D01*
X0119155Y0107231D01*
X0119097Y0107243D01*
X0119040Y0107259D01*
X0118985Y0107278D01*
X0118931Y0107301D01*
X0118878Y0107327D01*
X0118827Y0107357D01*
X0118779Y0107391D01*
X0118733Y0107427D01*
X0118689Y0107466D01*
X0118648Y0107509D01*
X0118610Y0107554D01*
X0118575Y0107601D01*
X0118544Y0107651D01*
X0118516Y0107702D01*
X0118491Y0107755D01*
X0118470Y0107810D01*
X0118452Y0107867D01*
X0118439Y0107924D01*
X0118429Y0107982D01*
X0118423Y0108040D01*
X0118421Y0108099D01*
X0107490Y0096289D02*
X0107637Y0096003D01*
X0107791Y0095721D01*
X0107952Y0095443D01*
X0108120Y0095169D01*
X0108294Y0094899D01*
X0108475Y0094633D01*
X0108662Y0094372D01*
X0108855Y0094115D01*
X0109055Y0093864D01*
X0109261Y0093617D01*
X0109473Y0093375D01*
X0109690Y0093139D01*
X0109913Y0092907D01*
X0110142Y0092682D01*
X0110376Y0092462D01*
X0110615Y0092247D01*
X0110860Y0092039D01*
X0111110Y0091837D01*
X0111364Y0091640D01*
X0111623Y0091450D01*
X0111887Y0091267D01*
X0112155Y0091090D01*
X0112427Y0090919D01*
X0112704Y0090755D01*
X0112984Y0090598D01*
X0113268Y0090448D01*
X0113555Y0090305D01*
X0113846Y0090168D01*
X0114141Y0090039D01*
X0114438Y0089917D01*
X0114738Y0089802D01*
X0115041Y0089695D01*
X0115346Y0089595D01*
X0115654Y0089503D01*
X0115964Y0089418D01*
X0116276Y0089340D01*
X0116589Y0089270D01*
X0116904Y0089208D01*
X0117221Y0089154D01*
X0117539Y0089107D01*
X0117858Y0089068D01*
X0118178Y0089037D01*
X0118498Y0089013D01*
X0118819Y0088998D01*
X0119140Y0088990D01*
X0119462Y0088990D01*
X0119783Y0088998D01*
X0120104Y0089013D01*
X0120424Y0089037D01*
X0120744Y0089068D01*
X0121063Y0089107D01*
X0121381Y0089154D01*
X0121698Y0089208D01*
X0122013Y0089270D01*
X0122326Y0089340D01*
X0122638Y0089418D01*
X0122948Y0089503D01*
X0123256Y0089595D01*
X0123561Y0089695D01*
X0123864Y0089802D01*
X0124164Y0089917D01*
X0124461Y0090039D01*
X0124756Y0090168D01*
X0125047Y0090305D01*
X0125334Y0090448D01*
X0125618Y0090598D01*
X0125898Y0090755D01*
X0126175Y0090919D01*
X0126447Y0091090D01*
X0126715Y0091267D01*
X0126979Y0091450D01*
X0127238Y0091640D01*
X0127492Y0091837D01*
X0127742Y0092039D01*
X0127987Y0092247D01*
X0128226Y0092462D01*
X0128460Y0092682D01*
X0128689Y0092907D01*
X0128912Y0093139D01*
X0129129Y0093375D01*
X0129341Y0093617D01*
X0129547Y0093864D01*
X0129747Y0094115D01*
X0129940Y0094372D01*
X0130127Y0094633D01*
X0130308Y0094899D01*
X0130482Y0095169D01*
X0130650Y0095443D01*
X0130811Y0095721D01*
X0130965Y0096003D01*
X0131112Y0096289D01*
X0138986Y0080540D02*
X0138741Y0080064D01*
X0138484Y0079594D01*
X0138216Y0079131D01*
X0137937Y0078674D01*
X0137646Y0078224D01*
X0137345Y0077781D01*
X0137033Y0077346D01*
X0136711Y0076918D01*
X0136378Y0076499D01*
X0136035Y0076087D01*
X0135682Y0075684D01*
X0135320Y0075290D01*
X0134948Y0074905D01*
X0134567Y0074529D01*
X0134176Y0074162D01*
X0133777Y0073805D01*
X0133370Y0073458D01*
X0132954Y0073120D01*
X0132530Y0072793D01*
X0132098Y0072477D01*
X0131658Y0072171D01*
X0131212Y0071875D01*
X0130758Y0071591D01*
X0130297Y0071318D01*
X0129830Y0071056D01*
X0129357Y0070805D01*
X0128877Y0070567D01*
X0128392Y0070339D01*
X0127902Y0070124D01*
X0127407Y0069921D01*
X0126906Y0069730D01*
X0126402Y0069551D01*
X0125893Y0069384D01*
X0125380Y0069230D01*
X0124863Y0069088D01*
X0124343Y0068959D01*
X0123821Y0068843D01*
X0123295Y0068739D01*
X0122768Y0068649D01*
X0122238Y0068571D01*
X0121706Y0068506D01*
X0121173Y0068454D01*
X0120639Y0068415D01*
X0120104Y0068389D01*
X0119569Y0068376D01*
X0119033Y0068376D01*
X0118498Y0068389D01*
X0117963Y0068415D01*
X0117429Y0068454D01*
X0116896Y0068506D01*
X0116364Y0068571D01*
X0115834Y0068649D01*
X0115307Y0068739D01*
X0114781Y0068843D01*
X0114259Y0068959D01*
X0113739Y0069088D01*
X0113222Y0069230D01*
X0112709Y0069384D01*
X0112200Y0069551D01*
X0111696Y0069730D01*
X0111195Y0069921D01*
X0110700Y0070124D01*
X0110210Y0070339D01*
X0109725Y0070567D01*
X0109245Y0070805D01*
X0108772Y0071056D01*
X0108305Y0071318D01*
X0107844Y0071591D01*
X0107390Y0071875D01*
X0106944Y0072171D01*
X0106504Y0072477D01*
X0106072Y0072793D01*
X0105648Y0073120D01*
X0105232Y0073458D01*
X0104825Y0073805D01*
X0104426Y0074162D01*
X0104035Y0074529D01*
X0103654Y0074905D01*
X0103282Y0075290D01*
X0102920Y0075684D01*
X0102567Y0076087D01*
X0102224Y0076499D01*
X0101891Y0076918D01*
X0101569Y0077346D01*
X0101257Y0077781D01*
X0100956Y0078224D01*
X0100665Y0078674D01*
X0100386Y0079131D01*
X0100118Y0079594D01*
X0099861Y0080064D01*
X0099616Y0080540D01*
M02*
