G75*
%MOIN*%
%OFA0B0*%
%FSLAX25Y25*%
%IPPOS*%
%LPD*%
%AMOC8*
5,1,8,0,0,1.08239X$1,22.5*
%
%ADD10C,0.01600*%
%ADD11C,0.01000*%
%ADD12C,0.00000*%
%ADD13C,0.01100*%
%ADD14C,0.01500*%
%ADD15C,0.00900*%
%ADD16C,0.01200*%
%ADD17C,0.00600*%
%ADD18R,0.05000X0.05000*%
%ADD19R,0.02500X0.20000*%
%ADD20R,0.15000X0.07000*%
%ADD21C,0.00800*%
%ADD22C,0.02400*%
%ADD23C,0.01700*%
%ADD24C,0.01300*%
%ADD25R,0.00400X0.01600*%
%ADD26R,0.00400X0.01200*%
%ADD27R,0.00400X0.03600*%
%ADD28R,0.00400X0.03200*%
%ADD29R,0.00400X0.02000*%
%ADD30R,0.00400X0.02400*%
%ADD31R,0.00400X0.02800*%
%ADD32R,0.00400X0.06400*%
%ADD33R,0.00400X0.06800*%
%ADD34R,0.00400X0.05200*%
%ADD35R,0.00400X0.00800*%
%ADD36R,0.00400X0.04800*%
%ADD37R,0.00400X0.07200*%
%ADD38R,0.00400X0.00400*%
%ADD39R,0.00400X0.04400*%
%ADD40R,0.00400X0.04000*%
%ADD41R,0.00400X0.05600*%
%ADD42R,0.00400X0.06000*%
%ADD43R,0.00400X0.10000*%
%ADD44R,0.00400X0.11600*%
%ADD45R,0.00400X0.10400*%
%ADD46R,0.00400X0.12000*%
%ADD47R,0.00400X0.11200*%
%ADD48R,0.00400X0.12400*%
%ADD49R,0.00400X0.12800*%
%ADD50R,0.00400X0.13200*%
%ADD51R,0.00400X0.13600*%
%ADD52R,0.00400X0.14000*%
%ADD53R,0.00400X0.14400*%
%ADD54R,0.00400X0.07600*%
%ADD55R,0.00400X0.08000*%
%ADD56R,0.00400X0.08400*%
%ADD57R,0.00400X0.10800*%
%ADD58R,0.00400X0.09600*%
%ADD59R,0.00400X0.09200*%
%ADD60R,0.00400X0.15200*%
%ADD61R,0.61600X0.00200*%
%ADD62R,0.29400X0.00200*%
%ADD63R,0.02600X0.00200*%
%ADD64R,0.10400X0.00200*%
%ADD65R,0.01200X0.00200*%
%ADD66R,0.02200X0.00200*%
%ADD67R,0.12200X0.00200*%
%ADD68R,0.29200X0.00200*%
%ADD69R,0.01800X0.00200*%
%ADD70R,0.09800X0.00200*%
%ADD71R,0.00400X0.00200*%
%ADD72R,0.01600X0.00200*%
%ADD73R,0.11800X0.00200*%
%ADD74R,0.09600X0.00200*%
%ADD75R,0.01400X0.00200*%
%ADD76R,0.12000X0.00200*%
%ADD77R,0.09000X0.00200*%
%ADD78R,0.16600X0.00200*%
%ADD79R,0.09400X0.00200*%
%ADD80R,0.08200X0.00200*%
%ADD81R,0.15800X0.00200*%
%ADD82R,0.07600X0.00200*%
%ADD83R,0.15200X0.00200*%
%ADD84R,0.07000X0.00200*%
%ADD85R,0.14800X0.00200*%
%ADD86R,0.11200X0.00200*%
%ADD87R,0.06600X0.00200*%
%ADD88R,0.14400X0.00200*%
%ADD89R,0.10800X0.00200*%
%ADD90R,0.00800X0.00200*%
%ADD91R,0.00200X0.00200*%
%ADD92R,0.12400X0.00200*%
%ADD93R,0.06200X0.00200*%
%ADD94R,0.14000X0.00200*%
%ADD95R,0.10000X0.00200*%
%ADD96R,0.00600X0.00200*%
%ADD97R,0.05800X0.00200*%
%ADD98R,0.13600X0.00200*%
%ADD99R,0.01000X0.00200*%
%ADD100R,0.05600X0.00200*%
%ADD101R,0.13400X0.00200*%
%ADD102R,0.09200X0.00200*%
%ADD103R,0.12600X0.00200*%
%ADD104R,0.05400X0.00200*%
%ADD105R,0.13000X0.00200*%
%ADD106R,0.08800X0.00200*%
%ADD107R,0.02400X0.00200*%
%ADD108R,0.05000X0.00200*%
%ADD109R,0.04200X0.00200*%
%ADD110R,0.12800X0.00200*%
%ADD111R,0.02800X0.00200*%
%ADD112R,0.04800X0.00200*%
%ADD113R,0.08600X0.00200*%
%ADD114R,0.04600X0.00200*%
%ADD115R,0.04400X0.00200*%
%ADD116R,0.07200X0.00200*%
%ADD117R,0.08000X0.00200*%
%ADD118R,0.08400X0.00200*%
%ADD119R,0.04000X0.00200*%
%ADD120R,0.03800X0.00200*%
%ADD121R,0.44000X0.00200*%
%ADD122R,0.03600X0.00200*%
%ADD123R,0.03400X0.00200*%
%ADD124R,0.03200X0.00200*%
%ADD125R,0.43800X0.00200*%
%ADD126R,0.03000X0.00200*%
%ADD127R,0.43600X0.00200*%
%ADD128R,0.43400X0.00200*%
%ADD129R,0.43200X0.00200*%
%ADD130R,0.43000X0.00200*%
%ADD131R,0.02000X0.00200*%
%ADD132R,0.06000X0.00200*%
%ADD133R,0.61200X0.00200*%
%ADD134R,0.60800X0.00200*%
%ADD135R,0.60000X0.00200*%
%ADD136C,0.00700*%
%ADD137C,0.00500*%
%ADD138C,0.00591*%
D10*
X0016939Y0009674D02*
X0016939Y0245894D01*
X0016941Y0246084D01*
X0016948Y0246274D01*
X0016960Y0246464D01*
X0016976Y0246654D01*
X0016996Y0246843D01*
X0017022Y0247032D01*
X0017051Y0247220D01*
X0017086Y0247407D01*
X0017125Y0247593D01*
X0017168Y0247778D01*
X0017216Y0247963D01*
X0017268Y0248146D01*
X0017324Y0248327D01*
X0017385Y0248507D01*
X0017451Y0248686D01*
X0017520Y0248863D01*
X0017594Y0249039D01*
X0017672Y0249212D01*
X0017755Y0249384D01*
X0017841Y0249553D01*
X0017931Y0249721D01*
X0018026Y0249886D01*
X0018124Y0250049D01*
X0018227Y0250209D01*
X0018333Y0250367D01*
X0018443Y0250522D01*
X0018556Y0250675D01*
X0018674Y0250825D01*
X0018795Y0250971D01*
X0018919Y0251115D01*
X0019047Y0251256D01*
X0019178Y0251394D01*
X0019313Y0251529D01*
X0019451Y0251660D01*
X0019592Y0251788D01*
X0019736Y0251912D01*
X0019882Y0252033D01*
X0020032Y0252151D01*
X0020185Y0252264D01*
X0020340Y0252374D01*
X0020498Y0252480D01*
X0020658Y0252583D01*
X0020821Y0252681D01*
X0020986Y0252776D01*
X0021154Y0252866D01*
X0021323Y0252952D01*
X0021495Y0253035D01*
X0021668Y0253113D01*
X0021844Y0253187D01*
X0022021Y0253256D01*
X0022200Y0253322D01*
X0022380Y0253383D01*
X0022561Y0253439D01*
X0022744Y0253491D01*
X0022929Y0253539D01*
X0023114Y0253582D01*
X0023300Y0253621D01*
X0023487Y0253656D01*
X0023675Y0253685D01*
X0023864Y0253711D01*
X0024053Y0253731D01*
X0024243Y0253747D01*
X0024433Y0253759D01*
X0024623Y0253766D01*
X0024813Y0253768D01*
X0024813Y0253769D02*
X0390955Y0253769D01*
X0390955Y0253768D02*
X0391145Y0253766D01*
X0391335Y0253759D01*
X0391525Y0253747D01*
X0391715Y0253731D01*
X0391904Y0253711D01*
X0392093Y0253685D01*
X0392281Y0253656D01*
X0392468Y0253621D01*
X0392654Y0253582D01*
X0392839Y0253539D01*
X0393024Y0253491D01*
X0393207Y0253439D01*
X0393388Y0253383D01*
X0393568Y0253322D01*
X0393747Y0253256D01*
X0393924Y0253187D01*
X0394100Y0253113D01*
X0394273Y0253035D01*
X0394445Y0252952D01*
X0394614Y0252866D01*
X0394782Y0252776D01*
X0394947Y0252681D01*
X0395110Y0252583D01*
X0395270Y0252480D01*
X0395428Y0252374D01*
X0395583Y0252264D01*
X0395736Y0252151D01*
X0395886Y0252033D01*
X0396032Y0251912D01*
X0396176Y0251788D01*
X0396317Y0251660D01*
X0396455Y0251529D01*
X0396590Y0251394D01*
X0396721Y0251256D01*
X0396849Y0251115D01*
X0396973Y0250971D01*
X0397094Y0250825D01*
X0397212Y0250675D01*
X0397325Y0250522D01*
X0397435Y0250367D01*
X0397541Y0250209D01*
X0397644Y0250049D01*
X0397742Y0249886D01*
X0397837Y0249721D01*
X0397927Y0249553D01*
X0398013Y0249384D01*
X0398096Y0249212D01*
X0398174Y0249039D01*
X0398248Y0248863D01*
X0398317Y0248686D01*
X0398383Y0248507D01*
X0398444Y0248327D01*
X0398500Y0248146D01*
X0398552Y0247963D01*
X0398600Y0247778D01*
X0398643Y0247593D01*
X0398682Y0247407D01*
X0398717Y0247220D01*
X0398746Y0247032D01*
X0398772Y0246843D01*
X0398792Y0246654D01*
X0398808Y0246464D01*
X0398820Y0246274D01*
X0398827Y0246084D01*
X0398829Y0245894D01*
X0398829Y0009674D01*
X0398827Y0009484D01*
X0398820Y0009294D01*
X0398808Y0009104D01*
X0398792Y0008914D01*
X0398772Y0008725D01*
X0398746Y0008536D01*
X0398717Y0008348D01*
X0398682Y0008161D01*
X0398643Y0007975D01*
X0398600Y0007790D01*
X0398552Y0007605D01*
X0398500Y0007422D01*
X0398444Y0007241D01*
X0398383Y0007061D01*
X0398317Y0006882D01*
X0398248Y0006705D01*
X0398174Y0006529D01*
X0398096Y0006356D01*
X0398013Y0006184D01*
X0397927Y0006015D01*
X0397837Y0005847D01*
X0397742Y0005682D01*
X0397644Y0005519D01*
X0397541Y0005359D01*
X0397435Y0005201D01*
X0397325Y0005046D01*
X0397212Y0004893D01*
X0397094Y0004743D01*
X0396973Y0004597D01*
X0396849Y0004453D01*
X0396721Y0004312D01*
X0396590Y0004174D01*
X0396455Y0004039D01*
X0396317Y0003908D01*
X0396176Y0003780D01*
X0396032Y0003656D01*
X0395886Y0003535D01*
X0395736Y0003417D01*
X0395583Y0003304D01*
X0395428Y0003194D01*
X0395270Y0003088D01*
X0395110Y0002985D01*
X0394947Y0002887D01*
X0394782Y0002792D01*
X0394614Y0002702D01*
X0394445Y0002616D01*
X0394273Y0002533D01*
X0394100Y0002455D01*
X0393924Y0002381D01*
X0393747Y0002312D01*
X0393568Y0002246D01*
X0393388Y0002185D01*
X0393207Y0002129D01*
X0393024Y0002077D01*
X0392839Y0002029D01*
X0392654Y0001986D01*
X0392468Y0001947D01*
X0392281Y0001912D01*
X0392093Y0001883D01*
X0391904Y0001857D01*
X0391715Y0001837D01*
X0391525Y0001821D01*
X0391335Y0001809D01*
X0391145Y0001802D01*
X0390955Y0001800D01*
X0024813Y0001800D01*
X0024623Y0001802D01*
X0024433Y0001809D01*
X0024243Y0001821D01*
X0024053Y0001837D01*
X0023864Y0001857D01*
X0023675Y0001883D01*
X0023487Y0001912D01*
X0023300Y0001947D01*
X0023114Y0001986D01*
X0022929Y0002029D01*
X0022744Y0002077D01*
X0022561Y0002129D01*
X0022380Y0002185D01*
X0022200Y0002246D01*
X0022021Y0002312D01*
X0021844Y0002381D01*
X0021668Y0002455D01*
X0021495Y0002533D01*
X0021323Y0002616D01*
X0021154Y0002702D01*
X0020986Y0002792D01*
X0020821Y0002887D01*
X0020658Y0002985D01*
X0020498Y0003088D01*
X0020340Y0003194D01*
X0020185Y0003304D01*
X0020032Y0003417D01*
X0019882Y0003535D01*
X0019736Y0003656D01*
X0019592Y0003780D01*
X0019451Y0003908D01*
X0019313Y0004039D01*
X0019178Y0004174D01*
X0019047Y0004312D01*
X0018919Y0004453D01*
X0018795Y0004597D01*
X0018674Y0004743D01*
X0018556Y0004893D01*
X0018443Y0005046D01*
X0018333Y0005201D01*
X0018227Y0005359D01*
X0018124Y0005519D01*
X0018026Y0005682D01*
X0017931Y0005847D01*
X0017841Y0006015D01*
X0017755Y0006184D01*
X0017672Y0006356D01*
X0017594Y0006529D01*
X0017520Y0006705D01*
X0017451Y0006882D01*
X0017385Y0007061D01*
X0017324Y0007241D01*
X0017268Y0007422D01*
X0017216Y0007605D01*
X0017168Y0007790D01*
X0017125Y0007975D01*
X0017086Y0008161D01*
X0017051Y0008348D01*
X0017022Y0008536D01*
X0016996Y0008725D01*
X0016976Y0008914D01*
X0016960Y0009104D01*
X0016948Y0009294D01*
X0016941Y0009484D01*
X0016939Y0009674D01*
X0083868Y0054950D02*
X0083868Y0108099D01*
X0109459Y0108099D01*
X0109459Y0054950D01*
X0083868Y0054950D01*
X0100439Y0035493D02*
X0114439Y0035493D01*
D11*
X0114939Y0041993D02*
X0114939Y0024493D01*
X0113439Y0024493D01*
X0101439Y0024493D02*
X0099939Y0024493D01*
X0099939Y0041993D01*
X0101439Y0041993D01*
X0113439Y0041993D02*
X0114939Y0041993D01*
X0167939Y0032300D02*
X0167939Y0183800D01*
X0259439Y0183800D01*
X0259439Y0032300D01*
X0167939Y0032300D01*
X0057920Y0065967D02*
X0057252Y0065300D01*
X0055918Y0065300D01*
X0055251Y0065967D01*
X0055251Y0068636D01*
X0055918Y0069303D01*
X0057252Y0069303D01*
X0057920Y0068636D01*
X0053316Y0068636D02*
X0053316Y0065967D01*
X0052649Y0065300D01*
X0050647Y0065300D01*
X0050647Y0069303D01*
X0052649Y0069303D01*
X0053316Y0068636D01*
X0048712Y0069303D02*
X0048712Y0066634D01*
X0047377Y0065300D01*
X0046043Y0066634D01*
X0046043Y0069303D01*
X0044108Y0069303D02*
X0041439Y0069303D01*
X0041439Y0067302D01*
X0042773Y0067969D01*
X0043441Y0067969D01*
X0044108Y0067302D01*
X0044108Y0065967D01*
X0043441Y0065300D01*
X0042106Y0065300D01*
X0041439Y0065967D01*
X0034939Y0064800D02*
X0034939Y0068800D01*
X0034939Y0064800D02*
X0030439Y0064800D01*
X0024942Y0040800D02*
X0022941Y0040800D01*
X0023608Y0039466D01*
X0023608Y0038798D01*
X0022941Y0038131D01*
X0021606Y0038131D01*
X0020939Y0038798D01*
X0020939Y0040133D01*
X0021606Y0040800D01*
X0024942Y0040800D02*
X0024942Y0038131D01*
X0024942Y0036196D02*
X0022273Y0036196D01*
X0020939Y0034862D01*
X0022273Y0033527D01*
X0024942Y0033527D01*
X0024942Y0031592D02*
X0020939Y0031592D01*
X0020939Y0029590D01*
X0021606Y0028923D01*
X0024275Y0028923D01*
X0024942Y0029590D01*
X0024942Y0031592D01*
X0024275Y0026988D02*
X0021606Y0026988D01*
X0020939Y0026321D01*
X0020939Y0024987D01*
X0021606Y0024319D01*
X0024275Y0024319D02*
X0024942Y0024987D01*
X0024942Y0026321D01*
X0024275Y0026988D01*
X0034939Y0092300D02*
X0034939Y0096300D01*
X0030439Y0096300D01*
X0018939Y0104300D02*
X0056439Y0104300D01*
X0056439Y0135800D01*
X0018939Y0135800D01*
X0069695Y0125737D02*
X0070695Y0124237D01*
X0071695Y0125737D01*
X0070695Y0124237D02*
X0070695Y0129237D01*
X0070695Y0131024D02*
X0070695Y0133450D01*
X0067780Y0132237D02*
X0067782Y0132345D01*
X0067788Y0132452D01*
X0067798Y0132560D01*
X0067812Y0132666D01*
X0067830Y0132773D01*
X0067851Y0132878D01*
X0067877Y0132983D01*
X0067906Y0133086D01*
X0067940Y0133189D01*
X0067977Y0133290D01*
X0068018Y0133390D01*
X0068062Y0133488D01*
X0068110Y0133584D01*
X0068162Y0133679D01*
X0068217Y0133772D01*
X0068275Y0133862D01*
X0068337Y0133950D01*
X0068402Y0134036D01*
X0068470Y0134120D01*
X0068541Y0134201D01*
X0068615Y0134279D01*
X0068692Y0134355D01*
X0068771Y0134427D01*
X0068854Y0134497D01*
X0068938Y0134563D01*
X0069025Y0134627D01*
X0069115Y0134687D01*
X0069207Y0134743D01*
X0069300Y0134797D01*
X0069396Y0134846D01*
X0069493Y0134893D01*
X0069592Y0134935D01*
X0069692Y0134974D01*
X0069794Y0135009D01*
X0069897Y0135041D01*
X0070001Y0135068D01*
X0070107Y0135092D01*
X0070212Y0135112D01*
X0070319Y0135128D01*
X0070426Y0135140D01*
X0070533Y0135148D01*
X0070641Y0135152D01*
X0070749Y0135152D01*
X0070857Y0135148D01*
X0070964Y0135140D01*
X0071071Y0135128D01*
X0071178Y0135112D01*
X0071283Y0135092D01*
X0071389Y0135068D01*
X0071493Y0135041D01*
X0071596Y0135009D01*
X0071698Y0134974D01*
X0071798Y0134935D01*
X0071897Y0134893D01*
X0071994Y0134846D01*
X0072090Y0134797D01*
X0072183Y0134743D01*
X0072275Y0134687D01*
X0072365Y0134627D01*
X0072452Y0134563D01*
X0072536Y0134497D01*
X0072619Y0134427D01*
X0072698Y0134355D01*
X0072775Y0134279D01*
X0072849Y0134201D01*
X0072920Y0134120D01*
X0072988Y0134036D01*
X0073053Y0133950D01*
X0073115Y0133862D01*
X0073173Y0133772D01*
X0073228Y0133679D01*
X0073280Y0133584D01*
X0073328Y0133488D01*
X0073372Y0133390D01*
X0073413Y0133290D01*
X0073450Y0133189D01*
X0073484Y0133086D01*
X0073513Y0132983D01*
X0073539Y0132878D01*
X0073560Y0132773D01*
X0073578Y0132666D01*
X0073592Y0132560D01*
X0073602Y0132452D01*
X0073608Y0132345D01*
X0073610Y0132237D01*
X0073608Y0132129D01*
X0073602Y0132022D01*
X0073592Y0131914D01*
X0073578Y0131808D01*
X0073560Y0131701D01*
X0073539Y0131596D01*
X0073513Y0131491D01*
X0073484Y0131388D01*
X0073450Y0131285D01*
X0073413Y0131184D01*
X0073372Y0131084D01*
X0073328Y0130986D01*
X0073280Y0130890D01*
X0073228Y0130795D01*
X0073173Y0130702D01*
X0073115Y0130612D01*
X0073053Y0130524D01*
X0072988Y0130438D01*
X0072920Y0130354D01*
X0072849Y0130273D01*
X0072775Y0130195D01*
X0072698Y0130119D01*
X0072619Y0130047D01*
X0072536Y0129977D01*
X0072452Y0129911D01*
X0072365Y0129847D01*
X0072275Y0129787D01*
X0072183Y0129731D01*
X0072090Y0129677D01*
X0071994Y0129628D01*
X0071897Y0129581D01*
X0071798Y0129539D01*
X0071698Y0129500D01*
X0071596Y0129465D01*
X0071493Y0129433D01*
X0071389Y0129406D01*
X0071283Y0129382D01*
X0071178Y0129362D01*
X0071071Y0129346D01*
X0070964Y0129334D01*
X0070857Y0129326D01*
X0070749Y0129322D01*
X0070641Y0129322D01*
X0070533Y0129326D01*
X0070426Y0129334D01*
X0070319Y0129346D01*
X0070212Y0129362D01*
X0070107Y0129382D01*
X0070001Y0129406D01*
X0069897Y0129433D01*
X0069794Y0129465D01*
X0069692Y0129500D01*
X0069592Y0129539D01*
X0069493Y0129581D01*
X0069396Y0129628D01*
X0069300Y0129677D01*
X0069207Y0129731D01*
X0069115Y0129787D01*
X0069025Y0129847D01*
X0068938Y0129911D01*
X0068854Y0129977D01*
X0068771Y0130047D01*
X0068692Y0130119D01*
X0068615Y0130195D01*
X0068541Y0130273D01*
X0068470Y0130354D01*
X0068402Y0130438D01*
X0068337Y0130524D01*
X0068275Y0130612D01*
X0068217Y0130702D01*
X0068162Y0130795D01*
X0068110Y0130890D01*
X0068062Y0130986D01*
X0068018Y0131084D01*
X0067977Y0131184D01*
X0067940Y0131285D01*
X0067906Y0131388D01*
X0067877Y0131491D01*
X0067851Y0131596D01*
X0067830Y0131701D01*
X0067812Y0131808D01*
X0067798Y0131914D01*
X0067788Y0132022D01*
X0067782Y0132129D01*
X0067780Y0132237D01*
X0079258Y0127223D02*
X0079925Y0127891D01*
X0079258Y0127223D02*
X0079258Y0125889D01*
X0079925Y0125222D01*
X0081260Y0125222D01*
X0081927Y0125889D01*
X0081927Y0126556D01*
X0081260Y0127891D01*
X0083261Y0127891D01*
X0083261Y0125222D01*
X0083261Y0123287D02*
X0080592Y0123287D01*
X0079258Y0121952D01*
X0080592Y0120618D01*
X0083261Y0120618D01*
X0083261Y0118683D02*
X0079258Y0118683D01*
X0079258Y0116681D01*
X0079925Y0116014D01*
X0082594Y0116014D01*
X0083261Y0116681D01*
X0083261Y0118683D01*
X0082594Y0114079D02*
X0079925Y0114079D01*
X0079258Y0113412D01*
X0079258Y0112077D01*
X0079925Y0111410D01*
X0082594Y0111410D02*
X0083261Y0112077D01*
X0083261Y0113412D01*
X0082594Y0114079D01*
X0071695Y0113737D02*
X0070695Y0115237D01*
X0069695Y0113737D01*
X0070695Y0115237D02*
X0070695Y0111237D01*
X0070695Y0109843D02*
X0070695Y0106631D01*
X0067780Y0108237D02*
X0067782Y0108345D01*
X0067788Y0108452D01*
X0067798Y0108560D01*
X0067812Y0108666D01*
X0067830Y0108773D01*
X0067851Y0108878D01*
X0067877Y0108983D01*
X0067906Y0109086D01*
X0067940Y0109189D01*
X0067977Y0109290D01*
X0068018Y0109390D01*
X0068062Y0109488D01*
X0068110Y0109584D01*
X0068162Y0109679D01*
X0068217Y0109772D01*
X0068275Y0109862D01*
X0068337Y0109950D01*
X0068402Y0110036D01*
X0068470Y0110120D01*
X0068541Y0110201D01*
X0068615Y0110279D01*
X0068692Y0110355D01*
X0068771Y0110427D01*
X0068854Y0110497D01*
X0068938Y0110563D01*
X0069025Y0110627D01*
X0069115Y0110687D01*
X0069207Y0110743D01*
X0069300Y0110797D01*
X0069396Y0110846D01*
X0069493Y0110893D01*
X0069592Y0110935D01*
X0069692Y0110974D01*
X0069794Y0111009D01*
X0069897Y0111041D01*
X0070001Y0111068D01*
X0070107Y0111092D01*
X0070212Y0111112D01*
X0070319Y0111128D01*
X0070426Y0111140D01*
X0070533Y0111148D01*
X0070641Y0111152D01*
X0070749Y0111152D01*
X0070857Y0111148D01*
X0070964Y0111140D01*
X0071071Y0111128D01*
X0071178Y0111112D01*
X0071283Y0111092D01*
X0071389Y0111068D01*
X0071493Y0111041D01*
X0071596Y0111009D01*
X0071698Y0110974D01*
X0071798Y0110935D01*
X0071897Y0110893D01*
X0071994Y0110846D01*
X0072090Y0110797D01*
X0072183Y0110743D01*
X0072275Y0110687D01*
X0072365Y0110627D01*
X0072452Y0110563D01*
X0072536Y0110497D01*
X0072619Y0110427D01*
X0072698Y0110355D01*
X0072775Y0110279D01*
X0072849Y0110201D01*
X0072920Y0110120D01*
X0072988Y0110036D01*
X0073053Y0109950D01*
X0073115Y0109862D01*
X0073173Y0109772D01*
X0073228Y0109679D01*
X0073280Y0109584D01*
X0073328Y0109488D01*
X0073372Y0109390D01*
X0073413Y0109290D01*
X0073450Y0109189D01*
X0073484Y0109086D01*
X0073513Y0108983D01*
X0073539Y0108878D01*
X0073560Y0108773D01*
X0073578Y0108666D01*
X0073592Y0108560D01*
X0073602Y0108452D01*
X0073608Y0108345D01*
X0073610Y0108237D01*
X0073608Y0108129D01*
X0073602Y0108022D01*
X0073592Y0107914D01*
X0073578Y0107808D01*
X0073560Y0107701D01*
X0073539Y0107596D01*
X0073513Y0107491D01*
X0073484Y0107388D01*
X0073450Y0107285D01*
X0073413Y0107184D01*
X0073372Y0107084D01*
X0073328Y0106986D01*
X0073280Y0106890D01*
X0073228Y0106795D01*
X0073173Y0106702D01*
X0073115Y0106612D01*
X0073053Y0106524D01*
X0072988Y0106438D01*
X0072920Y0106354D01*
X0072849Y0106273D01*
X0072775Y0106195D01*
X0072698Y0106119D01*
X0072619Y0106047D01*
X0072536Y0105977D01*
X0072452Y0105911D01*
X0072365Y0105847D01*
X0072275Y0105787D01*
X0072183Y0105731D01*
X0072090Y0105677D01*
X0071994Y0105628D01*
X0071897Y0105581D01*
X0071798Y0105539D01*
X0071698Y0105500D01*
X0071596Y0105465D01*
X0071493Y0105433D01*
X0071389Y0105406D01*
X0071283Y0105382D01*
X0071178Y0105362D01*
X0071071Y0105346D01*
X0070964Y0105334D01*
X0070857Y0105326D01*
X0070749Y0105322D01*
X0070641Y0105322D01*
X0070533Y0105326D01*
X0070426Y0105334D01*
X0070319Y0105346D01*
X0070212Y0105362D01*
X0070107Y0105382D01*
X0070001Y0105406D01*
X0069897Y0105433D01*
X0069794Y0105465D01*
X0069692Y0105500D01*
X0069592Y0105539D01*
X0069493Y0105581D01*
X0069396Y0105628D01*
X0069300Y0105677D01*
X0069207Y0105731D01*
X0069115Y0105787D01*
X0069025Y0105847D01*
X0068938Y0105911D01*
X0068854Y0105977D01*
X0068771Y0106047D01*
X0068692Y0106119D01*
X0068615Y0106195D01*
X0068541Y0106273D01*
X0068470Y0106354D01*
X0068402Y0106438D01*
X0068337Y0106524D01*
X0068275Y0106612D01*
X0068217Y0106702D01*
X0068162Y0106795D01*
X0068110Y0106890D01*
X0068062Y0106986D01*
X0068018Y0107084D01*
X0067977Y0107184D01*
X0067940Y0107285D01*
X0067906Y0107388D01*
X0067877Y0107491D01*
X0067851Y0107596D01*
X0067830Y0107701D01*
X0067812Y0107808D01*
X0067798Y0107914D01*
X0067788Y0108022D01*
X0067782Y0108129D01*
X0067780Y0108237D01*
X0069089Y0108237D02*
X0072301Y0108237D01*
X0070695Y0117737D02*
X0071195Y0118237D01*
X0070695Y0118737D01*
X0070195Y0118237D01*
X0070695Y0117737D01*
X0070695Y0118737D01*
X0069988Y0118237D02*
X0069990Y0118290D01*
X0069996Y0118342D01*
X0070006Y0118394D01*
X0070019Y0118445D01*
X0070037Y0118495D01*
X0070058Y0118544D01*
X0070083Y0118591D01*
X0070111Y0118635D01*
X0070142Y0118678D01*
X0070177Y0118718D01*
X0070214Y0118755D01*
X0070254Y0118790D01*
X0070297Y0118821D01*
X0070342Y0118849D01*
X0070388Y0118874D01*
X0070437Y0118895D01*
X0070487Y0118913D01*
X0070538Y0118926D01*
X0070590Y0118936D01*
X0070642Y0118942D01*
X0070695Y0118944D01*
X0070748Y0118942D01*
X0070800Y0118936D01*
X0070852Y0118926D01*
X0070903Y0118913D01*
X0070953Y0118895D01*
X0071002Y0118874D01*
X0071049Y0118849D01*
X0071093Y0118821D01*
X0071136Y0118790D01*
X0071176Y0118755D01*
X0071213Y0118718D01*
X0071248Y0118678D01*
X0071279Y0118635D01*
X0071307Y0118590D01*
X0071332Y0118544D01*
X0071353Y0118495D01*
X0071371Y0118445D01*
X0071384Y0118394D01*
X0071394Y0118342D01*
X0071400Y0118290D01*
X0071402Y0118237D01*
X0071400Y0118184D01*
X0071394Y0118132D01*
X0071384Y0118080D01*
X0071371Y0118029D01*
X0071353Y0117979D01*
X0071332Y0117930D01*
X0071307Y0117883D01*
X0071279Y0117839D01*
X0071248Y0117796D01*
X0071213Y0117756D01*
X0071176Y0117719D01*
X0071136Y0117684D01*
X0071093Y0117653D01*
X0071048Y0117625D01*
X0071002Y0117600D01*
X0070953Y0117579D01*
X0070903Y0117561D01*
X0070852Y0117548D01*
X0070800Y0117538D01*
X0070748Y0117532D01*
X0070695Y0117530D01*
X0070642Y0117532D01*
X0070590Y0117538D01*
X0070538Y0117548D01*
X0070487Y0117561D01*
X0070437Y0117579D01*
X0070388Y0117600D01*
X0070341Y0117625D01*
X0070297Y0117653D01*
X0070254Y0117684D01*
X0070214Y0117719D01*
X0070177Y0117756D01*
X0070142Y0117796D01*
X0070111Y0117839D01*
X0070083Y0117884D01*
X0070058Y0117930D01*
X0070037Y0117979D01*
X0070019Y0118029D01*
X0070006Y0118080D01*
X0069996Y0118132D01*
X0069990Y0118184D01*
X0069988Y0118237D01*
X0068002Y0118237D02*
X0068004Y0118340D01*
X0068010Y0118443D01*
X0068020Y0118546D01*
X0068034Y0118648D01*
X0068051Y0118750D01*
X0068073Y0118851D01*
X0068098Y0118951D01*
X0068128Y0119050D01*
X0068161Y0119147D01*
X0068197Y0119244D01*
X0068238Y0119339D01*
X0068282Y0119432D01*
X0068329Y0119523D01*
X0068380Y0119613D01*
X0068435Y0119701D01*
X0068492Y0119786D01*
X0068553Y0119870D01*
X0068617Y0119950D01*
X0068685Y0120029D01*
X0068755Y0120104D01*
X0068828Y0120177D01*
X0068903Y0120247D01*
X0068982Y0120315D01*
X0069062Y0120379D01*
X0069146Y0120440D01*
X0069231Y0120497D01*
X0069319Y0120552D01*
X0069409Y0120603D01*
X0069500Y0120650D01*
X0069593Y0120694D01*
X0069688Y0120735D01*
X0069785Y0120771D01*
X0069882Y0120804D01*
X0069981Y0120834D01*
X0070081Y0120859D01*
X0070182Y0120881D01*
X0070284Y0120898D01*
X0070386Y0120912D01*
X0070489Y0120922D01*
X0070592Y0120928D01*
X0070695Y0120930D01*
X0070798Y0120928D01*
X0070901Y0120922D01*
X0071004Y0120912D01*
X0071106Y0120898D01*
X0071208Y0120881D01*
X0071309Y0120859D01*
X0071409Y0120834D01*
X0071508Y0120804D01*
X0071605Y0120771D01*
X0071702Y0120735D01*
X0071797Y0120694D01*
X0071890Y0120650D01*
X0071981Y0120603D01*
X0072071Y0120552D01*
X0072159Y0120497D01*
X0072244Y0120440D01*
X0072328Y0120379D01*
X0072408Y0120315D01*
X0072487Y0120247D01*
X0072562Y0120177D01*
X0072635Y0120104D01*
X0072705Y0120029D01*
X0072773Y0119950D01*
X0072837Y0119870D01*
X0072898Y0119786D01*
X0072955Y0119701D01*
X0073010Y0119613D01*
X0073061Y0119523D01*
X0073108Y0119432D01*
X0073152Y0119339D01*
X0073193Y0119244D01*
X0073229Y0119147D01*
X0073262Y0119050D01*
X0073292Y0118951D01*
X0073317Y0118851D01*
X0073339Y0118750D01*
X0073356Y0118648D01*
X0073370Y0118546D01*
X0073380Y0118443D01*
X0073386Y0118340D01*
X0073388Y0118237D01*
X0073386Y0118134D01*
X0073380Y0118031D01*
X0073370Y0117928D01*
X0073356Y0117826D01*
X0073339Y0117724D01*
X0073317Y0117623D01*
X0073292Y0117523D01*
X0073262Y0117424D01*
X0073229Y0117327D01*
X0073193Y0117230D01*
X0073152Y0117135D01*
X0073108Y0117042D01*
X0073061Y0116951D01*
X0073010Y0116861D01*
X0072955Y0116773D01*
X0072898Y0116688D01*
X0072837Y0116604D01*
X0072773Y0116524D01*
X0072705Y0116445D01*
X0072635Y0116370D01*
X0072562Y0116297D01*
X0072487Y0116227D01*
X0072408Y0116159D01*
X0072328Y0116095D01*
X0072244Y0116034D01*
X0072159Y0115977D01*
X0072071Y0115922D01*
X0071981Y0115871D01*
X0071890Y0115824D01*
X0071797Y0115780D01*
X0071702Y0115739D01*
X0071605Y0115703D01*
X0071508Y0115670D01*
X0071409Y0115640D01*
X0071309Y0115615D01*
X0071208Y0115593D01*
X0071106Y0115576D01*
X0071004Y0115562D01*
X0070901Y0115552D01*
X0070798Y0115546D01*
X0070695Y0115544D01*
X0070592Y0115546D01*
X0070489Y0115552D01*
X0070386Y0115562D01*
X0070284Y0115576D01*
X0070182Y0115593D01*
X0070081Y0115615D01*
X0069981Y0115640D01*
X0069882Y0115670D01*
X0069785Y0115703D01*
X0069688Y0115739D01*
X0069593Y0115780D01*
X0069500Y0115824D01*
X0069409Y0115871D01*
X0069319Y0115922D01*
X0069231Y0115977D01*
X0069146Y0116034D01*
X0069062Y0116095D01*
X0068982Y0116159D01*
X0068903Y0116227D01*
X0068828Y0116297D01*
X0068755Y0116370D01*
X0068685Y0116445D01*
X0068617Y0116524D01*
X0068553Y0116604D01*
X0068492Y0116688D01*
X0068435Y0116773D01*
X0068380Y0116861D01*
X0068329Y0116951D01*
X0068282Y0117042D01*
X0068238Y0117135D01*
X0068197Y0117230D01*
X0068161Y0117327D01*
X0068128Y0117424D01*
X0068098Y0117523D01*
X0068073Y0117623D01*
X0068051Y0117724D01*
X0068034Y0117826D01*
X0068020Y0117928D01*
X0068010Y0118031D01*
X0068004Y0118134D01*
X0068002Y0118237D01*
X0066695Y0114237D02*
X0066590Y0114344D01*
X0066489Y0114454D01*
X0066390Y0114567D01*
X0066294Y0114682D01*
X0066202Y0114800D01*
X0066113Y0114920D01*
X0066026Y0115042D01*
X0065943Y0115167D01*
X0065864Y0115294D01*
X0065788Y0115423D01*
X0065715Y0115554D01*
X0065646Y0115687D01*
X0065580Y0115821D01*
X0065518Y0115957D01*
X0065459Y0116095D01*
X0065404Y0116235D01*
X0065353Y0116375D01*
X0065306Y0116517D01*
X0065262Y0116661D01*
X0065222Y0116805D01*
X0065186Y0116950D01*
X0065154Y0117097D01*
X0065126Y0117244D01*
X0065102Y0117392D01*
X0065081Y0117540D01*
X0065065Y0117689D01*
X0065052Y0117838D01*
X0065044Y0117987D01*
X0065039Y0118137D01*
X0065038Y0118287D01*
X0065042Y0118437D01*
X0065049Y0118586D01*
X0065060Y0118736D01*
X0065075Y0118885D01*
X0065094Y0119033D01*
X0065117Y0119181D01*
X0065144Y0119328D01*
X0065175Y0119475D01*
X0065210Y0119621D01*
X0065248Y0119765D01*
X0065291Y0119909D01*
X0065337Y0120051D01*
X0065387Y0120193D01*
X0065440Y0120332D01*
X0065498Y0120471D01*
X0065559Y0120608D01*
X0065623Y0120743D01*
X0065691Y0120876D01*
X0065763Y0121008D01*
X0065838Y0121137D01*
X0065916Y0121265D01*
X0065998Y0121390D01*
X0066083Y0121513D01*
X0066172Y0121634D01*
X0066263Y0121753D01*
X0066358Y0121869D01*
X0066456Y0121983D01*
X0066556Y0122093D01*
X0066660Y0122202D01*
X0066766Y0122307D01*
X0066875Y0122410D01*
X0066987Y0122509D01*
X0067101Y0122606D01*
X0067218Y0122700D01*
X0067338Y0122790D01*
X0067459Y0122877D01*
X0067583Y0122961D01*
X0067709Y0123042D01*
X0067838Y0123119D01*
X0067968Y0123193D01*
X0068100Y0123264D01*
X0068234Y0123331D01*
X0068370Y0123394D01*
X0068507Y0123454D01*
X0068646Y0123510D01*
X0068786Y0123562D01*
X0068928Y0123611D01*
X0069071Y0123656D01*
X0069215Y0123697D01*
X0069360Y0123734D01*
X0069506Y0123768D01*
X0069653Y0123797D01*
X0069800Y0123823D01*
X0069948Y0123845D01*
X0070097Y0123862D01*
X0070246Y0123876D01*
X0070396Y0123886D01*
X0070545Y0123892D01*
X0070695Y0123894D01*
X0070845Y0123892D01*
X0070994Y0123886D01*
X0071144Y0123876D01*
X0071293Y0123862D01*
X0071442Y0123845D01*
X0071590Y0123823D01*
X0071737Y0123797D01*
X0071884Y0123768D01*
X0072030Y0123734D01*
X0072175Y0123697D01*
X0072319Y0123656D01*
X0072462Y0123611D01*
X0072604Y0123562D01*
X0072744Y0123510D01*
X0072883Y0123454D01*
X0073020Y0123394D01*
X0073156Y0123331D01*
X0073290Y0123264D01*
X0073422Y0123193D01*
X0073552Y0123119D01*
X0073681Y0123042D01*
X0073807Y0122961D01*
X0073931Y0122877D01*
X0074052Y0122790D01*
X0074172Y0122700D01*
X0074289Y0122606D01*
X0074403Y0122509D01*
X0074515Y0122410D01*
X0074624Y0122307D01*
X0074730Y0122202D01*
X0074834Y0122093D01*
X0074934Y0121983D01*
X0075032Y0121869D01*
X0075127Y0121753D01*
X0075218Y0121634D01*
X0075307Y0121513D01*
X0075392Y0121390D01*
X0075474Y0121265D01*
X0075552Y0121137D01*
X0075627Y0121008D01*
X0075699Y0120876D01*
X0075767Y0120743D01*
X0075831Y0120608D01*
X0075892Y0120471D01*
X0075950Y0120332D01*
X0076003Y0120193D01*
X0076053Y0120051D01*
X0076099Y0119909D01*
X0076142Y0119765D01*
X0076180Y0119621D01*
X0076215Y0119475D01*
X0076246Y0119328D01*
X0076273Y0119181D01*
X0076296Y0119033D01*
X0076315Y0118885D01*
X0076330Y0118736D01*
X0076341Y0118586D01*
X0076348Y0118437D01*
X0076352Y0118287D01*
X0076351Y0118137D01*
X0076346Y0117987D01*
X0076338Y0117838D01*
X0076325Y0117689D01*
X0076309Y0117540D01*
X0076288Y0117392D01*
X0076264Y0117244D01*
X0076236Y0117097D01*
X0076204Y0116950D01*
X0076168Y0116805D01*
X0076128Y0116661D01*
X0076084Y0116517D01*
X0076037Y0116375D01*
X0075986Y0116235D01*
X0075931Y0116095D01*
X0075872Y0115957D01*
X0075810Y0115821D01*
X0075744Y0115687D01*
X0075675Y0115554D01*
X0075602Y0115423D01*
X0075526Y0115294D01*
X0075447Y0115167D01*
X0075364Y0115042D01*
X0075277Y0114920D01*
X0075188Y0114800D01*
X0075096Y0114682D01*
X0075000Y0114567D01*
X0074901Y0114454D01*
X0074800Y0114344D01*
X0074695Y0114237D01*
X0074800Y0114344D01*
X0074901Y0114454D01*
X0075000Y0114567D01*
X0075096Y0114682D01*
X0075188Y0114800D01*
X0075277Y0114920D01*
X0075364Y0115042D01*
X0075447Y0115167D01*
X0075526Y0115294D01*
X0075602Y0115423D01*
X0075675Y0115554D01*
X0075744Y0115687D01*
X0075810Y0115821D01*
X0075872Y0115957D01*
X0075931Y0116095D01*
X0075986Y0116235D01*
X0076037Y0116375D01*
X0076084Y0116517D01*
X0076128Y0116661D01*
X0076168Y0116805D01*
X0076204Y0116950D01*
X0076236Y0117097D01*
X0076264Y0117244D01*
X0076288Y0117392D01*
X0076309Y0117540D01*
X0076325Y0117689D01*
X0076338Y0117838D01*
X0076346Y0117987D01*
X0076351Y0118137D01*
X0076352Y0118287D01*
X0076348Y0118437D01*
X0076341Y0118586D01*
X0076330Y0118736D01*
X0076315Y0118885D01*
X0076296Y0119033D01*
X0076273Y0119181D01*
X0076246Y0119328D01*
X0076215Y0119475D01*
X0076180Y0119621D01*
X0076142Y0119765D01*
X0076099Y0119909D01*
X0076053Y0120051D01*
X0076003Y0120193D01*
X0075950Y0120332D01*
X0075892Y0120471D01*
X0075831Y0120608D01*
X0075767Y0120743D01*
X0075699Y0120876D01*
X0075627Y0121008D01*
X0075552Y0121137D01*
X0075474Y0121265D01*
X0075392Y0121390D01*
X0075307Y0121513D01*
X0075218Y0121634D01*
X0075127Y0121753D01*
X0075032Y0121869D01*
X0074934Y0121983D01*
X0074834Y0122093D01*
X0074730Y0122202D01*
X0074624Y0122307D01*
X0074515Y0122410D01*
X0074403Y0122509D01*
X0074289Y0122606D01*
X0074172Y0122700D01*
X0074052Y0122790D01*
X0073931Y0122877D01*
X0073807Y0122961D01*
X0073681Y0123042D01*
X0073552Y0123119D01*
X0073422Y0123193D01*
X0073290Y0123264D01*
X0073156Y0123331D01*
X0073020Y0123394D01*
X0072883Y0123454D01*
X0072744Y0123510D01*
X0072604Y0123562D01*
X0072462Y0123611D01*
X0072319Y0123656D01*
X0072175Y0123697D01*
X0072030Y0123734D01*
X0071884Y0123768D01*
X0071737Y0123797D01*
X0071590Y0123823D01*
X0071442Y0123845D01*
X0071293Y0123862D01*
X0071144Y0123876D01*
X0070994Y0123886D01*
X0070845Y0123892D01*
X0070695Y0123894D01*
X0070545Y0123892D01*
X0070396Y0123886D01*
X0070246Y0123876D01*
X0070097Y0123862D01*
X0069948Y0123845D01*
X0069800Y0123823D01*
X0069653Y0123797D01*
X0069506Y0123768D01*
X0069360Y0123734D01*
X0069215Y0123697D01*
X0069071Y0123656D01*
X0068928Y0123611D01*
X0068786Y0123562D01*
X0068646Y0123510D01*
X0068507Y0123454D01*
X0068370Y0123394D01*
X0068234Y0123331D01*
X0068100Y0123264D01*
X0067968Y0123193D01*
X0067838Y0123119D01*
X0067709Y0123042D01*
X0067583Y0122961D01*
X0067459Y0122877D01*
X0067338Y0122790D01*
X0067218Y0122700D01*
X0067101Y0122606D01*
X0066987Y0122509D01*
X0066875Y0122410D01*
X0066766Y0122307D01*
X0066660Y0122202D01*
X0066556Y0122093D01*
X0066456Y0121983D01*
X0066358Y0121869D01*
X0066263Y0121753D01*
X0066172Y0121634D01*
X0066083Y0121513D01*
X0065998Y0121390D01*
X0065916Y0121265D01*
X0065838Y0121137D01*
X0065763Y0121008D01*
X0065691Y0120876D01*
X0065623Y0120743D01*
X0065559Y0120608D01*
X0065498Y0120471D01*
X0065440Y0120332D01*
X0065387Y0120193D01*
X0065337Y0120051D01*
X0065291Y0119909D01*
X0065248Y0119765D01*
X0065210Y0119621D01*
X0065175Y0119475D01*
X0065144Y0119328D01*
X0065117Y0119181D01*
X0065094Y0119033D01*
X0065075Y0118885D01*
X0065060Y0118736D01*
X0065049Y0118586D01*
X0065042Y0118437D01*
X0065038Y0118287D01*
X0065039Y0118137D01*
X0065044Y0117987D01*
X0065052Y0117838D01*
X0065065Y0117689D01*
X0065081Y0117540D01*
X0065102Y0117392D01*
X0065126Y0117244D01*
X0065154Y0117097D01*
X0065186Y0116950D01*
X0065222Y0116805D01*
X0065262Y0116661D01*
X0065306Y0116517D01*
X0065353Y0116375D01*
X0065404Y0116235D01*
X0065459Y0116095D01*
X0065518Y0115957D01*
X0065580Y0115821D01*
X0065646Y0115687D01*
X0065715Y0115554D01*
X0065788Y0115423D01*
X0065864Y0115294D01*
X0065943Y0115167D01*
X0066026Y0115042D01*
X0066113Y0114920D01*
X0066202Y0114800D01*
X0066294Y0114682D01*
X0066390Y0114567D01*
X0066489Y0114454D01*
X0066590Y0114344D01*
X0066695Y0114237D01*
X0106939Y0150300D02*
X0106939Y0166800D01*
X0122439Y0166800D01*
X0122439Y0150300D01*
X0106939Y0150300D01*
X0108939Y0152300D02*
X0108941Y0152344D01*
X0108947Y0152388D01*
X0108957Y0152431D01*
X0108970Y0152473D01*
X0108987Y0152514D01*
X0109008Y0152553D01*
X0109032Y0152590D01*
X0109059Y0152625D01*
X0109089Y0152657D01*
X0109122Y0152687D01*
X0109158Y0152713D01*
X0109195Y0152737D01*
X0109235Y0152756D01*
X0109276Y0152773D01*
X0109319Y0152785D01*
X0109362Y0152794D01*
X0109406Y0152799D01*
X0109450Y0152800D01*
X0109494Y0152797D01*
X0109538Y0152790D01*
X0109581Y0152779D01*
X0109623Y0152765D01*
X0109663Y0152747D01*
X0109702Y0152725D01*
X0109738Y0152701D01*
X0109772Y0152673D01*
X0109804Y0152642D01*
X0109833Y0152608D01*
X0109859Y0152572D01*
X0109881Y0152534D01*
X0109900Y0152494D01*
X0109915Y0152452D01*
X0109927Y0152410D01*
X0109935Y0152366D01*
X0109939Y0152322D01*
X0109939Y0152278D01*
X0109935Y0152234D01*
X0109927Y0152190D01*
X0109915Y0152148D01*
X0109900Y0152106D01*
X0109881Y0152066D01*
X0109859Y0152028D01*
X0109833Y0151992D01*
X0109804Y0151958D01*
X0109772Y0151927D01*
X0109738Y0151899D01*
X0109702Y0151875D01*
X0109663Y0151853D01*
X0109623Y0151835D01*
X0109581Y0151821D01*
X0109538Y0151810D01*
X0109494Y0151803D01*
X0109450Y0151800D01*
X0109406Y0151801D01*
X0109362Y0151806D01*
X0109319Y0151815D01*
X0109276Y0151827D01*
X0109235Y0151844D01*
X0109195Y0151863D01*
X0109158Y0151887D01*
X0109122Y0151913D01*
X0109089Y0151943D01*
X0109059Y0151975D01*
X0109032Y0152010D01*
X0109008Y0152047D01*
X0108987Y0152086D01*
X0108970Y0152127D01*
X0108957Y0152169D01*
X0108947Y0152212D01*
X0108941Y0152256D01*
X0108939Y0152300D01*
X0170089Y0185265D02*
X0181900Y0185265D01*
X0181900Y0189202D02*
X0170089Y0189202D01*
X0168120Y0187233D02*
X0168122Y0187147D01*
X0168127Y0187061D01*
X0168137Y0186976D01*
X0168150Y0186891D01*
X0168167Y0186807D01*
X0168187Y0186723D01*
X0168211Y0186641D01*
X0168239Y0186560D01*
X0168270Y0186479D01*
X0168304Y0186401D01*
X0168342Y0186324D01*
X0168384Y0186249D01*
X0168428Y0186175D01*
X0168476Y0186104D01*
X0168527Y0186034D01*
X0168581Y0185967D01*
X0168637Y0185903D01*
X0168697Y0185841D01*
X0168759Y0185781D01*
X0168823Y0185725D01*
X0168890Y0185671D01*
X0168960Y0185620D01*
X0169031Y0185572D01*
X0169105Y0185528D01*
X0169180Y0185486D01*
X0169257Y0185448D01*
X0169335Y0185414D01*
X0169416Y0185383D01*
X0169497Y0185355D01*
X0169579Y0185331D01*
X0169663Y0185311D01*
X0169747Y0185294D01*
X0169832Y0185281D01*
X0169917Y0185271D01*
X0170003Y0185266D01*
X0170089Y0185264D01*
X0168120Y0187233D02*
X0168122Y0187319D01*
X0168127Y0187405D01*
X0168137Y0187490D01*
X0168150Y0187575D01*
X0168167Y0187659D01*
X0168187Y0187743D01*
X0168211Y0187825D01*
X0168239Y0187906D01*
X0168270Y0187987D01*
X0168304Y0188065D01*
X0168342Y0188142D01*
X0168384Y0188218D01*
X0168428Y0188291D01*
X0168476Y0188362D01*
X0168527Y0188432D01*
X0168581Y0188499D01*
X0168637Y0188563D01*
X0168697Y0188625D01*
X0168759Y0188685D01*
X0168823Y0188741D01*
X0168890Y0188795D01*
X0168960Y0188846D01*
X0169031Y0188894D01*
X0169105Y0188938D01*
X0169180Y0188980D01*
X0169257Y0189018D01*
X0169335Y0189052D01*
X0169416Y0189083D01*
X0169497Y0189111D01*
X0169579Y0189135D01*
X0169663Y0189155D01*
X0169747Y0189172D01*
X0169832Y0189185D01*
X0169917Y0189195D01*
X0170003Y0189200D01*
X0170089Y0189202D01*
X0181900Y0204950D02*
X0182138Y0204947D01*
X0182376Y0204939D01*
X0182613Y0204924D01*
X0182850Y0204904D01*
X0183086Y0204878D01*
X0183322Y0204847D01*
X0183557Y0204810D01*
X0183791Y0204767D01*
X0184024Y0204718D01*
X0184256Y0204664D01*
X0184486Y0204604D01*
X0184715Y0204539D01*
X0184942Y0204468D01*
X0185167Y0204392D01*
X0185390Y0204310D01*
X0185612Y0204223D01*
X0185831Y0204131D01*
X0186048Y0204033D01*
X0186262Y0203931D01*
X0186474Y0203823D01*
X0186684Y0203709D01*
X0186890Y0203591D01*
X0187094Y0203468D01*
X0187294Y0203340D01*
X0187491Y0203208D01*
X0187686Y0203070D01*
X0187876Y0202928D01*
X0188064Y0202781D01*
X0188247Y0202630D01*
X0188427Y0202475D01*
X0188603Y0202315D01*
X0188775Y0202151D01*
X0188944Y0201982D01*
X0189108Y0201810D01*
X0189268Y0201634D01*
X0189423Y0201454D01*
X0189574Y0201271D01*
X0189721Y0201083D01*
X0189863Y0200893D01*
X0190001Y0200698D01*
X0190133Y0200501D01*
X0190261Y0200301D01*
X0190384Y0200097D01*
X0190502Y0199891D01*
X0190616Y0199681D01*
X0190724Y0199469D01*
X0190826Y0199255D01*
X0190924Y0199038D01*
X0191016Y0198819D01*
X0191103Y0198597D01*
X0191185Y0198374D01*
X0191261Y0198149D01*
X0191332Y0197922D01*
X0191397Y0197693D01*
X0191457Y0197463D01*
X0191511Y0197231D01*
X0191560Y0196998D01*
X0191603Y0196764D01*
X0191640Y0196529D01*
X0191671Y0196293D01*
X0191697Y0196057D01*
X0191717Y0195820D01*
X0191732Y0195583D01*
X0191740Y0195345D01*
X0191743Y0195107D01*
X0191740Y0194869D01*
X0191732Y0194631D01*
X0191717Y0194394D01*
X0191697Y0194157D01*
X0191671Y0193921D01*
X0191640Y0193685D01*
X0191603Y0193450D01*
X0191560Y0193216D01*
X0191511Y0192983D01*
X0191457Y0192751D01*
X0191397Y0192521D01*
X0191332Y0192292D01*
X0191261Y0192065D01*
X0191185Y0191840D01*
X0191103Y0191617D01*
X0191016Y0191395D01*
X0190924Y0191176D01*
X0190826Y0190959D01*
X0190724Y0190745D01*
X0190616Y0190533D01*
X0190502Y0190323D01*
X0190384Y0190117D01*
X0190261Y0189913D01*
X0190133Y0189713D01*
X0190001Y0189516D01*
X0189863Y0189321D01*
X0189721Y0189131D01*
X0189574Y0188943D01*
X0189423Y0188760D01*
X0189268Y0188580D01*
X0189108Y0188404D01*
X0188944Y0188232D01*
X0188775Y0188063D01*
X0188603Y0187899D01*
X0188427Y0187739D01*
X0188247Y0187584D01*
X0188064Y0187433D01*
X0187876Y0187286D01*
X0187686Y0187144D01*
X0187491Y0187006D01*
X0187294Y0186874D01*
X0187094Y0186746D01*
X0186890Y0186623D01*
X0186684Y0186505D01*
X0186474Y0186391D01*
X0186262Y0186283D01*
X0186048Y0186181D01*
X0185831Y0186083D01*
X0185612Y0185991D01*
X0185390Y0185904D01*
X0185167Y0185822D01*
X0184942Y0185746D01*
X0184715Y0185675D01*
X0184486Y0185610D01*
X0184256Y0185550D01*
X0184024Y0185496D01*
X0183791Y0185447D01*
X0183557Y0185404D01*
X0183322Y0185367D01*
X0183086Y0185336D01*
X0182850Y0185310D01*
X0182613Y0185290D01*
X0182376Y0185275D01*
X0182138Y0185267D01*
X0181900Y0185264D01*
X0181900Y0189201D02*
X0182052Y0189203D01*
X0182204Y0189209D01*
X0182356Y0189219D01*
X0182507Y0189232D01*
X0182658Y0189250D01*
X0182809Y0189271D01*
X0182959Y0189297D01*
X0183108Y0189326D01*
X0183257Y0189359D01*
X0183404Y0189396D01*
X0183551Y0189436D01*
X0183696Y0189481D01*
X0183840Y0189529D01*
X0183983Y0189581D01*
X0184125Y0189636D01*
X0184265Y0189695D01*
X0184404Y0189758D01*
X0184541Y0189824D01*
X0184676Y0189894D01*
X0184809Y0189967D01*
X0184940Y0190044D01*
X0185070Y0190124D01*
X0185197Y0190207D01*
X0185322Y0190293D01*
X0185445Y0190383D01*
X0185565Y0190476D01*
X0185683Y0190572D01*
X0185799Y0190671D01*
X0185912Y0190773D01*
X0186022Y0190877D01*
X0186130Y0190985D01*
X0186234Y0191095D01*
X0186336Y0191208D01*
X0186435Y0191324D01*
X0186531Y0191442D01*
X0186624Y0191562D01*
X0186714Y0191685D01*
X0186800Y0191810D01*
X0186883Y0191937D01*
X0186963Y0192067D01*
X0187040Y0192198D01*
X0187113Y0192331D01*
X0187183Y0192466D01*
X0187249Y0192603D01*
X0187312Y0192742D01*
X0187371Y0192882D01*
X0187426Y0193024D01*
X0187478Y0193167D01*
X0187526Y0193311D01*
X0187571Y0193456D01*
X0187611Y0193603D01*
X0187648Y0193750D01*
X0187681Y0193899D01*
X0187710Y0194048D01*
X0187736Y0194198D01*
X0187757Y0194349D01*
X0187775Y0194500D01*
X0187788Y0194651D01*
X0187798Y0194803D01*
X0187804Y0194955D01*
X0187806Y0195107D01*
X0187804Y0195259D01*
X0187798Y0195411D01*
X0187788Y0195563D01*
X0187775Y0195714D01*
X0187757Y0195865D01*
X0187736Y0196016D01*
X0187710Y0196166D01*
X0187681Y0196315D01*
X0187648Y0196464D01*
X0187611Y0196611D01*
X0187571Y0196758D01*
X0187526Y0196903D01*
X0187478Y0197047D01*
X0187426Y0197190D01*
X0187371Y0197332D01*
X0187312Y0197472D01*
X0187249Y0197611D01*
X0187183Y0197748D01*
X0187113Y0197883D01*
X0187040Y0198016D01*
X0186963Y0198147D01*
X0186883Y0198277D01*
X0186800Y0198404D01*
X0186714Y0198529D01*
X0186624Y0198652D01*
X0186531Y0198772D01*
X0186435Y0198890D01*
X0186336Y0199006D01*
X0186234Y0199119D01*
X0186130Y0199229D01*
X0186022Y0199337D01*
X0185912Y0199441D01*
X0185799Y0199543D01*
X0185683Y0199642D01*
X0185565Y0199738D01*
X0185445Y0199831D01*
X0185322Y0199921D01*
X0185197Y0200007D01*
X0185070Y0200090D01*
X0184940Y0200170D01*
X0184809Y0200247D01*
X0184676Y0200320D01*
X0184541Y0200390D01*
X0184404Y0200456D01*
X0184265Y0200519D01*
X0184125Y0200578D01*
X0183983Y0200633D01*
X0183840Y0200685D01*
X0183696Y0200733D01*
X0183551Y0200778D01*
X0183404Y0200818D01*
X0183257Y0200855D01*
X0183108Y0200888D01*
X0182959Y0200917D01*
X0182809Y0200943D01*
X0182658Y0200964D01*
X0182507Y0200982D01*
X0182356Y0200995D01*
X0182204Y0201005D01*
X0182052Y0201011D01*
X0181900Y0201013D01*
X0170089Y0201013D01*
X0168120Y0202981D02*
X0168122Y0203067D01*
X0168127Y0203153D01*
X0168137Y0203238D01*
X0168150Y0203323D01*
X0168167Y0203407D01*
X0168187Y0203491D01*
X0168211Y0203573D01*
X0168239Y0203654D01*
X0168270Y0203735D01*
X0168304Y0203813D01*
X0168342Y0203890D01*
X0168384Y0203966D01*
X0168428Y0204039D01*
X0168476Y0204110D01*
X0168527Y0204180D01*
X0168581Y0204247D01*
X0168637Y0204311D01*
X0168697Y0204373D01*
X0168759Y0204433D01*
X0168823Y0204489D01*
X0168890Y0204543D01*
X0168960Y0204594D01*
X0169031Y0204642D01*
X0169105Y0204686D01*
X0169180Y0204728D01*
X0169257Y0204766D01*
X0169335Y0204800D01*
X0169416Y0204831D01*
X0169497Y0204859D01*
X0169579Y0204883D01*
X0169663Y0204903D01*
X0169747Y0204920D01*
X0169832Y0204933D01*
X0169917Y0204943D01*
X0170003Y0204948D01*
X0170089Y0204950D01*
X0181900Y0204950D01*
X0170089Y0201012D02*
X0170003Y0201014D01*
X0169917Y0201019D01*
X0169832Y0201029D01*
X0169747Y0201042D01*
X0169663Y0201059D01*
X0169579Y0201079D01*
X0169497Y0201103D01*
X0169416Y0201131D01*
X0169335Y0201162D01*
X0169257Y0201196D01*
X0169180Y0201234D01*
X0169105Y0201276D01*
X0169031Y0201320D01*
X0168960Y0201368D01*
X0168890Y0201419D01*
X0168823Y0201473D01*
X0168759Y0201529D01*
X0168697Y0201589D01*
X0168637Y0201651D01*
X0168581Y0201715D01*
X0168527Y0201782D01*
X0168476Y0201852D01*
X0168428Y0201923D01*
X0168384Y0201997D01*
X0168342Y0202072D01*
X0168304Y0202149D01*
X0168270Y0202227D01*
X0168239Y0202308D01*
X0168211Y0202389D01*
X0168187Y0202471D01*
X0168167Y0202555D01*
X0168150Y0202639D01*
X0168137Y0202724D01*
X0168127Y0202809D01*
X0168122Y0202895D01*
X0168120Y0202981D01*
X0160640Y0208493D02*
X0140955Y0208493D01*
X0138986Y0210461D02*
X0138988Y0210547D01*
X0138993Y0210633D01*
X0139003Y0210718D01*
X0139016Y0210803D01*
X0139033Y0210887D01*
X0139053Y0210971D01*
X0139077Y0211053D01*
X0139105Y0211134D01*
X0139136Y0211215D01*
X0139170Y0211293D01*
X0139208Y0211370D01*
X0139250Y0211446D01*
X0139294Y0211519D01*
X0139342Y0211590D01*
X0139393Y0211660D01*
X0139447Y0211727D01*
X0139503Y0211791D01*
X0139563Y0211853D01*
X0139625Y0211913D01*
X0139689Y0211969D01*
X0139756Y0212023D01*
X0139826Y0212074D01*
X0139897Y0212122D01*
X0139971Y0212166D01*
X0140046Y0212208D01*
X0140123Y0212246D01*
X0140201Y0212280D01*
X0140282Y0212311D01*
X0140363Y0212339D01*
X0140445Y0212363D01*
X0140529Y0212383D01*
X0140613Y0212400D01*
X0140698Y0212413D01*
X0140783Y0212423D01*
X0140869Y0212428D01*
X0140955Y0212430D01*
X0160640Y0212430D01*
X0160726Y0212428D01*
X0160812Y0212423D01*
X0160897Y0212413D01*
X0160982Y0212400D01*
X0161066Y0212383D01*
X0161150Y0212363D01*
X0161232Y0212339D01*
X0161313Y0212311D01*
X0161394Y0212280D01*
X0161472Y0212246D01*
X0161549Y0212208D01*
X0161625Y0212166D01*
X0161698Y0212122D01*
X0161769Y0212074D01*
X0161839Y0212023D01*
X0161906Y0211969D01*
X0161970Y0211913D01*
X0162032Y0211853D01*
X0162092Y0211791D01*
X0162148Y0211727D01*
X0162202Y0211660D01*
X0162253Y0211590D01*
X0162301Y0211519D01*
X0162345Y0211446D01*
X0162387Y0211370D01*
X0162425Y0211293D01*
X0162459Y0211215D01*
X0162490Y0211134D01*
X0162518Y0211053D01*
X0162542Y0210971D01*
X0162562Y0210887D01*
X0162579Y0210803D01*
X0162592Y0210718D01*
X0162602Y0210633D01*
X0162607Y0210547D01*
X0162609Y0210461D01*
X0162607Y0210375D01*
X0162602Y0210289D01*
X0162592Y0210204D01*
X0162579Y0210119D01*
X0162562Y0210035D01*
X0162542Y0209951D01*
X0162518Y0209869D01*
X0162490Y0209788D01*
X0162459Y0209707D01*
X0162425Y0209629D01*
X0162387Y0209552D01*
X0162345Y0209477D01*
X0162301Y0209403D01*
X0162253Y0209332D01*
X0162202Y0209262D01*
X0162148Y0209195D01*
X0162092Y0209131D01*
X0162032Y0209069D01*
X0161970Y0209009D01*
X0161906Y0208953D01*
X0161839Y0208899D01*
X0161769Y0208848D01*
X0161698Y0208800D01*
X0161625Y0208756D01*
X0161549Y0208714D01*
X0161472Y0208676D01*
X0161394Y0208642D01*
X0161313Y0208611D01*
X0161232Y0208583D01*
X0161150Y0208559D01*
X0161066Y0208539D01*
X0160982Y0208522D01*
X0160897Y0208509D01*
X0160812Y0208499D01*
X0160726Y0208494D01*
X0160640Y0208492D01*
X0140955Y0208492D02*
X0140869Y0208494D01*
X0140783Y0208499D01*
X0140698Y0208509D01*
X0140613Y0208522D01*
X0140529Y0208539D01*
X0140445Y0208559D01*
X0140363Y0208583D01*
X0140282Y0208611D01*
X0140201Y0208642D01*
X0140123Y0208676D01*
X0140046Y0208714D01*
X0139971Y0208756D01*
X0139897Y0208800D01*
X0139826Y0208848D01*
X0139756Y0208899D01*
X0139689Y0208953D01*
X0139625Y0209009D01*
X0139563Y0209069D01*
X0139503Y0209131D01*
X0139447Y0209195D01*
X0139393Y0209262D01*
X0139342Y0209332D01*
X0139294Y0209403D01*
X0139250Y0209477D01*
X0139208Y0209552D01*
X0139170Y0209629D01*
X0139136Y0209707D01*
X0139105Y0209788D01*
X0139077Y0209869D01*
X0139053Y0209951D01*
X0139033Y0210035D01*
X0139016Y0210119D01*
X0139003Y0210204D01*
X0138993Y0210289D01*
X0138988Y0210375D01*
X0138986Y0210461D01*
X0140955Y0224241D02*
X0160640Y0224241D01*
X0162609Y0226209D02*
X0162607Y0226295D01*
X0162602Y0226381D01*
X0162592Y0226466D01*
X0162579Y0226551D01*
X0162562Y0226635D01*
X0162542Y0226719D01*
X0162518Y0226801D01*
X0162490Y0226882D01*
X0162459Y0226963D01*
X0162425Y0227041D01*
X0162387Y0227118D01*
X0162345Y0227194D01*
X0162301Y0227267D01*
X0162253Y0227338D01*
X0162202Y0227408D01*
X0162148Y0227475D01*
X0162092Y0227539D01*
X0162032Y0227601D01*
X0161970Y0227661D01*
X0161906Y0227717D01*
X0161839Y0227771D01*
X0161769Y0227822D01*
X0161698Y0227870D01*
X0161625Y0227914D01*
X0161549Y0227956D01*
X0161472Y0227994D01*
X0161394Y0228028D01*
X0161313Y0228059D01*
X0161232Y0228087D01*
X0161150Y0228111D01*
X0161066Y0228131D01*
X0160982Y0228148D01*
X0160897Y0228161D01*
X0160812Y0228171D01*
X0160726Y0228176D01*
X0160640Y0228178D01*
X0140955Y0228178D01*
X0140869Y0228176D01*
X0140783Y0228171D01*
X0140698Y0228161D01*
X0140613Y0228148D01*
X0140529Y0228131D01*
X0140445Y0228111D01*
X0140363Y0228087D01*
X0140282Y0228059D01*
X0140201Y0228028D01*
X0140123Y0227994D01*
X0140046Y0227956D01*
X0139971Y0227914D01*
X0139897Y0227870D01*
X0139826Y0227822D01*
X0139756Y0227771D01*
X0139689Y0227717D01*
X0139625Y0227661D01*
X0139563Y0227601D01*
X0139503Y0227539D01*
X0139447Y0227475D01*
X0139393Y0227408D01*
X0139342Y0227338D01*
X0139294Y0227267D01*
X0139250Y0227194D01*
X0139208Y0227118D01*
X0139170Y0227041D01*
X0139136Y0226963D01*
X0139105Y0226882D01*
X0139077Y0226801D01*
X0139053Y0226719D01*
X0139033Y0226635D01*
X0139016Y0226551D01*
X0139003Y0226466D01*
X0138993Y0226381D01*
X0138988Y0226295D01*
X0138986Y0226209D01*
X0138988Y0226123D01*
X0138993Y0226037D01*
X0139003Y0225952D01*
X0139016Y0225867D01*
X0139033Y0225783D01*
X0139053Y0225699D01*
X0139077Y0225617D01*
X0139105Y0225536D01*
X0139136Y0225455D01*
X0139170Y0225377D01*
X0139208Y0225300D01*
X0139250Y0225225D01*
X0139294Y0225151D01*
X0139342Y0225080D01*
X0139393Y0225010D01*
X0139447Y0224943D01*
X0139503Y0224879D01*
X0139563Y0224817D01*
X0139625Y0224757D01*
X0139689Y0224701D01*
X0139756Y0224647D01*
X0139826Y0224596D01*
X0139897Y0224548D01*
X0139971Y0224504D01*
X0140046Y0224462D01*
X0140123Y0224424D01*
X0140201Y0224390D01*
X0140282Y0224359D01*
X0140363Y0224331D01*
X0140445Y0224307D01*
X0140529Y0224287D01*
X0140613Y0224270D01*
X0140698Y0224257D01*
X0140783Y0224247D01*
X0140869Y0224242D01*
X0140955Y0224240D01*
X0160640Y0224240D02*
X0160726Y0224242D01*
X0160812Y0224247D01*
X0160897Y0224257D01*
X0160982Y0224270D01*
X0161066Y0224287D01*
X0161150Y0224307D01*
X0161232Y0224331D01*
X0161313Y0224359D01*
X0161394Y0224390D01*
X0161472Y0224424D01*
X0161549Y0224462D01*
X0161625Y0224504D01*
X0161698Y0224548D01*
X0161769Y0224596D01*
X0161839Y0224647D01*
X0161906Y0224701D01*
X0161970Y0224757D01*
X0162032Y0224817D01*
X0162092Y0224879D01*
X0162148Y0224943D01*
X0162202Y0225010D01*
X0162253Y0225080D01*
X0162301Y0225151D01*
X0162345Y0225225D01*
X0162387Y0225300D01*
X0162425Y0225377D01*
X0162459Y0225455D01*
X0162490Y0225536D01*
X0162518Y0225617D01*
X0162542Y0225699D01*
X0162562Y0225783D01*
X0162579Y0225867D01*
X0162592Y0225952D01*
X0162602Y0226037D01*
X0162607Y0226123D01*
X0162609Y0226209D01*
X0172451Y0232902D02*
X0188199Y0232902D01*
X0190168Y0234871D02*
X0190166Y0234957D01*
X0190161Y0235043D01*
X0190151Y0235128D01*
X0190138Y0235213D01*
X0190121Y0235297D01*
X0190101Y0235381D01*
X0190077Y0235463D01*
X0190049Y0235544D01*
X0190018Y0235625D01*
X0189984Y0235703D01*
X0189946Y0235780D01*
X0189904Y0235856D01*
X0189860Y0235929D01*
X0189812Y0236000D01*
X0189761Y0236070D01*
X0189707Y0236137D01*
X0189651Y0236201D01*
X0189591Y0236263D01*
X0189529Y0236323D01*
X0189465Y0236379D01*
X0189398Y0236433D01*
X0189328Y0236484D01*
X0189257Y0236532D01*
X0189184Y0236576D01*
X0189108Y0236618D01*
X0189031Y0236656D01*
X0188953Y0236690D01*
X0188872Y0236721D01*
X0188791Y0236749D01*
X0188709Y0236773D01*
X0188625Y0236793D01*
X0188541Y0236810D01*
X0188456Y0236823D01*
X0188371Y0236833D01*
X0188285Y0236838D01*
X0188199Y0236840D01*
X0188199Y0236839D02*
X0172451Y0236839D01*
X0172451Y0236840D02*
X0172365Y0236838D01*
X0172279Y0236833D01*
X0172194Y0236823D01*
X0172109Y0236810D01*
X0172025Y0236793D01*
X0171941Y0236773D01*
X0171859Y0236749D01*
X0171778Y0236721D01*
X0171697Y0236690D01*
X0171619Y0236656D01*
X0171542Y0236618D01*
X0171467Y0236576D01*
X0171393Y0236532D01*
X0171322Y0236484D01*
X0171252Y0236433D01*
X0171185Y0236379D01*
X0171121Y0236323D01*
X0171059Y0236263D01*
X0170999Y0236201D01*
X0170943Y0236137D01*
X0170889Y0236070D01*
X0170838Y0236000D01*
X0170790Y0235929D01*
X0170746Y0235856D01*
X0170704Y0235780D01*
X0170666Y0235703D01*
X0170632Y0235625D01*
X0170601Y0235544D01*
X0170573Y0235463D01*
X0170549Y0235381D01*
X0170529Y0235297D01*
X0170512Y0235213D01*
X0170499Y0235128D01*
X0170489Y0235043D01*
X0170484Y0234957D01*
X0170482Y0234871D01*
X0170484Y0234785D01*
X0170489Y0234699D01*
X0170499Y0234614D01*
X0170512Y0234529D01*
X0170529Y0234445D01*
X0170549Y0234361D01*
X0170573Y0234279D01*
X0170601Y0234198D01*
X0170632Y0234117D01*
X0170666Y0234039D01*
X0170704Y0233962D01*
X0170746Y0233887D01*
X0170790Y0233813D01*
X0170838Y0233742D01*
X0170889Y0233672D01*
X0170943Y0233605D01*
X0170999Y0233541D01*
X0171059Y0233479D01*
X0171121Y0233419D01*
X0171185Y0233363D01*
X0171252Y0233309D01*
X0171322Y0233258D01*
X0171393Y0233210D01*
X0171467Y0233166D01*
X0171542Y0233124D01*
X0171619Y0233086D01*
X0171697Y0233052D01*
X0171778Y0233021D01*
X0171859Y0232993D01*
X0171941Y0232969D01*
X0172025Y0232949D01*
X0172109Y0232932D01*
X0172194Y0232919D01*
X0172279Y0232909D01*
X0172365Y0232904D01*
X0172451Y0232902D01*
X0188199Y0232902D02*
X0188285Y0232904D01*
X0188371Y0232909D01*
X0188456Y0232919D01*
X0188541Y0232932D01*
X0188625Y0232949D01*
X0188709Y0232969D01*
X0188791Y0232993D01*
X0188872Y0233021D01*
X0188953Y0233052D01*
X0189031Y0233086D01*
X0189108Y0233124D01*
X0189184Y0233166D01*
X0189257Y0233210D01*
X0189328Y0233258D01*
X0189398Y0233309D01*
X0189465Y0233363D01*
X0189529Y0233419D01*
X0189591Y0233479D01*
X0189651Y0233541D01*
X0189707Y0233605D01*
X0189761Y0233672D01*
X0189812Y0233742D01*
X0189860Y0233813D01*
X0189904Y0233887D01*
X0189946Y0233962D01*
X0189984Y0234039D01*
X0190018Y0234117D01*
X0190049Y0234198D01*
X0190077Y0234279D01*
X0190101Y0234361D01*
X0190121Y0234445D01*
X0190138Y0234529D01*
X0190151Y0234614D01*
X0190161Y0234699D01*
X0190166Y0234785D01*
X0190168Y0234871D01*
X0217333Y0228572D02*
X0237018Y0228572D01*
X0237018Y0224635D02*
X0217333Y0224635D01*
X0215364Y0226603D02*
X0215366Y0226689D01*
X0215371Y0226775D01*
X0215381Y0226860D01*
X0215394Y0226945D01*
X0215411Y0227029D01*
X0215431Y0227113D01*
X0215455Y0227195D01*
X0215483Y0227276D01*
X0215514Y0227357D01*
X0215548Y0227435D01*
X0215586Y0227512D01*
X0215628Y0227588D01*
X0215672Y0227661D01*
X0215720Y0227732D01*
X0215771Y0227802D01*
X0215825Y0227869D01*
X0215881Y0227933D01*
X0215941Y0227995D01*
X0216003Y0228055D01*
X0216067Y0228111D01*
X0216134Y0228165D01*
X0216204Y0228216D01*
X0216275Y0228264D01*
X0216349Y0228308D01*
X0216424Y0228350D01*
X0216501Y0228388D01*
X0216579Y0228422D01*
X0216660Y0228453D01*
X0216741Y0228481D01*
X0216823Y0228505D01*
X0216907Y0228525D01*
X0216991Y0228542D01*
X0217076Y0228555D01*
X0217161Y0228565D01*
X0217247Y0228570D01*
X0217333Y0228572D01*
X0215364Y0226603D02*
X0215366Y0226517D01*
X0215371Y0226431D01*
X0215381Y0226346D01*
X0215394Y0226261D01*
X0215411Y0226177D01*
X0215431Y0226093D01*
X0215455Y0226011D01*
X0215483Y0225930D01*
X0215514Y0225849D01*
X0215548Y0225771D01*
X0215586Y0225694D01*
X0215628Y0225619D01*
X0215672Y0225545D01*
X0215720Y0225474D01*
X0215771Y0225404D01*
X0215825Y0225337D01*
X0215881Y0225273D01*
X0215941Y0225211D01*
X0216003Y0225151D01*
X0216067Y0225095D01*
X0216134Y0225041D01*
X0216204Y0224990D01*
X0216275Y0224942D01*
X0216349Y0224898D01*
X0216424Y0224856D01*
X0216501Y0224818D01*
X0216579Y0224784D01*
X0216660Y0224753D01*
X0216741Y0224725D01*
X0216823Y0224701D01*
X0216907Y0224681D01*
X0216991Y0224664D01*
X0217076Y0224651D01*
X0217161Y0224641D01*
X0217247Y0224636D01*
X0217333Y0224634D01*
X0217333Y0212824D02*
X0237018Y0212824D01*
X0237018Y0208887D02*
X0217333Y0208887D01*
X0217333Y0208886D02*
X0217247Y0208888D01*
X0217161Y0208893D01*
X0217076Y0208903D01*
X0216991Y0208916D01*
X0216907Y0208933D01*
X0216823Y0208953D01*
X0216741Y0208977D01*
X0216660Y0209005D01*
X0216579Y0209036D01*
X0216501Y0209070D01*
X0216424Y0209108D01*
X0216349Y0209150D01*
X0216275Y0209194D01*
X0216204Y0209242D01*
X0216134Y0209293D01*
X0216067Y0209347D01*
X0216003Y0209403D01*
X0215941Y0209463D01*
X0215881Y0209525D01*
X0215825Y0209589D01*
X0215771Y0209656D01*
X0215720Y0209726D01*
X0215672Y0209797D01*
X0215628Y0209871D01*
X0215586Y0209946D01*
X0215548Y0210023D01*
X0215514Y0210101D01*
X0215483Y0210182D01*
X0215455Y0210263D01*
X0215431Y0210345D01*
X0215411Y0210429D01*
X0215394Y0210513D01*
X0215381Y0210598D01*
X0215371Y0210683D01*
X0215366Y0210769D01*
X0215364Y0210855D01*
X0215366Y0210941D01*
X0215371Y0211027D01*
X0215381Y0211112D01*
X0215394Y0211197D01*
X0215411Y0211281D01*
X0215431Y0211365D01*
X0215455Y0211447D01*
X0215483Y0211528D01*
X0215514Y0211609D01*
X0215548Y0211687D01*
X0215586Y0211764D01*
X0215628Y0211840D01*
X0215672Y0211913D01*
X0215720Y0211984D01*
X0215771Y0212054D01*
X0215825Y0212121D01*
X0215881Y0212185D01*
X0215941Y0212247D01*
X0216003Y0212307D01*
X0216067Y0212363D01*
X0216134Y0212417D01*
X0216204Y0212468D01*
X0216275Y0212516D01*
X0216349Y0212560D01*
X0216424Y0212602D01*
X0216501Y0212640D01*
X0216579Y0212674D01*
X0216660Y0212705D01*
X0216741Y0212733D01*
X0216823Y0212757D01*
X0216907Y0212777D01*
X0216991Y0212794D01*
X0217076Y0212807D01*
X0217161Y0212817D01*
X0217247Y0212822D01*
X0217333Y0212824D01*
X0237018Y0228572D02*
X0237256Y0228569D01*
X0237494Y0228561D01*
X0237731Y0228546D01*
X0237968Y0228526D01*
X0238204Y0228500D01*
X0238440Y0228469D01*
X0238675Y0228432D01*
X0238909Y0228389D01*
X0239142Y0228340D01*
X0239374Y0228286D01*
X0239604Y0228226D01*
X0239833Y0228161D01*
X0240060Y0228090D01*
X0240285Y0228014D01*
X0240508Y0227932D01*
X0240730Y0227845D01*
X0240949Y0227753D01*
X0241166Y0227655D01*
X0241380Y0227553D01*
X0241592Y0227445D01*
X0241802Y0227331D01*
X0242008Y0227213D01*
X0242212Y0227090D01*
X0242412Y0226962D01*
X0242609Y0226830D01*
X0242804Y0226692D01*
X0242994Y0226550D01*
X0243182Y0226403D01*
X0243365Y0226252D01*
X0243545Y0226097D01*
X0243721Y0225937D01*
X0243893Y0225773D01*
X0244062Y0225604D01*
X0244226Y0225432D01*
X0244386Y0225256D01*
X0244541Y0225076D01*
X0244692Y0224893D01*
X0244839Y0224705D01*
X0244981Y0224515D01*
X0245119Y0224320D01*
X0245251Y0224123D01*
X0245379Y0223923D01*
X0245502Y0223719D01*
X0245620Y0223513D01*
X0245734Y0223303D01*
X0245842Y0223091D01*
X0245944Y0222877D01*
X0246042Y0222660D01*
X0246134Y0222441D01*
X0246221Y0222219D01*
X0246303Y0221996D01*
X0246379Y0221771D01*
X0246450Y0221544D01*
X0246515Y0221315D01*
X0246575Y0221085D01*
X0246629Y0220853D01*
X0246678Y0220620D01*
X0246721Y0220386D01*
X0246758Y0220151D01*
X0246789Y0219915D01*
X0246815Y0219679D01*
X0246835Y0219442D01*
X0246850Y0219205D01*
X0246858Y0218967D01*
X0246861Y0218729D01*
X0246858Y0218491D01*
X0246850Y0218253D01*
X0246835Y0218016D01*
X0246815Y0217779D01*
X0246789Y0217543D01*
X0246758Y0217307D01*
X0246721Y0217072D01*
X0246678Y0216838D01*
X0246629Y0216605D01*
X0246575Y0216373D01*
X0246515Y0216143D01*
X0246450Y0215914D01*
X0246379Y0215687D01*
X0246303Y0215462D01*
X0246221Y0215239D01*
X0246134Y0215017D01*
X0246042Y0214798D01*
X0245944Y0214581D01*
X0245842Y0214367D01*
X0245734Y0214155D01*
X0245620Y0213945D01*
X0245502Y0213739D01*
X0245379Y0213535D01*
X0245251Y0213335D01*
X0245119Y0213138D01*
X0244981Y0212943D01*
X0244839Y0212753D01*
X0244692Y0212565D01*
X0244541Y0212382D01*
X0244386Y0212202D01*
X0244226Y0212026D01*
X0244062Y0211854D01*
X0243893Y0211685D01*
X0243721Y0211521D01*
X0243545Y0211361D01*
X0243365Y0211206D01*
X0243182Y0211055D01*
X0242994Y0210908D01*
X0242804Y0210766D01*
X0242609Y0210628D01*
X0242412Y0210496D01*
X0242212Y0210368D01*
X0242008Y0210245D01*
X0241802Y0210127D01*
X0241592Y0210013D01*
X0241380Y0209905D01*
X0241166Y0209803D01*
X0240949Y0209705D01*
X0240730Y0209613D01*
X0240508Y0209526D01*
X0240285Y0209444D01*
X0240060Y0209368D01*
X0239833Y0209297D01*
X0239604Y0209232D01*
X0239374Y0209172D01*
X0239142Y0209118D01*
X0238909Y0209069D01*
X0238675Y0209026D01*
X0238440Y0208989D01*
X0238204Y0208958D01*
X0237968Y0208932D01*
X0237731Y0208912D01*
X0237494Y0208897D01*
X0237256Y0208889D01*
X0237018Y0208886D01*
X0237018Y0212823D02*
X0237170Y0212825D01*
X0237322Y0212831D01*
X0237474Y0212841D01*
X0237625Y0212854D01*
X0237776Y0212872D01*
X0237927Y0212893D01*
X0238077Y0212919D01*
X0238226Y0212948D01*
X0238375Y0212981D01*
X0238522Y0213018D01*
X0238669Y0213058D01*
X0238814Y0213103D01*
X0238958Y0213151D01*
X0239101Y0213203D01*
X0239243Y0213258D01*
X0239383Y0213317D01*
X0239522Y0213380D01*
X0239659Y0213446D01*
X0239794Y0213516D01*
X0239927Y0213589D01*
X0240058Y0213666D01*
X0240188Y0213746D01*
X0240315Y0213829D01*
X0240440Y0213915D01*
X0240563Y0214005D01*
X0240683Y0214098D01*
X0240801Y0214194D01*
X0240917Y0214293D01*
X0241030Y0214395D01*
X0241140Y0214499D01*
X0241248Y0214607D01*
X0241352Y0214717D01*
X0241454Y0214830D01*
X0241553Y0214946D01*
X0241649Y0215064D01*
X0241742Y0215184D01*
X0241832Y0215307D01*
X0241918Y0215432D01*
X0242001Y0215559D01*
X0242081Y0215689D01*
X0242158Y0215820D01*
X0242231Y0215953D01*
X0242301Y0216088D01*
X0242367Y0216225D01*
X0242430Y0216364D01*
X0242489Y0216504D01*
X0242544Y0216646D01*
X0242596Y0216789D01*
X0242644Y0216933D01*
X0242689Y0217078D01*
X0242729Y0217225D01*
X0242766Y0217372D01*
X0242799Y0217521D01*
X0242828Y0217670D01*
X0242854Y0217820D01*
X0242875Y0217971D01*
X0242893Y0218122D01*
X0242906Y0218273D01*
X0242916Y0218425D01*
X0242922Y0218577D01*
X0242924Y0218729D01*
X0242922Y0218881D01*
X0242916Y0219033D01*
X0242906Y0219185D01*
X0242893Y0219336D01*
X0242875Y0219487D01*
X0242854Y0219638D01*
X0242828Y0219788D01*
X0242799Y0219937D01*
X0242766Y0220086D01*
X0242729Y0220233D01*
X0242689Y0220380D01*
X0242644Y0220525D01*
X0242596Y0220669D01*
X0242544Y0220812D01*
X0242489Y0220954D01*
X0242430Y0221094D01*
X0242367Y0221233D01*
X0242301Y0221370D01*
X0242231Y0221505D01*
X0242158Y0221638D01*
X0242081Y0221769D01*
X0242001Y0221899D01*
X0241918Y0222026D01*
X0241832Y0222151D01*
X0241742Y0222274D01*
X0241649Y0222394D01*
X0241553Y0222512D01*
X0241454Y0222628D01*
X0241352Y0222741D01*
X0241248Y0222851D01*
X0241140Y0222959D01*
X0241030Y0223063D01*
X0240917Y0223165D01*
X0240801Y0223264D01*
X0240683Y0223360D01*
X0240563Y0223453D01*
X0240440Y0223543D01*
X0240315Y0223629D01*
X0240188Y0223712D01*
X0240058Y0223792D01*
X0239927Y0223869D01*
X0239794Y0223942D01*
X0239659Y0224012D01*
X0239522Y0224078D01*
X0239383Y0224141D01*
X0239243Y0224200D01*
X0239101Y0224255D01*
X0238958Y0224307D01*
X0238814Y0224355D01*
X0238669Y0224400D01*
X0238522Y0224440D01*
X0238375Y0224477D01*
X0238226Y0224510D01*
X0238077Y0224539D01*
X0237927Y0224565D01*
X0237776Y0224586D01*
X0237625Y0224604D01*
X0237474Y0224617D01*
X0237322Y0224627D01*
X0237170Y0224633D01*
X0237018Y0224635D01*
X0251439Y0239800D02*
X0251439Y0243800D01*
X0262439Y0243800D01*
X0262439Y0239800D01*
X0251439Y0239800D01*
X0268898Y0218300D02*
X0268906Y0218976D01*
X0268931Y0219651D01*
X0268973Y0220326D01*
X0269031Y0220999D01*
X0269105Y0221671D01*
X0269196Y0222341D01*
X0269303Y0223008D01*
X0269427Y0223673D01*
X0269567Y0224334D01*
X0269723Y0224992D01*
X0269896Y0225646D01*
X0270084Y0226295D01*
X0270288Y0226939D01*
X0270508Y0227578D01*
X0270743Y0228212D01*
X0270994Y0228839D01*
X0271261Y0229461D01*
X0271542Y0230075D01*
X0271839Y0230683D01*
X0272150Y0231283D01*
X0272476Y0231875D01*
X0272816Y0232459D01*
X0273171Y0233034D01*
X0273539Y0233601D01*
X0273922Y0234158D01*
X0274318Y0234706D01*
X0274727Y0235244D01*
X0275150Y0235772D01*
X0275585Y0236289D01*
X0276032Y0236795D01*
X0276493Y0237291D01*
X0276965Y0237774D01*
X0277448Y0238246D01*
X0277944Y0238707D01*
X0278450Y0239154D01*
X0278967Y0239589D01*
X0279495Y0240012D01*
X0280033Y0240421D01*
X0280581Y0240817D01*
X0281138Y0241200D01*
X0281705Y0241568D01*
X0282280Y0241923D01*
X0282864Y0242263D01*
X0283456Y0242589D01*
X0284056Y0242900D01*
X0284664Y0243197D01*
X0285278Y0243478D01*
X0285900Y0243745D01*
X0286527Y0243996D01*
X0287161Y0244231D01*
X0287800Y0244451D01*
X0288444Y0244655D01*
X0289093Y0244843D01*
X0289747Y0245016D01*
X0290405Y0245172D01*
X0291066Y0245312D01*
X0291731Y0245436D01*
X0292398Y0245543D01*
X0293068Y0245634D01*
X0293740Y0245708D01*
X0294413Y0245766D01*
X0295088Y0245808D01*
X0295763Y0245833D01*
X0296439Y0245841D01*
X0297115Y0245833D01*
X0297790Y0245808D01*
X0298465Y0245766D01*
X0299138Y0245708D01*
X0299810Y0245634D01*
X0300480Y0245543D01*
X0301147Y0245436D01*
X0301812Y0245312D01*
X0302473Y0245172D01*
X0303131Y0245016D01*
X0303785Y0244843D01*
X0304434Y0244655D01*
X0305078Y0244451D01*
X0305717Y0244231D01*
X0306351Y0243996D01*
X0306978Y0243745D01*
X0307600Y0243478D01*
X0308214Y0243197D01*
X0308822Y0242900D01*
X0309422Y0242589D01*
X0310014Y0242263D01*
X0310598Y0241923D01*
X0311173Y0241568D01*
X0311740Y0241200D01*
X0312297Y0240817D01*
X0312845Y0240421D01*
X0313383Y0240012D01*
X0313911Y0239589D01*
X0314428Y0239154D01*
X0314934Y0238707D01*
X0315430Y0238246D01*
X0315913Y0237774D01*
X0316385Y0237291D01*
X0316846Y0236795D01*
X0317293Y0236289D01*
X0317728Y0235772D01*
X0318151Y0235244D01*
X0318560Y0234706D01*
X0318956Y0234158D01*
X0319339Y0233601D01*
X0319707Y0233034D01*
X0320062Y0232459D01*
X0320402Y0231875D01*
X0320728Y0231283D01*
X0321039Y0230683D01*
X0321336Y0230075D01*
X0321617Y0229461D01*
X0321884Y0228839D01*
X0322135Y0228212D01*
X0322370Y0227578D01*
X0322590Y0226939D01*
X0322794Y0226295D01*
X0322982Y0225646D01*
X0323155Y0224992D01*
X0323311Y0224334D01*
X0323451Y0223673D01*
X0323575Y0223008D01*
X0323682Y0222341D01*
X0323773Y0221671D01*
X0323847Y0220999D01*
X0323905Y0220326D01*
X0323947Y0219651D01*
X0323972Y0218976D01*
X0323980Y0218300D01*
X0323972Y0217624D01*
X0323947Y0216949D01*
X0323905Y0216274D01*
X0323847Y0215601D01*
X0323773Y0214929D01*
X0323682Y0214259D01*
X0323575Y0213592D01*
X0323451Y0212927D01*
X0323311Y0212266D01*
X0323155Y0211608D01*
X0322982Y0210954D01*
X0322794Y0210305D01*
X0322590Y0209661D01*
X0322370Y0209022D01*
X0322135Y0208388D01*
X0321884Y0207761D01*
X0321617Y0207139D01*
X0321336Y0206525D01*
X0321039Y0205917D01*
X0320728Y0205317D01*
X0320402Y0204725D01*
X0320062Y0204141D01*
X0319707Y0203566D01*
X0319339Y0202999D01*
X0318956Y0202442D01*
X0318560Y0201894D01*
X0318151Y0201356D01*
X0317728Y0200828D01*
X0317293Y0200311D01*
X0316846Y0199805D01*
X0316385Y0199309D01*
X0315913Y0198826D01*
X0315430Y0198354D01*
X0314934Y0197893D01*
X0314428Y0197446D01*
X0313911Y0197011D01*
X0313383Y0196588D01*
X0312845Y0196179D01*
X0312297Y0195783D01*
X0311740Y0195400D01*
X0311173Y0195032D01*
X0310598Y0194677D01*
X0310014Y0194337D01*
X0309422Y0194011D01*
X0308822Y0193700D01*
X0308214Y0193403D01*
X0307600Y0193122D01*
X0306978Y0192855D01*
X0306351Y0192604D01*
X0305717Y0192369D01*
X0305078Y0192149D01*
X0304434Y0191945D01*
X0303785Y0191757D01*
X0303131Y0191584D01*
X0302473Y0191428D01*
X0301812Y0191288D01*
X0301147Y0191164D01*
X0300480Y0191057D01*
X0299810Y0190966D01*
X0299138Y0190892D01*
X0298465Y0190834D01*
X0297790Y0190792D01*
X0297115Y0190767D01*
X0296439Y0190759D01*
X0295763Y0190767D01*
X0295088Y0190792D01*
X0294413Y0190834D01*
X0293740Y0190892D01*
X0293068Y0190966D01*
X0292398Y0191057D01*
X0291731Y0191164D01*
X0291066Y0191288D01*
X0290405Y0191428D01*
X0289747Y0191584D01*
X0289093Y0191757D01*
X0288444Y0191945D01*
X0287800Y0192149D01*
X0287161Y0192369D01*
X0286527Y0192604D01*
X0285900Y0192855D01*
X0285278Y0193122D01*
X0284664Y0193403D01*
X0284056Y0193700D01*
X0283456Y0194011D01*
X0282864Y0194337D01*
X0282280Y0194677D01*
X0281705Y0195032D01*
X0281138Y0195400D01*
X0280581Y0195783D01*
X0280033Y0196179D01*
X0279495Y0196588D01*
X0278967Y0197011D01*
X0278450Y0197446D01*
X0277944Y0197893D01*
X0277448Y0198354D01*
X0276965Y0198826D01*
X0276493Y0199309D01*
X0276032Y0199805D01*
X0275585Y0200311D01*
X0275150Y0200828D01*
X0274727Y0201356D01*
X0274318Y0201894D01*
X0273922Y0202442D01*
X0273539Y0202999D01*
X0273171Y0203566D01*
X0272816Y0204141D01*
X0272476Y0204725D01*
X0272150Y0205317D01*
X0271839Y0205917D01*
X0271542Y0206525D01*
X0271261Y0207139D01*
X0270994Y0207761D01*
X0270743Y0208388D01*
X0270508Y0209022D01*
X0270288Y0209661D01*
X0270084Y0210305D01*
X0269896Y0210954D01*
X0269723Y0211608D01*
X0269567Y0212266D01*
X0269427Y0212927D01*
X0269303Y0213592D01*
X0269196Y0214259D01*
X0269105Y0214929D01*
X0269031Y0215601D01*
X0268973Y0216274D01*
X0268931Y0216949D01*
X0268906Y0217624D01*
X0268898Y0218300D01*
X0259939Y0199800D02*
X0259939Y0195300D01*
X0255439Y0197800D01*
X0259939Y0199800D01*
X0255439Y0200300D02*
X0255439Y0197800D01*
X0255439Y0195300D01*
X0291539Y0173800D02*
X0291539Y0162500D01*
X0297739Y0162500D01*
X0297739Y0173800D01*
X0291539Y0173800D01*
X0350439Y0161300D02*
X0396939Y0161300D01*
X0350439Y0161300D02*
X0350439Y0220300D01*
X0397439Y0220300D01*
X0348998Y0240170D02*
X0337998Y0240170D01*
X0337998Y0244170D01*
X0348998Y0244170D01*
X0348998Y0240170D01*
X0291829Y0218300D02*
X0291831Y0218435D01*
X0291837Y0218571D01*
X0291847Y0218706D01*
X0291861Y0218840D01*
X0291879Y0218974D01*
X0291900Y0219108D01*
X0291926Y0219241D01*
X0291956Y0219373D01*
X0291989Y0219504D01*
X0292026Y0219634D01*
X0292067Y0219763D01*
X0292112Y0219891D01*
X0292161Y0220017D01*
X0292213Y0220142D01*
X0292269Y0220265D01*
X0292328Y0220387D01*
X0292391Y0220507D01*
X0292458Y0220625D01*
X0292528Y0220740D01*
X0292601Y0220854D01*
X0292678Y0220966D01*
X0292758Y0221075D01*
X0292841Y0221182D01*
X0292927Y0221286D01*
X0293016Y0221388D01*
X0293108Y0221487D01*
X0293203Y0221584D01*
X0293301Y0221677D01*
X0293402Y0221768D01*
X0293505Y0221856D01*
X0293610Y0221940D01*
X0293718Y0222022D01*
X0293829Y0222100D01*
X0293941Y0222175D01*
X0294056Y0222246D01*
X0294173Y0222315D01*
X0294292Y0222380D01*
X0294413Y0222441D01*
X0294535Y0222499D01*
X0294659Y0222553D01*
X0294785Y0222603D01*
X0294912Y0222650D01*
X0295040Y0222693D01*
X0295170Y0222732D01*
X0295300Y0222767D01*
X0295432Y0222799D01*
X0295565Y0222826D01*
X0295698Y0222850D01*
X0295832Y0222870D01*
X0295966Y0222886D01*
X0296101Y0222898D01*
X0296236Y0222906D01*
X0296371Y0222910D01*
X0296507Y0222910D01*
X0296642Y0222906D01*
X0296777Y0222898D01*
X0296912Y0222886D01*
X0297046Y0222870D01*
X0297180Y0222850D01*
X0297313Y0222826D01*
X0297446Y0222799D01*
X0297578Y0222767D01*
X0297708Y0222732D01*
X0297838Y0222693D01*
X0297966Y0222650D01*
X0298093Y0222603D01*
X0298219Y0222553D01*
X0298343Y0222499D01*
X0298465Y0222441D01*
X0298586Y0222380D01*
X0298705Y0222315D01*
X0298822Y0222246D01*
X0298937Y0222175D01*
X0299049Y0222100D01*
X0299160Y0222022D01*
X0299268Y0221940D01*
X0299373Y0221856D01*
X0299476Y0221768D01*
X0299577Y0221677D01*
X0299675Y0221584D01*
X0299770Y0221487D01*
X0299862Y0221388D01*
X0299951Y0221286D01*
X0300037Y0221182D01*
X0300120Y0221075D01*
X0300200Y0220966D01*
X0300277Y0220854D01*
X0300350Y0220740D01*
X0300420Y0220625D01*
X0300487Y0220507D01*
X0300550Y0220387D01*
X0300609Y0220265D01*
X0300665Y0220142D01*
X0300717Y0220017D01*
X0300766Y0219891D01*
X0300811Y0219763D01*
X0300852Y0219634D01*
X0300889Y0219504D01*
X0300922Y0219373D01*
X0300952Y0219241D01*
X0300978Y0219108D01*
X0300999Y0218974D01*
X0301017Y0218840D01*
X0301031Y0218706D01*
X0301041Y0218571D01*
X0301047Y0218435D01*
X0301049Y0218300D01*
X0301047Y0218165D01*
X0301041Y0218029D01*
X0301031Y0217894D01*
X0301017Y0217760D01*
X0300999Y0217626D01*
X0300978Y0217492D01*
X0300952Y0217359D01*
X0300922Y0217227D01*
X0300889Y0217096D01*
X0300852Y0216966D01*
X0300811Y0216837D01*
X0300766Y0216709D01*
X0300717Y0216583D01*
X0300665Y0216458D01*
X0300609Y0216335D01*
X0300550Y0216213D01*
X0300487Y0216093D01*
X0300420Y0215975D01*
X0300350Y0215860D01*
X0300277Y0215746D01*
X0300200Y0215634D01*
X0300120Y0215525D01*
X0300037Y0215418D01*
X0299951Y0215314D01*
X0299862Y0215212D01*
X0299770Y0215113D01*
X0299675Y0215016D01*
X0299577Y0214923D01*
X0299476Y0214832D01*
X0299373Y0214744D01*
X0299268Y0214660D01*
X0299160Y0214578D01*
X0299049Y0214500D01*
X0298937Y0214425D01*
X0298822Y0214354D01*
X0298705Y0214285D01*
X0298586Y0214220D01*
X0298465Y0214159D01*
X0298343Y0214101D01*
X0298219Y0214047D01*
X0298093Y0213997D01*
X0297966Y0213950D01*
X0297838Y0213907D01*
X0297708Y0213868D01*
X0297578Y0213833D01*
X0297446Y0213801D01*
X0297313Y0213774D01*
X0297180Y0213750D01*
X0297046Y0213730D01*
X0296912Y0213714D01*
X0296777Y0213702D01*
X0296642Y0213694D01*
X0296507Y0213690D01*
X0296371Y0213690D01*
X0296236Y0213694D01*
X0296101Y0213702D01*
X0295966Y0213714D01*
X0295832Y0213730D01*
X0295698Y0213750D01*
X0295565Y0213774D01*
X0295432Y0213801D01*
X0295300Y0213833D01*
X0295170Y0213868D01*
X0295040Y0213907D01*
X0294912Y0213950D01*
X0294785Y0213997D01*
X0294659Y0214047D01*
X0294535Y0214101D01*
X0294413Y0214159D01*
X0294292Y0214220D01*
X0294173Y0214285D01*
X0294056Y0214354D01*
X0293941Y0214425D01*
X0293829Y0214500D01*
X0293718Y0214578D01*
X0293610Y0214660D01*
X0293505Y0214744D01*
X0293402Y0214832D01*
X0293301Y0214923D01*
X0293203Y0215016D01*
X0293108Y0215113D01*
X0293016Y0215212D01*
X0292927Y0215314D01*
X0292841Y0215418D01*
X0292758Y0215525D01*
X0292678Y0215634D01*
X0292601Y0215746D01*
X0292528Y0215860D01*
X0292458Y0215975D01*
X0292391Y0216093D01*
X0292328Y0216213D01*
X0292269Y0216335D01*
X0292213Y0216458D01*
X0292161Y0216583D01*
X0292112Y0216709D01*
X0292067Y0216837D01*
X0292026Y0216966D01*
X0291989Y0217096D01*
X0291956Y0217227D01*
X0291926Y0217359D01*
X0291900Y0217492D01*
X0291879Y0217626D01*
X0291861Y0217760D01*
X0291847Y0217894D01*
X0291837Y0218029D01*
X0291831Y0218165D01*
X0291829Y0218300D01*
X0299939Y0113800D02*
X0299939Y0019300D01*
X0363439Y0019300D01*
X0363439Y0113800D01*
X0299939Y0113800D01*
X0385837Y0101690D02*
X0385837Y0087517D01*
X0387215Y0087517D01*
X0394695Y0087517D02*
X0396073Y0087517D01*
X0396073Y0101690D01*
X0394695Y0101690D01*
X0387215Y0101690D02*
X0385837Y0101690D01*
X0388192Y0094603D02*
X0388194Y0094708D01*
X0388200Y0094812D01*
X0388210Y0094916D01*
X0388224Y0095020D01*
X0388241Y0095123D01*
X0388263Y0095225D01*
X0388288Y0095327D01*
X0388318Y0095427D01*
X0388351Y0095526D01*
X0388388Y0095624D01*
X0388428Y0095720D01*
X0388472Y0095815D01*
X0388520Y0095908D01*
X0388571Y0096000D01*
X0388625Y0096089D01*
X0388683Y0096176D01*
X0388745Y0096261D01*
X0388809Y0096343D01*
X0388876Y0096423D01*
X0388947Y0096500D01*
X0389020Y0096575D01*
X0389096Y0096647D01*
X0389175Y0096716D01*
X0389256Y0096782D01*
X0389339Y0096844D01*
X0389425Y0096904D01*
X0389514Y0096960D01*
X0389604Y0097013D01*
X0389696Y0097062D01*
X0389790Y0097108D01*
X0389886Y0097151D01*
X0389983Y0097189D01*
X0390081Y0097224D01*
X0390181Y0097255D01*
X0390282Y0097283D01*
X0390384Y0097306D01*
X0390487Y0097326D01*
X0390590Y0097342D01*
X0390694Y0097354D01*
X0390798Y0097362D01*
X0390903Y0097366D01*
X0391007Y0097366D01*
X0391112Y0097362D01*
X0391216Y0097354D01*
X0391320Y0097342D01*
X0391423Y0097326D01*
X0391526Y0097306D01*
X0391628Y0097283D01*
X0391729Y0097255D01*
X0391829Y0097224D01*
X0391927Y0097189D01*
X0392024Y0097151D01*
X0392120Y0097108D01*
X0392214Y0097062D01*
X0392306Y0097013D01*
X0392396Y0096960D01*
X0392485Y0096904D01*
X0392571Y0096844D01*
X0392654Y0096782D01*
X0392735Y0096716D01*
X0392814Y0096647D01*
X0392890Y0096575D01*
X0392963Y0096500D01*
X0393034Y0096423D01*
X0393101Y0096343D01*
X0393165Y0096261D01*
X0393227Y0096176D01*
X0393285Y0096089D01*
X0393339Y0096000D01*
X0393390Y0095908D01*
X0393438Y0095815D01*
X0393482Y0095720D01*
X0393522Y0095624D01*
X0393559Y0095526D01*
X0393592Y0095427D01*
X0393622Y0095327D01*
X0393647Y0095225D01*
X0393669Y0095123D01*
X0393686Y0095020D01*
X0393700Y0094916D01*
X0393710Y0094812D01*
X0393716Y0094708D01*
X0393718Y0094603D01*
X0393716Y0094498D01*
X0393710Y0094394D01*
X0393700Y0094290D01*
X0393686Y0094186D01*
X0393669Y0094083D01*
X0393647Y0093981D01*
X0393622Y0093879D01*
X0393592Y0093779D01*
X0393559Y0093680D01*
X0393522Y0093582D01*
X0393482Y0093486D01*
X0393438Y0093391D01*
X0393390Y0093298D01*
X0393339Y0093206D01*
X0393285Y0093117D01*
X0393227Y0093030D01*
X0393165Y0092945D01*
X0393101Y0092863D01*
X0393034Y0092783D01*
X0392963Y0092706D01*
X0392890Y0092631D01*
X0392814Y0092559D01*
X0392735Y0092490D01*
X0392654Y0092424D01*
X0392571Y0092362D01*
X0392485Y0092302D01*
X0392396Y0092246D01*
X0392306Y0092193D01*
X0392214Y0092144D01*
X0392120Y0092098D01*
X0392024Y0092055D01*
X0391927Y0092017D01*
X0391829Y0091982D01*
X0391729Y0091951D01*
X0391628Y0091923D01*
X0391526Y0091900D01*
X0391423Y0091880D01*
X0391320Y0091864D01*
X0391216Y0091852D01*
X0391112Y0091844D01*
X0391007Y0091840D01*
X0390903Y0091840D01*
X0390798Y0091844D01*
X0390694Y0091852D01*
X0390590Y0091864D01*
X0390487Y0091880D01*
X0390384Y0091900D01*
X0390282Y0091923D01*
X0390181Y0091951D01*
X0390081Y0091982D01*
X0389983Y0092017D01*
X0389886Y0092055D01*
X0389790Y0092098D01*
X0389696Y0092144D01*
X0389604Y0092193D01*
X0389514Y0092246D01*
X0389425Y0092302D01*
X0389339Y0092362D01*
X0389256Y0092424D01*
X0389175Y0092490D01*
X0389096Y0092559D01*
X0389020Y0092631D01*
X0388947Y0092706D01*
X0388876Y0092783D01*
X0388809Y0092863D01*
X0388745Y0092945D01*
X0388683Y0093030D01*
X0388625Y0093117D01*
X0388571Y0093206D01*
X0388520Y0093298D01*
X0388472Y0093391D01*
X0388428Y0093486D01*
X0388388Y0093582D01*
X0388351Y0093680D01*
X0388318Y0093779D01*
X0388288Y0093879D01*
X0388263Y0093981D01*
X0388241Y0094083D01*
X0388224Y0094186D01*
X0388210Y0094290D01*
X0388200Y0094394D01*
X0388194Y0094498D01*
X0388192Y0094603D01*
X0387215Y0074194D02*
X0385837Y0074194D01*
X0385837Y0060020D01*
X0387215Y0060020D01*
X0394695Y0060020D02*
X0396073Y0060020D01*
X0396073Y0074194D01*
X0394695Y0074194D01*
X0388192Y0067107D02*
X0388194Y0067212D01*
X0388200Y0067316D01*
X0388210Y0067420D01*
X0388224Y0067524D01*
X0388241Y0067627D01*
X0388263Y0067729D01*
X0388288Y0067831D01*
X0388318Y0067931D01*
X0388351Y0068030D01*
X0388388Y0068128D01*
X0388428Y0068224D01*
X0388472Y0068319D01*
X0388520Y0068412D01*
X0388571Y0068504D01*
X0388625Y0068593D01*
X0388683Y0068680D01*
X0388745Y0068765D01*
X0388809Y0068847D01*
X0388876Y0068927D01*
X0388947Y0069004D01*
X0389020Y0069079D01*
X0389096Y0069151D01*
X0389175Y0069220D01*
X0389256Y0069286D01*
X0389339Y0069348D01*
X0389425Y0069408D01*
X0389514Y0069464D01*
X0389604Y0069517D01*
X0389696Y0069566D01*
X0389790Y0069612D01*
X0389886Y0069655D01*
X0389983Y0069693D01*
X0390081Y0069728D01*
X0390181Y0069759D01*
X0390282Y0069787D01*
X0390384Y0069810D01*
X0390487Y0069830D01*
X0390590Y0069846D01*
X0390694Y0069858D01*
X0390798Y0069866D01*
X0390903Y0069870D01*
X0391007Y0069870D01*
X0391112Y0069866D01*
X0391216Y0069858D01*
X0391320Y0069846D01*
X0391423Y0069830D01*
X0391526Y0069810D01*
X0391628Y0069787D01*
X0391729Y0069759D01*
X0391829Y0069728D01*
X0391927Y0069693D01*
X0392024Y0069655D01*
X0392120Y0069612D01*
X0392214Y0069566D01*
X0392306Y0069517D01*
X0392396Y0069464D01*
X0392485Y0069408D01*
X0392571Y0069348D01*
X0392654Y0069286D01*
X0392735Y0069220D01*
X0392814Y0069151D01*
X0392890Y0069079D01*
X0392963Y0069004D01*
X0393034Y0068927D01*
X0393101Y0068847D01*
X0393165Y0068765D01*
X0393227Y0068680D01*
X0393285Y0068593D01*
X0393339Y0068504D01*
X0393390Y0068412D01*
X0393438Y0068319D01*
X0393482Y0068224D01*
X0393522Y0068128D01*
X0393559Y0068030D01*
X0393592Y0067931D01*
X0393622Y0067831D01*
X0393647Y0067729D01*
X0393669Y0067627D01*
X0393686Y0067524D01*
X0393700Y0067420D01*
X0393710Y0067316D01*
X0393716Y0067212D01*
X0393718Y0067107D01*
X0393716Y0067002D01*
X0393710Y0066898D01*
X0393700Y0066794D01*
X0393686Y0066690D01*
X0393669Y0066587D01*
X0393647Y0066485D01*
X0393622Y0066383D01*
X0393592Y0066283D01*
X0393559Y0066184D01*
X0393522Y0066086D01*
X0393482Y0065990D01*
X0393438Y0065895D01*
X0393390Y0065802D01*
X0393339Y0065710D01*
X0393285Y0065621D01*
X0393227Y0065534D01*
X0393165Y0065449D01*
X0393101Y0065367D01*
X0393034Y0065287D01*
X0392963Y0065210D01*
X0392890Y0065135D01*
X0392814Y0065063D01*
X0392735Y0064994D01*
X0392654Y0064928D01*
X0392571Y0064866D01*
X0392485Y0064806D01*
X0392396Y0064750D01*
X0392306Y0064697D01*
X0392214Y0064648D01*
X0392120Y0064602D01*
X0392024Y0064559D01*
X0391927Y0064521D01*
X0391829Y0064486D01*
X0391729Y0064455D01*
X0391628Y0064427D01*
X0391526Y0064404D01*
X0391423Y0064384D01*
X0391320Y0064368D01*
X0391216Y0064356D01*
X0391112Y0064348D01*
X0391007Y0064344D01*
X0390903Y0064344D01*
X0390798Y0064348D01*
X0390694Y0064356D01*
X0390590Y0064368D01*
X0390487Y0064384D01*
X0390384Y0064404D01*
X0390282Y0064427D01*
X0390181Y0064455D01*
X0390081Y0064486D01*
X0389983Y0064521D01*
X0389886Y0064559D01*
X0389790Y0064602D01*
X0389696Y0064648D01*
X0389604Y0064697D01*
X0389514Y0064750D01*
X0389425Y0064806D01*
X0389339Y0064866D01*
X0389256Y0064928D01*
X0389175Y0064994D01*
X0389096Y0065063D01*
X0389020Y0065135D01*
X0388947Y0065210D01*
X0388876Y0065287D01*
X0388809Y0065367D01*
X0388745Y0065449D01*
X0388683Y0065534D01*
X0388625Y0065621D01*
X0388571Y0065710D01*
X0388520Y0065802D01*
X0388472Y0065895D01*
X0388428Y0065990D01*
X0388388Y0066086D01*
X0388351Y0066184D01*
X0388318Y0066283D01*
X0388288Y0066383D01*
X0388263Y0066485D01*
X0388241Y0066587D01*
X0388224Y0066690D01*
X0388210Y0066794D01*
X0388200Y0066898D01*
X0388194Y0067002D01*
X0388192Y0067107D01*
X0083868Y0206524D02*
X0030719Y0206524D01*
X0028750Y0208493D02*
X0028752Y0208579D01*
X0028757Y0208665D01*
X0028767Y0208750D01*
X0028780Y0208835D01*
X0028797Y0208919D01*
X0028817Y0209003D01*
X0028841Y0209085D01*
X0028869Y0209166D01*
X0028900Y0209247D01*
X0028934Y0209325D01*
X0028972Y0209402D01*
X0029014Y0209478D01*
X0029058Y0209551D01*
X0029106Y0209622D01*
X0029157Y0209692D01*
X0029211Y0209759D01*
X0029267Y0209823D01*
X0029327Y0209885D01*
X0029389Y0209945D01*
X0029453Y0210001D01*
X0029520Y0210055D01*
X0029590Y0210106D01*
X0029661Y0210154D01*
X0029735Y0210198D01*
X0029810Y0210240D01*
X0029887Y0210278D01*
X0029965Y0210312D01*
X0030046Y0210343D01*
X0030127Y0210371D01*
X0030209Y0210395D01*
X0030293Y0210415D01*
X0030377Y0210432D01*
X0030462Y0210445D01*
X0030547Y0210455D01*
X0030633Y0210460D01*
X0030719Y0210462D01*
X0030719Y0210461D02*
X0083868Y0210461D01*
X0083868Y0210462D02*
X0083954Y0210460D01*
X0084040Y0210455D01*
X0084125Y0210445D01*
X0084210Y0210432D01*
X0084294Y0210415D01*
X0084378Y0210395D01*
X0084460Y0210371D01*
X0084541Y0210343D01*
X0084622Y0210312D01*
X0084700Y0210278D01*
X0084777Y0210240D01*
X0084853Y0210198D01*
X0084926Y0210154D01*
X0084997Y0210106D01*
X0085067Y0210055D01*
X0085134Y0210001D01*
X0085198Y0209945D01*
X0085260Y0209885D01*
X0085320Y0209823D01*
X0085376Y0209759D01*
X0085430Y0209692D01*
X0085481Y0209622D01*
X0085529Y0209551D01*
X0085573Y0209478D01*
X0085615Y0209402D01*
X0085653Y0209325D01*
X0085687Y0209247D01*
X0085718Y0209166D01*
X0085746Y0209085D01*
X0085770Y0209003D01*
X0085790Y0208919D01*
X0085807Y0208835D01*
X0085820Y0208750D01*
X0085830Y0208665D01*
X0085835Y0208579D01*
X0085837Y0208493D01*
X0085835Y0208407D01*
X0085830Y0208321D01*
X0085820Y0208236D01*
X0085807Y0208151D01*
X0085790Y0208067D01*
X0085770Y0207983D01*
X0085746Y0207901D01*
X0085718Y0207820D01*
X0085687Y0207739D01*
X0085653Y0207661D01*
X0085615Y0207584D01*
X0085573Y0207509D01*
X0085529Y0207435D01*
X0085481Y0207364D01*
X0085430Y0207294D01*
X0085376Y0207227D01*
X0085320Y0207163D01*
X0085260Y0207101D01*
X0085198Y0207041D01*
X0085134Y0206985D01*
X0085067Y0206931D01*
X0084997Y0206880D01*
X0084926Y0206832D01*
X0084853Y0206788D01*
X0084777Y0206746D01*
X0084700Y0206708D01*
X0084622Y0206674D01*
X0084541Y0206643D01*
X0084460Y0206615D01*
X0084378Y0206591D01*
X0084294Y0206571D01*
X0084210Y0206554D01*
X0084125Y0206541D01*
X0084040Y0206531D01*
X0083954Y0206526D01*
X0083868Y0206524D01*
X0083868Y0226209D02*
X0030719Y0226209D01*
X0028750Y0228178D02*
X0028752Y0228264D01*
X0028757Y0228350D01*
X0028767Y0228435D01*
X0028780Y0228520D01*
X0028797Y0228604D01*
X0028817Y0228688D01*
X0028841Y0228770D01*
X0028869Y0228851D01*
X0028900Y0228932D01*
X0028934Y0229010D01*
X0028972Y0229087D01*
X0029014Y0229163D01*
X0029058Y0229236D01*
X0029106Y0229307D01*
X0029157Y0229377D01*
X0029211Y0229444D01*
X0029267Y0229508D01*
X0029327Y0229570D01*
X0029389Y0229630D01*
X0029453Y0229686D01*
X0029520Y0229740D01*
X0029590Y0229791D01*
X0029661Y0229839D01*
X0029735Y0229883D01*
X0029810Y0229925D01*
X0029887Y0229963D01*
X0029965Y0229997D01*
X0030046Y0230028D01*
X0030127Y0230056D01*
X0030209Y0230080D01*
X0030293Y0230100D01*
X0030377Y0230117D01*
X0030462Y0230130D01*
X0030547Y0230140D01*
X0030633Y0230145D01*
X0030719Y0230147D01*
X0030719Y0230146D02*
X0083868Y0230146D01*
X0083868Y0230147D02*
X0083954Y0230145D01*
X0084040Y0230140D01*
X0084125Y0230130D01*
X0084210Y0230117D01*
X0084294Y0230100D01*
X0084378Y0230080D01*
X0084460Y0230056D01*
X0084541Y0230028D01*
X0084622Y0229997D01*
X0084700Y0229963D01*
X0084777Y0229925D01*
X0084853Y0229883D01*
X0084926Y0229839D01*
X0084997Y0229791D01*
X0085067Y0229740D01*
X0085134Y0229686D01*
X0085198Y0229630D01*
X0085260Y0229570D01*
X0085320Y0229508D01*
X0085376Y0229444D01*
X0085430Y0229377D01*
X0085481Y0229307D01*
X0085529Y0229236D01*
X0085573Y0229163D01*
X0085615Y0229087D01*
X0085653Y0229010D01*
X0085687Y0228932D01*
X0085718Y0228851D01*
X0085746Y0228770D01*
X0085770Y0228688D01*
X0085790Y0228604D01*
X0085807Y0228520D01*
X0085820Y0228435D01*
X0085830Y0228350D01*
X0085835Y0228264D01*
X0085837Y0228178D01*
X0085835Y0228092D01*
X0085830Y0228006D01*
X0085820Y0227921D01*
X0085807Y0227836D01*
X0085790Y0227752D01*
X0085770Y0227668D01*
X0085746Y0227586D01*
X0085718Y0227505D01*
X0085687Y0227424D01*
X0085653Y0227346D01*
X0085615Y0227269D01*
X0085573Y0227194D01*
X0085529Y0227120D01*
X0085481Y0227049D01*
X0085430Y0226979D01*
X0085376Y0226912D01*
X0085320Y0226848D01*
X0085260Y0226786D01*
X0085198Y0226726D01*
X0085134Y0226670D01*
X0085067Y0226616D01*
X0084997Y0226565D01*
X0084926Y0226517D01*
X0084853Y0226473D01*
X0084777Y0226431D01*
X0084700Y0226393D01*
X0084622Y0226359D01*
X0084541Y0226328D01*
X0084460Y0226300D01*
X0084378Y0226276D01*
X0084294Y0226256D01*
X0084210Y0226239D01*
X0084125Y0226226D01*
X0084040Y0226216D01*
X0083954Y0226211D01*
X0083868Y0226209D01*
X0030719Y0226209D02*
X0030633Y0226211D01*
X0030547Y0226216D01*
X0030462Y0226226D01*
X0030377Y0226239D01*
X0030293Y0226256D01*
X0030209Y0226276D01*
X0030127Y0226300D01*
X0030046Y0226328D01*
X0029965Y0226359D01*
X0029887Y0226393D01*
X0029810Y0226431D01*
X0029734Y0226473D01*
X0029661Y0226517D01*
X0029590Y0226565D01*
X0029520Y0226616D01*
X0029453Y0226670D01*
X0029389Y0226726D01*
X0029327Y0226786D01*
X0029267Y0226848D01*
X0029211Y0226912D01*
X0029157Y0226979D01*
X0029106Y0227049D01*
X0029058Y0227120D01*
X0029014Y0227194D01*
X0028972Y0227269D01*
X0028934Y0227346D01*
X0028900Y0227424D01*
X0028869Y0227505D01*
X0028841Y0227586D01*
X0028817Y0227668D01*
X0028797Y0227752D01*
X0028780Y0227836D01*
X0028767Y0227921D01*
X0028757Y0228006D01*
X0028752Y0228092D01*
X0028750Y0228178D01*
X0028750Y0208493D02*
X0028752Y0208407D01*
X0028757Y0208321D01*
X0028767Y0208236D01*
X0028780Y0208151D01*
X0028797Y0208067D01*
X0028817Y0207983D01*
X0028841Y0207901D01*
X0028869Y0207820D01*
X0028900Y0207739D01*
X0028934Y0207661D01*
X0028972Y0207584D01*
X0029014Y0207509D01*
X0029058Y0207435D01*
X0029106Y0207364D01*
X0029157Y0207294D01*
X0029211Y0207227D01*
X0029267Y0207163D01*
X0029327Y0207101D01*
X0029389Y0207041D01*
X0029453Y0206985D01*
X0029520Y0206931D01*
X0029590Y0206880D01*
X0029661Y0206832D01*
X0029734Y0206788D01*
X0029810Y0206746D01*
X0029887Y0206708D01*
X0029965Y0206674D01*
X0030046Y0206643D01*
X0030127Y0206615D01*
X0030209Y0206591D01*
X0030293Y0206571D01*
X0030377Y0206554D01*
X0030462Y0206541D01*
X0030547Y0206531D01*
X0030633Y0206526D01*
X0030719Y0206524D01*
D12*
X0030325Y0088414D02*
X0030327Y0088483D01*
X0030333Y0088551D01*
X0030343Y0088619D01*
X0030357Y0088686D01*
X0030375Y0088753D01*
X0030396Y0088818D01*
X0030422Y0088882D01*
X0030451Y0088944D01*
X0030483Y0089004D01*
X0030519Y0089063D01*
X0030559Y0089119D01*
X0030601Y0089173D01*
X0030647Y0089224D01*
X0030696Y0089273D01*
X0030747Y0089319D01*
X0030801Y0089361D01*
X0030857Y0089401D01*
X0030915Y0089437D01*
X0030976Y0089469D01*
X0031038Y0089498D01*
X0031102Y0089524D01*
X0031167Y0089545D01*
X0031234Y0089563D01*
X0031301Y0089577D01*
X0031369Y0089587D01*
X0031437Y0089593D01*
X0031506Y0089595D01*
X0031575Y0089593D01*
X0031643Y0089587D01*
X0031711Y0089577D01*
X0031778Y0089563D01*
X0031845Y0089545D01*
X0031910Y0089524D01*
X0031974Y0089498D01*
X0032036Y0089469D01*
X0032096Y0089437D01*
X0032155Y0089401D01*
X0032211Y0089361D01*
X0032265Y0089319D01*
X0032316Y0089273D01*
X0032365Y0089224D01*
X0032411Y0089173D01*
X0032453Y0089119D01*
X0032493Y0089063D01*
X0032529Y0089004D01*
X0032561Y0088944D01*
X0032590Y0088882D01*
X0032616Y0088818D01*
X0032637Y0088753D01*
X0032655Y0088686D01*
X0032669Y0088619D01*
X0032679Y0088551D01*
X0032685Y0088483D01*
X0032687Y0088414D01*
X0032685Y0088345D01*
X0032679Y0088277D01*
X0032669Y0088209D01*
X0032655Y0088142D01*
X0032637Y0088075D01*
X0032616Y0088010D01*
X0032590Y0087946D01*
X0032561Y0087884D01*
X0032529Y0087823D01*
X0032493Y0087765D01*
X0032453Y0087709D01*
X0032411Y0087655D01*
X0032365Y0087604D01*
X0032316Y0087555D01*
X0032265Y0087509D01*
X0032211Y0087467D01*
X0032155Y0087427D01*
X0032097Y0087391D01*
X0032036Y0087359D01*
X0031974Y0087330D01*
X0031910Y0087304D01*
X0031845Y0087283D01*
X0031778Y0087265D01*
X0031711Y0087251D01*
X0031643Y0087241D01*
X0031575Y0087235D01*
X0031506Y0087233D01*
X0031437Y0087235D01*
X0031369Y0087241D01*
X0031301Y0087251D01*
X0031234Y0087265D01*
X0031167Y0087283D01*
X0031102Y0087304D01*
X0031038Y0087330D01*
X0030976Y0087359D01*
X0030915Y0087391D01*
X0030857Y0087427D01*
X0030801Y0087467D01*
X0030747Y0087509D01*
X0030696Y0087555D01*
X0030647Y0087604D01*
X0030601Y0087655D01*
X0030559Y0087709D01*
X0030519Y0087765D01*
X0030483Y0087823D01*
X0030451Y0087884D01*
X0030422Y0087946D01*
X0030396Y0088010D01*
X0030375Y0088075D01*
X0030357Y0088142D01*
X0030343Y0088209D01*
X0030333Y0088277D01*
X0030327Y0088345D01*
X0030325Y0088414D01*
X0030325Y0072666D02*
X0030327Y0072735D01*
X0030333Y0072803D01*
X0030343Y0072871D01*
X0030357Y0072938D01*
X0030375Y0073005D01*
X0030396Y0073070D01*
X0030422Y0073134D01*
X0030451Y0073196D01*
X0030483Y0073256D01*
X0030519Y0073315D01*
X0030559Y0073371D01*
X0030601Y0073425D01*
X0030647Y0073476D01*
X0030696Y0073525D01*
X0030747Y0073571D01*
X0030801Y0073613D01*
X0030857Y0073653D01*
X0030915Y0073689D01*
X0030976Y0073721D01*
X0031038Y0073750D01*
X0031102Y0073776D01*
X0031167Y0073797D01*
X0031234Y0073815D01*
X0031301Y0073829D01*
X0031369Y0073839D01*
X0031437Y0073845D01*
X0031506Y0073847D01*
X0031575Y0073845D01*
X0031643Y0073839D01*
X0031711Y0073829D01*
X0031778Y0073815D01*
X0031845Y0073797D01*
X0031910Y0073776D01*
X0031974Y0073750D01*
X0032036Y0073721D01*
X0032096Y0073689D01*
X0032155Y0073653D01*
X0032211Y0073613D01*
X0032265Y0073571D01*
X0032316Y0073525D01*
X0032365Y0073476D01*
X0032411Y0073425D01*
X0032453Y0073371D01*
X0032493Y0073315D01*
X0032529Y0073256D01*
X0032561Y0073196D01*
X0032590Y0073134D01*
X0032616Y0073070D01*
X0032637Y0073005D01*
X0032655Y0072938D01*
X0032669Y0072871D01*
X0032679Y0072803D01*
X0032685Y0072735D01*
X0032687Y0072666D01*
X0032685Y0072597D01*
X0032679Y0072529D01*
X0032669Y0072461D01*
X0032655Y0072394D01*
X0032637Y0072327D01*
X0032616Y0072262D01*
X0032590Y0072198D01*
X0032561Y0072136D01*
X0032529Y0072075D01*
X0032493Y0072017D01*
X0032453Y0071961D01*
X0032411Y0071907D01*
X0032365Y0071856D01*
X0032316Y0071807D01*
X0032265Y0071761D01*
X0032211Y0071719D01*
X0032155Y0071679D01*
X0032097Y0071643D01*
X0032036Y0071611D01*
X0031974Y0071582D01*
X0031910Y0071556D01*
X0031845Y0071535D01*
X0031778Y0071517D01*
X0031711Y0071503D01*
X0031643Y0071493D01*
X0031575Y0071487D01*
X0031506Y0071485D01*
X0031437Y0071487D01*
X0031369Y0071493D01*
X0031301Y0071503D01*
X0031234Y0071517D01*
X0031167Y0071535D01*
X0031102Y0071556D01*
X0031038Y0071582D01*
X0030976Y0071611D01*
X0030915Y0071643D01*
X0030857Y0071679D01*
X0030801Y0071719D01*
X0030747Y0071761D01*
X0030696Y0071807D01*
X0030647Y0071856D01*
X0030601Y0071907D01*
X0030559Y0071961D01*
X0030519Y0072017D01*
X0030483Y0072075D01*
X0030451Y0072136D01*
X0030422Y0072198D01*
X0030396Y0072262D01*
X0030375Y0072327D01*
X0030357Y0072394D01*
X0030343Y0072461D01*
X0030333Y0072529D01*
X0030327Y0072597D01*
X0030325Y0072666D01*
X0073829Y0017548D02*
X0073831Y0017704D01*
X0073837Y0017860D01*
X0073847Y0018015D01*
X0073861Y0018170D01*
X0073879Y0018325D01*
X0073901Y0018479D01*
X0073926Y0018633D01*
X0073956Y0018786D01*
X0073990Y0018938D01*
X0074027Y0019090D01*
X0074068Y0019240D01*
X0074113Y0019389D01*
X0074162Y0019537D01*
X0074215Y0019684D01*
X0074271Y0019829D01*
X0074331Y0019973D01*
X0074395Y0020115D01*
X0074463Y0020256D01*
X0074534Y0020394D01*
X0074608Y0020531D01*
X0074686Y0020666D01*
X0074767Y0020799D01*
X0074852Y0020930D01*
X0074940Y0021059D01*
X0075031Y0021185D01*
X0075126Y0021309D01*
X0075223Y0021430D01*
X0075324Y0021549D01*
X0075428Y0021666D01*
X0075534Y0021779D01*
X0075644Y0021890D01*
X0075756Y0021998D01*
X0075871Y0022103D01*
X0075989Y0022206D01*
X0076109Y0022305D01*
X0076232Y0022401D01*
X0076357Y0022494D01*
X0076484Y0022583D01*
X0076614Y0022670D01*
X0076746Y0022753D01*
X0076880Y0022832D01*
X0077016Y0022909D01*
X0077154Y0022981D01*
X0077293Y0023051D01*
X0077435Y0023116D01*
X0077578Y0023178D01*
X0077722Y0023236D01*
X0077868Y0023291D01*
X0078016Y0023342D01*
X0078164Y0023389D01*
X0078314Y0023432D01*
X0078465Y0023471D01*
X0078617Y0023507D01*
X0078769Y0023538D01*
X0078923Y0023566D01*
X0079077Y0023590D01*
X0079231Y0023610D01*
X0079386Y0023626D01*
X0079542Y0023638D01*
X0079697Y0023646D01*
X0079853Y0023650D01*
X0080009Y0023650D01*
X0080165Y0023646D01*
X0080320Y0023638D01*
X0080476Y0023626D01*
X0080631Y0023610D01*
X0080785Y0023590D01*
X0080939Y0023566D01*
X0081093Y0023538D01*
X0081245Y0023507D01*
X0081397Y0023471D01*
X0081548Y0023432D01*
X0081698Y0023389D01*
X0081846Y0023342D01*
X0081994Y0023291D01*
X0082140Y0023236D01*
X0082284Y0023178D01*
X0082427Y0023116D01*
X0082569Y0023051D01*
X0082708Y0022981D01*
X0082846Y0022909D01*
X0082982Y0022832D01*
X0083116Y0022753D01*
X0083248Y0022670D01*
X0083378Y0022583D01*
X0083505Y0022494D01*
X0083630Y0022401D01*
X0083753Y0022305D01*
X0083873Y0022206D01*
X0083991Y0022103D01*
X0084106Y0021998D01*
X0084218Y0021890D01*
X0084328Y0021779D01*
X0084434Y0021666D01*
X0084538Y0021549D01*
X0084639Y0021430D01*
X0084736Y0021309D01*
X0084831Y0021185D01*
X0084922Y0021059D01*
X0085010Y0020930D01*
X0085095Y0020799D01*
X0085176Y0020666D01*
X0085254Y0020531D01*
X0085328Y0020394D01*
X0085399Y0020256D01*
X0085467Y0020115D01*
X0085531Y0019973D01*
X0085591Y0019829D01*
X0085647Y0019684D01*
X0085700Y0019537D01*
X0085749Y0019389D01*
X0085794Y0019240D01*
X0085835Y0019090D01*
X0085872Y0018938D01*
X0085906Y0018786D01*
X0085936Y0018633D01*
X0085961Y0018479D01*
X0085983Y0018325D01*
X0086001Y0018170D01*
X0086015Y0018015D01*
X0086025Y0017860D01*
X0086031Y0017704D01*
X0086033Y0017548D01*
X0086031Y0017392D01*
X0086025Y0017236D01*
X0086015Y0017081D01*
X0086001Y0016926D01*
X0085983Y0016771D01*
X0085961Y0016617D01*
X0085936Y0016463D01*
X0085906Y0016310D01*
X0085872Y0016158D01*
X0085835Y0016006D01*
X0085794Y0015856D01*
X0085749Y0015707D01*
X0085700Y0015559D01*
X0085647Y0015412D01*
X0085591Y0015267D01*
X0085531Y0015123D01*
X0085467Y0014981D01*
X0085399Y0014840D01*
X0085328Y0014702D01*
X0085254Y0014565D01*
X0085176Y0014430D01*
X0085095Y0014297D01*
X0085010Y0014166D01*
X0084922Y0014037D01*
X0084831Y0013911D01*
X0084736Y0013787D01*
X0084639Y0013666D01*
X0084538Y0013547D01*
X0084434Y0013430D01*
X0084328Y0013317D01*
X0084218Y0013206D01*
X0084106Y0013098D01*
X0083991Y0012993D01*
X0083873Y0012890D01*
X0083753Y0012791D01*
X0083630Y0012695D01*
X0083505Y0012602D01*
X0083378Y0012513D01*
X0083248Y0012426D01*
X0083116Y0012343D01*
X0082982Y0012264D01*
X0082846Y0012187D01*
X0082708Y0012115D01*
X0082569Y0012045D01*
X0082427Y0011980D01*
X0082284Y0011918D01*
X0082140Y0011860D01*
X0081994Y0011805D01*
X0081846Y0011754D01*
X0081698Y0011707D01*
X0081548Y0011664D01*
X0081397Y0011625D01*
X0081245Y0011589D01*
X0081093Y0011558D01*
X0080939Y0011530D01*
X0080785Y0011506D01*
X0080631Y0011486D01*
X0080476Y0011470D01*
X0080320Y0011458D01*
X0080165Y0011450D01*
X0080009Y0011446D01*
X0079853Y0011446D01*
X0079697Y0011450D01*
X0079542Y0011458D01*
X0079386Y0011470D01*
X0079231Y0011486D01*
X0079077Y0011506D01*
X0078923Y0011530D01*
X0078769Y0011558D01*
X0078617Y0011589D01*
X0078465Y0011625D01*
X0078314Y0011664D01*
X0078164Y0011707D01*
X0078016Y0011754D01*
X0077868Y0011805D01*
X0077722Y0011860D01*
X0077578Y0011918D01*
X0077435Y0011980D01*
X0077293Y0012045D01*
X0077154Y0012115D01*
X0077016Y0012187D01*
X0076880Y0012264D01*
X0076746Y0012343D01*
X0076614Y0012426D01*
X0076484Y0012513D01*
X0076357Y0012602D01*
X0076232Y0012695D01*
X0076109Y0012791D01*
X0075989Y0012890D01*
X0075871Y0012993D01*
X0075756Y0013098D01*
X0075644Y0013206D01*
X0075534Y0013317D01*
X0075428Y0013430D01*
X0075324Y0013547D01*
X0075223Y0013666D01*
X0075126Y0013787D01*
X0075031Y0013911D01*
X0074940Y0014037D01*
X0074852Y0014166D01*
X0074767Y0014297D01*
X0074686Y0014430D01*
X0074608Y0014565D01*
X0074534Y0014702D01*
X0074463Y0014840D01*
X0074395Y0014981D01*
X0074331Y0015123D01*
X0074271Y0015267D01*
X0074215Y0015412D01*
X0074162Y0015559D01*
X0074113Y0015707D01*
X0074068Y0015856D01*
X0074027Y0016006D01*
X0073990Y0016158D01*
X0073956Y0016310D01*
X0073926Y0016463D01*
X0073901Y0016617D01*
X0073879Y0016771D01*
X0073861Y0016926D01*
X0073847Y0017081D01*
X0073837Y0017236D01*
X0073831Y0017392D01*
X0073829Y0017548D01*
X0231309Y0017548D02*
X0231311Y0017704D01*
X0231317Y0017860D01*
X0231327Y0018015D01*
X0231341Y0018170D01*
X0231359Y0018325D01*
X0231381Y0018479D01*
X0231406Y0018633D01*
X0231436Y0018786D01*
X0231470Y0018938D01*
X0231507Y0019090D01*
X0231548Y0019240D01*
X0231593Y0019389D01*
X0231642Y0019537D01*
X0231695Y0019684D01*
X0231751Y0019829D01*
X0231811Y0019973D01*
X0231875Y0020115D01*
X0231943Y0020256D01*
X0232014Y0020394D01*
X0232088Y0020531D01*
X0232166Y0020666D01*
X0232247Y0020799D01*
X0232332Y0020930D01*
X0232420Y0021059D01*
X0232511Y0021185D01*
X0232606Y0021309D01*
X0232703Y0021430D01*
X0232804Y0021549D01*
X0232908Y0021666D01*
X0233014Y0021779D01*
X0233124Y0021890D01*
X0233236Y0021998D01*
X0233351Y0022103D01*
X0233469Y0022206D01*
X0233589Y0022305D01*
X0233712Y0022401D01*
X0233837Y0022494D01*
X0233964Y0022583D01*
X0234094Y0022670D01*
X0234226Y0022753D01*
X0234360Y0022832D01*
X0234496Y0022909D01*
X0234634Y0022981D01*
X0234773Y0023051D01*
X0234915Y0023116D01*
X0235058Y0023178D01*
X0235202Y0023236D01*
X0235348Y0023291D01*
X0235496Y0023342D01*
X0235644Y0023389D01*
X0235794Y0023432D01*
X0235945Y0023471D01*
X0236097Y0023507D01*
X0236249Y0023538D01*
X0236403Y0023566D01*
X0236557Y0023590D01*
X0236711Y0023610D01*
X0236866Y0023626D01*
X0237022Y0023638D01*
X0237177Y0023646D01*
X0237333Y0023650D01*
X0237489Y0023650D01*
X0237645Y0023646D01*
X0237800Y0023638D01*
X0237956Y0023626D01*
X0238111Y0023610D01*
X0238265Y0023590D01*
X0238419Y0023566D01*
X0238573Y0023538D01*
X0238725Y0023507D01*
X0238877Y0023471D01*
X0239028Y0023432D01*
X0239178Y0023389D01*
X0239326Y0023342D01*
X0239474Y0023291D01*
X0239620Y0023236D01*
X0239764Y0023178D01*
X0239907Y0023116D01*
X0240049Y0023051D01*
X0240188Y0022981D01*
X0240326Y0022909D01*
X0240462Y0022832D01*
X0240596Y0022753D01*
X0240728Y0022670D01*
X0240858Y0022583D01*
X0240985Y0022494D01*
X0241110Y0022401D01*
X0241233Y0022305D01*
X0241353Y0022206D01*
X0241471Y0022103D01*
X0241586Y0021998D01*
X0241698Y0021890D01*
X0241808Y0021779D01*
X0241914Y0021666D01*
X0242018Y0021549D01*
X0242119Y0021430D01*
X0242216Y0021309D01*
X0242311Y0021185D01*
X0242402Y0021059D01*
X0242490Y0020930D01*
X0242575Y0020799D01*
X0242656Y0020666D01*
X0242734Y0020531D01*
X0242808Y0020394D01*
X0242879Y0020256D01*
X0242947Y0020115D01*
X0243011Y0019973D01*
X0243071Y0019829D01*
X0243127Y0019684D01*
X0243180Y0019537D01*
X0243229Y0019389D01*
X0243274Y0019240D01*
X0243315Y0019090D01*
X0243352Y0018938D01*
X0243386Y0018786D01*
X0243416Y0018633D01*
X0243441Y0018479D01*
X0243463Y0018325D01*
X0243481Y0018170D01*
X0243495Y0018015D01*
X0243505Y0017860D01*
X0243511Y0017704D01*
X0243513Y0017548D01*
X0243511Y0017392D01*
X0243505Y0017236D01*
X0243495Y0017081D01*
X0243481Y0016926D01*
X0243463Y0016771D01*
X0243441Y0016617D01*
X0243416Y0016463D01*
X0243386Y0016310D01*
X0243352Y0016158D01*
X0243315Y0016006D01*
X0243274Y0015856D01*
X0243229Y0015707D01*
X0243180Y0015559D01*
X0243127Y0015412D01*
X0243071Y0015267D01*
X0243011Y0015123D01*
X0242947Y0014981D01*
X0242879Y0014840D01*
X0242808Y0014702D01*
X0242734Y0014565D01*
X0242656Y0014430D01*
X0242575Y0014297D01*
X0242490Y0014166D01*
X0242402Y0014037D01*
X0242311Y0013911D01*
X0242216Y0013787D01*
X0242119Y0013666D01*
X0242018Y0013547D01*
X0241914Y0013430D01*
X0241808Y0013317D01*
X0241698Y0013206D01*
X0241586Y0013098D01*
X0241471Y0012993D01*
X0241353Y0012890D01*
X0241233Y0012791D01*
X0241110Y0012695D01*
X0240985Y0012602D01*
X0240858Y0012513D01*
X0240728Y0012426D01*
X0240596Y0012343D01*
X0240462Y0012264D01*
X0240326Y0012187D01*
X0240188Y0012115D01*
X0240049Y0012045D01*
X0239907Y0011980D01*
X0239764Y0011918D01*
X0239620Y0011860D01*
X0239474Y0011805D01*
X0239326Y0011754D01*
X0239178Y0011707D01*
X0239028Y0011664D01*
X0238877Y0011625D01*
X0238725Y0011589D01*
X0238573Y0011558D01*
X0238419Y0011530D01*
X0238265Y0011506D01*
X0238111Y0011486D01*
X0237956Y0011470D01*
X0237800Y0011458D01*
X0237645Y0011450D01*
X0237489Y0011446D01*
X0237333Y0011446D01*
X0237177Y0011450D01*
X0237022Y0011458D01*
X0236866Y0011470D01*
X0236711Y0011486D01*
X0236557Y0011506D01*
X0236403Y0011530D01*
X0236249Y0011558D01*
X0236097Y0011589D01*
X0235945Y0011625D01*
X0235794Y0011664D01*
X0235644Y0011707D01*
X0235496Y0011754D01*
X0235348Y0011805D01*
X0235202Y0011860D01*
X0235058Y0011918D01*
X0234915Y0011980D01*
X0234773Y0012045D01*
X0234634Y0012115D01*
X0234496Y0012187D01*
X0234360Y0012264D01*
X0234226Y0012343D01*
X0234094Y0012426D01*
X0233964Y0012513D01*
X0233837Y0012602D01*
X0233712Y0012695D01*
X0233589Y0012791D01*
X0233469Y0012890D01*
X0233351Y0012993D01*
X0233236Y0013098D01*
X0233124Y0013206D01*
X0233014Y0013317D01*
X0232908Y0013430D01*
X0232804Y0013547D01*
X0232703Y0013666D01*
X0232606Y0013787D01*
X0232511Y0013911D01*
X0232420Y0014037D01*
X0232332Y0014166D01*
X0232247Y0014297D01*
X0232166Y0014430D01*
X0232088Y0014565D01*
X0232014Y0014702D01*
X0231943Y0014840D01*
X0231875Y0014981D01*
X0231811Y0015123D01*
X0231751Y0015267D01*
X0231695Y0015412D01*
X0231642Y0015559D01*
X0231593Y0015707D01*
X0231548Y0015856D01*
X0231507Y0016006D01*
X0231470Y0016158D01*
X0231436Y0016310D01*
X0231406Y0016463D01*
X0231381Y0016617D01*
X0231359Y0016771D01*
X0231341Y0016926D01*
X0231327Y0017081D01*
X0231317Y0017236D01*
X0231311Y0017392D01*
X0231309Y0017548D01*
X0391594Y0171540D02*
X0391596Y0171623D01*
X0391602Y0171706D01*
X0391612Y0171789D01*
X0391626Y0171871D01*
X0391643Y0171953D01*
X0391665Y0172033D01*
X0391690Y0172112D01*
X0391719Y0172190D01*
X0391752Y0172267D01*
X0391789Y0172342D01*
X0391828Y0172415D01*
X0391872Y0172486D01*
X0391918Y0172555D01*
X0391968Y0172622D01*
X0392021Y0172686D01*
X0392077Y0172748D01*
X0392136Y0172807D01*
X0392198Y0172863D01*
X0392262Y0172916D01*
X0392329Y0172966D01*
X0392398Y0173012D01*
X0392469Y0173056D01*
X0392542Y0173095D01*
X0392617Y0173132D01*
X0392694Y0173165D01*
X0392772Y0173194D01*
X0392851Y0173219D01*
X0392931Y0173241D01*
X0393013Y0173258D01*
X0393095Y0173272D01*
X0393178Y0173282D01*
X0393261Y0173288D01*
X0393344Y0173290D01*
X0393427Y0173288D01*
X0393510Y0173282D01*
X0393593Y0173272D01*
X0393675Y0173258D01*
X0393757Y0173241D01*
X0393837Y0173219D01*
X0393916Y0173194D01*
X0393994Y0173165D01*
X0394071Y0173132D01*
X0394146Y0173095D01*
X0394219Y0173056D01*
X0394290Y0173012D01*
X0394359Y0172966D01*
X0394426Y0172916D01*
X0394490Y0172863D01*
X0394552Y0172807D01*
X0394611Y0172748D01*
X0394667Y0172686D01*
X0394720Y0172622D01*
X0394770Y0172555D01*
X0394816Y0172486D01*
X0394860Y0172415D01*
X0394899Y0172342D01*
X0394936Y0172267D01*
X0394969Y0172190D01*
X0394998Y0172112D01*
X0395023Y0172033D01*
X0395045Y0171953D01*
X0395062Y0171871D01*
X0395076Y0171789D01*
X0395086Y0171706D01*
X0395092Y0171623D01*
X0395094Y0171540D01*
X0395092Y0171457D01*
X0395086Y0171374D01*
X0395076Y0171291D01*
X0395062Y0171209D01*
X0395045Y0171127D01*
X0395023Y0171047D01*
X0394998Y0170968D01*
X0394969Y0170890D01*
X0394936Y0170813D01*
X0394899Y0170738D01*
X0394860Y0170665D01*
X0394816Y0170594D01*
X0394770Y0170525D01*
X0394720Y0170458D01*
X0394667Y0170394D01*
X0394611Y0170332D01*
X0394552Y0170273D01*
X0394490Y0170217D01*
X0394426Y0170164D01*
X0394359Y0170114D01*
X0394290Y0170068D01*
X0394219Y0170024D01*
X0394146Y0169985D01*
X0394071Y0169948D01*
X0393994Y0169915D01*
X0393916Y0169886D01*
X0393837Y0169861D01*
X0393757Y0169839D01*
X0393675Y0169822D01*
X0393593Y0169808D01*
X0393510Y0169798D01*
X0393427Y0169792D01*
X0393344Y0169790D01*
X0393261Y0169792D01*
X0393178Y0169798D01*
X0393095Y0169808D01*
X0393013Y0169822D01*
X0392931Y0169839D01*
X0392851Y0169861D01*
X0392772Y0169886D01*
X0392694Y0169915D01*
X0392617Y0169948D01*
X0392542Y0169985D01*
X0392469Y0170024D01*
X0392398Y0170068D01*
X0392329Y0170114D01*
X0392262Y0170164D01*
X0392198Y0170217D01*
X0392136Y0170273D01*
X0392077Y0170332D01*
X0392021Y0170394D01*
X0391968Y0170458D01*
X0391918Y0170525D01*
X0391872Y0170594D01*
X0391828Y0170665D01*
X0391789Y0170738D01*
X0391752Y0170813D01*
X0391719Y0170890D01*
X0391690Y0170968D01*
X0391665Y0171047D01*
X0391643Y0171127D01*
X0391626Y0171209D01*
X0391612Y0171291D01*
X0391602Y0171374D01*
X0391596Y0171457D01*
X0391594Y0171540D01*
X0391594Y0203036D02*
X0391596Y0203119D01*
X0391602Y0203202D01*
X0391612Y0203285D01*
X0391626Y0203367D01*
X0391643Y0203449D01*
X0391665Y0203529D01*
X0391690Y0203608D01*
X0391719Y0203686D01*
X0391752Y0203763D01*
X0391789Y0203838D01*
X0391828Y0203911D01*
X0391872Y0203982D01*
X0391918Y0204051D01*
X0391968Y0204118D01*
X0392021Y0204182D01*
X0392077Y0204244D01*
X0392136Y0204303D01*
X0392198Y0204359D01*
X0392262Y0204412D01*
X0392329Y0204462D01*
X0392398Y0204508D01*
X0392469Y0204552D01*
X0392542Y0204591D01*
X0392617Y0204628D01*
X0392694Y0204661D01*
X0392772Y0204690D01*
X0392851Y0204715D01*
X0392931Y0204737D01*
X0393013Y0204754D01*
X0393095Y0204768D01*
X0393178Y0204778D01*
X0393261Y0204784D01*
X0393344Y0204786D01*
X0393427Y0204784D01*
X0393510Y0204778D01*
X0393593Y0204768D01*
X0393675Y0204754D01*
X0393757Y0204737D01*
X0393837Y0204715D01*
X0393916Y0204690D01*
X0393994Y0204661D01*
X0394071Y0204628D01*
X0394146Y0204591D01*
X0394219Y0204552D01*
X0394290Y0204508D01*
X0394359Y0204462D01*
X0394426Y0204412D01*
X0394490Y0204359D01*
X0394552Y0204303D01*
X0394611Y0204244D01*
X0394667Y0204182D01*
X0394720Y0204118D01*
X0394770Y0204051D01*
X0394816Y0203982D01*
X0394860Y0203911D01*
X0394899Y0203838D01*
X0394936Y0203763D01*
X0394969Y0203686D01*
X0394998Y0203608D01*
X0395023Y0203529D01*
X0395045Y0203449D01*
X0395062Y0203367D01*
X0395076Y0203285D01*
X0395086Y0203202D01*
X0395092Y0203119D01*
X0395094Y0203036D01*
X0395092Y0202953D01*
X0395086Y0202870D01*
X0395076Y0202787D01*
X0395062Y0202705D01*
X0395045Y0202623D01*
X0395023Y0202543D01*
X0394998Y0202464D01*
X0394969Y0202386D01*
X0394936Y0202309D01*
X0394899Y0202234D01*
X0394860Y0202161D01*
X0394816Y0202090D01*
X0394770Y0202021D01*
X0394720Y0201954D01*
X0394667Y0201890D01*
X0394611Y0201828D01*
X0394552Y0201769D01*
X0394490Y0201713D01*
X0394426Y0201660D01*
X0394359Y0201610D01*
X0394290Y0201564D01*
X0394219Y0201520D01*
X0394146Y0201481D01*
X0394071Y0201444D01*
X0393994Y0201411D01*
X0393916Y0201382D01*
X0393837Y0201357D01*
X0393757Y0201335D01*
X0393675Y0201318D01*
X0393593Y0201304D01*
X0393510Y0201294D01*
X0393427Y0201288D01*
X0393344Y0201286D01*
X0393261Y0201288D01*
X0393178Y0201294D01*
X0393095Y0201304D01*
X0393013Y0201318D01*
X0392931Y0201335D01*
X0392851Y0201357D01*
X0392772Y0201382D01*
X0392694Y0201411D01*
X0392617Y0201444D01*
X0392542Y0201481D01*
X0392469Y0201520D01*
X0392398Y0201564D01*
X0392329Y0201610D01*
X0392262Y0201660D01*
X0392198Y0201713D01*
X0392136Y0201769D01*
X0392077Y0201828D01*
X0392021Y0201890D01*
X0391968Y0201954D01*
X0391918Y0202021D01*
X0391872Y0202090D01*
X0391828Y0202161D01*
X0391789Y0202234D01*
X0391752Y0202309D01*
X0391719Y0202386D01*
X0391690Y0202464D01*
X0391665Y0202543D01*
X0391643Y0202623D01*
X0391626Y0202705D01*
X0391612Y0202787D01*
X0391602Y0202870D01*
X0391596Y0202953D01*
X0391594Y0203036D01*
X0376979Y0238020D02*
X0376981Y0238176D01*
X0376987Y0238332D01*
X0376997Y0238487D01*
X0377011Y0238642D01*
X0377029Y0238797D01*
X0377051Y0238951D01*
X0377076Y0239105D01*
X0377106Y0239258D01*
X0377140Y0239410D01*
X0377177Y0239562D01*
X0377218Y0239712D01*
X0377263Y0239861D01*
X0377312Y0240009D01*
X0377365Y0240156D01*
X0377421Y0240301D01*
X0377481Y0240445D01*
X0377545Y0240587D01*
X0377613Y0240728D01*
X0377684Y0240866D01*
X0377758Y0241003D01*
X0377836Y0241138D01*
X0377917Y0241271D01*
X0378002Y0241402D01*
X0378090Y0241531D01*
X0378181Y0241657D01*
X0378276Y0241781D01*
X0378373Y0241902D01*
X0378474Y0242021D01*
X0378578Y0242138D01*
X0378684Y0242251D01*
X0378794Y0242362D01*
X0378906Y0242470D01*
X0379021Y0242575D01*
X0379139Y0242678D01*
X0379259Y0242777D01*
X0379382Y0242873D01*
X0379507Y0242966D01*
X0379634Y0243055D01*
X0379764Y0243142D01*
X0379896Y0243225D01*
X0380030Y0243304D01*
X0380166Y0243381D01*
X0380304Y0243453D01*
X0380443Y0243523D01*
X0380585Y0243588D01*
X0380728Y0243650D01*
X0380872Y0243708D01*
X0381018Y0243763D01*
X0381166Y0243814D01*
X0381314Y0243861D01*
X0381464Y0243904D01*
X0381615Y0243943D01*
X0381767Y0243979D01*
X0381919Y0244010D01*
X0382073Y0244038D01*
X0382227Y0244062D01*
X0382381Y0244082D01*
X0382536Y0244098D01*
X0382692Y0244110D01*
X0382847Y0244118D01*
X0383003Y0244122D01*
X0383159Y0244122D01*
X0383315Y0244118D01*
X0383470Y0244110D01*
X0383626Y0244098D01*
X0383781Y0244082D01*
X0383935Y0244062D01*
X0384089Y0244038D01*
X0384243Y0244010D01*
X0384395Y0243979D01*
X0384547Y0243943D01*
X0384698Y0243904D01*
X0384848Y0243861D01*
X0384996Y0243814D01*
X0385144Y0243763D01*
X0385290Y0243708D01*
X0385434Y0243650D01*
X0385577Y0243588D01*
X0385719Y0243523D01*
X0385858Y0243453D01*
X0385996Y0243381D01*
X0386132Y0243304D01*
X0386266Y0243225D01*
X0386398Y0243142D01*
X0386528Y0243055D01*
X0386655Y0242966D01*
X0386780Y0242873D01*
X0386903Y0242777D01*
X0387023Y0242678D01*
X0387141Y0242575D01*
X0387256Y0242470D01*
X0387368Y0242362D01*
X0387478Y0242251D01*
X0387584Y0242138D01*
X0387688Y0242021D01*
X0387789Y0241902D01*
X0387886Y0241781D01*
X0387981Y0241657D01*
X0388072Y0241531D01*
X0388160Y0241402D01*
X0388245Y0241271D01*
X0388326Y0241138D01*
X0388404Y0241003D01*
X0388478Y0240866D01*
X0388549Y0240728D01*
X0388617Y0240587D01*
X0388681Y0240445D01*
X0388741Y0240301D01*
X0388797Y0240156D01*
X0388850Y0240009D01*
X0388899Y0239861D01*
X0388944Y0239712D01*
X0388985Y0239562D01*
X0389022Y0239410D01*
X0389056Y0239258D01*
X0389086Y0239105D01*
X0389111Y0238951D01*
X0389133Y0238797D01*
X0389151Y0238642D01*
X0389165Y0238487D01*
X0389175Y0238332D01*
X0389181Y0238176D01*
X0389183Y0238020D01*
X0389181Y0237864D01*
X0389175Y0237708D01*
X0389165Y0237553D01*
X0389151Y0237398D01*
X0389133Y0237243D01*
X0389111Y0237089D01*
X0389086Y0236935D01*
X0389056Y0236782D01*
X0389022Y0236630D01*
X0388985Y0236478D01*
X0388944Y0236328D01*
X0388899Y0236179D01*
X0388850Y0236031D01*
X0388797Y0235884D01*
X0388741Y0235739D01*
X0388681Y0235595D01*
X0388617Y0235453D01*
X0388549Y0235312D01*
X0388478Y0235174D01*
X0388404Y0235037D01*
X0388326Y0234902D01*
X0388245Y0234769D01*
X0388160Y0234638D01*
X0388072Y0234509D01*
X0387981Y0234383D01*
X0387886Y0234259D01*
X0387789Y0234138D01*
X0387688Y0234019D01*
X0387584Y0233902D01*
X0387478Y0233789D01*
X0387368Y0233678D01*
X0387256Y0233570D01*
X0387141Y0233465D01*
X0387023Y0233362D01*
X0386903Y0233263D01*
X0386780Y0233167D01*
X0386655Y0233074D01*
X0386528Y0232985D01*
X0386398Y0232898D01*
X0386266Y0232815D01*
X0386132Y0232736D01*
X0385996Y0232659D01*
X0385858Y0232587D01*
X0385719Y0232517D01*
X0385577Y0232452D01*
X0385434Y0232390D01*
X0385290Y0232332D01*
X0385144Y0232277D01*
X0384996Y0232226D01*
X0384848Y0232179D01*
X0384698Y0232136D01*
X0384547Y0232097D01*
X0384395Y0232061D01*
X0384243Y0232030D01*
X0384089Y0232002D01*
X0383935Y0231978D01*
X0383781Y0231958D01*
X0383626Y0231942D01*
X0383470Y0231930D01*
X0383315Y0231922D01*
X0383159Y0231918D01*
X0383003Y0231918D01*
X0382847Y0231922D01*
X0382692Y0231930D01*
X0382536Y0231942D01*
X0382381Y0231958D01*
X0382227Y0231978D01*
X0382073Y0232002D01*
X0381919Y0232030D01*
X0381767Y0232061D01*
X0381615Y0232097D01*
X0381464Y0232136D01*
X0381314Y0232179D01*
X0381166Y0232226D01*
X0381018Y0232277D01*
X0380872Y0232332D01*
X0380728Y0232390D01*
X0380585Y0232452D01*
X0380443Y0232517D01*
X0380304Y0232587D01*
X0380166Y0232659D01*
X0380030Y0232736D01*
X0379896Y0232815D01*
X0379764Y0232898D01*
X0379634Y0232985D01*
X0379507Y0233074D01*
X0379382Y0233167D01*
X0379259Y0233263D01*
X0379139Y0233362D01*
X0379021Y0233465D01*
X0378906Y0233570D01*
X0378794Y0233678D01*
X0378684Y0233789D01*
X0378578Y0233902D01*
X0378474Y0234019D01*
X0378373Y0234138D01*
X0378276Y0234259D01*
X0378181Y0234383D01*
X0378090Y0234509D01*
X0378002Y0234638D01*
X0377917Y0234769D01*
X0377836Y0234902D01*
X0377758Y0235037D01*
X0377684Y0235174D01*
X0377613Y0235312D01*
X0377545Y0235453D01*
X0377481Y0235595D01*
X0377421Y0235739D01*
X0377365Y0235884D01*
X0377312Y0236031D01*
X0377263Y0236179D01*
X0377218Y0236328D01*
X0377177Y0236478D01*
X0377140Y0236630D01*
X0377106Y0236782D01*
X0377076Y0236935D01*
X0377051Y0237089D01*
X0377029Y0237243D01*
X0377011Y0237398D01*
X0376997Y0237553D01*
X0376987Y0237708D01*
X0376981Y0237864D01*
X0376979Y0238020D01*
D13*
X0127032Y0197553D02*
X0124430Y0193650D01*
X0122428Y0193650D02*
X0122428Y0196252D01*
X0121127Y0197553D01*
X0119826Y0196252D01*
X0119826Y0193650D01*
X0119826Y0195602D02*
X0122428Y0195602D01*
X0124430Y0197553D02*
X0127032Y0193650D01*
X0117825Y0193650D02*
X0117825Y0197553D01*
X0116523Y0196252D01*
X0115222Y0197553D01*
X0115222Y0193650D01*
X0108617Y0193650D02*
X0108617Y0196252D01*
X0107316Y0197553D01*
X0106014Y0196252D01*
X0106014Y0193650D01*
X0106014Y0195602D02*
X0108617Y0195602D01*
X0104013Y0195602D02*
X0104013Y0194301D01*
X0103362Y0193650D01*
X0102061Y0193650D01*
X0101411Y0194301D01*
X0101411Y0195602D02*
X0102712Y0196252D01*
X0103362Y0196252D01*
X0104013Y0195602D01*
X0104013Y0197553D02*
X0101411Y0197553D01*
X0101411Y0195602D01*
X0095155Y0195602D02*
X0094505Y0195602D01*
X0094505Y0196252D01*
X0095155Y0196252D01*
X0095155Y0195602D01*
X0095155Y0194301D02*
X0095155Y0193650D01*
X0094505Y0193650D01*
X0094505Y0194301D01*
X0095155Y0194301D01*
X0092503Y0193650D02*
X0089901Y0193650D01*
X0089901Y0197553D01*
X0092503Y0197553D01*
X0091202Y0195602D02*
X0089901Y0195602D01*
X0087899Y0194951D02*
X0087899Y0194301D01*
X0087248Y0193650D01*
X0085947Y0193650D01*
X0085297Y0194301D01*
X0085947Y0195602D02*
X0087248Y0195602D01*
X0087899Y0194951D01*
X0087899Y0196903D02*
X0087248Y0197553D01*
X0085947Y0197553D01*
X0085297Y0196903D01*
X0085297Y0196252D01*
X0085947Y0195602D01*
X0083295Y0194301D02*
X0083295Y0197553D01*
X0080693Y0197553D02*
X0080693Y0194301D01*
X0081343Y0193650D01*
X0082645Y0193650D01*
X0083295Y0194301D01*
X0078691Y0197553D02*
X0076089Y0197553D01*
X0076089Y0193650D01*
X0076089Y0195602D02*
X0077390Y0195602D01*
X0076913Y0180467D02*
X0076913Y0178515D01*
X0076263Y0177864D01*
X0075612Y0177864D01*
X0074961Y0178515D01*
X0074961Y0179816D01*
X0075612Y0180467D01*
X0076913Y0180467D01*
X0078214Y0179165D01*
X0078865Y0177864D01*
X0078214Y0175863D02*
X0075612Y0175863D01*
X0078214Y0173260D01*
X0075612Y0173260D01*
X0074961Y0173911D01*
X0074961Y0175212D01*
X0075612Y0175863D01*
X0078214Y0175863D02*
X0078865Y0175212D01*
X0078865Y0173911D01*
X0078214Y0173260D01*
X0078865Y0171259D02*
X0076263Y0171259D01*
X0074961Y0169958D01*
X0076263Y0168656D01*
X0078865Y0168656D01*
X0078865Y0166655D02*
X0078865Y0164703D01*
X0078214Y0164053D01*
X0075612Y0164053D01*
X0074961Y0164703D01*
X0074961Y0166655D01*
X0078865Y0166655D01*
X0078214Y0162051D02*
X0075612Y0162051D01*
X0074961Y0161400D01*
X0074961Y0160099D01*
X0075612Y0159449D01*
X0078214Y0159449D02*
X0078865Y0160099D01*
X0078865Y0161400D01*
X0078214Y0162051D01*
X0086358Y0154234D02*
X0088310Y0154234D01*
X0088960Y0153583D01*
X0088960Y0152282D01*
X0088310Y0151631D01*
X0086358Y0151631D01*
X0086358Y0150330D02*
X0086358Y0154234D01*
X0087659Y0151631D02*
X0088960Y0150330D01*
X0090962Y0150330D02*
X0093564Y0150330D01*
X0092263Y0150330D02*
X0092263Y0154234D01*
X0090962Y0152933D01*
X0095566Y0153583D02*
X0096217Y0154234D01*
X0097518Y0154234D01*
X0098168Y0153583D01*
X0098168Y0152933D01*
X0095566Y0150330D01*
X0098168Y0150330D01*
X0078865Y0150241D02*
X0074961Y0150241D01*
X0074961Y0148239D02*
X0077564Y0148239D01*
X0078865Y0146938D01*
X0077564Y0145637D01*
X0074961Y0145637D01*
X0076913Y0145637D02*
X0076913Y0148239D01*
X0078865Y0150241D02*
X0077564Y0151542D01*
X0078865Y0152843D01*
X0074961Y0152843D01*
X0074961Y0143635D02*
X0078865Y0141033D01*
X0078865Y0143635D02*
X0074961Y0141033D01*
X0044279Y0125867D02*
X0044279Y0123265D01*
X0044279Y0124566D02*
X0040375Y0124566D01*
X0041677Y0123265D01*
X0040375Y0121263D02*
X0040375Y0119962D01*
X0040375Y0120613D02*
X0043628Y0120613D01*
X0044279Y0119962D01*
X0044279Y0119312D01*
X0043628Y0118661D01*
X0069789Y0064151D02*
X0069139Y0063500D01*
X0069139Y0060898D01*
X0069789Y0060248D01*
X0071090Y0060248D01*
X0071741Y0060898D01*
X0073743Y0060248D02*
X0076345Y0060248D01*
X0075044Y0060248D02*
X0075044Y0064151D01*
X0073743Y0062850D01*
X0071741Y0063500D02*
X0071090Y0064151D01*
X0069789Y0064151D01*
X0130789Y0033653D02*
X0130789Y0029750D01*
X0132741Y0029750D01*
X0133391Y0030401D01*
X0133391Y0033003D01*
X0132741Y0033653D01*
X0130789Y0033653D01*
X0135393Y0033653D02*
X0135393Y0029750D01*
X0137995Y0029750D01*
X0139997Y0029750D02*
X0141948Y0029750D01*
X0142599Y0030401D01*
X0142599Y0031051D01*
X0141948Y0031702D01*
X0139997Y0031702D01*
X0139997Y0033653D02*
X0139997Y0029750D01*
X0141948Y0031702D02*
X0142599Y0032352D01*
X0142599Y0033003D01*
X0141948Y0033653D01*
X0139997Y0033653D01*
X0137995Y0033653D02*
X0135393Y0033653D01*
X0135393Y0031702D02*
X0136694Y0031702D01*
X0144601Y0030401D02*
X0145251Y0029750D01*
X0146552Y0029750D01*
X0147203Y0030401D01*
X0147203Y0033653D01*
X0149205Y0033003D02*
X0149205Y0030401D01*
X0149855Y0029750D01*
X0151156Y0029750D01*
X0151807Y0030401D01*
X0151807Y0031702D01*
X0150506Y0031702D01*
X0151807Y0033003D02*
X0151156Y0033653D01*
X0149855Y0033653D01*
X0149205Y0033003D01*
X0144601Y0033653D02*
X0144601Y0030401D01*
X0186986Y0047501D02*
X0187636Y0046850D01*
X0190238Y0046850D01*
X0190889Y0047501D01*
X0190889Y0048802D01*
X0190238Y0049452D01*
X0188937Y0049452D01*
X0188937Y0048151D01*
X0187636Y0049452D02*
X0186986Y0048802D01*
X0186986Y0047501D01*
X0186986Y0051454D02*
X0190889Y0054056D01*
X0186986Y0054056D01*
X0186986Y0056058D02*
X0186986Y0058010D01*
X0187636Y0058660D01*
X0190238Y0058660D01*
X0190889Y0058010D01*
X0190889Y0056058D01*
X0186986Y0056058D01*
X0186986Y0051454D02*
X0190889Y0051454D01*
X0196986Y0052104D02*
X0197636Y0051454D01*
X0200238Y0051454D01*
X0200889Y0052104D01*
X0200889Y0053406D01*
X0200238Y0054056D01*
X0200238Y0056058D02*
X0200889Y0056708D01*
X0200889Y0058010D01*
X0200238Y0058660D01*
X0197636Y0058660D02*
X0196986Y0058010D01*
X0196986Y0056708D01*
X0197636Y0056058D01*
X0200238Y0056058D01*
X0197636Y0054056D02*
X0196986Y0053406D01*
X0196986Y0052104D01*
X0196986Y0049452D02*
X0199588Y0049452D01*
X0200889Y0048151D01*
X0199588Y0046850D01*
X0196986Y0046850D01*
X0206986Y0047501D02*
X0207636Y0046850D01*
X0208287Y0046850D01*
X0208937Y0047501D01*
X0208937Y0048802D01*
X0209588Y0049452D01*
X0210238Y0049452D01*
X0210889Y0048802D01*
X0210889Y0047501D01*
X0210238Y0046850D01*
X0206986Y0047501D02*
X0206986Y0048802D01*
X0207636Y0049452D01*
X0206986Y0051454D02*
X0206986Y0053406D01*
X0207636Y0054056D01*
X0210238Y0054056D01*
X0210889Y0053406D01*
X0210889Y0051454D01*
X0206986Y0051454D01*
X0208287Y0056058D02*
X0206986Y0057359D01*
X0208287Y0058660D01*
X0210889Y0058660D01*
X0208937Y0058660D02*
X0208937Y0056058D01*
X0208287Y0056058D02*
X0210889Y0056058D01*
X0216986Y0056058D02*
X0220889Y0056058D01*
X0220889Y0058660D01*
X0220238Y0054056D02*
X0220889Y0053406D01*
X0220889Y0052104D01*
X0220238Y0051454D01*
X0217636Y0051454D01*
X0216986Y0052104D01*
X0216986Y0053406D01*
X0217636Y0054056D01*
X0217636Y0049452D02*
X0216986Y0048802D01*
X0216986Y0047501D01*
X0217636Y0046850D01*
X0218287Y0046850D01*
X0218937Y0047501D01*
X0218937Y0048802D01*
X0219588Y0049452D01*
X0220238Y0049452D01*
X0220889Y0048802D01*
X0220889Y0047501D01*
X0220238Y0046850D01*
X0226986Y0047501D02*
X0227636Y0046850D01*
X0228287Y0046850D01*
X0228937Y0047501D01*
X0228937Y0048802D01*
X0229588Y0049452D01*
X0230238Y0049452D01*
X0230889Y0048802D01*
X0230889Y0047501D01*
X0230238Y0046850D01*
X0226986Y0047501D02*
X0226986Y0048802D01*
X0227636Y0049452D01*
X0227636Y0051454D02*
X0226986Y0052104D01*
X0226986Y0053406D01*
X0227636Y0054056D01*
X0230238Y0054056D01*
X0230889Y0053406D01*
X0230889Y0052104D01*
X0230238Y0051454D01*
X0227636Y0051454D01*
X0229588Y0052755D02*
X0230889Y0054056D01*
X0230889Y0056058D02*
X0229588Y0057359D01*
X0230889Y0058660D01*
X0226986Y0058660D01*
X0226986Y0056058D02*
X0230889Y0056058D01*
X0236986Y0056058D02*
X0240889Y0056058D01*
X0239588Y0056058D02*
X0236986Y0058660D01*
X0238937Y0056708D02*
X0240889Y0058660D01*
X0240889Y0054056D02*
X0240889Y0051454D01*
X0238287Y0054056D01*
X0237636Y0054056D01*
X0236986Y0053406D01*
X0236986Y0052104D01*
X0237636Y0051454D01*
X0237636Y0049452D02*
X0238287Y0049452D01*
X0238937Y0048802D01*
X0239588Y0049452D01*
X0240238Y0049452D01*
X0240889Y0048802D01*
X0240889Y0047501D01*
X0240238Y0046850D01*
X0238937Y0048151D02*
X0238937Y0048802D01*
X0237636Y0049452D02*
X0236986Y0048802D01*
X0236986Y0047501D01*
X0237636Y0046850D01*
D14*
X0281075Y0048022D02*
X0286580Y0048022D01*
X0286580Y0049857D02*
X0286580Y0046187D01*
X0286580Y0043411D02*
X0281075Y0043411D01*
X0282910Y0043411D02*
X0282910Y0040659D01*
X0283827Y0039742D01*
X0285662Y0039742D01*
X0286580Y0040659D01*
X0286580Y0043411D01*
X0282910Y0041576D02*
X0281075Y0039742D01*
X0281992Y0036966D02*
X0281075Y0036048D01*
X0281075Y0034213D01*
X0281992Y0033296D01*
X0285662Y0033296D01*
X0286580Y0034213D01*
X0286580Y0036048D01*
X0285662Y0036966D01*
X0281992Y0036966D01*
X0281075Y0030520D02*
X0281075Y0026851D01*
X0281075Y0024075D02*
X0281075Y0020405D01*
X0281075Y0017629D02*
X0281075Y0013960D01*
X0281075Y0011184D02*
X0286580Y0011184D01*
X0286580Y0008432D01*
X0285662Y0007514D01*
X0283827Y0007514D01*
X0282910Y0008432D01*
X0282910Y0011184D01*
X0282910Y0009349D02*
X0281075Y0007514D01*
X0286580Y0013960D02*
X0286580Y0017629D01*
X0281075Y0017629D01*
X0283827Y0017629D02*
X0283827Y0015794D01*
X0286580Y0024075D02*
X0281075Y0024075D01*
X0281075Y0030520D02*
X0286580Y0030520D01*
X0286580Y0052633D02*
X0281075Y0052633D01*
X0286580Y0056302D01*
X0281075Y0056302D01*
X0281992Y0059078D02*
X0285662Y0059078D01*
X0286580Y0059995D01*
X0286580Y0061830D01*
X0285662Y0062748D01*
X0281992Y0062748D01*
X0281075Y0061830D01*
X0281075Y0059995D01*
X0281992Y0059078D01*
X0281992Y0065524D02*
X0281075Y0066441D01*
X0281075Y0068276D01*
X0281992Y0069193D01*
X0285662Y0069193D01*
X0286580Y0068276D01*
X0286580Y0066441D01*
X0285662Y0065524D01*
X0286580Y0078415D02*
X0286580Y0082084D01*
X0281075Y0082084D01*
X0281075Y0078415D01*
X0283827Y0080249D02*
X0283827Y0082084D01*
X0281075Y0084860D02*
X0286580Y0084860D01*
X0286580Y0088530D02*
X0281075Y0088530D01*
X0281075Y0090992D02*
X0281075Y0092827D01*
X0281075Y0091909D02*
X0286580Y0091909D01*
X0286580Y0090992D02*
X0286580Y0092827D01*
X0286580Y0095603D02*
X0281075Y0095603D01*
X0283827Y0095603D02*
X0283827Y0099272D01*
X0281075Y0099272D02*
X0286580Y0099272D01*
X0285662Y0102048D02*
X0286580Y0102965D01*
X0286580Y0104800D01*
X0285662Y0105718D01*
X0281992Y0105718D01*
X0281075Y0104800D01*
X0281075Y0102965D01*
X0281992Y0102048D01*
X0281075Y0108494D02*
X0284745Y0108494D01*
X0286580Y0110328D01*
X0284745Y0112163D01*
X0281075Y0112163D01*
X0283827Y0112163D02*
X0283827Y0108494D01*
X0281075Y0114939D02*
X0286580Y0114939D01*
X0284745Y0116774D01*
X0286580Y0118609D01*
X0281075Y0118609D01*
X0281992Y0127830D02*
X0285662Y0127830D01*
X0286580Y0128747D01*
X0286580Y0131500D01*
X0281075Y0131500D01*
X0281075Y0128747D01*
X0281992Y0127830D01*
X0281075Y0133962D02*
X0281075Y0135797D01*
X0281075Y0134879D02*
X0286580Y0134879D01*
X0286580Y0133962D02*
X0286580Y0135797D01*
X0286580Y0138573D02*
X0286580Y0142242D01*
X0281075Y0142242D01*
X0283827Y0142242D02*
X0283827Y0140407D01*
X0283827Y0145018D02*
X0282910Y0145935D01*
X0282910Y0148688D01*
X0282910Y0146853D02*
X0281075Y0145018D01*
X0283827Y0145018D02*
X0285662Y0145018D01*
X0286580Y0145935D01*
X0286580Y0148688D01*
X0281075Y0148688D01*
X0215189Y0148229D02*
X0215189Y0144559D01*
X0209684Y0144559D01*
X0209684Y0148229D01*
X0212437Y0146394D02*
X0212437Y0144559D01*
X0215189Y0141784D02*
X0215189Y0138114D01*
X0209684Y0138114D01*
X0209684Y0135338D02*
X0214272Y0135338D01*
X0215189Y0134421D01*
X0215189Y0132586D01*
X0214272Y0131668D01*
X0209684Y0131668D01*
X0210602Y0128893D02*
X0209684Y0127975D01*
X0209684Y0125223D01*
X0215189Y0125223D01*
X0215189Y0127975D01*
X0214272Y0128893D01*
X0210602Y0128893D01*
X0210602Y0122447D02*
X0209684Y0121530D01*
X0209684Y0119695D01*
X0210602Y0118777D01*
X0214272Y0118777D01*
X0215189Y0119695D01*
X0215189Y0121530D01*
X0214272Y0122447D01*
X0210602Y0122447D01*
X0204689Y0122447D02*
X0204689Y0118777D01*
X0204689Y0120612D02*
X0199184Y0120612D01*
X0201019Y0118777D01*
X0201019Y0116002D02*
X0201937Y0115084D01*
X0202854Y0116002D01*
X0203772Y0116002D01*
X0204689Y0115084D01*
X0204689Y0113249D01*
X0203772Y0112332D01*
X0201937Y0114167D02*
X0201937Y0115084D01*
X0201019Y0116002D02*
X0200102Y0116002D01*
X0199184Y0115084D01*
X0199184Y0113249D01*
X0200102Y0112332D01*
X0200102Y0109556D02*
X0199184Y0108639D01*
X0199184Y0106804D01*
X0200102Y0105886D01*
X0200102Y0103111D02*
X0201019Y0103111D01*
X0201937Y0102193D01*
X0202854Y0103111D01*
X0203772Y0103111D01*
X0204689Y0102193D01*
X0204689Y0100358D01*
X0203772Y0099441D01*
X0201937Y0101276D02*
X0201937Y0102193D01*
X0200102Y0103111D02*
X0199184Y0102193D01*
X0199184Y0100358D01*
X0200102Y0099441D01*
X0200102Y0096665D02*
X0199184Y0095748D01*
X0199184Y0093913D01*
X0200102Y0092995D01*
X0201019Y0092995D01*
X0201937Y0093913D01*
X0201937Y0095748D01*
X0202854Y0096665D01*
X0203772Y0096665D01*
X0204689Y0095748D01*
X0204689Y0093913D01*
X0203772Y0092995D01*
X0203772Y0090220D02*
X0200102Y0090220D01*
X0199184Y0089302D01*
X0199184Y0086550D01*
X0204689Y0086550D01*
X0204689Y0089302D01*
X0203772Y0090220D01*
X0209684Y0089302D02*
X0209684Y0086550D01*
X0215189Y0086550D01*
X0213354Y0086550D02*
X0213354Y0089302D01*
X0212437Y0090220D01*
X0210602Y0090220D01*
X0209684Y0089302D01*
X0213354Y0088385D02*
X0215189Y0090220D01*
X0209684Y0092995D02*
X0209684Y0096665D01*
X0209684Y0094830D02*
X0215189Y0094830D01*
X0214272Y0099441D02*
X0210602Y0099441D01*
X0209684Y0100358D01*
X0209684Y0102193D01*
X0210602Y0103111D01*
X0214272Y0103111D02*
X0215189Y0102193D01*
X0215189Y0100358D01*
X0214272Y0099441D01*
X0204689Y0105886D02*
X0201019Y0109556D01*
X0200102Y0109556D01*
X0204689Y0109556D02*
X0204689Y0105886D01*
X0209684Y0112332D02*
X0211519Y0114167D01*
X0209684Y0116002D01*
X0215189Y0116002D01*
X0215189Y0112332D02*
X0209684Y0112332D01*
X0281075Y0084860D02*
X0286580Y0088530D01*
D15*
X0379386Y0087818D02*
X0379386Y0085750D01*
X0382489Y0085750D01*
X0380938Y0085750D02*
X0380938Y0086784D01*
X0382489Y0089433D02*
X0379386Y0089433D01*
X0382489Y0089433D02*
X0382489Y0091502D01*
X0382489Y0093116D02*
X0380421Y0093116D01*
X0379386Y0094151D01*
X0380421Y0095185D01*
X0382489Y0095185D01*
X0380938Y0095185D02*
X0380938Y0093116D01*
X0380421Y0096799D02*
X0380938Y0097317D01*
X0380938Y0098351D01*
X0381455Y0098868D01*
X0381972Y0098868D01*
X0382489Y0098351D01*
X0382489Y0097317D01*
X0381972Y0096799D01*
X0380421Y0096799D02*
X0379903Y0096799D01*
X0379386Y0097317D01*
X0379386Y0098351D01*
X0379903Y0098868D01*
X0379386Y0100483D02*
X0382489Y0100483D01*
X0380938Y0100483D02*
X0380938Y0102551D01*
X0382489Y0102551D02*
X0379386Y0102551D01*
X0379386Y0075051D02*
X0379386Y0072983D01*
X0379386Y0074017D02*
X0382489Y0074017D01*
X0382489Y0071368D02*
X0382489Y0069299D01*
X0379386Y0069299D01*
X0379386Y0071368D01*
X0380938Y0070334D02*
X0380938Y0069299D01*
X0381455Y0067685D02*
X0381972Y0067685D01*
X0382489Y0067168D01*
X0382489Y0066133D01*
X0381972Y0065616D01*
X0380938Y0066133D02*
X0380938Y0067168D01*
X0381455Y0067685D01*
X0379903Y0067685D02*
X0379386Y0067168D01*
X0379386Y0066133D01*
X0379903Y0065616D01*
X0380421Y0065616D01*
X0380938Y0066133D01*
X0382489Y0064002D02*
X0382489Y0061933D01*
X0379386Y0061933D01*
X0379386Y0064002D01*
X0380938Y0062967D02*
X0380938Y0061933D01*
X0380938Y0060318D02*
X0381455Y0059801D01*
X0381455Y0058250D01*
X0382489Y0058250D02*
X0379386Y0058250D01*
X0379386Y0059801D01*
X0379903Y0060318D01*
X0380938Y0060318D01*
X0381455Y0059284D02*
X0382489Y0060318D01*
X0300357Y0156909D02*
X0298289Y0156909D01*
X0299323Y0156909D02*
X0299323Y0160012D01*
X0298289Y0158977D01*
X0296674Y0159495D02*
X0296157Y0160012D01*
X0295123Y0160012D01*
X0294606Y0159495D01*
X0294606Y0157426D01*
X0295123Y0156909D01*
X0296157Y0156909D01*
X0296674Y0157426D01*
X0293185Y0156909D02*
X0292150Y0156909D01*
X0292667Y0156909D02*
X0292667Y0160012D01*
X0292150Y0160012D02*
X0293185Y0160012D01*
X0261382Y0189016D02*
X0259314Y0189016D01*
X0260348Y0189016D02*
X0260348Y0192119D01*
X0259314Y0191085D01*
X0257699Y0191602D02*
X0257182Y0192119D01*
X0255631Y0192119D01*
X0255631Y0189016D01*
X0257182Y0189016D01*
X0257699Y0189533D01*
X0257699Y0191602D01*
X0206489Y0211666D02*
X0203386Y0211666D01*
X0203386Y0213217D01*
X0203903Y0213734D01*
X0204938Y0213734D01*
X0205455Y0213217D01*
X0205455Y0211666D01*
X0205455Y0212700D02*
X0206489Y0213734D01*
X0206489Y0215349D02*
X0203386Y0215349D01*
X0203386Y0217417D01*
X0203386Y0219032D02*
X0206489Y0219032D01*
X0206489Y0221100D01*
X0206489Y0222715D02*
X0204421Y0222715D01*
X0203386Y0223749D01*
X0204421Y0224784D01*
X0206489Y0224784D01*
X0204938Y0224784D02*
X0204938Y0222715D01*
X0203903Y0226398D02*
X0204938Y0227433D01*
X0206489Y0227433D01*
X0204938Y0227433D02*
X0203903Y0228467D01*
X0203386Y0228467D01*
X0203386Y0226398D02*
X0203903Y0226398D01*
X0200489Y0224266D02*
X0199972Y0224784D01*
X0200489Y0224266D02*
X0200489Y0223232D01*
X0199972Y0222715D01*
X0197903Y0222715D01*
X0197386Y0223232D01*
X0197386Y0224266D01*
X0197903Y0224784D01*
X0198938Y0226398D02*
X0198938Y0228467D01*
X0198421Y0230081D02*
X0198938Y0230599D01*
X0198938Y0231633D01*
X0199455Y0232150D01*
X0199972Y0232150D01*
X0200489Y0231633D01*
X0200489Y0230599D01*
X0199972Y0230081D01*
X0198421Y0230081D02*
X0197903Y0230081D01*
X0197386Y0230599D01*
X0197386Y0231633D01*
X0197903Y0232150D01*
X0197386Y0233765D02*
X0200489Y0233765D01*
X0200489Y0235833D01*
X0198938Y0237448D02*
X0198938Y0239516D01*
X0199972Y0241131D02*
X0200489Y0241648D01*
X0200489Y0242682D01*
X0199972Y0243199D01*
X0199972Y0241131D02*
X0197903Y0241131D01*
X0197386Y0241648D01*
X0197386Y0242682D01*
X0197903Y0243199D01*
X0197903Y0221100D02*
X0197386Y0220583D01*
X0197386Y0219032D01*
X0200489Y0219032D01*
X0200489Y0220583D01*
X0199972Y0221100D01*
X0197903Y0221100D01*
X0197386Y0217417D02*
X0199455Y0217417D01*
X0200489Y0216383D01*
X0199455Y0215349D01*
X0197386Y0215349D01*
X0197386Y0213734D02*
X0197386Y0211666D01*
X0198938Y0211666D01*
X0198421Y0212700D01*
X0198421Y0213217D01*
X0198938Y0213734D01*
X0199972Y0213734D01*
X0200489Y0213217D01*
X0200489Y0212183D01*
X0199972Y0211666D01*
X0199972Y0210051D02*
X0200489Y0209534D01*
X0200489Y0208500D01*
X0199972Y0207983D01*
X0197903Y0210051D01*
X0199972Y0210051D01*
X0199972Y0207983D02*
X0197903Y0207983D01*
X0197386Y0208500D01*
X0197386Y0209534D01*
X0197903Y0210051D01*
X0198938Y0206368D02*
X0198938Y0204299D01*
X0199972Y0202685D02*
X0197903Y0202685D01*
X0197386Y0202168D01*
X0197386Y0200616D01*
X0200489Y0200616D01*
X0200489Y0202168D01*
X0199972Y0202685D01*
X0200489Y0199002D02*
X0199455Y0197967D01*
X0199455Y0198484D02*
X0199455Y0196933D01*
X0200489Y0196933D02*
X0197386Y0196933D01*
X0197386Y0198484D01*
X0197903Y0199002D01*
X0198938Y0199002D01*
X0199455Y0198484D01*
X0199455Y0195318D02*
X0199972Y0195318D01*
X0200489Y0194801D01*
X0200489Y0193767D01*
X0199972Y0193250D01*
X0198938Y0193767D02*
X0198938Y0194801D01*
X0199455Y0195318D01*
X0197903Y0195318D02*
X0197386Y0194801D01*
X0197386Y0193767D01*
X0197903Y0193250D01*
X0198421Y0193250D01*
X0198938Y0193767D01*
X0204938Y0215349D02*
X0204938Y0216383D01*
X0206489Y0215349D02*
X0206489Y0217417D01*
X0248487Y0225970D02*
X0248487Y0229073D01*
X0250039Y0229073D01*
X0250556Y0228556D01*
X0250556Y0227522D01*
X0250039Y0227005D01*
X0248487Y0227005D01*
X0249521Y0227005D02*
X0250556Y0225970D01*
X0252170Y0226488D02*
X0252687Y0225970D01*
X0253722Y0225970D01*
X0254239Y0226488D01*
X0254239Y0228556D01*
X0253722Y0229073D01*
X0252687Y0229073D01*
X0252170Y0228556D01*
X0252170Y0228039D01*
X0252687Y0227522D01*
X0254239Y0227522D01*
X0257804Y0226879D02*
X0259355Y0226879D01*
X0259873Y0227396D01*
X0259873Y0228430D01*
X0259355Y0228947D01*
X0257804Y0228947D01*
X0257804Y0225844D01*
X0258838Y0226879D02*
X0259873Y0225844D01*
X0261487Y0225844D02*
X0263556Y0225844D01*
X0262521Y0225844D02*
X0262521Y0228947D01*
X0261487Y0227913D01*
X0265170Y0228430D02*
X0265170Y0226362D01*
X0267239Y0228430D01*
X0267239Y0226362D01*
X0266722Y0225844D01*
X0265688Y0225844D01*
X0265170Y0226362D01*
X0265170Y0228430D02*
X0265688Y0228947D01*
X0266722Y0228947D01*
X0267239Y0228430D01*
X0265229Y0239041D02*
X0265229Y0241110D01*
X0265229Y0240075D02*
X0268331Y0240075D01*
X0268331Y0242724D02*
X0268331Y0244793D01*
X0268331Y0243759D02*
X0265229Y0243759D01*
X0266263Y0242724D01*
X0292417Y0229871D02*
X0292417Y0229354D01*
X0292934Y0228837D01*
X0293968Y0228837D01*
X0294485Y0228320D01*
X0294485Y0227803D01*
X0293968Y0227285D01*
X0292934Y0227285D01*
X0292417Y0227803D01*
X0292417Y0229871D02*
X0292934Y0230388D01*
X0293968Y0230388D01*
X0294485Y0229871D01*
X0296100Y0230388D02*
X0296100Y0227285D01*
X0296100Y0228320D02*
X0297651Y0228320D01*
X0298168Y0228837D01*
X0298168Y0229871D01*
X0297651Y0230388D01*
X0296100Y0230388D01*
X0299783Y0229354D02*
X0300817Y0230388D01*
X0300817Y0227285D01*
X0299783Y0227285D02*
X0301851Y0227285D01*
X0321123Y0237545D02*
X0321123Y0239097D01*
X0321640Y0239614D01*
X0322674Y0239614D01*
X0323191Y0239097D01*
X0323191Y0237545D01*
X0324225Y0237545D02*
X0321123Y0237545D01*
X0323191Y0238579D02*
X0324225Y0239614D01*
X0324225Y0241228D02*
X0324225Y0243297D01*
X0324225Y0242263D02*
X0321123Y0242263D01*
X0322157Y0241228D01*
X0321640Y0244912D02*
X0321123Y0245429D01*
X0321123Y0246463D01*
X0321640Y0246980D01*
X0322157Y0246980D01*
X0322674Y0246463D01*
X0323191Y0246980D01*
X0323708Y0246980D01*
X0324225Y0246463D01*
X0324225Y0245429D01*
X0323708Y0244912D01*
X0322674Y0245946D02*
X0322674Y0246463D01*
X0334294Y0249510D02*
X0336363Y0249510D01*
X0335329Y0249510D02*
X0335329Y0246407D01*
X0337977Y0246407D02*
X0340046Y0248476D01*
X0340046Y0248993D01*
X0339529Y0249510D01*
X0338495Y0249510D01*
X0337977Y0248993D01*
X0337977Y0246407D02*
X0340046Y0246407D01*
X0358969Y0243776D02*
X0358969Y0242741D01*
X0359486Y0242224D01*
X0360003Y0242224D01*
X0360520Y0242741D01*
X0360520Y0243776D01*
X0361037Y0244293D01*
X0361555Y0244293D01*
X0362072Y0243776D01*
X0362072Y0242741D01*
X0361555Y0242224D01*
X0361037Y0242224D01*
X0360520Y0242741D01*
X0360520Y0243776D02*
X0360003Y0244293D01*
X0359486Y0244293D01*
X0358969Y0243776D01*
X0359486Y0240610D02*
X0358969Y0240093D01*
X0358969Y0239058D01*
X0359486Y0238541D01*
X0361555Y0238541D01*
X0362072Y0239058D01*
X0362072Y0240093D01*
X0361555Y0240610D01*
X0346824Y0231594D02*
X0346824Y0229526D01*
X0346824Y0230560D02*
X0343721Y0230560D01*
X0344755Y0229526D01*
X0346824Y0227911D02*
X0346824Y0225843D01*
X0346824Y0226877D02*
X0343721Y0226877D01*
X0344755Y0225843D01*
X0344238Y0224228D02*
X0345272Y0224228D01*
X0345789Y0223711D01*
X0345789Y0222159D01*
X0346824Y0222159D02*
X0343721Y0222159D01*
X0343721Y0223711D01*
X0344238Y0224228D01*
X0345789Y0223194D02*
X0346824Y0224228D01*
X0116186Y0162966D02*
X0116186Y0160898D01*
X0116186Y0161932D02*
X0113083Y0161932D01*
X0114117Y0160898D01*
X0113600Y0159283D02*
X0113083Y0158766D01*
X0113083Y0157732D01*
X0113600Y0157214D01*
X0115669Y0157214D01*
X0116186Y0157732D01*
X0116186Y0158766D01*
X0115669Y0159283D01*
X0115669Y0155600D02*
X0113600Y0155600D01*
X0113083Y0155083D01*
X0113083Y0154048D01*
X0113600Y0153531D01*
X0115669Y0153531D01*
X0116186Y0154048D01*
X0116186Y0155083D01*
X0115669Y0155600D01*
X0070204Y0154809D02*
X0067619Y0154809D01*
X0067102Y0155326D01*
X0067102Y0156360D01*
X0067619Y0156877D01*
X0070204Y0156877D01*
X0069687Y0158492D02*
X0070204Y0159009D01*
X0070204Y0160043D01*
X0069687Y0160560D01*
X0067619Y0160560D01*
X0067102Y0160043D01*
X0067102Y0159009D01*
X0067619Y0158492D01*
X0069687Y0158492D01*
X0069687Y0162175D02*
X0070204Y0162692D01*
X0070204Y0163726D01*
X0069687Y0164243D01*
X0067619Y0164243D01*
X0067102Y0163726D01*
X0067102Y0162692D01*
X0067619Y0162175D01*
X0064204Y0162175D02*
X0064204Y0164243D01*
X0064204Y0163209D02*
X0061102Y0163209D01*
X0061102Y0160560D02*
X0064204Y0160560D01*
X0064204Y0159009D01*
X0063687Y0158492D01*
X0062653Y0158492D01*
X0062136Y0159009D01*
X0062136Y0160560D01*
X0061619Y0156877D02*
X0061102Y0156360D01*
X0061102Y0155326D01*
X0061619Y0154809D01*
X0064204Y0154809D01*
X0064204Y0153194D02*
X0064204Y0151126D01*
X0064204Y0152160D02*
X0061102Y0152160D01*
X0061619Y0156877D02*
X0064204Y0156877D01*
X0067102Y0153194D02*
X0070204Y0153194D01*
X0070204Y0151643D01*
X0069687Y0151126D01*
X0068653Y0151126D01*
X0068136Y0151643D01*
X0068136Y0153194D01*
X0067102Y0149511D02*
X0067102Y0147442D01*
X0067102Y0145828D02*
X0067102Y0143759D01*
X0067102Y0142145D02*
X0067102Y0140593D01*
X0067619Y0140076D01*
X0069687Y0140076D01*
X0070204Y0140593D01*
X0070204Y0142145D01*
X0067102Y0142145D01*
X0068653Y0144793D02*
X0068653Y0145828D01*
X0070204Y0145828D02*
X0067102Y0145828D01*
X0070204Y0145828D02*
X0070204Y0143759D01*
X0070204Y0149511D02*
X0067102Y0149511D01*
X0067619Y0165858D02*
X0069687Y0165858D01*
X0070204Y0166375D01*
X0070204Y0167409D01*
X0069687Y0167927D01*
X0067619Y0167927D01*
X0067102Y0167409D01*
X0067102Y0166375D01*
X0067619Y0165858D01*
X0064204Y0165858D02*
X0061619Y0165858D01*
X0061102Y0166375D01*
X0061102Y0167409D01*
X0061619Y0167927D01*
X0064204Y0167927D01*
X0063687Y0169541D02*
X0064204Y0170058D01*
X0064204Y0171093D01*
X0063687Y0171610D01*
X0061619Y0171610D01*
X0061102Y0171093D01*
X0061102Y0170058D01*
X0061619Y0169541D01*
X0063687Y0169541D01*
X0067102Y0170575D02*
X0070204Y0170575D01*
X0070204Y0169541D02*
X0070204Y0171610D01*
X0069687Y0173224D02*
X0070204Y0173742D01*
X0070204Y0175293D01*
X0067102Y0175293D01*
X0068136Y0175293D02*
X0068136Y0173742D01*
X0068653Y0173224D01*
X0069687Y0173224D01*
X0069687Y0176908D02*
X0070204Y0177425D01*
X0070204Y0178459D01*
X0069687Y0178976D01*
X0067619Y0178976D01*
X0067102Y0178459D01*
X0067102Y0177425D01*
X0067619Y0176908D01*
X0069687Y0176908D01*
X0063564Y0075530D02*
X0064081Y0075013D01*
X0064081Y0074496D01*
X0063564Y0073978D01*
X0064081Y0073461D01*
X0064081Y0072944D01*
X0063564Y0072427D01*
X0062530Y0072427D01*
X0062013Y0072944D01*
X0063047Y0073978D02*
X0063564Y0073978D01*
X0063564Y0075530D02*
X0062530Y0075530D01*
X0062013Y0075013D01*
X0060398Y0075013D02*
X0060398Y0072944D01*
X0059881Y0072427D01*
X0058330Y0072427D01*
X0058330Y0075530D01*
X0059881Y0075530D01*
X0060398Y0075013D01*
X0117688Y0037847D02*
X0120790Y0037847D01*
X0120790Y0036813D02*
X0120790Y0038881D01*
X0118722Y0036813D02*
X0117688Y0037847D01*
X0118205Y0035198D02*
X0117688Y0034681D01*
X0117688Y0033647D01*
X0118205Y0033130D01*
X0118722Y0033130D01*
X0119239Y0033647D01*
X0119239Y0034681D01*
X0119756Y0035198D01*
X0120273Y0035198D01*
X0120790Y0034681D01*
X0120790Y0033647D01*
X0120273Y0033130D01*
X0119756Y0031515D02*
X0117688Y0031515D01*
X0119756Y0031515D02*
X0120790Y0030481D01*
X0119756Y0029447D01*
X0117688Y0029447D01*
X0117688Y0027832D02*
X0117688Y0025763D01*
X0117688Y0026798D02*
X0120790Y0026798D01*
X0126886Y0014002D02*
X0128955Y0014002D01*
X0129989Y0012967D01*
X0128955Y0011933D01*
X0126886Y0011933D01*
X0126886Y0010318D02*
X0126886Y0008250D01*
X0128438Y0008250D01*
X0127921Y0009284D01*
X0127921Y0009801D01*
X0128438Y0010318D01*
X0129472Y0010318D01*
X0129989Y0009801D01*
X0129989Y0008767D01*
X0129472Y0008250D01*
X0136386Y0007301D02*
X0136386Y0006267D01*
X0136903Y0005750D01*
X0138972Y0005750D01*
X0139489Y0006267D01*
X0139489Y0007301D01*
X0138972Y0007818D01*
X0137938Y0007818D01*
X0137938Y0006784D01*
X0136903Y0007818D02*
X0136386Y0007301D01*
X0136386Y0009433D02*
X0139489Y0011502D01*
X0136386Y0011502D01*
X0136386Y0013116D02*
X0136386Y0014668D01*
X0136903Y0015185D01*
X0138972Y0015185D01*
X0139489Y0014668D01*
X0139489Y0013116D01*
X0136386Y0013116D01*
X0136386Y0009433D02*
X0139489Y0009433D01*
X0146386Y0009301D02*
X0146903Y0009818D01*
X0147938Y0009818D01*
X0148455Y0009301D01*
X0148455Y0007750D01*
X0149489Y0007750D02*
X0146386Y0007750D01*
X0146386Y0009301D01*
X0146386Y0011433D02*
X0149489Y0013502D01*
X0149489Y0011433D02*
X0146386Y0013502D01*
X0149489Y0009818D02*
X0148455Y0008784D01*
X0156386Y0008784D02*
X0159489Y0008784D01*
X0159489Y0011433D02*
X0156386Y0013502D01*
X0156386Y0011433D02*
X0159489Y0013502D01*
X0156386Y0009818D02*
X0156386Y0007750D01*
D16*
X0309665Y0010167D02*
X0311133Y0008699D01*
X0312601Y0010167D01*
X0312601Y0013103D01*
X0314821Y0013103D02*
X0314821Y0008699D01*
X0317757Y0008699D01*
X0319978Y0008699D02*
X0319978Y0013103D01*
X0322180Y0013103D01*
X0322914Y0012369D01*
X0322914Y0010901D01*
X0322180Y0010167D01*
X0319978Y0010167D01*
X0321446Y0010167D02*
X0322914Y0008699D01*
X0325134Y0009433D02*
X0325868Y0008699D01*
X0327336Y0008699D01*
X0328070Y0009433D01*
X0328070Y0010167D01*
X0327336Y0010901D01*
X0325868Y0010901D01*
X0325134Y0011635D01*
X0325134Y0012369D01*
X0325868Y0013103D01*
X0327336Y0013103D01*
X0328070Y0012369D01*
X0330291Y0013103D02*
X0331758Y0013103D01*
X0331025Y0013103D02*
X0331025Y0008699D01*
X0331758Y0008699D02*
X0330291Y0008699D01*
X0333728Y0009433D02*
X0333728Y0012369D01*
X0334462Y0013103D01*
X0335930Y0013103D01*
X0336664Y0012369D01*
X0336664Y0009433D01*
X0335930Y0008699D01*
X0334462Y0008699D01*
X0333728Y0009433D01*
X0338885Y0008699D02*
X0338885Y0013103D01*
X0341820Y0008699D01*
X0341820Y0013103D01*
X0349197Y0011635D02*
X0350665Y0013103D01*
X0350665Y0008699D01*
X0349197Y0008699D02*
X0352133Y0008699D01*
X0354354Y0008699D02*
X0355088Y0008699D01*
X0355088Y0009433D01*
X0354354Y0009433D01*
X0354354Y0008699D01*
X0356932Y0008699D02*
X0359868Y0008699D01*
X0358400Y0008699D02*
X0358400Y0013103D01*
X0356932Y0011635D01*
X0317757Y0013103D02*
X0314821Y0013103D01*
X0314821Y0010901D02*
X0316289Y0010901D01*
X0309665Y0010167D02*
X0309665Y0013103D01*
X0317539Y0068400D02*
X0320475Y0068400D01*
X0322695Y0069134D02*
X0323429Y0068400D01*
X0324897Y0068400D01*
X0325631Y0069134D01*
X0325631Y0069868D01*
X0324897Y0070602D01*
X0323429Y0070602D01*
X0322695Y0071336D01*
X0322695Y0072070D01*
X0323429Y0072804D01*
X0324897Y0072804D01*
X0325631Y0072070D01*
X0327852Y0072804D02*
X0330054Y0072804D01*
X0330788Y0072070D01*
X0330788Y0070602D01*
X0330054Y0069868D01*
X0327852Y0069868D01*
X0327852Y0068400D02*
X0327852Y0072804D01*
X0320475Y0072804D02*
X0317539Y0072804D01*
X0317539Y0068400D01*
X0317539Y0070602D02*
X0319007Y0070602D01*
X0333008Y0070602D02*
X0335944Y0070602D01*
X0338165Y0071336D02*
X0339632Y0072804D01*
X0339632Y0068400D01*
X0338165Y0068400D02*
X0341100Y0068400D01*
X0343321Y0068400D02*
X0346257Y0071336D01*
X0346257Y0072070D01*
X0345523Y0072804D01*
X0344055Y0072804D01*
X0343321Y0072070D01*
X0343321Y0068400D02*
X0346257Y0068400D01*
X0372169Y0173900D02*
X0372903Y0173900D01*
X0373637Y0174634D01*
X0373637Y0176102D01*
X0374371Y0176836D01*
X0375105Y0176836D01*
X0375839Y0176102D01*
X0375839Y0174634D01*
X0375105Y0173900D01*
X0372169Y0173900D02*
X0371435Y0174634D01*
X0371435Y0176102D01*
X0372169Y0176836D01*
X0371435Y0179056D02*
X0371435Y0181258D01*
X0372169Y0181992D01*
X0375105Y0181992D01*
X0375839Y0181258D01*
X0375839Y0179056D01*
X0371435Y0179056D01*
X0373637Y0184213D02*
X0373637Y0187149D01*
X0372169Y0189369D02*
X0375105Y0189369D01*
X0375839Y0190103D01*
X0375839Y0191571D01*
X0375105Y0192305D01*
X0375839Y0194526D02*
X0372903Y0194526D01*
X0371435Y0195994D01*
X0372903Y0197461D01*
X0375839Y0197461D01*
X0373637Y0197461D02*
X0373637Y0194526D01*
X0372169Y0192305D02*
X0371435Y0191571D01*
X0371435Y0190103D01*
X0372169Y0189369D01*
X0371435Y0199682D02*
X0371435Y0201884D01*
X0372169Y0202618D01*
X0373637Y0202618D01*
X0374371Y0201884D01*
X0374371Y0199682D01*
X0374371Y0201150D02*
X0375839Y0202618D01*
X0375839Y0204838D02*
X0371435Y0204838D01*
X0371435Y0207040D01*
X0372169Y0207774D01*
X0375105Y0207774D01*
X0375839Y0207040D01*
X0375839Y0204838D01*
X0375839Y0199682D02*
X0371435Y0199682D01*
X0240955Y0189202D02*
X0168120Y0189202D01*
X0168120Y0248257D01*
X0240955Y0248257D01*
X0240955Y0189202D01*
X0135586Y0238900D02*
X0135586Y0241836D01*
X0134118Y0243304D01*
X0132650Y0241836D01*
X0132650Y0238900D01*
X0132650Y0241102D02*
X0135586Y0241102D01*
X0130430Y0241102D02*
X0130430Y0239634D01*
X0129696Y0238900D01*
X0128228Y0238900D01*
X0127494Y0239634D01*
X0127494Y0241102D02*
X0128962Y0241836D01*
X0129696Y0241836D01*
X0130430Y0241102D01*
X0130430Y0243304D02*
X0127494Y0243304D01*
X0127494Y0241102D01*
X0125273Y0243304D02*
X0122338Y0238900D01*
X0119383Y0242570D02*
X0120117Y0243304D01*
X0119383Y0242570D02*
X0117915Y0244038D01*
X0117181Y0243304D01*
X0114961Y0243304D02*
X0114961Y0240368D01*
X0113493Y0238900D01*
X0112025Y0240368D01*
X0112025Y0243304D01*
X0109804Y0242570D02*
X0106868Y0239634D01*
X0107602Y0238900D01*
X0109070Y0238900D01*
X0109804Y0239634D01*
X0109804Y0242570D01*
X0109070Y0243304D01*
X0107602Y0243304D01*
X0106868Y0242570D01*
X0106868Y0239634D01*
X0104648Y0239634D02*
X0104648Y0240368D01*
X0103914Y0241102D01*
X0103180Y0241102D01*
X0103914Y0241102D02*
X0104648Y0241836D01*
X0104648Y0242570D01*
X0103914Y0243304D01*
X0102446Y0243304D01*
X0101712Y0242570D01*
X0099491Y0242570D02*
X0098757Y0243304D01*
X0097290Y0243304D01*
X0096556Y0242570D01*
X0099491Y0242570D02*
X0099491Y0241836D01*
X0096556Y0238900D01*
X0099491Y0238900D01*
X0101712Y0239634D02*
X0102446Y0238900D01*
X0103914Y0238900D01*
X0104648Y0239634D01*
X0089555Y0239634D02*
X0089555Y0238900D01*
X0088821Y0238900D01*
X0088821Y0239634D01*
X0089555Y0239634D01*
X0089555Y0241102D02*
X0088821Y0241102D01*
X0088821Y0241836D01*
X0089555Y0241836D01*
X0089555Y0241102D01*
X0086600Y0242570D02*
X0086600Y0243304D01*
X0086600Y0242570D02*
X0085132Y0241102D01*
X0085132Y0238900D01*
X0085132Y0241102D02*
X0083665Y0242570D01*
X0083665Y0243304D01*
X0081444Y0241836D02*
X0081444Y0238900D01*
X0081444Y0241102D02*
X0078508Y0241102D01*
X0078508Y0241836D02*
X0079976Y0243304D01*
X0081444Y0241836D01*
X0078508Y0241836D02*
X0078508Y0238900D01*
X0076288Y0238900D02*
X0073352Y0238900D01*
X0073352Y0243304D01*
X0071131Y0243304D02*
X0068195Y0243304D01*
X0068195Y0238900D01*
X0071131Y0238900D01*
X0069663Y0241102D02*
X0068195Y0241102D01*
X0065975Y0241102D02*
X0065241Y0240368D01*
X0063039Y0240368D01*
X0064507Y0240368D02*
X0065975Y0238900D01*
X0065975Y0241102D02*
X0065975Y0242570D01*
X0065241Y0243304D01*
X0063039Y0243304D01*
X0063039Y0238900D01*
X0098326Y0216260D02*
X0101262Y0216260D01*
X0099794Y0214059D02*
X0098326Y0214059D01*
X0098326Y0216260D02*
X0098326Y0211857D01*
X0103483Y0211857D02*
X0106419Y0211857D01*
X0104951Y0211857D02*
X0104951Y0216260D01*
X0103483Y0214793D01*
X0024943Y0201700D02*
X0020539Y0198764D01*
X0024943Y0198764D01*
X0024209Y0196544D02*
X0021273Y0196544D01*
X0020539Y0195810D01*
X0020539Y0194342D01*
X0021273Y0193608D01*
X0024209Y0193608D02*
X0024943Y0194342D01*
X0024943Y0195810D01*
X0024209Y0196544D01*
X0024943Y0201700D02*
X0020539Y0201700D01*
X0020039Y0211951D02*
X0024443Y0211951D01*
X0022975Y0213419D01*
X0024443Y0214887D01*
X0020039Y0214887D01*
X0020773Y0217108D02*
X0020039Y0217842D01*
X0020039Y0219310D01*
X0020773Y0220044D01*
X0023709Y0220044D01*
X0024443Y0219310D01*
X0024443Y0217842D01*
X0023709Y0217108D01*
X0020773Y0217108D01*
X0020773Y0222264D02*
X0020039Y0222998D01*
X0020039Y0224466D01*
X0020773Y0225200D01*
X0023709Y0225200D01*
X0024443Y0224466D01*
X0024443Y0222998D01*
X0023709Y0222264D01*
X0023709Y0237108D02*
X0024443Y0237842D01*
X0024443Y0239310D01*
X0023709Y0240044D01*
X0020773Y0240044D01*
X0020039Y0239310D01*
X0020039Y0237842D01*
X0020773Y0237108D01*
X0023709Y0237108D01*
X0024443Y0242264D02*
X0020039Y0242264D01*
X0024443Y0245200D01*
X0020039Y0245200D01*
D17*
X0057530Y0225717D02*
X0057530Y0210717D01*
X0062530Y0210717D01*
X0065030Y0208217D02*
X0065030Y0203217D01*
X0080030Y0203217D01*
X0080030Y0208217D01*
X0082530Y0210717D02*
X0087530Y0210717D01*
X0087530Y0224217D01*
X0127530Y0212217D01*
X0127530Y0225717D01*
X0132530Y0225717D01*
X0135030Y0228217D02*
X0135030Y0233217D01*
X0150030Y0233217D01*
X0150030Y0228217D01*
X0152530Y0225717D02*
X0157530Y0225717D01*
X0157530Y0210717D01*
X0152530Y0210717D01*
X0150030Y0208217D02*
X0150030Y0203217D01*
X0135030Y0203217D01*
X0135030Y0208217D01*
X0132530Y0210717D02*
X0127530Y0210717D01*
X0127530Y0212217D01*
X0130030Y0207217D02*
X0085030Y0207217D01*
X0087530Y0224217D02*
X0087530Y0225717D01*
X0082530Y0225717D01*
X0080030Y0228217D02*
X0080030Y0233217D01*
X0065030Y0233217D01*
X0065030Y0228217D01*
X0062530Y0225717D02*
X0057530Y0225717D01*
X0085030Y0229217D02*
X0130030Y0229217D01*
X0107030Y0218217D02*
X0107032Y0218261D01*
X0107038Y0218305D01*
X0107048Y0218348D01*
X0107061Y0218390D01*
X0107078Y0218431D01*
X0107099Y0218470D01*
X0107123Y0218507D01*
X0107150Y0218542D01*
X0107180Y0218574D01*
X0107213Y0218604D01*
X0107249Y0218630D01*
X0107286Y0218654D01*
X0107326Y0218673D01*
X0107367Y0218690D01*
X0107410Y0218702D01*
X0107453Y0218711D01*
X0107497Y0218716D01*
X0107541Y0218717D01*
X0107585Y0218714D01*
X0107629Y0218707D01*
X0107672Y0218696D01*
X0107714Y0218682D01*
X0107754Y0218664D01*
X0107793Y0218642D01*
X0107829Y0218618D01*
X0107863Y0218590D01*
X0107895Y0218559D01*
X0107924Y0218525D01*
X0107950Y0218489D01*
X0107972Y0218451D01*
X0107991Y0218411D01*
X0108006Y0218369D01*
X0108018Y0218327D01*
X0108026Y0218283D01*
X0108030Y0218239D01*
X0108030Y0218195D01*
X0108026Y0218151D01*
X0108018Y0218107D01*
X0108006Y0218065D01*
X0107991Y0218023D01*
X0107972Y0217983D01*
X0107950Y0217945D01*
X0107924Y0217909D01*
X0107895Y0217875D01*
X0107863Y0217844D01*
X0107829Y0217816D01*
X0107793Y0217792D01*
X0107754Y0217770D01*
X0107714Y0217752D01*
X0107672Y0217738D01*
X0107629Y0217727D01*
X0107585Y0217720D01*
X0107541Y0217717D01*
X0107497Y0217718D01*
X0107453Y0217723D01*
X0107410Y0217732D01*
X0107367Y0217744D01*
X0107326Y0217761D01*
X0107286Y0217780D01*
X0107249Y0217804D01*
X0107213Y0217830D01*
X0107180Y0217860D01*
X0107150Y0217892D01*
X0107123Y0217927D01*
X0107099Y0217964D01*
X0107078Y0218003D01*
X0107061Y0218044D01*
X0107048Y0218086D01*
X0107038Y0218129D01*
X0107032Y0218173D01*
X0107030Y0218217D01*
D18*
X0082530Y0208217D03*
X0062530Y0208217D03*
X0062530Y0228217D03*
X0082530Y0228217D03*
X0132530Y0228217D03*
X0152530Y0228217D03*
X0152530Y0208217D03*
X0132530Y0208217D03*
D19*
X0133780Y0218217D03*
X0081280Y0218217D03*
D20*
X0072530Y0224717D03*
X0072530Y0211717D03*
X0142530Y0211717D03*
X0142530Y0224717D03*
D21*
X0057215Y0250186D02*
X0057215Y0186406D01*
X0031624Y0186406D01*
X0031624Y0250186D01*
X0057215Y0250186D01*
X0031624Y0250186D02*
X0027687Y0250186D01*
X0027687Y0186406D01*
X0031624Y0186406D01*
X0031624Y0182076D02*
X0027687Y0182076D01*
X0027687Y0137981D01*
X0031624Y0137981D01*
X0031624Y0182076D01*
X0057215Y0182076D01*
X0057215Y0137981D01*
X0031624Y0137981D01*
X0091006Y0157780D02*
X0094234Y0157780D01*
X0094234Y0162780D02*
X0091006Y0162780D01*
X0075439Y0090800D02*
X0044939Y0090800D01*
X0044939Y0078300D01*
X0075439Y0078300D01*
X0075439Y0090800D01*
X0062939Y0087800D02*
X0062939Y0081800D01*
X0062939Y0084800D02*
X0057939Y0087800D01*
X0057939Y0081800D01*
X0062939Y0084800D01*
X0057215Y0053335D02*
X0031624Y0053335D01*
X0031624Y0009241D01*
X0027687Y0009241D01*
X0027687Y0053335D01*
X0031624Y0053335D01*
X0057215Y0053335D02*
X0057215Y0009241D01*
X0031624Y0009241D01*
X0069404Y0046587D02*
X0069404Y0050587D01*
X0075404Y0050587D02*
X0075404Y0046587D01*
X0309215Y0166139D02*
X0309215Y0170139D01*
X0315215Y0170139D02*
X0315215Y0166139D01*
D22*
X0353539Y0048600D02*
X0353539Y0023400D01*
X0348139Y0023400D01*
X0348139Y0039600D01*
X0342739Y0039600D01*
X0342739Y0023400D01*
X0337339Y0023400D01*
X0337339Y0039600D01*
X0331939Y0039600D01*
X0331939Y0023400D01*
X0326539Y0023400D01*
X0326539Y0039600D01*
X0321139Y0039600D01*
X0321139Y0023400D01*
X0306739Y0023400D01*
D23*
X0025226Y0018103D02*
X0021289Y0018103D01*
X0023257Y0020071D02*
X0023257Y0016134D01*
X0022736Y0045152D02*
X0022736Y0049089D01*
X0022757Y0147634D02*
X0022757Y0151571D01*
X0020789Y0149603D02*
X0024726Y0149603D01*
X0022736Y0168652D02*
X0022736Y0172589D01*
D24*
X0091879Y0104472D02*
X0091879Y0100936D01*
X0089227Y0101820D02*
X0094531Y0101820D01*
X0091879Y0104472D01*
X0090111Y0098395D02*
X0090111Y0097511D01*
X0089227Y0097511D01*
X0089227Y0098395D01*
X0090111Y0098395D01*
X0090111Y0095356D02*
X0089227Y0094472D01*
X0089227Y0092704D01*
X0090111Y0091820D01*
X0091879Y0091820D01*
X0092763Y0092704D01*
X0092763Y0093588D01*
X0091879Y0095356D01*
X0094531Y0095356D01*
X0094531Y0091820D01*
X0094531Y0089279D02*
X0090995Y0089279D01*
X0089227Y0087511D01*
X0090995Y0085743D01*
X0094531Y0085743D01*
X0091879Y0083202D02*
X0091879Y0079666D01*
X0091879Y0077125D02*
X0092763Y0075357D01*
X0092763Y0074472D01*
X0091879Y0073588D01*
X0090111Y0073588D01*
X0089227Y0074472D01*
X0089227Y0076241D01*
X0090111Y0077125D01*
X0091879Y0077125D02*
X0094531Y0077125D01*
X0094531Y0073588D01*
X0099127Y0075228D02*
X0099127Y0076112D01*
X0100011Y0076112D01*
X0100011Y0075228D01*
X0099127Y0075228D01*
X0101779Y0075228D02*
X0101779Y0076112D01*
X0102663Y0076112D01*
X0102663Y0075228D01*
X0101779Y0075228D01*
X0104431Y0078653D02*
X0104431Y0082189D01*
X0104431Y0080421D02*
X0099127Y0080421D01*
X0100011Y0084730D02*
X0104431Y0084730D01*
X0104431Y0088266D02*
X0100011Y0088266D01*
X0099127Y0087382D01*
X0099127Y0085614D01*
X0100011Y0084730D01*
X0101779Y0090807D02*
X0100895Y0091691D01*
X0100895Y0094343D01*
X0099127Y0094343D02*
X0104431Y0094343D01*
X0104431Y0091691D01*
X0103547Y0090807D01*
X0101779Y0090807D01*
X0099127Y0096884D02*
X0104431Y0096884D01*
X0104431Y0100421D02*
X0099127Y0096884D01*
X0099127Y0100421D02*
X0104431Y0100421D01*
X0104431Y0102704D02*
X0104431Y0104472D01*
X0104431Y0103588D02*
X0099127Y0103588D01*
X0099127Y0104472D02*
X0099127Y0102704D01*
X0090111Y0071048D02*
X0090111Y0070163D01*
X0089227Y0070163D01*
X0089227Y0071048D01*
X0090111Y0071048D01*
X0090111Y0068009D02*
X0089227Y0067125D01*
X0089227Y0065357D01*
X0090111Y0064473D01*
X0091879Y0064473D01*
X0092763Y0065357D01*
X0092763Y0066241D01*
X0091879Y0068009D01*
X0094531Y0068009D01*
X0094531Y0064473D01*
X0094531Y0061932D02*
X0090995Y0061932D01*
X0089227Y0060164D01*
X0090995Y0058395D01*
X0094531Y0058395D01*
D25*
X0118939Y0099600D03*
X0119339Y0099600D03*
X0119739Y0099600D03*
X0120139Y0099600D03*
X0120539Y0099600D03*
X0120939Y0099600D03*
X0121339Y0099600D03*
X0121739Y0099600D03*
X0122139Y0099600D03*
X0122139Y0105600D03*
X0121739Y0105600D03*
X0121339Y0105600D03*
X0120939Y0105600D03*
X0120539Y0105600D03*
X0120139Y0105600D03*
X0119739Y0105600D03*
X0119339Y0105600D03*
X0118939Y0105600D03*
X0118539Y0105600D03*
X0118139Y0105600D03*
X0117739Y0105600D03*
X0117339Y0105600D03*
X0117339Y0111200D03*
X0120539Y0111200D03*
X0120939Y0111200D03*
X0121339Y0111200D03*
X0121739Y0111200D03*
X0122139Y0111200D03*
X0122539Y0111200D03*
X0122939Y0111200D03*
X0123339Y0111200D03*
X0123739Y0111200D03*
X0123339Y0114800D03*
X0120139Y0114800D03*
X0119739Y0114800D03*
X0119339Y0114800D03*
X0118939Y0114800D03*
X0118539Y0114800D03*
X0118139Y0114800D03*
X0117739Y0114800D03*
X0128939Y0116000D03*
X0122939Y0124400D03*
X0122539Y0124400D03*
X0121339Y0124800D03*
X0120939Y0124800D03*
X0117739Y0126000D03*
X0117739Y0129200D03*
X0117339Y0129200D03*
X0121339Y0130400D03*
X0121739Y0130400D03*
X0122539Y0130800D03*
X0122939Y0130800D03*
X0122939Y0127600D03*
X0123339Y0127600D03*
X0139739Y0126400D03*
X0140539Y0131200D03*
X0140939Y0131200D03*
X0143339Y0132000D03*
X0152139Y0131200D03*
X0152539Y0130800D03*
X0152939Y0130800D03*
X0153739Y0130400D03*
X0154139Y0130000D03*
X0154539Y0130000D03*
X0152139Y0126800D03*
X0132539Y0105600D03*
X0132939Y0105200D03*
X0133339Y0104400D03*
X0130139Y0107200D03*
X0139739Y0102800D03*
X0140139Y0102800D03*
X0139739Y0098400D03*
X0140139Y0098000D03*
X0148539Y0097600D03*
X0149739Y0098000D03*
X0150139Y0098000D03*
X0150539Y0098000D03*
X0152139Y0102800D03*
D26*
X0149339Y0097800D03*
X0148939Y0097800D03*
X0148139Y0097400D03*
X0147739Y0097400D03*
X0147339Y0097400D03*
X0146939Y0097400D03*
X0141339Y0097800D03*
X0140539Y0098200D03*
X0137739Y0099000D03*
X0136939Y0099400D03*
X0135339Y0100600D03*
X0131339Y0105000D03*
X0130939Y0105800D03*
X0130539Y0106600D03*
X0132139Y0113400D03*
X0132139Y0115800D03*
X0123739Y0115000D03*
X0117339Y0115000D03*
X0123739Y0124200D03*
X0130139Y0123000D03*
X0123739Y0131000D03*
X0117339Y0125800D03*
X0141339Y0131400D03*
X0141739Y0131400D03*
X0142139Y0131800D03*
X0142539Y0131800D03*
X0142939Y0131800D03*
X0145339Y0132200D03*
X0145739Y0132200D03*
X0153339Y0130600D03*
D27*
X0154139Y0124600D03*
X0161339Y0122600D03*
X0160139Y0114600D03*
X0161339Y0106200D03*
X0147739Y0102600D03*
X0138939Y0110200D03*
X0132539Y0112600D03*
X0123339Y0119800D03*
X0122939Y0119800D03*
X0122539Y0119800D03*
X0118139Y0119800D03*
X0117739Y0119800D03*
X0117339Y0119800D03*
X0138139Y0124600D03*
X0118139Y0099400D03*
X0117739Y0099400D03*
X0150139Y0088200D03*
X0134139Y0073000D03*
X0150139Y0166600D03*
X0134139Y0186600D03*
D28*
X0119739Y0129200D03*
X0132539Y0124800D03*
X0132939Y0125200D03*
X0132539Y0116800D03*
X0129739Y0111600D03*
X0128939Y0111200D03*
X0120939Y0114000D03*
X0120539Y0114000D03*
X0120139Y0112000D03*
X0119739Y0112000D03*
X0138139Y0104800D03*
X0148139Y0102400D03*
X0154139Y0104800D03*
X0160939Y0106000D03*
X0160939Y0123200D03*
X0160539Y0124000D03*
X0147739Y0127200D03*
X0147339Y0127200D03*
X0146939Y0127200D03*
X0146539Y0127200D03*
X0146139Y0127200D03*
X0145739Y0127200D03*
X0145339Y0127200D03*
X0144939Y0127200D03*
X0144539Y0127200D03*
X0123739Y0099600D03*
X0123339Y0099600D03*
X0122939Y0099600D03*
X0122539Y0099600D03*
X0118539Y0099600D03*
X0117339Y0099600D03*
D29*
X0129739Y0108200D03*
X0129339Y0109400D03*
X0132139Y0106200D03*
X0139339Y0103400D03*
X0140539Y0102600D03*
X0140939Y0102600D03*
X0141339Y0102600D03*
X0139339Y0098600D03*
X0150939Y0098200D03*
X0151339Y0098200D03*
X0151739Y0098600D03*
X0152139Y0098600D03*
X0152539Y0098600D03*
X0152939Y0099000D03*
X0153339Y0099000D03*
X0153739Y0099400D03*
X0154139Y0099400D03*
X0154539Y0099800D03*
X0155339Y0100200D03*
X0155739Y0100600D03*
X0156539Y0101000D03*
X0153339Y0104200D03*
X0151739Y0102600D03*
X0151339Y0102600D03*
X0150939Y0102600D03*
X0122939Y0114600D03*
X0122539Y0114600D03*
X0118139Y0111400D03*
X0117739Y0111400D03*
X0118939Y0119800D03*
X0119339Y0119800D03*
X0119739Y0119800D03*
X0120139Y0119800D03*
X0120539Y0119800D03*
X0120939Y0119800D03*
X0121339Y0119800D03*
X0121739Y0119800D03*
X0122139Y0119800D03*
X0123339Y0124200D03*
X0122139Y0124600D03*
X0121739Y0124600D03*
X0122539Y0127400D03*
X0120939Y0130200D03*
X0122139Y0130600D03*
X0123339Y0131000D03*
X0118539Y0125800D03*
X0118139Y0125800D03*
X0139339Y0126200D03*
X0140139Y0126600D03*
X0140539Y0126600D03*
X0140939Y0126600D03*
X0144939Y0131800D03*
X0146139Y0131800D03*
X0146539Y0131800D03*
X0146939Y0131800D03*
X0147339Y0131800D03*
X0147739Y0131800D03*
X0148939Y0131400D03*
X0149339Y0131400D03*
X0149739Y0131400D03*
X0150139Y0131400D03*
X0150939Y0131000D03*
X0154939Y0129400D03*
X0157339Y0127400D03*
X0153339Y0125400D03*
X0151739Y0126600D03*
X0151339Y0126600D03*
D30*
X0150939Y0126800D03*
X0150539Y0126800D03*
X0150139Y0126800D03*
X0155339Y0129200D03*
X0155739Y0128800D03*
X0156139Y0128800D03*
X0156539Y0128400D03*
X0156939Y0128000D03*
X0157739Y0127200D03*
X0158139Y0126800D03*
X0158539Y0126400D03*
X0158939Y0126000D03*
X0159339Y0125600D03*
X0151739Y0130800D03*
X0151339Y0130800D03*
X0150539Y0131200D03*
X0148539Y0131600D03*
X0148139Y0131600D03*
X0144539Y0131600D03*
X0144139Y0131600D03*
X0143739Y0131600D03*
X0140139Y0130400D03*
X0139739Y0130400D03*
X0139339Y0130000D03*
X0138939Y0130000D03*
X0138539Y0129600D03*
X0138139Y0129600D03*
X0137739Y0129200D03*
X0137339Y0129200D03*
X0136939Y0128800D03*
X0136139Y0128400D03*
X0135739Y0128000D03*
X0138939Y0125600D03*
X0141339Y0126800D03*
X0141739Y0126800D03*
X0142139Y0126800D03*
X0132139Y0123600D03*
X0122139Y0127600D03*
X0121739Y0127600D03*
X0121339Y0127600D03*
X0118939Y0129200D03*
X0118539Y0129200D03*
X0118139Y0129200D03*
X0118939Y0126000D03*
X0122139Y0114400D03*
X0118939Y0111600D03*
X0118539Y0111600D03*
X0130939Y0108400D03*
X0131739Y0106800D03*
X0141739Y0102400D03*
X0142139Y0102400D03*
X0142539Y0102400D03*
X0149739Y0102400D03*
X0150139Y0102400D03*
X0150539Y0102400D03*
X0154939Y0100000D03*
X0156139Y0100800D03*
X0156939Y0101200D03*
X0157339Y0101600D03*
X0157739Y0102000D03*
X0158139Y0102400D03*
X0158539Y0102800D03*
X0158939Y0103200D03*
X0159339Y0103600D03*
X0156139Y0114800D03*
D31*
X0164139Y0114600D03*
X0160539Y0105400D03*
X0160139Y0104600D03*
X0159739Y0104200D03*
X0153739Y0104200D03*
X0149339Y0102200D03*
X0148939Y0102200D03*
X0148539Y0102200D03*
X0143339Y0102200D03*
X0142939Y0102200D03*
X0138939Y0103800D03*
X0138539Y0104200D03*
X0131339Y0107800D03*
X0130539Y0109000D03*
X0130139Y0110200D03*
X0128139Y0115000D03*
X0121739Y0114200D03*
X0121339Y0114200D03*
X0119339Y0111800D03*
X0118539Y0119800D03*
X0123739Y0119800D03*
X0131739Y0123000D03*
X0133339Y0125800D03*
X0133739Y0126200D03*
X0134139Y0126600D03*
X0134539Y0127000D03*
X0134939Y0127400D03*
X0135339Y0127800D03*
X0136539Y0128600D03*
X0142539Y0127000D03*
X0142939Y0127000D03*
X0143339Y0127000D03*
X0143739Y0127000D03*
X0144139Y0127000D03*
X0148139Y0127000D03*
X0148539Y0127000D03*
X0148939Y0127000D03*
X0149339Y0127000D03*
X0149739Y0127000D03*
X0153739Y0125000D03*
X0159739Y0125000D03*
X0160139Y0124600D03*
X0147339Y0121400D03*
X0138539Y0125000D03*
X0120939Y0127400D03*
X0119739Y0125800D03*
X0119339Y0125800D03*
X0119339Y0129400D03*
X0138539Y0110200D03*
X0147339Y0107800D03*
D32*
X0140939Y0109600D03*
X0140539Y0109600D03*
X0140539Y0119600D03*
X0140939Y0119600D03*
X0144939Y0120800D03*
X0145339Y0120800D03*
X0136139Y0121200D03*
X0120139Y0127600D03*
X0141339Y0144800D03*
X0143339Y0144800D03*
X0143739Y0144800D03*
X0147339Y0166800D03*
X0156539Y0120800D03*
X0157739Y0119600D03*
X0162539Y0118800D03*
X0158139Y0110400D03*
X0147339Y0067200D03*
X0146939Y0067200D03*
X0143339Y0045600D03*
X0142939Y0045600D03*
X0141739Y0045600D03*
D33*
X0141339Y0045400D03*
X0140539Y0045000D03*
X0143739Y0045400D03*
X0146539Y0067400D03*
X0141739Y0109400D03*
X0141339Y0109400D03*
X0150139Y0115000D03*
X0141739Y0119800D03*
X0141339Y0119800D03*
X0144539Y0120600D03*
X0136539Y0121400D03*
X0120539Y0127400D03*
X0140539Y0144200D03*
X0140939Y0144600D03*
X0146539Y0166600D03*
X0146939Y0166600D03*
D34*
X0148539Y0166600D03*
X0148939Y0166600D03*
X0146139Y0121000D03*
X0138939Y0119800D03*
X0133339Y0117800D03*
X0129739Y0118200D03*
X0130539Y0121400D03*
X0139739Y0109800D03*
X0136139Y0107400D03*
X0123339Y0105800D03*
X0122939Y0105800D03*
X0122539Y0105800D03*
X0156139Y0107400D03*
X0162139Y0108600D03*
X0162139Y0120600D03*
D35*
X0152939Y0125200D03*
X0152539Y0126800D03*
X0142539Y0130400D03*
X0142139Y0130400D03*
X0132139Y0125600D03*
X0123739Y0127600D03*
X0131739Y0104400D03*
X0132139Y0104000D03*
X0132539Y0103200D03*
X0132939Y0102800D03*
X0133339Y0102400D03*
X0133739Y0102000D03*
X0134139Y0101600D03*
X0134539Y0101200D03*
X0134939Y0100800D03*
X0135739Y0100400D03*
X0136139Y0100000D03*
X0136539Y0099600D03*
X0137339Y0099200D03*
X0138139Y0098800D03*
X0138539Y0098400D03*
X0138939Y0098400D03*
X0138539Y0099600D03*
X0140939Y0098000D03*
X0141739Y0097600D03*
X0143339Y0097200D03*
X0143739Y0097200D03*
X0144139Y0099200D03*
X0144539Y0099200D03*
X0144939Y0099200D03*
X0145339Y0099200D03*
X0145739Y0099200D03*
X0146539Y0097600D03*
X0152539Y0102400D03*
X0152939Y0104000D03*
X0134139Y0104000D03*
X0133739Y0104400D03*
D36*
X0136539Y0106800D03*
X0139339Y0110000D03*
X0132939Y0112000D03*
X0123739Y0105600D03*
X0138539Y0120000D03*
X0146539Y0121200D03*
X0155739Y0106800D03*
X0138539Y0142800D03*
X0140139Y0143200D03*
X0149339Y0166800D03*
X0149339Y0067200D03*
X0148939Y0067200D03*
X0140139Y0043600D03*
X0138139Y0043600D03*
D37*
X0140939Y0045200D03*
X0145739Y0067200D03*
X0146139Y0067200D03*
X0142539Y0109200D03*
X0142139Y0109200D03*
X0129339Y0115200D03*
X0128539Y0114400D03*
X0136939Y0121600D03*
X0142139Y0120000D03*
X0142539Y0120000D03*
X0143339Y0120400D03*
X0143739Y0120400D03*
X0144139Y0120400D03*
X0146139Y0166800D03*
D38*
X0145739Y0131000D03*
X0145339Y0131000D03*
X0143339Y0130600D03*
X0142939Y0130600D03*
X0141739Y0130200D03*
X0141339Y0130200D03*
X0140939Y0129800D03*
X0140539Y0129800D03*
X0131739Y0125000D03*
X0129339Y0119400D03*
X0128939Y0118600D03*
X0128939Y0114200D03*
X0129739Y0114200D03*
X0134539Y0103400D03*
X0134139Y0103000D03*
X0134939Y0102200D03*
X0135339Y0102200D03*
X0135739Y0101800D03*
X0137339Y0100200D03*
X0137739Y0100200D03*
X0138139Y0099800D03*
X0138939Y0099400D03*
X0142539Y0099400D03*
X0142939Y0099400D03*
X0143339Y0099400D03*
X0143739Y0099400D03*
X0142939Y0097400D03*
X0142539Y0097400D03*
X0142139Y0097400D03*
X0144139Y0097000D03*
X0144539Y0097000D03*
D39*
X0147339Y0103000D03*
X0154939Y0105800D03*
X0155339Y0106200D03*
X0161739Y0107400D03*
X0149739Y0115000D03*
X0138139Y0120200D03*
X0132939Y0117400D03*
X0130139Y0119800D03*
X0130939Y0122200D03*
X0136939Y0106200D03*
X0137339Y0105800D03*
X0137739Y0088200D03*
X0138139Y0088200D03*
X0138539Y0088200D03*
X0138939Y0088200D03*
X0139339Y0088200D03*
X0139739Y0088200D03*
X0140139Y0088200D03*
X0140539Y0088200D03*
X0140939Y0088200D03*
X0141339Y0088200D03*
X0141739Y0088200D03*
X0142139Y0088200D03*
X0142539Y0088200D03*
X0142939Y0088200D03*
X0143339Y0088200D03*
X0143739Y0088200D03*
X0144139Y0088200D03*
X0144539Y0088200D03*
X0144939Y0088200D03*
X0145339Y0088200D03*
X0145739Y0088200D03*
X0146139Y0088200D03*
X0146539Y0088200D03*
X0146939Y0088200D03*
X0147339Y0088200D03*
X0147739Y0088200D03*
X0148139Y0088200D03*
X0148539Y0088200D03*
X0148939Y0088200D03*
X0149339Y0088200D03*
X0149739Y0088200D03*
X0135739Y0072600D03*
X0135339Y0072600D03*
X0134539Y0073000D03*
X0140939Y0070600D03*
X0141339Y0070600D03*
X0142139Y0070200D03*
X0142539Y0070200D03*
X0143339Y0069800D03*
X0144139Y0065000D03*
X0142939Y0064600D03*
X0142139Y0064200D03*
X0141739Y0064200D03*
X0140939Y0063800D03*
X0136139Y0062200D03*
X0135739Y0061800D03*
X0135339Y0061800D03*
X0134939Y0061800D03*
X0134539Y0061400D03*
X0149739Y0067400D03*
X0146139Y0043800D03*
X0144539Y0043800D03*
X0139739Y0043400D03*
X0139339Y0043400D03*
X0138939Y0043400D03*
X0138539Y0043400D03*
X0138939Y0142600D03*
X0139739Y0143000D03*
X0138139Y0143000D03*
X0144539Y0143400D03*
X0146139Y0143400D03*
X0146139Y0152600D03*
X0145739Y0152600D03*
X0145339Y0152600D03*
X0144939Y0152600D03*
X0144539Y0152600D03*
X0144139Y0152600D03*
X0143739Y0152600D03*
X0143339Y0152600D03*
X0142939Y0152600D03*
X0142539Y0152600D03*
X0142139Y0152600D03*
X0141739Y0152600D03*
X0141339Y0152600D03*
X0140939Y0152600D03*
X0140539Y0152600D03*
X0140139Y0152600D03*
X0139739Y0152600D03*
X0139339Y0152600D03*
X0138939Y0152600D03*
X0138539Y0152600D03*
X0138139Y0152600D03*
X0134939Y0161000D03*
X0134539Y0161000D03*
X0135339Y0161400D03*
X0135739Y0161400D03*
X0136139Y0161400D03*
X0141339Y0163400D03*
X0142539Y0163800D03*
X0143739Y0164200D03*
X0149739Y0166600D03*
X0142939Y0169400D03*
X0141739Y0169800D03*
X0140539Y0170200D03*
X0136139Y0171800D03*
X0135739Y0171800D03*
X0135339Y0172200D03*
X0134939Y0172200D03*
X0134539Y0172200D03*
X0134539Y0186600D03*
X0134939Y0186600D03*
X0135339Y0186600D03*
X0135739Y0186600D03*
X0136139Y0186600D03*
X0136539Y0186600D03*
X0136939Y0186600D03*
X0137339Y0186600D03*
X0137739Y0186600D03*
X0138139Y0186600D03*
X0138539Y0186600D03*
X0138939Y0186600D03*
X0139339Y0186600D03*
X0139739Y0186600D03*
X0140139Y0186600D03*
X0144139Y0186600D03*
X0144539Y0186600D03*
X0144939Y0186600D03*
X0145339Y0186600D03*
X0145739Y0186600D03*
X0146139Y0186600D03*
D40*
X0134139Y0172400D03*
X0140939Y0170000D03*
X0141339Y0170000D03*
X0142139Y0169600D03*
X0142539Y0169600D03*
X0143339Y0169200D03*
X0143739Y0169200D03*
X0144139Y0168800D03*
X0144539Y0168800D03*
X0144539Y0164400D03*
X0144139Y0164400D03*
X0143339Y0164000D03*
X0142939Y0164000D03*
X0142139Y0163600D03*
X0141739Y0163600D03*
X0140939Y0163200D03*
X0140539Y0163200D03*
X0134139Y0160800D03*
X0144939Y0143200D03*
X0145339Y0143200D03*
X0145739Y0143200D03*
X0139339Y0142800D03*
X0131339Y0122800D03*
X0146939Y0121200D03*
X0161739Y0121600D03*
X0154539Y0105200D03*
X0137739Y0105200D03*
X0134939Y0072800D03*
X0136139Y0072400D03*
X0140539Y0070800D03*
X0141739Y0070400D03*
X0142939Y0070000D03*
X0143739Y0069600D03*
X0144139Y0069600D03*
X0150139Y0067200D03*
X0143739Y0064800D03*
X0143339Y0064800D03*
X0142539Y0064400D03*
X0141339Y0064000D03*
X0140539Y0063600D03*
X0134139Y0061600D03*
X0138139Y0053200D03*
X0138539Y0053200D03*
X0138939Y0053200D03*
X0139339Y0053200D03*
X0139739Y0053200D03*
X0140139Y0053200D03*
X0140539Y0053200D03*
X0140939Y0053200D03*
X0141339Y0053200D03*
X0141739Y0053200D03*
X0142139Y0053200D03*
X0142539Y0053200D03*
X0142939Y0053200D03*
X0143339Y0053200D03*
X0143739Y0053200D03*
X0144139Y0053200D03*
X0144539Y0053200D03*
X0144939Y0053200D03*
X0145339Y0053200D03*
X0145739Y0053200D03*
X0146139Y0053200D03*
X0145739Y0043600D03*
X0145339Y0043600D03*
X0144939Y0043600D03*
D41*
X0144139Y0044800D03*
X0142539Y0046000D03*
X0148139Y0067200D03*
X0148539Y0067200D03*
X0156539Y0108000D03*
X0156939Y0108400D03*
X0139739Y0119600D03*
X0139339Y0119600D03*
X0135339Y0120800D03*
X0133339Y0111600D03*
X0135339Y0108400D03*
X0135739Y0108000D03*
X0156939Y0120800D03*
X0144139Y0144000D03*
X0142539Y0145200D03*
X0142139Y0145200D03*
D42*
X0141739Y0145000D03*
X0142939Y0145000D03*
X0147739Y0166600D03*
X0148139Y0166600D03*
X0145739Y0121000D03*
X0140139Y0119400D03*
X0135739Y0121000D03*
X0134939Y0120200D03*
X0134539Y0119800D03*
X0134139Y0119000D03*
X0133739Y0118200D03*
X0133739Y0111000D03*
X0134139Y0110200D03*
X0134539Y0109800D03*
X0134939Y0109000D03*
X0140139Y0109800D03*
X0157339Y0109000D03*
X0157739Y0109800D03*
X0158539Y0111000D03*
X0158539Y0118200D03*
X0158139Y0119000D03*
X0157339Y0120200D03*
X0147739Y0067400D03*
X0142139Y0045800D03*
D43*
X0150139Y0050200D03*
X0146139Y0105800D03*
X0151739Y0115000D03*
X0152139Y0115000D03*
X0152539Y0115000D03*
X0152939Y0115000D03*
X0153339Y0115000D03*
X0159339Y0114600D03*
X0134139Y0149400D03*
D44*
X0134539Y0149000D03*
X0139739Y0166600D03*
X0140139Y0166600D03*
X0146539Y0183000D03*
X0150139Y0182600D03*
X0158939Y0114600D03*
X0144139Y0106600D03*
X0143739Y0106600D03*
X0134139Y0084200D03*
X0140139Y0067400D03*
X0149339Y0049400D03*
D45*
X0134139Y0050000D03*
X0145739Y0106000D03*
X0153739Y0115200D03*
D46*
X0137339Y0084400D03*
X0136939Y0084400D03*
X0136539Y0084400D03*
X0136139Y0084400D03*
X0135739Y0084400D03*
X0135339Y0084400D03*
X0134939Y0084400D03*
X0134539Y0084400D03*
X0139339Y0067200D03*
X0139739Y0067200D03*
X0134939Y0049200D03*
X0148939Y0049200D03*
X0149339Y0148800D03*
X0139339Y0166800D03*
D47*
X0140539Y0183200D03*
X0140939Y0183200D03*
X0141339Y0183200D03*
X0141739Y0183200D03*
X0142139Y0183200D03*
X0142539Y0183200D03*
X0142939Y0183200D03*
X0143339Y0183200D03*
X0143739Y0183200D03*
X0149739Y0149200D03*
X0163339Y0114400D03*
X0144539Y0106400D03*
X0134539Y0049600D03*
D48*
X0148539Y0049000D03*
X0155739Y0118600D03*
X0148939Y0148600D03*
X0134939Y0148600D03*
X0138939Y0166600D03*
X0146939Y0182600D03*
X0147339Y0182600D03*
X0147739Y0182600D03*
X0148139Y0182600D03*
X0148539Y0182600D03*
X0148939Y0182600D03*
X0149339Y0182600D03*
X0149739Y0182600D03*
D49*
X0138539Y0166800D03*
X0135339Y0148400D03*
X0148139Y0148400D03*
X0148539Y0148400D03*
X0138939Y0067200D03*
X0138539Y0067200D03*
X0135339Y0048800D03*
X0148139Y0048800D03*
D50*
X0147739Y0048600D03*
X0147339Y0048600D03*
X0136139Y0048600D03*
X0135739Y0048600D03*
X0138139Y0067400D03*
X0135739Y0148200D03*
X0147739Y0148200D03*
X0138139Y0166600D03*
X0137739Y0166600D03*
D51*
X0137339Y0166800D03*
X0136539Y0148000D03*
X0136139Y0148000D03*
X0146539Y0148000D03*
X0146939Y0148000D03*
X0147339Y0148000D03*
X0155339Y0118400D03*
X0162939Y0114400D03*
X0137739Y0067200D03*
X0137339Y0067200D03*
X0136939Y0048400D03*
X0136539Y0048400D03*
X0146539Y0048400D03*
X0146939Y0048400D03*
D52*
X0137739Y0048200D03*
X0137339Y0048200D03*
X0136939Y0067400D03*
X0136939Y0147800D03*
X0137339Y0147800D03*
X0137739Y0147800D03*
X0136939Y0166600D03*
X0136539Y0166600D03*
D53*
X0154939Y0118400D03*
X0136539Y0067200D03*
D54*
X0145339Y0067400D03*
X0142939Y0109000D03*
X0150539Y0115000D03*
X0159739Y0114600D03*
X0163739Y0114200D03*
X0142939Y0120200D03*
X0137339Y0121800D03*
X0145339Y0166600D03*
X0145739Y0166600D03*
D55*
X0137739Y0122000D03*
X0143339Y0108400D03*
X0156139Y0120800D03*
X0162539Y0110800D03*
X0144939Y0067200D03*
D56*
X0144539Y0067400D03*
X0150939Y0115000D03*
X0144939Y0166600D03*
D57*
X0154139Y0115800D03*
X0145339Y0106200D03*
X0144939Y0106200D03*
X0149739Y0049800D03*
D58*
X0146539Y0105600D03*
X0150139Y0149600D03*
D59*
X0151339Y0115000D03*
X0146939Y0105400D03*
D60*
X0154539Y0118400D03*
D61*
X0199639Y0006791D03*
X0199639Y0006591D03*
X0199639Y0006391D03*
X0199639Y0006191D03*
X0199639Y0005991D03*
X0199639Y0005791D03*
D62*
X0183539Y0006991D03*
D63*
X0183939Y0011391D03*
X0175539Y0011191D03*
X0183739Y0023191D03*
X0199139Y0024391D03*
X0201339Y0021391D03*
X0203739Y0014791D03*
X0201139Y0006991D03*
X0215939Y0016591D03*
X0218339Y0014791D03*
X0218139Y0024391D03*
X0213739Y0024391D03*
D64*
X0208039Y0006991D03*
D65*
X0202639Y0009991D03*
X0202639Y0010191D03*
X0201239Y0009191D03*
X0199439Y0009391D03*
X0199439Y0009591D03*
X0199439Y0008391D03*
X0199439Y0008191D03*
X0199439Y0007991D03*
X0199439Y0007791D03*
X0196839Y0016591D03*
X0196639Y0016991D03*
X0196439Y0017191D03*
X0196439Y0017391D03*
X0196239Y0017591D03*
X0196239Y0017791D03*
X0196039Y0018191D03*
X0196039Y0018391D03*
X0196039Y0018591D03*
X0196039Y0020591D03*
X0196039Y0020791D03*
X0196039Y0020991D03*
X0196239Y0021391D03*
X0196239Y0021591D03*
X0196439Y0021791D03*
X0196439Y0021991D03*
X0196639Y0022191D03*
X0196839Y0022591D03*
X0206039Y0022391D03*
X0206239Y0021991D03*
X0206439Y0021791D03*
X0206439Y0021591D03*
X0206639Y0021191D03*
X0206639Y0020991D03*
X0206639Y0020791D03*
X0206639Y0018191D03*
X0206639Y0017991D03*
X0206439Y0017591D03*
X0206439Y0017391D03*
X0206239Y0017191D03*
X0206039Y0016791D03*
X0210639Y0018191D03*
X0210639Y0018391D03*
X0210639Y0018591D03*
X0210839Y0017791D03*
X0210839Y0017591D03*
X0211039Y0017391D03*
X0211039Y0017191D03*
X0211239Y0016791D03*
X0211439Y0016591D03*
X0214039Y0018591D03*
X0215839Y0016391D03*
X0220639Y0016791D03*
X0220839Y0016991D03*
X0220839Y0017191D03*
X0221039Y0017591D03*
X0221039Y0017791D03*
X0221239Y0018191D03*
X0221239Y0018391D03*
X0221239Y0020791D03*
X0221239Y0020991D03*
X0221039Y0021391D03*
X0221039Y0021591D03*
X0220839Y0021791D03*
X0220839Y0021991D03*
X0220639Y0022391D03*
X0211439Y0022591D03*
X0211239Y0022391D03*
X0211239Y0022191D03*
X0211039Y0021991D03*
X0211039Y0021791D03*
X0210839Y0021591D03*
X0210839Y0021391D03*
X0210639Y0020991D03*
X0210639Y0020791D03*
X0210639Y0020591D03*
X0215639Y0009791D03*
X0215639Y0009591D03*
X0213839Y0007791D03*
X0215039Y0006991D03*
X0183439Y0015991D03*
X0182039Y0014791D03*
X0178839Y0015991D03*
D66*
X0177339Y0014991D03*
X0174539Y0011991D03*
X0174739Y0011791D03*
X0174939Y0011591D03*
X0184339Y0011791D03*
X0184739Y0022391D03*
X0184539Y0022591D03*
X0184339Y0022791D03*
X0174939Y0022791D03*
X0198539Y0024191D03*
X0204139Y0024191D03*
X0213139Y0024191D03*
X0218739Y0024191D03*
X0218739Y0014991D03*
X0215539Y0010391D03*
X0213139Y0014991D03*
X0216939Y0006991D03*
X0198539Y0014991D03*
D67*
X0191939Y0009991D03*
X0224339Y0008191D03*
X0224339Y0007991D03*
X0224339Y0006991D03*
D68*
X0183439Y0007191D03*
X0183439Y0007391D03*
D69*
X0179539Y0009191D03*
X0173939Y0012591D03*
X0173739Y0012791D03*
X0173539Y0012991D03*
X0173539Y0013191D03*
X0173339Y0013391D03*
X0176339Y0015791D03*
X0180939Y0015791D03*
X0185339Y0012791D03*
X0185539Y0012991D03*
X0185739Y0013191D03*
X0185939Y0013591D03*
X0185939Y0020991D03*
X0185739Y0021191D03*
X0185539Y0021391D03*
X0185339Y0021791D03*
X0185139Y0021991D03*
X0173739Y0021591D03*
X0173539Y0021391D03*
X0173539Y0021191D03*
X0173339Y0020991D03*
X0197939Y0023791D03*
X0204539Y0023991D03*
X0204739Y0023791D03*
X0201339Y0018591D03*
X0201339Y0018391D03*
X0201339Y0018191D03*
X0201339Y0017991D03*
X0201339Y0017791D03*
X0201339Y0017591D03*
X0201339Y0017391D03*
X0201339Y0017191D03*
X0201339Y0016991D03*
X0201339Y0016791D03*
X0201339Y0016591D03*
X0201339Y0016391D03*
X0201339Y0016191D03*
X0201339Y0015991D03*
X0201339Y0015791D03*
X0204739Y0015391D03*
X0197939Y0015391D03*
X0197739Y0015591D03*
X0212539Y0015391D03*
X0214539Y0017591D03*
X0213939Y0020191D03*
X0214539Y0021391D03*
X0217539Y0021391D03*
X0217739Y0021191D03*
X0219339Y0023791D03*
X0219139Y0023991D03*
X0212739Y0023991D03*
X0212539Y0023791D03*
X0212339Y0023591D03*
X0219339Y0015391D03*
X0201339Y0007191D03*
D70*
X0207939Y0007191D03*
D71*
X0202639Y0009391D03*
X0202639Y0009591D03*
X0213839Y0007591D03*
X0215039Y0007191D03*
X0215239Y0007391D03*
X0215239Y0007591D03*
X0215439Y0007791D03*
X0215439Y0007991D03*
X0215439Y0008191D03*
X0201439Y0021791D03*
D72*
X0201439Y0022591D03*
X0205039Y0023591D03*
X0205239Y0023391D03*
X0205439Y0023191D03*
X0212039Y0023391D03*
X0214239Y0021191D03*
X0214239Y0020991D03*
X0214039Y0019991D03*
X0214039Y0018391D03*
X0214239Y0017791D03*
X0212039Y0015791D03*
X0212239Y0015591D03*
X0217639Y0017791D03*
X0217839Y0017991D03*
X0217839Y0018191D03*
X0218039Y0018391D03*
X0218039Y0020591D03*
X0217839Y0020991D03*
X0216039Y0022591D03*
X0219639Y0023591D03*
X0219839Y0023391D03*
X0220039Y0015991D03*
X0219839Y0015791D03*
X0219639Y0015591D03*
X0215639Y0010191D03*
X0215239Y0008991D03*
X0216839Y0007191D03*
X0202639Y0010391D03*
X0201239Y0008791D03*
X0201439Y0007391D03*
X0205039Y0015591D03*
X0205239Y0015791D03*
X0205439Y0015991D03*
X0197439Y0015791D03*
X0197439Y0023391D03*
X0197639Y0023591D03*
X0186439Y0019991D03*
X0186439Y0019791D03*
X0186239Y0020191D03*
X0186239Y0020391D03*
X0186039Y0020591D03*
X0186039Y0020791D03*
X0186639Y0019191D03*
X0186839Y0018191D03*
X0186839Y0017991D03*
X0186839Y0017791D03*
X0186839Y0017591D03*
X0186839Y0016791D03*
X0186839Y0016591D03*
X0186839Y0016391D03*
X0186839Y0016191D03*
X0186639Y0015191D03*
X0186439Y0014591D03*
X0186239Y0014191D03*
X0186239Y0013991D03*
X0186039Y0013791D03*
X0185839Y0013391D03*
X0183239Y0015791D03*
X0180639Y0015991D03*
X0178639Y0015791D03*
X0176039Y0015991D03*
X0175839Y0016391D03*
X0176039Y0018391D03*
X0176239Y0018591D03*
X0177439Y0019591D03*
X0178639Y0018591D03*
X0180639Y0018391D03*
X0180839Y0018591D03*
X0182039Y0019591D03*
X0183239Y0018591D03*
X0173239Y0020791D03*
X0173039Y0020591D03*
X0173039Y0020391D03*
X0172839Y0020191D03*
X0172839Y0019991D03*
X0172639Y0019791D03*
X0172639Y0019591D03*
X0172439Y0018991D03*
X0172239Y0017591D03*
X0172239Y0017391D03*
X0172239Y0017191D03*
X0172239Y0016991D03*
X0172239Y0016791D03*
X0172439Y0015591D03*
X0172439Y0015391D03*
X0172639Y0014991D03*
X0172639Y0014791D03*
X0172639Y0014591D03*
X0172839Y0014391D03*
X0172839Y0014191D03*
X0173039Y0013991D03*
X0173039Y0013791D03*
X0173239Y0013591D03*
D73*
X0192139Y0010391D03*
X0224539Y0007191D03*
D74*
X0208039Y0008791D03*
X0207839Y0007391D03*
D75*
X0201539Y0007591D03*
X0201539Y0007791D03*
X0201539Y0007991D03*
X0201539Y0008191D03*
X0201539Y0008391D03*
X0201339Y0008591D03*
X0201139Y0008991D03*
X0197339Y0015991D03*
X0197139Y0016191D03*
X0196939Y0016391D03*
X0196739Y0016791D03*
X0196739Y0022391D03*
X0196939Y0022791D03*
X0197139Y0022991D03*
X0197339Y0023191D03*
X0201339Y0022991D03*
X0201339Y0022791D03*
X0201339Y0022391D03*
X0201339Y0022191D03*
X0205539Y0022991D03*
X0205739Y0022791D03*
X0205939Y0022591D03*
X0206139Y0022191D03*
X0211539Y0022791D03*
X0211739Y0022991D03*
X0211939Y0023191D03*
X0214139Y0020791D03*
X0214139Y0020591D03*
X0214139Y0018191D03*
X0214139Y0017991D03*
X0211939Y0015991D03*
X0211739Y0016191D03*
X0211539Y0016391D03*
X0211139Y0016991D03*
X0206139Y0016991D03*
X0205939Y0016591D03*
X0205739Y0016391D03*
X0205539Y0016191D03*
X0213739Y0007991D03*
X0215739Y0009991D03*
X0216939Y0007591D03*
X0216939Y0007391D03*
X0220139Y0016191D03*
X0220339Y0016391D03*
X0220539Y0016591D03*
X0218139Y0018591D03*
X0218139Y0018791D03*
X0218139Y0018991D03*
X0218139Y0019191D03*
X0218139Y0019391D03*
X0218139Y0019591D03*
X0218139Y0019791D03*
X0218139Y0019991D03*
X0218139Y0020191D03*
X0218139Y0020391D03*
X0217939Y0020791D03*
X0220139Y0022991D03*
X0219939Y0023191D03*
X0220339Y0022791D03*
X0220539Y0022591D03*
X0220739Y0022191D03*
X0186939Y0017391D03*
X0186939Y0017191D03*
X0186939Y0016991D03*
X0186739Y0015991D03*
X0186739Y0015791D03*
X0186739Y0015591D03*
X0186739Y0015391D03*
X0186539Y0014991D03*
X0186539Y0014791D03*
X0186339Y0014391D03*
X0186739Y0018391D03*
X0186739Y0018591D03*
X0186739Y0018791D03*
X0186739Y0018991D03*
X0186539Y0019391D03*
X0186539Y0019591D03*
X0180539Y0018191D03*
X0180539Y0017991D03*
X0180339Y0017791D03*
X0180339Y0017591D03*
X0180339Y0017391D03*
X0180339Y0017191D03*
X0180339Y0016991D03*
X0180339Y0016791D03*
X0180339Y0016591D03*
X0180539Y0016391D03*
X0180539Y0016191D03*
X0177339Y0014791D03*
X0175939Y0016191D03*
X0175739Y0016591D03*
X0175739Y0016791D03*
X0175739Y0016991D03*
X0175739Y0017191D03*
X0175739Y0017391D03*
X0175739Y0017591D03*
X0175739Y0017791D03*
X0175739Y0017991D03*
X0175939Y0018191D03*
X0172539Y0019191D03*
X0172539Y0019391D03*
X0172339Y0018791D03*
X0172339Y0018591D03*
X0172339Y0018391D03*
X0172339Y0018191D03*
X0172339Y0017991D03*
X0172339Y0017791D03*
X0172339Y0016591D03*
X0172339Y0016391D03*
X0172339Y0016191D03*
X0172339Y0015991D03*
X0172339Y0015791D03*
X0172539Y0015191D03*
D76*
X0192039Y0010191D03*
X0224439Y0007791D03*
X0224439Y0007591D03*
X0224439Y0007391D03*
D77*
X0173339Y0007591D03*
D78*
X0189739Y0007591D03*
D79*
X0207739Y0007591D03*
X0207739Y0007791D03*
X0207739Y0007991D03*
D80*
X0179539Y0024191D03*
X0172939Y0007791D03*
D81*
X0190139Y0007791D03*
D82*
X0172639Y0007991D03*
X0179639Y0024391D03*
D83*
X0190439Y0007991D03*
D84*
X0172339Y0008191D03*
D85*
X0190639Y0008191D03*
D86*
X0208639Y0008191D03*
D87*
X0215939Y0014591D03*
X0201339Y0014591D03*
X0201339Y0024591D03*
X0215939Y0024591D03*
X0179539Y0024591D03*
X0179539Y0009791D03*
X0172139Y0008391D03*
D88*
X0190839Y0008391D03*
D89*
X0208439Y0008391D03*
D90*
X0202639Y0009791D03*
X0201239Y0009391D03*
X0199239Y0009791D03*
X0213639Y0009791D03*
X0215439Y0008591D03*
X0215439Y0008391D03*
X0178639Y0018391D03*
D91*
X0178539Y0016391D03*
X0201339Y0023391D03*
X0213939Y0019391D03*
X0216939Y0009191D03*
X0216939Y0008991D03*
X0216939Y0008391D03*
D92*
X0224239Y0008391D03*
X0224239Y0008591D03*
X0224239Y0008791D03*
X0191839Y0009791D03*
D93*
X0171939Y0008591D03*
D94*
X0191039Y0008591D03*
D95*
X0208239Y0008591D03*
D96*
X0201139Y0009591D03*
X0201139Y0009791D03*
X0200939Y0009991D03*
X0200739Y0010191D03*
X0213939Y0019591D03*
X0229939Y0026591D03*
X0230139Y0026391D03*
X0230139Y0026191D03*
X0230139Y0025991D03*
X0230139Y0025791D03*
X0230139Y0025591D03*
X0230139Y0025391D03*
X0230139Y0025191D03*
X0230139Y0024991D03*
X0230139Y0024791D03*
X0230139Y0024591D03*
X0230139Y0024391D03*
X0230139Y0024191D03*
X0230139Y0023991D03*
X0230139Y0023791D03*
X0230139Y0023591D03*
X0230139Y0023391D03*
X0230139Y0023191D03*
X0230139Y0022991D03*
X0230139Y0022791D03*
X0230139Y0022591D03*
X0230139Y0022391D03*
X0230139Y0022191D03*
X0230139Y0021991D03*
X0230139Y0021791D03*
X0230139Y0021591D03*
X0230139Y0021391D03*
X0230139Y0021191D03*
X0230139Y0020991D03*
X0230139Y0020791D03*
X0230139Y0020591D03*
X0230139Y0020391D03*
X0230139Y0020191D03*
X0230139Y0019991D03*
X0230139Y0019791D03*
X0230139Y0019591D03*
X0230139Y0019391D03*
X0230139Y0019191D03*
X0230139Y0018991D03*
X0230139Y0018791D03*
X0230139Y0018591D03*
X0230139Y0018391D03*
X0230139Y0018191D03*
X0230139Y0017991D03*
X0230139Y0017791D03*
X0230139Y0017591D03*
X0230139Y0017391D03*
X0230139Y0017191D03*
X0230139Y0016991D03*
X0230139Y0016791D03*
X0230139Y0016591D03*
X0230139Y0016391D03*
X0230139Y0016191D03*
X0230139Y0015991D03*
X0230139Y0015791D03*
X0230139Y0015591D03*
X0230139Y0015391D03*
X0230139Y0015191D03*
X0230139Y0014991D03*
X0230139Y0014791D03*
X0230139Y0014591D03*
X0230139Y0014391D03*
X0230139Y0014191D03*
X0230139Y0013991D03*
X0230139Y0013791D03*
X0230139Y0013591D03*
X0230139Y0013391D03*
X0230139Y0013191D03*
X0230139Y0012991D03*
X0230139Y0012791D03*
X0230139Y0012591D03*
X0230139Y0012391D03*
X0230139Y0012191D03*
X0216939Y0008791D03*
X0216939Y0008591D03*
X0183339Y0016191D03*
X0183139Y0018191D03*
X0178539Y0018191D03*
X0178739Y0016191D03*
X0169139Y0016191D03*
X0169139Y0016391D03*
X0169139Y0016591D03*
X0169139Y0016791D03*
X0169139Y0016991D03*
X0169139Y0017191D03*
X0169139Y0017391D03*
X0169139Y0017591D03*
X0169139Y0017791D03*
X0169139Y0017991D03*
X0169139Y0018191D03*
X0169139Y0018391D03*
X0169139Y0018591D03*
X0169139Y0018791D03*
X0169139Y0018991D03*
X0169139Y0019191D03*
X0169139Y0019391D03*
X0169139Y0019591D03*
X0169139Y0019791D03*
X0169139Y0019991D03*
X0169139Y0020191D03*
X0169139Y0020391D03*
X0169139Y0020591D03*
X0169139Y0020791D03*
X0169139Y0020991D03*
X0169139Y0021191D03*
X0169139Y0021391D03*
X0169139Y0021591D03*
X0169139Y0021791D03*
X0169139Y0021991D03*
X0169139Y0022191D03*
X0169139Y0022391D03*
X0169139Y0022591D03*
X0169139Y0022791D03*
X0169139Y0022991D03*
X0169139Y0023191D03*
X0169139Y0023391D03*
X0169139Y0023591D03*
X0169139Y0023791D03*
X0169139Y0023991D03*
X0169139Y0024191D03*
X0169139Y0024391D03*
X0169139Y0024591D03*
X0169139Y0024791D03*
X0169139Y0024991D03*
X0169139Y0025191D03*
X0169139Y0025391D03*
X0169139Y0025591D03*
X0169139Y0025791D03*
X0169139Y0025991D03*
X0169139Y0026191D03*
X0169139Y0026391D03*
X0169339Y0026591D03*
X0169139Y0015991D03*
X0169139Y0015791D03*
X0169139Y0015591D03*
X0169139Y0015391D03*
X0169139Y0015191D03*
X0169139Y0014991D03*
X0169139Y0014791D03*
X0169139Y0014591D03*
X0169139Y0014391D03*
X0169139Y0014191D03*
X0169139Y0013991D03*
X0169139Y0013791D03*
X0169139Y0013591D03*
X0169139Y0013391D03*
X0169139Y0013191D03*
X0169139Y0012991D03*
X0169139Y0012791D03*
X0169139Y0012591D03*
X0169139Y0012391D03*
X0169139Y0012191D03*
D97*
X0171739Y0008791D03*
X0179539Y0024791D03*
X0215939Y0024791D03*
X0215939Y0014391D03*
D98*
X0191239Y0008791D03*
D99*
X0199339Y0009191D03*
X0200539Y0010391D03*
X0206539Y0017791D03*
X0206739Y0018391D03*
X0206739Y0018591D03*
X0206739Y0018791D03*
X0206739Y0018991D03*
X0206739Y0019191D03*
X0206739Y0019391D03*
X0206739Y0019591D03*
X0206739Y0019791D03*
X0206739Y0019991D03*
X0206739Y0020191D03*
X0206739Y0020391D03*
X0206739Y0020591D03*
X0206539Y0021391D03*
X0210539Y0020391D03*
X0210539Y0020191D03*
X0210539Y0019991D03*
X0210539Y0019791D03*
X0210539Y0019591D03*
X0210539Y0019391D03*
X0210539Y0019191D03*
X0210539Y0018991D03*
X0210539Y0018791D03*
X0210739Y0017991D03*
X0210739Y0021191D03*
X0213939Y0019791D03*
X0221139Y0021191D03*
X0221339Y0020591D03*
X0221339Y0020391D03*
X0221339Y0020191D03*
X0221339Y0019991D03*
X0221339Y0019791D03*
X0221339Y0019591D03*
X0221339Y0019391D03*
X0221339Y0019191D03*
X0221339Y0018991D03*
X0221339Y0018791D03*
X0221339Y0018591D03*
X0221139Y0017991D03*
X0220939Y0017391D03*
X0215339Y0008791D03*
X0213739Y0009591D03*
X0201339Y0021991D03*
X0201339Y0023191D03*
X0196139Y0021191D03*
X0195939Y0020391D03*
X0195939Y0020191D03*
X0195939Y0019991D03*
X0195939Y0019791D03*
X0195939Y0019591D03*
X0195939Y0019391D03*
X0195939Y0019191D03*
X0195939Y0018991D03*
X0195939Y0018791D03*
X0196139Y0017991D03*
X0183339Y0018391D03*
D100*
X0171639Y0008991D03*
D101*
X0191339Y0008991D03*
D102*
X0208039Y0008991D03*
D103*
X0224139Y0008991D03*
X0224139Y0009191D03*
X0191739Y0009591D03*
D104*
X0201339Y0014191D03*
X0215939Y0014191D03*
X0215939Y0024991D03*
X0201339Y0024991D03*
X0179539Y0009591D03*
X0171539Y0009191D03*
D105*
X0191539Y0009191D03*
X0223939Y0009991D03*
X0223939Y0010191D03*
X0223939Y0010391D03*
D106*
X0208639Y0010391D03*
X0208039Y0009391D03*
X0208039Y0009191D03*
X0179639Y0023991D03*
D107*
X0175439Y0023191D03*
X0175039Y0022991D03*
X0177439Y0019391D03*
X0182039Y0019391D03*
X0184039Y0022991D03*
X0182039Y0014991D03*
X0184239Y0011591D03*
X0175239Y0011391D03*
X0199039Y0014791D03*
X0213639Y0014791D03*
X0214839Y0009191D03*
D108*
X0171339Y0009391D03*
D109*
X0170939Y0010191D03*
X0177139Y0010591D03*
X0179539Y0009391D03*
X0182139Y0010591D03*
X0215939Y0017191D03*
X0215939Y0021791D03*
D110*
X0224039Y0009791D03*
X0224039Y0009591D03*
X0224039Y0009391D03*
X0191639Y0009391D03*
D111*
X0183639Y0011191D03*
X0183239Y0010991D03*
X0182039Y0015191D03*
X0170239Y0011991D03*
X0175839Y0023391D03*
X0183439Y0023391D03*
X0203639Y0024391D03*
X0216039Y0022391D03*
X0214639Y0009391D03*
D112*
X0171239Y0009591D03*
D113*
X0179539Y0010391D03*
X0208139Y0009791D03*
X0208139Y0009591D03*
X0208339Y0009991D03*
D114*
X0201339Y0013991D03*
X0215939Y0013991D03*
X0215939Y0017391D03*
X0179539Y0024991D03*
X0171139Y0009791D03*
D115*
X0171039Y0009991D03*
X0201439Y0025191D03*
X0216039Y0025191D03*
X0216039Y0021591D03*
D116*
X0179639Y0009991D03*
D117*
X0179639Y0010191D03*
D118*
X0208439Y0010191D03*
D119*
X0176839Y0023791D03*
X0170839Y0010391D03*
D120*
X0170739Y0010591D03*
X0177339Y0015591D03*
X0177339Y0018791D03*
X0181939Y0018791D03*
X0182339Y0023791D03*
X0215939Y0021991D03*
X0215939Y0016991D03*
D121*
X0208439Y0010591D03*
D122*
X0182039Y0015591D03*
X0182039Y0018991D03*
X0170639Y0010791D03*
D123*
X0170539Y0010991D03*
X0170539Y0011191D03*
X0176339Y0010791D03*
X0177339Y0015391D03*
X0177339Y0018991D03*
X0181939Y0015391D03*
X0201339Y0013791D03*
X0215939Y0013791D03*
X0215939Y0016791D03*
X0215939Y0022191D03*
D124*
X0183039Y0023591D03*
X0176239Y0023591D03*
X0170439Y0011391D03*
X0182839Y0010791D03*
D125*
X0208539Y0010791D03*
D126*
X0201339Y0018791D03*
X0201339Y0018991D03*
X0201339Y0019191D03*
X0201339Y0019391D03*
X0201339Y0019591D03*
X0201339Y0019791D03*
X0201339Y0019991D03*
X0201339Y0020191D03*
X0201339Y0020391D03*
X0201339Y0020591D03*
X0201339Y0020791D03*
X0201339Y0020991D03*
X0201339Y0021191D03*
X0201339Y0025391D03*
X0215939Y0025391D03*
X0181939Y0019191D03*
X0177339Y0019191D03*
X0177339Y0015191D03*
X0175939Y0010991D03*
X0170339Y0011591D03*
X0170339Y0011791D03*
X0179539Y0025191D03*
D127*
X0208639Y0011191D03*
X0208639Y0010991D03*
D128*
X0208739Y0011391D03*
D129*
X0208839Y0011591D03*
D130*
X0208939Y0011791D03*
X0208939Y0011991D03*
D131*
X0212839Y0015191D03*
X0217439Y0017591D03*
X0219039Y0015191D03*
X0214039Y0020391D03*
X0204439Y0015191D03*
X0204239Y0014991D03*
X0198239Y0015191D03*
X0185239Y0012591D03*
X0185039Y0012391D03*
X0184839Y0012191D03*
X0184639Y0011991D03*
X0174239Y0012191D03*
X0174039Y0012391D03*
X0173839Y0021791D03*
X0174039Y0021991D03*
X0174239Y0022191D03*
X0174439Y0022391D03*
X0174639Y0022591D03*
X0185039Y0022191D03*
X0185439Y0021591D03*
X0198239Y0023991D03*
D132*
X0201439Y0024791D03*
X0201439Y0014391D03*
D133*
X0199639Y0026791D03*
D134*
X0199639Y0026991D03*
D135*
X0199639Y0027191D03*
D136*
X0296589Y0139741D02*
X0296589Y0142243D01*
X0297840Y0142243D01*
X0298257Y0141826D01*
X0298257Y0140992D01*
X0297840Y0140575D01*
X0296589Y0140575D01*
X0297423Y0140575D02*
X0298257Y0139741D01*
X0299535Y0140158D02*
X0299535Y0140575D01*
X0299952Y0140992D01*
X0300786Y0140992D01*
X0301203Y0140575D01*
X0301203Y0140158D01*
X0300786Y0139741D01*
X0299952Y0139741D01*
X0299535Y0140158D01*
X0299952Y0140992D02*
X0299535Y0141409D01*
X0299535Y0141826D01*
X0299952Y0142243D01*
X0300786Y0142243D01*
X0301203Y0141826D01*
X0301203Y0141409D01*
X0300786Y0140992D01*
X0304026Y0140750D02*
X0305277Y0140750D01*
X0305694Y0141167D01*
X0305694Y0142001D01*
X0305277Y0142418D01*
X0304026Y0142418D01*
X0304026Y0139916D01*
X0304860Y0140750D02*
X0305694Y0139916D01*
X0306973Y0139916D02*
X0306973Y0140333D01*
X0308641Y0142001D01*
X0308641Y0142418D01*
X0306973Y0142418D01*
X0311003Y0142501D02*
X0311003Y0139999D01*
X0311003Y0140833D02*
X0312254Y0140833D01*
X0312671Y0141250D01*
X0312671Y0142084D01*
X0312254Y0142501D01*
X0311003Y0142501D01*
X0311837Y0140833D02*
X0312671Y0139999D01*
X0313950Y0140416D02*
X0314367Y0139999D01*
X0315201Y0139999D01*
X0315618Y0140416D01*
X0315618Y0140833D01*
X0315201Y0141250D01*
X0313950Y0141250D01*
X0313950Y0140416D01*
X0313950Y0141250D02*
X0314784Y0142084D01*
X0315618Y0142501D01*
X0317845Y0142574D02*
X0317845Y0140072D01*
X0317845Y0140906D02*
X0319096Y0140906D01*
X0319513Y0141323D01*
X0319513Y0142157D01*
X0319096Y0142574D01*
X0317845Y0142574D01*
X0318679Y0140906D02*
X0319513Y0140072D01*
X0320791Y0140489D02*
X0321208Y0140072D01*
X0322042Y0140072D01*
X0322459Y0140489D01*
X0322459Y0141323D01*
X0322042Y0141740D01*
X0321625Y0141740D01*
X0320791Y0141323D01*
X0320791Y0142574D01*
X0322459Y0142574D01*
X0324451Y0142574D02*
X0324451Y0140072D01*
X0324451Y0140906D02*
X0325702Y0140906D01*
X0326119Y0141323D01*
X0326119Y0142157D01*
X0325702Y0142574D01*
X0324451Y0142574D01*
X0325285Y0140906D02*
X0326119Y0140072D01*
X0327398Y0141323D02*
X0329066Y0141323D01*
X0328649Y0140072D02*
X0328649Y0142574D01*
X0327398Y0141323D01*
X0331451Y0140906D02*
X0332702Y0140906D01*
X0333119Y0141323D01*
X0333119Y0142157D01*
X0332702Y0142574D01*
X0331451Y0142574D01*
X0331451Y0140072D01*
X0332285Y0140906D02*
X0333119Y0140072D01*
X0334398Y0140489D02*
X0334815Y0140072D01*
X0335649Y0140072D01*
X0336066Y0140489D01*
X0336066Y0140906D01*
X0335649Y0141323D01*
X0335232Y0141323D01*
X0335649Y0141323D02*
X0336066Y0141740D01*
X0336066Y0142157D01*
X0335649Y0142574D01*
X0334815Y0142574D01*
X0334398Y0142157D01*
X0338451Y0142574D02*
X0338451Y0140072D01*
X0338451Y0140906D02*
X0339702Y0140906D01*
X0340119Y0141323D01*
X0340119Y0142157D01*
X0339702Y0142574D01*
X0338451Y0142574D01*
X0339285Y0140906D02*
X0340119Y0140072D01*
X0341398Y0140072D02*
X0343066Y0141740D01*
X0343066Y0142157D01*
X0342649Y0142574D01*
X0341815Y0142574D01*
X0341398Y0142157D01*
X0341398Y0140072D02*
X0343066Y0140072D01*
X0345451Y0140072D02*
X0345451Y0142574D01*
X0346702Y0142574D01*
X0347119Y0142157D01*
X0347119Y0141323D01*
X0346702Y0140906D01*
X0345451Y0140906D01*
X0346285Y0140906D02*
X0347119Y0140072D01*
X0348398Y0140072D02*
X0350066Y0140072D01*
X0349232Y0140072D02*
X0349232Y0142574D01*
X0348398Y0141740D01*
X0359261Y0142197D02*
X0359678Y0141780D01*
X0360512Y0141780D01*
X0360930Y0142197D01*
X0362208Y0142197D02*
X0363876Y0143865D01*
X0363876Y0144282D01*
X0362208Y0144282D01*
X0360930Y0143865D02*
X0360512Y0144282D01*
X0359678Y0144282D01*
X0359261Y0143865D01*
X0359261Y0142197D01*
X0362208Y0142197D02*
X0362208Y0141780D01*
X0366742Y0142197D02*
X0366742Y0143865D01*
X0367159Y0144282D01*
X0367993Y0144282D01*
X0368410Y0143865D01*
X0369688Y0143031D02*
X0370939Y0143031D01*
X0371356Y0142614D01*
X0371356Y0142197D01*
X0370939Y0141780D01*
X0370105Y0141780D01*
X0369688Y0142197D01*
X0369688Y0143031D01*
X0370522Y0143865D01*
X0371356Y0144282D01*
X0368410Y0142197D02*
X0367993Y0141780D01*
X0367159Y0141780D01*
X0366742Y0142197D01*
X0325443Y0166639D02*
X0325443Y0169639D01*
X0320443Y0169639D02*
X0320443Y0166639D01*
X0320829Y0175509D02*
X0321663Y0175509D01*
X0322080Y0175926D01*
X0323358Y0175926D02*
X0323775Y0175509D01*
X0324609Y0175509D01*
X0325026Y0175926D01*
X0325026Y0176343D01*
X0324609Y0176760D01*
X0324192Y0176760D01*
X0324609Y0176760D02*
X0325026Y0177177D01*
X0325026Y0177594D01*
X0324609Y0178011D01*
X0323775Y0178011D01*
X0323358Y0177594D01*
X0322080Y0177594D02*
X0321663Y0178011D01*
X0320829Y0178011D01*
X0320412Y0177594D01*
X0320412Y0175926D01*
X0320829Y0175509D01*
X0314321Y0178500D02*
X0314321Y0181003D01*
X0313070Y0179751D01*
X0314738Y0179751D01*
X0311792Y0178917D02*
X0311375Y0178500D01*
X0310541Y0178500D01*
X0310124Y0178917D01*
X0310124Y0180586D01*
X0310541Y0181003D01*
X0311375Y0181003D01*
X0311792Y0180586D01*
X0279774Y0169639D02*
X0279774Y0166639D01*
X0274774Y0166639D02*
X0274774Y0169639D01*
X0272420Y0169793D02*
X0272420Y0168125D01*
X0270752Y0169793D01*
X0270335Y0169793D01*
X0269918Y0169376D01*
X0269918Y0168542D01*
X0270335Y0168125D01*
X0270335Y0166846D02*
X0269918Y0166429D01*
X0269918Y0165595D01*
X0270335Y0165178D01*
X0272003Y0165178D01*
X0272420Y0165595D01*
X0272420Y0166429D01*
X0272003Y0166846D01*
D137*
X0297419Y0134206D02*
X0297419Y0131206D01*
X0301419Y0131206D02*
X0301419Y0134206D01*
X0304309Y0134206D02*
X0304309Y0131206D01*
X0308309Y0131206D02*
X0308309Y0134206D01*
X0311199Y0134206D02*
X0311199Y0131206D01*
X0315199Y0131206D02*
X0315199Y0134206D01*
X0318089Y0134206D02*
X0318089Y0131206D01*
X0322089Y0131206D02*
X0322089Y0134206D01*
X0324978Y0134206D02*
X0324978Y0131206D01*
X0328978Y0131206D02*
X0328978Y0134206D01*
X0331868Y0134206D02*
X0331868Y0131206D01*
X0335868Y0131206D02*
X0335868Y0134206D01*
X0338758Y0134206D02*
X0338758Y0131206D01*
X0342758Y0131206D02*
X0342758Y0134206D01*
X0345648Y0134206D02*
X0345648Y0131206D01*
X0349648Y0131206D02*
X0349648Y0134206D01*
X0359427Y0134206D02*
X0359427Y0131206D01*
X0363427Y0131206D02*
X0363427Y0134206D01*
X0366317Y0134206D02*
X0366317Y0131206D01*
X0370317Y0131206D02*
X0370317Y0134206D01*
X0263033Y0216835D02*
X0263033Y0219835D01*
X0259033Y0219835D02*
X0259033Y0216835D01*
X0255159Y0216835D02*
X0255159Y0219835D01*
X0251159Y0219835D02*
X0251159Y0216835D01*
X0326750Y0236520D02*
X0326750Y0239520D01*
X0330750Y0239520D02*
X0330750Y0236520D01*
X0337774Y0227709D02*
X0337774Y0224709D01*
X0341774Y0224709D02*
X0341774Y0227709D01*
X0353522Y0240457D02*
X0353522Y0243457D01*
X0357522Y0243457D02*
X0357522Y0240457D01*
D138*
X0262516Y0029059D02*
X0259157Y0029059D01*
X0258706Y0024613D01*
X0257700Y0024322D01*
X0256733Y0023922D01*
X0255817Y0023417D01*
X0252353Y0026241D01*
X0249978Y0023866D01*
X0252802Y0020403D01*
X0252298Y0019486D01*
X0251897Y0018519D01*
X0251606Y0017514D01*
X0247160Y0017062D01*
X0247160Y0013704D01*
X0251606Y0013252D01*
X0251897Y0012246D01*
X0252298Y0011279D01*
X0252802Y0010363D01*
X0249978Y0006899D01*
X0252353Y0004524D01*
X0255817Y0007348D01*
X0256499Y0006960D01*
X0257211Y0006630D01*
X0259189Y0011404D01*
X0258545Y0011737D01*
X0257967Y0012172D01*
X0257470Y0012698D01*
X0257068Y0013300D01*
X0256772Y0013960D01*
X0256591Y0014661D01*
X0256530Y0015383D01*
X0256606Y0016187D01*
X0256831Y0016962D01*
X0257196Y0017683D01*
X0257689Y0018322D01*
X0258293Y0018858D01*
X0258987Y0019271D01*
X0259746Y0019548D01*
X0260543Y0019679D01*
X0261350Y0019658D01*
X0262139Y0019487D01*
X0262883Y0019172D01*
X0263554Y0018723D01*
X0264130Y0018157D01*
X0264590Y0017493D01*
X0264918Y0016755D01*
X0265103Y0015969D01*
X0265137Y0015162D01*
X0265020Y0014363D01*
X0264756Y0013600D01*
X0264355Y0012900D01*
X0263829Y0012286D01*
X0263198Y0011782D01*
X0262485Y0011404D01*
X0264462Y0006630D01*
X0265174Y0006960D01*
X0265857Y0007348D01*
X0269320Y0004524D01*
X0271695Y0006899D01*
X0268871Y0010363D01*
X0269376Y0011279D01*
X0269776Y0012246D01*
X0270067Y0013252D01*
X0274513Y0013704D01*
X0274513Y0017062D01*
X0270067Y0017514D01*
X0269776Y0018519D01*
X0269376Y0019486D01*
X0268871Y0020403D01*
X0271695Y0023866D01*
X0269320Y0026241D01*
X0265857Y0023417D01*
X0264940Y0023922D01*
X0263973Y0024322D01*
X0262968Y0024613D01*
X0262516Y0029059D01*
X0262532Y0028897D02*
X0259141Y0028897D01*
X0259081Y0028308D02*
X0262592Y0028308D01*
X0262652Y0027719D02*
X0259021Y0027719D01*
X0258961Y0027130D02*
X0262712Y0027130D01*
X0262772Y0026541D02*
X0258901Y0026541D01*
X0258842Y0025952D02*
X0262832Y0025952D01*
X0262892Y0025362D02*
X0258782Y0025362D01*
X0258722Y0024773D02*
X0262951Y0024773D01*
X0264305Y0024184D02*
X0257368Y0024184D01*
X0256141Y0023595D02*
X0265533Y0023595D01*
X0266075Y0023595D02*
X0271474Y0023595D01*
X0271377Y0024184D02*
X0266798Y0024184D01*
X0267520Y0024773D02*
X0270788Y0024773D01*
X0270199Y0025362D02*
X0268243Y0025362D01*
X0268965Y0025952D02*
X0269609Y0025952D01*
X0270994Y0023006D02*
X0250679Y0023006D01*
X0250199Y0023595D02*
X0255598Y0023595D01*
X0254875Y0024184D02*
X0250297Y0024184D01*
X0250886Y0024773D02*
X0254153Y0024773D01*
X0253430Y0025362D02*
X0251475Y0025362D01*
X0252064Y0025952D02*
X0252708Y0025952D01*
X0251160Y0022417D02*
X0270513Y0022417D01*
X0270033Y0021828D02*
X0251640Y0021828D01*
X0252120Y0021239D02*
X0269553Y0021239D01*
X0269072Y0020650D02*
X0252601Y0020650D01*
X0252614Y0020061D02*
X0269059Y0020061D01*
X0269381Y0019472D02*
X0262175Y0019472D01*
X0263315Y0018883D02*
X0269625Y0018883D01*
X0269841Y0018294D02*
X0263991Y0018294D01*
X0264444Y0017705D02*
X0270012Y0017705D01*
X0273984Y0017116D02*
X0264758Y0017116D01*
X0264972Y0016527D02*
X0274513Y0016527D01*
X0274513Y0015937D02*
X0265104Y0015937D01*
X0265129Y0015348D02*
X0274513Y0015348D01*
X0274513Y0014759D02*
X0265078Y0014759D01*
X0264954Y0014170D02*
X0274513Y0014170D01*
X0273310Y0013581D02*
X0264746Y0013581D01*
X0264408Y0012992D02*
X0269992Y0012992D01*
X0269821Y0012403D02*
X0263929Y0012403D01*
X0263239Y0011814D02*
X0269597Y0011814D01*
X0269346Y0011225D02*
X0262559Y0011225D01*
X0262803Y0010636D02*
X0269021Y0010636D01*
X0269128Y0010047D02*
X0263047Y0010047D01*
X0263291Y0009458D02*
X0269609Y0009458D01*
X0270089Y0008869D02*
X0263535Y0008869D01*
X0263779Y0008280D02*
X0270569Y0008280D01*
X0271050Y0007691D02*
X0264023Y0007691D01*
X0264267Y0007102D02*
X0265423Y0007102D01*
X0266159Y0007102D02*
X0271530Y0007102D01*
X0271308Y0006512D02*
X0266882Y0006512D01*
X0267604Y0005923D02*
X0270719Y0005923D01*
X0270130Y0005334D02*
X0268327Y0005334D01*
X0269049Y0004745D02*
X0269541Y0004745D01*
X0258382Y0009458D02*
X0252065Y0009458D01*
X0252545Y0010047D02*
X0258626Y0010047D01*
X0258870Y0010636D02*
X0252652Y0010636D01*
X0252328Y0011225D02*
X0259114Y0011225D01*
X0258442Y0011814D02*
X0252076Y0011814D01*
X0251852Y0012403D02*
X0257748Y0012403D01*
X0257273Y0012992D02*
X0251681Y0012992D01*
X0248363Y0013581D02*
X0256942Y0013581D01*
X0256718Y0014170D02*
X0247160Y0014170D01*
X0247160Y0014759D02*
X0256583Y0014759D01*
X0256533Y0015348D02*
X0247160Y0015348D01*
X0247160Y0015937D02*
X0256583Y0015937D01*
X0256704Y0016527D02*
X0247160Y0016527D01*
X0247689Y0017116D02*
X0256908Y0017116D01*
X0257213Y0017705D02*
X0251661Y0017705D01*
X0251832Y0018294D02*
X0257668Y0018294D01*
X0258335Y0018883D02*
X0252048Y0018883D01*
X0252292Y0019472D02*
X0259536Y0019472D01*
X0258138Y0008869D02*
X0251584Y0008869D01*
X0251104Y0008280D02*
X0257894Y0008280D01*
X0257650Y0007691D02*
X0250624Y0007691D01*
X0250143Y0007102D02*
X0255514Y0007102D01*
X0256251Y0007102D02*
X0257406Y0007102D01*
X0254791Y0006512D02*
X0250365Y0006512D01*
X0250954Y0005923D02*
X0254069Y0005923D01*
X0253346Y0005334D02*
X0251543Y0005334D01*
X0252132Y0004745D02*
X0252624Y0004745D01*
M02*
